<?xml version="1.0" encoding="utf-8"?>
<!-- Generator: Adobe Illustrator 12.0.1, SVG Export Plug-In . SVG Version: 6.00 Build 51448)  -->
<!DOCTYPE svg PUBLIC "-//W3C//DTD SVG 1.1//EN" "http://www.w3.org/Graphics/SVG/1.1/DTD/svg11.dtd" [
	<!ENTITY ns_svg "http://www.w3.org/2000/svg">
	<!ENTITY ns_xlink "http://www.w3.org/1999/xlink">
]>
<svg  version="1.1" id="Layer_1" xmlns="&ns_svg;" xmlns:xlink="&ns_xlink;" width="446.155" height="373.98"
	 viewBox="0 0 446.155 373.98" overflow="visible" enable-background="new 0 0 446.155 373.98" xml:space="preserve">
<g>
	<path fill-rule="evenodd" clip-rule="evenodd" fill="#FFFFFF" d="M186.24,54.3c1.321,0.042,2.107-0.452,2.88-0.96
		c0.681,12.521-1.911,21.769-1.92,33.6c-1.322-0.042-2.108,0.452-2.88,0.96C184.3,76.041,183.923,63.823,186.24,54.3z"/>
	<path fill-rule="evenodd" clip-rule="evenodd" fill="#EFBF97" d="M250.56,66.78c2.485,5.836,0.193,13.07-3.84,15.36
		c-6.461-3.779-10.655-9.824-19.2-11.52C231.448,62.439,242.606,61.504,250.56,66.78z"/>
	<path fill-rule="evenodd" clip-rule="evenodd" fill="#FF2200" d="M0,260.7c0-15.36,0-30.72,0-46.08
		c7.165-12.473,17.553,0.863,29.76,0c0.861,9.821-7.975,9.945-13.44,13.439c0.401-5.678,5.389-6.771,6.72-11.52
		c-12.974,9.106-19.212,24.948-22.08,44.16C0.64,260.7,0.32,260.7,0,260.7z"/>
	<path fill-rule="evenodd" clip-rule="evenodd" fill="#FFFFFF" d="M181.44,233.82c-0.715-2.955,2.635-1.846,1.92-4.801
		c2.206,8.298,0.849,21.32-0.96,28.801c-0.054,0.585-0.144,1.136-0.96,0.96C180.451,253.294,182.11,242.183,181.44,233.82z"/>
	<path fill-rule="evenodd" clip-rule="evenodd" d="M422.4,298.14c-80.066-2.737-158.831,0.249-235.2-3.84
		c35.702-8.841,95.551-4.276,133.439-0.96c28.401,2.486,56.197,2.017,85.44,1.92C411.176,295.243,418.623,292.79,422.4,298.14z"/>
	<path fill-rule="evenodd" clip-rule="evenodd" fill="#FF2200" d="M0,349.02c4.016,2.384,5.008,7.793,7.68,11.521
		c-1.216,3.264-4.533,4.428-7.68,5.76C0,360.54,0,354.78,0,349.02z"/>
	<path fill-rule="evenodd" clip-rule="evenodd" fill="#FFFFFF" stroke="#000000" stroke-width="3" d="M189.12,1.5
		c85.119,0,170.241,0,255.36,0c-10.278,93.083-13.004,193.715-15.36,294.72c-1.448,0.441-6.856,4.27-2.88,2.88
		c-9.011,3.148-31.854,0-46.08,0c-44.195,0-91.958-1.629-134.4-1.92c-21.456-0.146-43.021,5.13-62.4-0.96
		c-0.379-9.993,0.896-25.224-0.96-30.72c1.469-0.896,3.779-10.388,0-7.68c1.809-7.48,3.166-20.503,0.96-28.801
		c5.639-29.922-2.159-69.206,14.4-89.279c4.55-2.869,11.362-2.599,16.32-5.76c6.022-3.84,9.406-14.086,16.32-18.24
		c5.771-3.468,12.133-3.486,16.319-6.72c12.416-9.591,19.445-34.765,6.721-50.88c-14.687-10.155-23.481,9.854-35.521,15.36
		c-11.499,5.259-23.264,5.012-30.72,13.44c0.009-11.831,2.601-21.079,1.92-33.6c-0.525-1.395,1.122-4.961-0.96-4.8
		C190.526,33.287,188.198,16.364,189.12,1.5z M406.08,295.26c-29.243,0.097-57.039,0.566-85.44-1.92
		c-37.889-3.316-97.737-7.881-133.439,0.96c76.369,4.089,155.134,1.103,235.2,3.84C418.623,292.79,411.176,295.243,406.08,295.26z"
		/>
	<path fill-rule="evenodd" clip-rule="evenodd" fill="#F4CEAF" d="M181.44,258.78c-8.971,15.291-32.423,14.634-52.8,16.319
		c0.414,2.146,4.731,0.39,6.72,0.96c-6.204,3.396-8.306,10.895-19.2,9.601c-25.25,19.23-53.646,35.314-80.64,52.8
		c-15.347-23.302-24.21-57.67-23.04-99.84c9.6-11.963,30.265-14.058,49.92-18.24c13.937-2.966,27.345-6.291,29.76-19.2
		c-16.029,18.213-61.573,15.227-78.72,35.521c6.744-12.228,32.607-19.12,49.92-26.88c14.415-6.461,29.527-14.828,38.4-27.84
		c13.733-20.141,11.551-44.689,24.96-65.28c8.461-12.993,24.09-18.661,32.64-32.64c2.627-16.253,16.872-20.889,26.88-29.76
		c-2.317,9.523-1.94,21.741-1.92,33.6c0,0.32,0,0.64,0,0.96c-17.218,5.182-36.142,8.658-47.04,20.16
		c17.268-5.135,40.408-12.71,56.64-22.08c7.948,2.292,10.617,9.863,22.08,8.64c-5.319-4.601-15.03-4.811-18.24-11.52
		c5.976,0.494,13.593,11.671,23.04,8.64c-1.662-7.938-11.082-8.118-17.28-11.52c6.541-4.353,16.064,1.635,21.12,4.8
		c-0.656-4.145-3.391-6.209-6.72-7.68c2.266-1.895,4.995-3.325,7.68-4.8c9.664,1.856,13.439,9.601,22.08,12.48
		c9.722-5.173,8.434-26.786-5.76-25.92c3.228-2.852,8.383,0.535,11.521,0.96c8.217,17.106-0.306,39.778-12.48,48
		c-21.439,2.561-23.014,24.986-43.2,28.8c-8.19,8.77-11.086,22.833-17.28,33.6c1.159,36.038-13.083,56.678-35.52,69.12
		c20.083-1.679,28.17-23.669,37.44-39.36c-1.034,16.565-2.817,32.383-9.6,43.2c2.94,0.354,5.38-8.041,8.64-10.56
		C182.11,242.183,180.451,253.294,181.44,258.78z M142.08,254.94c4.414-2.946,9.194-5.526,14.4-7.681
		c2.082-5.094,12.553-11.583,10.56-14.399c-7.009,5.749-15.557,16.538-27.84,18.239c-8.18,1.134-14.979-2.323-22.08-2.88
		C122.438,253.461,130.695,255.765,142.08,254.94z M99.84,282.78c9.314-6.366,23.896-7.465,32.64-14.4
		C119.023,265.67,103.958,279.375,99.84,282.78z"/>
	<path fill-rule="evenodd" clip-rule="evenodd" fill="#160302" d="M0,341.34c7.105,7.615,9.465,19.976,19.2,24.96
		c5.737-0.663,7.701-5.099,12.48-6.72c-0.91-3.891-7.04-2.561-6.72-7.68c16.854,12.757,29.555-2.425,30.72-20.16
		c-7.682,0.638-9.039,7.602-16.32,8.64c3.557,7.976,8.077-5.117,11.52-2.88c-3.818,5.923-11.956,10.905-20.16,1.92
		C16.662,324.022,6.448,271.709,8.64,246.3c-5.325,14.773-9.107,40.063-3.84,56.641c-3.327-0.833-2.102-6.219-4.8-7.681
		c0-11.52,0-23.04,0-34.56c0.32,0,0.64,0,0.96,0c2.868-19.212,9.106-35.054,22.08-44.16c-1.331,4.749-6.319,5.842-6.72,11.52
		c5.465-3.494,14.301-3.618,13.44-13.439c-12.207,0.863-22.595-12.473-29.76,0c0-2.24,0-4.48,0-6.72
		c6.519-6.341,10.342-0.612,17.28,1.92c7.687,2.806,15.535,1.408,17.28,8.64c19.432-12.697,37.125-13.845,52.8-25.92
		c18.378-14.159,15.906-34.617,24.96-58.56c7.455-19.712,29.013-31.138,40.32-48c3.886-5.794,6.146-14.786,10.56-19.2
		c7.069-7.069,17.632-10.116,24.96-18.24c2.082-0.162,0.435,3.405,0.96,4.8c-0.772,0.508-1.559,1.002-2.88,0.96
		c-10.009,8.872-24.253,13.507-26.88,29.76c-8.549,13.979-24.179,19.647-32.64,32.64c-13.409,20.59-11.227,45.139-24.96,65.28
		c-8.873,13.012-23.985,21.379-38.4,27.84c-17.312,7.76-43.176,14.652-49.92,26.88c17.147-20.294,62.691-17.308,78.72-35.521
		c-2.415,12.909-15.823,16.234-29.76,19.2c-19.655,4.183-40.32,6.277-49.92,18.24c-1.17,42.17,7.693,76.538,23.04,99.84
		c26.994-17.485,55.391-33.569,80.64-52.8c10.894,1.294,12.996-6.204,19.2-9.601c-1.989-0.57-6.306,1.187-6.72-0.96
		c20.377-1.686,43.829-1.028,52.8-16.319c0.816,0.176,0.906-0.375,0.96-0.96c3.779-2.708,1.469,6.783,0,7.68
		c-6.011,4.722-12.292,11.849-21.12,13.44c-7.594,1.368-14.976-1.502-21.12,0c-9.774,2.388-13.767,13.109-24.96,11.52
		c-14.853,16.508-38.642,24.078-55.68,38.4c0.221,12.181-6.194,23.125-13.44,30.72c-10.925-3.168-14.327,9.999-24,10.56
		c-5.765,0.335-10.206-4.689-15.36-2.88c-2.936,1.031-4.482,4.787-6.72,6.721c0-2.561,0-5.12,0-7.681
		c3.147-1.332,6.464-2.496,7.68-5.76c-2.672-3.728-3.664-9.137-7.68-11.521C0,346.46,0,343.9,0,341.34z"/>
	<path fill-rule="evenodd" clip-rule="evenodd" fill="#160302" d="M183.36,229.02c0.715,2.955-2.635,1.846-1.92,4.801
		c-3.26,2.519-5.7,10.914-8.64,10.56c6.783-10.817,8.566-26.635,9.6-43.2c-9.27,15.691-17.357,37.682-37.44,39.36
		c22.438-12.442,36.679-33.082,35.52-69.12c6.193-10.767,9.089-24.831,17.28-33.6c20.187-3.813,21.761-26.239,43.2-28.8
		c12.175-8.222,20.697-30.894,12.48-48c-3.138-0.425-8.293-3.812-11.521-0.96c14.193-0.866,15.481,20.747,5.76,25.92
		c-8.641-2.879-12.416-10.624-22.08-12.48c-2.685,1.475-5.415,2.905-7.68,4.8c3.329,1.471,6.064,3.536,6.72,7.68
		c-5.056-3.165-14.58-9.152-21.12-4.8c6.198,3.402,15.618,3.582,17.28,11.52c-9.447,3.031-17.064-8.146-23.04-8.64
		c3.21,6.709,12.921,6.919,18.24,11.52c-11.463,1.223-14.132-6.349-22.08-8.64c-16.232,9.37-39.373,16.945-56.64,22.08
		c10.898-11.502,29.822-14.978,47.04-20.16c0-0.32,0-0.64,0-0.96c0.772-0.508,1.559-1.001,2.88-0.96
		c7.456-8.428,19.221-8.181,30.72-13.44c12.039-5.506,20.834-25.515,35.521-15.36c12.725,16.115,5.695,41.289-6.721,50.88
		c-4.187,3.234-10.548,3.252-16.319,6.72c-6.914,4.154-10.298,14.399-16.32,18.24c-4.958,3.162-11.77,2.892-16.32,5.76
		C181.201,159.814,188.999,199.098,183.36,229.02z M227.52,70.62c8.544,1.696,12.739,7.741,19.2,11.52
		c4.033-2.291,6.325-9.524,3.84-15.36C242.606,61.504,231.448,62.439,227.52,70.62z M216.96,89.82
		c-3.408-0.153-7.478-4.626-9.6-2.88C209.599,88.263,214.231,92.173,216.96,89.82z"/>
	<path fill-rule="evenodd" clip-rule="evenodd" fill="#F4CEAF" d="M207.36,86.94c2.123-1.747,6.192,2.727,9.6,2.88
		C214.231,92.173,209.599,88.263,207.36,86.94z"/>
	<path fill-rule="evenodd" clip-rule="evenodd" fill="#160302" d="M117.12,248.22c7.101,0.557,13.9,4.014,22.08,2.88
		c12.283-1.701,20.831-12.49,27.84-18.239c1.993,2.816-8.479,9.306-10.56,14.399c-5.206,2.154-9.986,4.734-14.4,7.681
		C130.695,255.765,122.438,253.461,117.12,248.22z"/>
	<path fill-rule="evenodd" clip-rule="evenodd" fill="#160302" d="M132.48,268.38c-8.745,6.936-23.326,8.034-32.64,14.4
		C103.958,279.375,119.023,265.67,132.48,268.38z"/>
	<path fill-rule="evenodd" clip-rule="evenodd" fill="#FF2200" d="M0,295.26c2.698,1.462,1.473,6.848,4.8,7.681
		c-5.267-16.577-1.484-41.867,3.84-56.641c-2.192,25.409,8.021,77.723,22.08,93.12c8.204,8.985,16.341,4.003,20.16-1.92
		c-3.443-2.237-7.963,10.855-11.52,2.88c7.282-1.038,8.638-8.002,16.32-8.64c-1.165,17.735-13.867,32.917-30.72,20.16
		c-0.319,5.119,5.811,3.789,6.72,7.68c-4.779,1.621-6.743,6.057-12.48,6.72C9.465,361.315,7.105,348.955,0,341.34
		C0,325.98,0,310.62,0,295.26z"/>
</g>
</svg>
