<?xml version="1.0" encoding="utf-8"?>
<!-- Generator: Adobe Illustrator 15.0.0, SVG Export Plug-In . SVG Version: 6.00 Build 0)  -->
<!DOCTYPE svg PUBLIC "-//W3C//DTD SVG 1.1//EN" "http://www.w3.org/Graphics/SVG/1.1/DTD/svg11.dtd">
<svg version="1.1" id="Layer_1" xmlns="http://www.w3.org/2000/svg" xmlns:xlink="http://www.w3.org/1999/xlink" x="0px" y="0px"
	 width="250px" height="250px" viewBox="0 0 250 250" enable-background="new 0 0 250 250" xml:space="preserve">
<g>
	<path fill="#E6E7E8" d="M199.047,212.746c13.504,7.795,13.594,20.458,0.184,28.249c-13.433,7.805-35.289,7.797-48.789,0
		c-13.52-7.81-13.588-20.454-0.159-28.26C163.692,204.945,185.529,204.94,199.047,212.746z"/>
</g>
<g>
	<path fill="#E6E7E8" d="M100.43,206.471c13.501,7.795,13.593,20.461,0.182,28.25c-13.433,7.805-35.288,7.797-48.787,0
		c-13.521-7.808-13.591-20.455-0.16-28.259C65.074,198.674,86.911,198.666,100.43,206.471z"/>
</g>
<g>
	<path fill="#BECCD3" d="M180.117,240.714c-0.939,0-1.738-0.089-2.268-0.148c-1.339-0.146-3.185-1.501-3.185-2.338
		c0-0.395,0.217-0.917,0.347-1.193c0.121-0.788,1.352-2.754,2.541-4.653c0.721-1.153,1.402-2.242,1.665-2.82
		c0.152-0.336,1.475-3.252,2.309-5.302l-0.588-0.16c-0.074-0.021-0.13-0.08-0.145-0.155l-5.929-30.399l0.121,19.573
		c0,0.087-0.056,0.164-0.138,0.19c-0.037,0.013-0.904,0.29-3.065,0.462l0.094,0.932c0.002,0.139-0.099,0.587-1.428,1.289
		c-1.449,0.76-4.672,1.682-4.809,1.721c-0.018,0.005-0.036,0.008-0.055,0.008c-0.036,0-0.072-0.011-0.104-0.029
		c-0.048-0.029-0.081-0.077-0.092-0.132l-0.101-0.511c-0.543,0.107-2.121,0.443-3.289,0.939c-0.396,0.168-0.97,0.439-1.636,0.754
		c-1.807,0.854-4.28,2.023-5.73,2.325c-1.151,0.242-2.99,0.387-4.919,0.387c-1.78,0-3.938-0.136-4.655-0.515
		c-1.04-0.547-2.53-1.824-2.369-3.1c0.043-0.346,0.19-0.656,0.439-0.924c0.212-0.806,2.063-1.56,4.844-2.614
		c1.149-0.436,2.235-0.848,2.861-1.186c0.974-0.523,2.657-1.561,4.285-2.564c0.536-0.33,1.061-0.653,1.546-0.949
		c-1.001-0.817-1.559-1.446-1.583-1.475c-0.044-0.049-0.061-0.117-0.044-0.182c0.971-3.787,0.728-5.885,0.359-9.062
		c-0.19-1.639-0.406-3.496-0.497-5.984c-0.276-7.388-1.222-20.001-1.753-24.386c-0.518-4.269-2.022-21.659-2.293-26.984
		c-0.277-5.382-0.133-11.679,0.134-15.531c0.055-0.798,0.156-2.003,0.308-3.64c-0.094,0.517-0.175,0.999-0.248,1.435
		c-0.123,0.73-0.229,1.359-0.341,1.862c-0.035,0.158-0.142,0.641-0.498,0.641c-0.44,0-0.902-0.894-1.373-2.656
		c-0.574-2.162,0.897-23.217,1.075-25.418c0.055-0.694,0.109-1.693,0.165-2.853l-26.331,6.601c-0.013,0.003-0.026,0.005-0.04,0.006
		c-0.203,0.194-0.394,0.287-0.583,0.287c-0.506,0-0.869-0.595-1.271-2.104c-0.23,0.124-0.451,0.245-0.659,0.359
		c-0.361,0.198-0.685,0.375-0.956,0.512c-0.376,0.744-0.984,1.743-1.465,2.242c-0.734,0.764-2.622,2.727-5.706,2.819l-0.244,0.004
		c-2.541,0-5.363-1.15-6.268-1.55c-0.053,0.13-0.109,0.254-0.173,0.368c-0.839,1.517-1.826,2.352-2.779,2.352
		c-0.16,0-0.321-0.023-0.478-0.069c-0.073-0.021-0.144-0.055-0.214-0.089c-0.038-0.019-0.075-0.037-0.113-0.052
		c-1.455-0.19-4.614-0.63-8.422-1.171c0.587,1.669,1.16,3.1,1.703,4.257c0.031,0.065,0.024,0.141-0.017,0.199
		c-0.036,0.051-0.872,1.241-2.305,2.552c0.273,0.519,0.675,1.015,1.821,2.025c1.744,1.539,4.083,6.145,4.286,7.056
		c0.067,0.306,0.103,1.012-0.067,1.271c-0.064,0.164,0.091,1.118,0.228,1.96c0.31,1.904,0.695,4.273,0.058,5.035
		c-0.254,0.303-0.567,0.625-1.056,0.625c-0.261,0-0.551-0.091-0.889-0.277c-0.077-0.043-0.119-0.057-0.138-0.062
		c0.037,0.018,0.034,0.139,0.032,0.229c-0.009,0.442-0.026,1.265-1.04,1.543c-0.178,0.049-0.353,0.073-0.522,0.073
		c-0.815,0-1.326-0.558-1.63-0.892c-0.079-0.085-0.159-0.174-0.203-0.202c-0.036,0.005-0.157,0.066-0.254,0.116
		c-0.199,0.102-0.447,0.229-0.727,0.229s-0.534-0.128-0.755-0.38c-0.335-0.384-0.515-0.859-0.66-1.241
		c-0.075-0.199-0.188-0.499-0.259-0.534c-0.126,0.079-0.246,0.113-0.369,0.113c-0.056,0-0.112-0.007-0.167-0.02
		c1.864,6.321,3.188,15.02,4.161,21.415c0.443,2.911,0.793,5.211,1.085,6.571c1.121,5.238,0.283,7.945-0.928,10.94
		c-1.273,3.147-9.633,15.135-14.125,21.575l-0.209,0.3c-3.369,4.836-4.75,9.352-5.339,11.28c-0.152,0.499-0.253,0.828-0.333,0.987
		c-0.088,0.179-0.271,0.351-0.568,0.533c0.314,0.575,0.757,1.078,1.288,1.463c0.417,0.302,1.342,0.87,2.414,1.528
		c1.729,1.062,3.689,2.266,4.379,2.879c0.979,0.867,1.902,1.813,2.024,2.856c0.355,1.147,0.222,2.141-0.375,2.689
		c-0.813,0.748-1.935,1.098-3.53,1.098c-0.128,0-0.261-0.003-0.396-0.007c-2.729-0.091-6.313-0.786-8.365-2.136
		c0.014,2.091,0.03,3.683,0.03,3.683c0.001,0.067-0.032,0.13-0.088,0.168c-0.016,0.011-0.018,0.012-0.699,0.324
		c0.503,0.648,1.505,1.825,2.505,2.35l0.49,0.253c1.701,0.879,4.866,2.515,5.701,3.117c0.841,0.609,3.102,2.61,2.95,3.669
		c0.153,0.37,0.206,0.77,0.118,1.124c-0.283,1.122-1.055,2.006-3.907,2.673c-1.019,0.237-2.216,0.357-3.559,0.357
		c-3.383,0-6.706-0.738-7.978-1.057c-1.933-0.482-3.783-1.876-5.007-2.798c-0.469-0.354-0.84-0.633-1.082-0.763l-1.485-0.791
		c-0.008,0.045-0.022,0.091-0.044,0.137c-0.095,0.196-0.298,0.322-0.603,0.374c-0.001,0-0.002,0-0.003,0
		c-0.977,0-5.57-3.229-5.716-3.75c-0.07-0.241-0.096-0.797-0.098-1.257c-1.199-0.313-1.922-0.627-1.954-0.642
		c-0.074-0.032-0.121-0.104-0.12-0.185c0.002-0.149,0.184-14.97,0.363-24.039c0.151-7.496,2.521-19.116,3.659-24.7
		c0.263-1.287,0.464-2.276,0.566-2.853c0.568-3.221-2.145-27.079-3.301-32.212c-0.998-4.436-1.428-7.33-1.387-9.352
		c-1.747-0.923-2.819-1.84-3.188-2.727c-0.88-2.112,1.902-14.903,4.392-25.261c1.146-4.766-1.151-12.343-2.829-17.876
		c-0.266-0.878-0.518-1.709-0.74-2.475c-0.987-3.414-2.371-8.588-3.357-13.849c-0.245-0.871-0.428-1.629-0.54-2.236
		c-1.275-6.896-1.199-10.595,0.264-12.769c0.019-0.028,0.045-0.051,0.074-0.066c0.178-0.303,0.37-0.544,0.585-0.736
		c1.748-1.563,3.749-3.064,5.514-4.388c1.715-1.287,3.197-2.398,3.825-3.116c0.194-0.223,0.396-0.423,0.6-0.612
		c-0.142-0.348-0.199-0.637-0.168-0.862c0.093-0.646,3.452-3.809,4.479-4.763c0.038-0.036,0.087-0.053,0.136-0.053
		c0.004,0,0.007,0,0.011,0l0.457-0.833c0.025-0.046,0.065-0.078,0.111-0.093c0.05-1.66,0.032-3.743-0.012-5.472
		c-0.13-0.027-0.23-0.083-0.304-0.172c-0.511-0.598-3.521-5.64-3.982-8.87l-0.092-0.612c-0.439-2.869-0.819-5.347,4.256-11.181
		c2.04-2.346,5.411-3.536,10.019-3.536c5.466,0,11.062,1.701,13.305,2.772c1.027,0.489,1.702,1.218,2.008,2.164
		c0.596,1.848-0.414,4.008-0.74,4.63c0.572,1.001,0.859,1.942,0.904,2.951c0.039,0.899,0.166,1.81,0.277,2.613
		c0.146,1.046,0.271,1.95,0.166,2.533c-0.095,0.525-0.45,0.942-0.764,1.31c-0.301,0.353-0.561,0.657-0.492,0.932
		c0.081,0.32,0.654,1.362,1.208,2.369c0.651,1.184,1.325,2.408,1.561,3.071c0.25,0.701,0.283,1.173,0.107,1.534
		c-0.166,0.34-0.503,0.573-1.127,0.78c-0.337,0.112-0.698,0.169-1.074,0.169c-0.339,0-0.627-0.046-0.826-0.091
		c0.001,0.19-0.023,0.446-0.126,0.704c-0.194,0.48-0.342,0.55-0.749,0.632c0.009,0.013,0.018,0.025,0.025,0.036
		c0.156,0.217,0.481,0.669,0.053,1.097l-0.266,0.26c-0.362,0.349-0.562,0.541-0.767,1.02c-0.28,0.657-0.535,1.843-0.7,3.255
		c-0.074,0.626-0.212,1.038-0.449,1.31c1.479,0.904,3.258,2.116,3.722,2.757c0.793,1.092,1.372,5.893,0.899,10.217
		c-0.008,0.073-0.026,0.425-0.026,0.425c0.236,1.002,0.378,1.812,0.418,2.346c0.025,0.34,0.242,3.442,0.06,7.684
		c0.114,1.408,0.231,3.09,0.231,4.705c0,1.254-0.014,2.523-0.028,3.779c-0.045,3.973-0.087,7.725,0.317,10.492
		c0.161,1.103,0.552,3.111,1.05,5.391c4.507,0.794,7.819,1.525,9.847,2.174l4.343,1.028c0.008,0,0.017,0,0.025,0
		c0.299,0,0.582,0.116,0.891,0.356c0.288,0.227,0.565,0.625,0.846,1.214c1.086-0.702,2.331-1.439,2.746-1.574
		c0.179,0,2.531,0.211,3.395,0.857c0.925-0.378,2.543-1.201,3.853-1.867c0.598-0.304,1.125-0.572,1.481-0.744
		c0.332-0.161,0.733-0.239,1.227-0.239c0.497,0,1.084,0.081,1.835,0.252c-0.02-0.956,0.102-1.541,0.379-1.833
		c0.123-0.129,0.276-0.204,0.458-0.221c0.006-0.002,27.167-6.641,27.167-6.641c0.126-1.017,0.937-7.505,1.817-13.673
		c0.212-1.478,0.536-3.07,0.912-4.914l0.034-0.165l0.007-0.111c0.012-0.153,0.023-0.308,0.042-0.45
		c0.529-4.063,1.08-7.174,1.361-8.667c0.653-3.475,2.582-5.753,5.159-6.094c0.724-0.097,2.046-0.329,3.932-0.688
		c0.402-0.372,0.807-0.742,1.203-1.104c-1.105-0.747-3.094-0.831-3.932-0.831c-0.379,0-0.621,0.016-0.624,0.016
		c-0.005,0-0.01,0-0.014,0c-0.026,0-0.052-0.005-0.075-0.015c-0.06,0.002-0.117,0.003-0.173,0.003c-0.098,0-0.188-0.004-0.271-0.012
		c-0.414-0.041-0.764-0.233-1.038-0.57c-0.842-1.033-0.733-3.159-0.691-3.688c-0.322-0.23-1.005-0.751-1.113-1.094
		c-0.102-0.325,0.229-0.86,0.455-1.173l-1.015-0.555c-0.083-0.045-0.123-0.142-0.096-0.232c0.174-0.587,0.274-1.336,0.134-1.524
		c-0.016,0-0.031,0-0.047,0c-0.195,0-0.355,0.011-0.527,0.011c-0.369,0-1.265-0.057-1.594-0.585
		c-0.172-0.275-0.161-0.615,0.031-1.01c1.705-3.48,1.95-4.733,1.854-5.171c-0.048-0.224-0.247-0.405-0.458-0.596
		c-0.267-0.242-0.569-0.517-0.582-0.931l-0.009-0.28c-0.065-1.997-0.163-4.984,0.939-7.043c-0.711-0.392-1.168-0.93-1.358-1.604
		c-0.342-1.204,0.135-2.801,1.457-4.883c1.129-1.777,10.237-4.321,10.624-4.428c1.909-0.504,4.235-0.792,6.385-0.792
		c2.796,0,7.822,0.497,10.079,3.821c1.921,2.829,5.059,8.411,4.493,14.015c-0.348,3.422-3.375,8.882-6.266,11.329
		c0.28,1.069,0.927,3.362,1.597,4.523c0.077-0.46,0-0.713-0.001-0.716c-0.029-0.092,0.011-0.192,0.095-0.238
		c0.03-0.017,0.063-0.024,0.096-0.024c0.059,0,0.116,0.026,0.154,0.074c0.462,0.573,4.5,5.641,4.218,6.911
		c-0.006,0.028-0.017,0.055-0.029,0.083c1.252,1.63,2.234,2.712,2.919,3.219c3.583,2.624,7.955,6.129,8.434,7.926
		c0.55,2.06,2.448,23.247,2.568,25.798c0.047,0.972,0.271,2.988,0.532,5.322c0.503,4.519,1.13,10.142,0.952,12.368
		c-0.268,3.337-4.408,34.886-4.45,35.204c-0.011,0.077-0.065,0.142-0.14,0.165c-0.021,0.006-0.487,0.146-1.256,0.299l0.802,4.457
		c-0.061,0.425-0.603,3.557-0.905,4.065c-0.279,0.468-0.982,0.654-1.264,0.712l-0.444,0.988c-0.031,0.064-0.72,1.474-1.386,1.991
		c-0.562,0.432-1.257,0.712-1.468,0.791c-0.167,0.242-0.859,1.217-1.598,1.85c0.475,9.87,0.778,20.672,0.782,20.78
		c3.59,6.701,5.138,19.252,6.062,26.751c0.217,1.759,0.389,3.147,0.543,4.103c0.737,4.547,2.489,18.072,0.916,20.504
		c-0.546,0.84-1.531,1.314-2.934,1.412c0.18,0.939,0.216,1.578,0.111,1.947c-0.286,0.999-1.614,3.358-1.671,3.459
		c-0.036,0.063-0.104,0.102-0.174,0.102c-0.017,0-0.034-0.003-0.052-0.007l-0.482-0.129c-0.193,0.771-0.963,3.485-2.527,4.78
		l-0.273,0.227c-1.23,1.023-2.393,1.989-5.083,2.771C182.651,240.544,181.431,240.714,180.117,240.714z"/>
	<path d="M71.492,5.005c5.343,0,10.936,1.662,13.219,2.752c3.631,1.731,1.481,5.969,1.126,6.618c0.471,0.802,0.88,1.771,0.933,2.956
		c0.089,2.059,0.625,4.114,0.446,5.102c-0.178,0.987-1.431,1.608-1.253,2.326c0.181,0.715,2.327,4.205,2.775,5.459
		c0.446,1.252,0.178,1.701-0.895,2.057c-0.358,0.119-0.706,0.159-1.011,0.159c-0.61,0-1.048-0.159-1.048-0.159
		s0.089,0.448-0.089,0.898c-0.179,0.444-0.267,0.444-0.716,0.533c-0.447,0.092,0.627,0.627,0.09,1.165
		c-0.537,0.534-0.806,0.713-1.076,1.342c-0.266,0.625-0.537,1.791-0.714,3.311c-0.098,0.825-0.304,1.173-0.583,1.364
		c1.521,0.917,3.428,2.2,3.893,2.843c0.715,0.984,1.352,5.601,0.863,10.078c-0.015,0.139-0.015,0.29-0.026,0.43
		c0.216,0.958,0.375,1.806,0.418,2.378c0.088,1.18,0.212,4.108,0.059,7.66c0.127,1.585,0.231,3.178,0.231,4.713
		c0,5.19-0.246,10.631,0.291,14.3c0.151,1.035,0.533,3.033,1.082,5.536c3.921,0.688,7.667,1.459,9.953,2.191l4.358,1.032
		c0.016,0,0.032-0.001,0.048-0.001c0.224,0,0.473,0.072,0.791,0.32c0.326,0.257,0.621,0.76,0.884,1.35
		c1.12-0.732,2.478-1.543,2.893-1.677c0,0,2.576,0.224,3.298,0.897c1.313-0.517,4.297-2.101,5.457-2.661
		c0.322-0.156,0.711-0.219,1.14-0.219c0.623,0,1.331,0.133,2.043,0.307c-0.074-1.687,0.252-2.108,0.705-2.112
		c-0.002-0.004-0.01-0.008-0.01-0.008l27.282-6.667c0,0,0.868-7.049,1.834-13.806c0.217-1.517,0.561-3.189,0.943-5.067
		c0.016-0.191,0.028-0.394,0.052-0.576c0.479-3.673,1-6.747,1.359-8.655c0.754-4.011,2.965-5.665,4.989-5.933
		c0.869-0.117,2.464-0.408,3.999-0.701c0.477-0.44,0.956-0.879,1.423-1.305c-1.078-0.896-3.187-1.016-4.245-1.016
		c-0.39,0-0.638,0.017-0.638,0.017l0.021-0.019c-0.094,0.005-0.185,0.007-0.27,0.007c-0.091,0-0.176-0.003-0.251-0.01
		c-1.954-0.195-1.54-4.156-1.54-4.156s-1.022-0.71-1.132-1.057c-0.105-0.338,0.563-1.177,0.563-1.177l-1.218-0.667
		c0,0,0.535-1.804-0.109-1.804c-0.018,0-0.036,0.001-0.056,0.004c-0.13,0.019-0.292,0.031-0.467,0.031
		c-0.809,0-1.896-0.259-1.383-1.308c0.502-1.024,2.093-4.277,1.87-5.302c-0.129-0.604-1.017-0.866-1.035-1.49
		c-0.062-1.993-0.233-5.292,1.006-7.4c-1.598-0.775-2.459-2.438-0.008-6.297c1.101-1.733,10.509-4.343,10.509-4.343
		c1.744-0.46,4.013-0.785,6.331-0.785c3.936,0,8.015,0.936,9.914,3.734c1.957,2.882,5.011,8.418,4.459,13.882
		c-0.347,3.421-3.463,8.947-6.292,11.277c0.417,1.612,1.063,3.733,1.699,4.781l0.038-0.021l0.021,0.104
		c0.05,0.078,0.102,0.159,0.149,0.221c0.259-0.816,0.104-1.269,0.104-1.269s4.447,5.529,4.178,6.742
		c-0.008,0.038-0.042,0.09-0.073,0.142c1.071,1.401,2.205,2.747,3.039,3.363c2.024,1.482,7.822,5.799,8.359,7.817
		c0.54,2.023,2.429,22.925,2.562,25.756c0.136,2.831,1.754,14.293,1.484,17.665c-0.271,3.371-4.449,35.194-4.449,35.194
		s-0.545,0.166-1.429,0.331l0.837,4.651c0,0-0.588,3.437-0.881,3.928c-0.294,0.493-1.23,0.637-1.23,0.637l-0.488,1.084
		c0,0-0.688,1.421-1.325,1.915c-0.639,0.49-1.475,0.784-1.475,0.784s-0.827,1.232-1.673,1.925
		c0.482,10.01,0.786,20.876,0.786,20.876c4.452,8.363,5.799,25.89,6.607,30.88c0.81,4.989,2.428,18.072,0.945,20.363
		c-0.612,0.943-1.749,1.284-3.007,1.333c0.168,0.819,0.28,1.657,0.16,2.08c-0.282,0.987-1.652,3.415-1.652,3.415l-0.682-0.182
		c0,0-0.744,3.413-2.507,4.872c-1.321,1.09-2.436,2.132-5.285,2.96c-1.357,0.396-2.61,0.512-3.676,0.512
		c-0.899,0-1.665-0.083-2.245-0.147c-1.268-0.139-3.007-1.433-3.007-2.14c0-0.273,0.13-0.687,0.327-1.108
		c0.217-1.322,3.527-5.978,4.207-7.476c0.491-1.081,1.676-3.726,2.396-5.519c-0.491-0.135-0.806-0.22-0.806-0.22l-6.338-32.497
		l0.134,21.71c0,0-0.909,0.298-3.222,0.468l0.113,1.135c0,0,0.003,0.393-1.322,1.093c-1.446,0.759-4.77,1.705-4.77,1.705
		l-0.14-0.705c0,0-2.061,0.367-3.524,0.989c-1.462,0.619-5.37,2.659-7.329,3.067c-1.219,0.256-3.1,0.382-4.878,0.382
		c-2.04,0-3.946-0.166-4.562-0.491c-1.031-0.542-2.407-1.771-2.265-2.897c0.044-0.356,0.206-0.631,0.424-0.851
		c0.005-0.019,0.002-0.039,0.006-0.058c0.211-1.116,5.777-2.675,7.611-3.665c1.359-0.73,4.117-2.472,6.083-3.667
		c-1.14-0.902-1.78-1.629-1.78-1.629c1.487-5.799,0.136-7.823-0.132-15.104c-0.271-7.278-1.215-19.956-1.754-24.402
		c-0.54-4.45-2.024-21.713-2.292-26.97c-0.271-5.258-0.137-11.594,0.134-15.508c0.123-1.787,0.474-5.464,0.816-8.932
		c-0.146,1.231-0.299,2.318-0.461,3.042c-0.528,2.328-0.76,4.276-1.031,5.489c-0.073,0.334-0.178,0.484-0.303,0.484
		c-0.326,0-0.788-1.042-1.18-2.507c-0.537-2.023,0.81-21.981,1.081-25.351c0.059-0.749,0.118-1.852,0.178-3.128l-26.591,6.666
		c0,0,0.074-0.085,0.172-0.3c-0.28,0.385-0.524,0.587-0.748,0.587c-0.415,0-0.761-0.695-1.142-2.2
		c-0.748,0.397-1.412,0.778-1.894,1.018c-0.351,0.704-0.969,1.743-1.46,2.252c-0.664,0.69-2.529,2.667-5.568,2.758
		c-0.079,0.002-0.159,0.003-0.238,0.003c-2.737,0-5.87-1.385-6.379-1.62c-0.07,0.193-0.146,0.378-0.236,0.54
		c-0.685,1.238-1.608,2.25-2.605,2.25c-0.139,0-0.28-0.02-0.421-0.062c-0.107-0.031-0.207-0.095-0.312-0.136
		c-1.541-0.207-4.838-0.667-8.791-1.229c0.594,1.711,1.207,3.281,1.819,4.586c0,0-0.885,1.269-2.387,2.621
		c0.278,0.575,0.64,1.079,1.936,2.221c1.692,1.493,4.029,6.076,4.223,6.95c0.075,0.341,0.075,0.945-0.039,1.118
		c-0.311,0.472,1.221,5.874,0.299,6.976c-0.265,0.314-0.518,0.553-0.902,0.553c-0.215,0-0.471-0.074-0.792-0.252
		c-0.109-0.061-0.188-0.088-0.246-0.088c-0.412,0,0.303,1.408-1.049,1.78c-0.167,0.046-0.324,0.066-0.469,0.066
		c-0.966,0-1.463-0.891-1.724-1.062c-0.028-0.02-0.061-0.027-0.096-0.027c-0.227,0-0.588,0.339-0.994,0.339
		c-0.195,0-0.4-0.078-0.604-0.312c-0.629-0.72-0.689-1.842-1.06-1.842c-0.041,0-0.085,0.014-0.135,0.043
		c-0.074,0.045-0.156,0.069-0.243,0.069c-0.162,0-0.34-0.083-0.507-0.259c2.799,9.157,4.438,24.023,5.391,28.467
		c1.099,5.139,0.284,7.851-0.918,10.823c-1.286,3.179-10.091,15.782-14.313,21.836c-4.218,6.055-5.32,11.56-5.687,12.293
		c-0.093,0.187-0.338,0.37-0.654,0.546c0.312,0.634,0.789,1.232,1.436,1.701c1.098,0.794,5.676,3.415,6.777,4.395
		c0.941,0.834,1.843,1.743,1.959,2.73c0.295,0.961,0.288,1.967-0.312,2.519c-0.737,0.678-1.786,1.045-3.395,1.045
		c-0.126,0-0.256-0.002-0.39-0.007c-2.624-0.087-6.472-0.794-8.487-2.259c-0.029-0.021-0.055-0.041-0.086-0.062
		c0.014,2.278,0.033,4.069,0.033,4.069s-0.004,0.003-0.898,0.413c0.71,0.948,1.739,2.088,2.723,2.604
		c1.527,0.791,5.258,2.699,6.167,3.355c1.099,0.796,2.992,2.624,2.869,3.479c-0.002,0.029-0.015,0.055-0.018,0.083
		c0.156,0.333,0.223,0.687,0.139,1.021c-0.245,0.973-0.845,1.845-3.759,2.526c-1.08,0.251-2.284,0.352-3.514,0.352
		c-2.943,0-6.035-0.576-7.929-1.05c-2.628-0.657-5.129-3.054-6.043-3.543c-0.917-0.487-1.833-0.977-1.833-0.977
		s0.307,0.552-0.427,0.675c-0.013,0.002-0.027,0.003-0.042,0.003c-0.853,0-5.333-3.187-5.451-3.609
		c-0.065-0.225-0.094-0.817-0.09-1.358c-1.289-0.325-2.074-0.669-2.074-0.669s0.182-14.863,0.363-24.037
		c0.186-9.175,3.672-24.4,4.222-27.522c0.55-3.122-2.109-26.991-3.303-32.29c-1.059-4.709-1.437-7.525-1.379-9.427
		c-1.761-0.916-2.851-1.828-3.207-2.685c-0.917-2.2,2.446-17.001,4.402-25.138c1.34-5.573-1.932-14.801-3.571-20.453
		c-1.207-4.173-2.474-9.142-3.353-13.83c-0.241-0.861-0.426-1.618-0.54-2.236c-1.234-6.677-1.219-10.463,0.233-12.621l0.024,0.023
		c0.173-0.314,0.371-0.582,0.602-0.788c3.486-3.118,8.073-6.055,9.357-7.521c0.222-0.255,0.455-0.481,0.689-0.691
		c-0.138-0.307-0.244-0.638-0.21-0.887c0.089-0.625,4.417-4.644,4.417-4.644c-0.181,0.182-0.347,0.539-0.404,0.973l1.047-1.909
		c0,0-0.368,0.668,0.041,1.556c0.167-1.808,0.138-5.203,0.079-7.398c-0.153,0-0.274-0.033-0.347-0.119
		c-0.536-0.627-3.49-5.638-3.937-8.77c-0.448-3.131-1.253-5.459,4.118-11.633C63.88,5.877,67.62,5.004,71.492,5.005 M77.218,41.065
		c0.129-0.02,0.261-0.034,0.396-0.046C77.479,41.029,77.346,41.045,77.218,41.065 M77.213,41.1c-0.012-0.013-0.021-0.019-0.031-0.03
		C77.192,41.081,77.203,41.093,77.213,41.1 M77.969,41.487c0.048,0.069,0.097,0.139,0.145,0.21
		C78.065,41.626,78.017,41.556,77.969,41.487c-0.096-0.138-0.192-0.27-0.289-0.39C77.776,41.219,77.873,41.35,77.969,41.487
		 M77.592,41.465c-0.066-0.062-0.123-0.12-0.183-0.178C77.47,41.35,77.526,41.403,77.592,41.465 M80.833,41.337
		c-0.017-0.001-0.035-0.001-0.054-0.001c0.01,0.001,0.02,0.001,0.029,0.001C80.816,41.337,80.824,41.337,80.833,41.337
		c0.01,0,0.02,0.001,0.03,0.002v-0.003C80.853,41.336,80.843,41.336,80.833,41.337 M80.833,41.405l-0.087-0.069h0L80.833,41.405
		 M78.02,41.909c-0.047-0.053-0.093-0.097-0.139-0.145C77.927,41.812,77.973,41.856,78.02,41.909 M78.791,42.77
		c-0.164-0.282-0.328-0.554-0.491-0.807C78.463,42.216,78.627,42.488,78.791,42.77 M80.37,45.854
		c-0.135-0.294-0.27-0.576-0.405-0.863C80.1,45.277,80.235,45.559,80.37,45.854 M165.785,51.997c0.004,0,0.007-0.003,0.01-0.006
		C165.79,51.993,165.79,51.995,165.785,51.997 M163.166,52.158c-0.004-0.003-0.008-0.003-0.009-0.003
		C163.158,52.155,163.162,52.155,163.166,52.158 M165.175,52.724c0,0,0,0,0.002,0c-0.048-0.067-0.099-0.132-0.151-0.195
		C165.078,52.591,165.129,52.657,165.175,52.724 M85.611,70.451c0.014-0.019,0.029-0.039,0.043-0.056
		c-0.01,0.081-0.022,0.157-0.031,0.24c0.01-0.083,0.021-0.159,0.031-0.24C85.64,70.412,85.625,70.43,85.611,70.451 M85.591,70.549
		c0-0.023,0-0.048,0-0.072H85.59C85.59,70.5,85.591,70.525,85.591,70.549 M85.59,70.891c0-0.001,0-0.003,0.001-0.008
		c0-0.037,0-0.076,0-0.117C85.591,70.813,85.59,70.851,85.59,70.891 M179.909,72.484L179.909,72.484L179.909,72.484L179.909,72.484
		L179.909,72.484L179.909,72.484L179.909,72.484c0-0.004,0-0.053,0.006-0.08v-0.006C179.909,72.429,179.909,72.48,179.909,72.484
		 M84.083,81.005l0.213-0.723L84.083,81.005 M84.154,81.928c-0.004,0.021-0.011,0.045-0.016,0.064
		C84.143,81.978,84.15,81.949,84.154,81.928 M152.933,108.823c0.011,0.006,0.023,0.013,0.036,0.02
		c0.007,0.004,0.013,0.008,0.02,0.012c-0.008-0.043-0.02-0.088-0.028-0.132c-0.001-0.003-0.001-0.007-0.002-0.011
		c0.001,0.003,0.001,0.007,0.002,0.011c0.009,0.043,0.018,0.09,0.025,0.129c-0.006-0.003-0.012-0.006-0.017-0.009
		C152.956,108.836,152.944,108.83,152.933,108.823c-0.018-0.01-0.033-0.019-0.047-0.026c0.008-0.117,0.013-0.238,0.019-0.366
		c0.004,0.021,0.008,0.036,0.012,0.054c-0.004-0.02-0.008-0.043-0.012-0.064c-0.006,0.131-0.014,0.255-0.02,0.375
		C152.896,108.805,152.914,108.813,152.933,108.823 M87.496,119.418c0,0,0.001,0,0.001,0
		C87.497,119.419,87.496,119.419,87.496,119.418c-0.025-0.005-0.049-0.015-0.076-0.021c0,0.005,0,0.005,0,0.006
		C87.445,119.408,87.471,119.414,87.496,119.418 M87.92,120.015c-0.08-0.179-0.153-0.369-0.227-0.557
		c-0.021-0.002-0.043-0.006-0.068-0.011c0.022,0.005,0.042,0.011,0.061,0.011C87.76,119.646,87.84,119.836,87.92,120.015
		 M87.735,120.367c0.02,0.058,0.04,0.117,0.06,0.176C87.775,120.484,87.755,120.425,87.735,120.367
		c-0.105-0.311-0.204-0.612-0.295-0.897C87.532,119.758,87.629,120.055,87.735,120.367 M88.297,120.795
		c-0.093-0.181-0.185-0.366-0.276-0.561C88.112,120.43,88.204,120.615,88.297,120.795 M88.265,121.831
		c-0.138-0.361-0.266-0.712-0.384-1.048C87.997,121.118,88.127,121.47,88.265,121.831 M88.723,121.559
		c-0.113-0.19-0.226-0.386-0.341-0.601C88.497,121.172,88.61,121.368,88.723,121.559 M89.131,122.195
		c-0.099-0.142-0.206-0.312-0.318-0.489C88.925,121.887,89.033,122.054,89.131,122.195 M88.675,122.879
		c0.055,0.135,0.11,0.271,0.167,0.407C88.785,123.15,88.729,123.014,88.675,122.879c-0.095-0.235-0.186-0.467-0.273-0.69
		C88.488,122.411,88.58,122.644,88.675,122.879 M89.466,122.636c-0.079-0.09-0.175-0.219-0.277-0.361
		C89.291,122.418,89.387,122.545,89.466,122.636 M89.708,125.292c-0.253-0.559-0.482-1.088-0.7-1.603
		C89.224,124.204,89.455,124.733,89.708,125.292 M90.133,126.302c-0.012-0.03-0.022-0.062-0.034-0.089
		C90.111,126.244,90.121,126.271,90.133,126.302 M90.494,127.256c-0.003-0.009-0.005-0.015-0.008-0.021
		c-0.002-0.005-0.003-0.009-0.005-0.014c0.002,0.006,0.003,0.01,0.005,0.014c0.003,0.011,0.007,0.021,0.011,0.032
		c-0.021-0.23-0.034-0.473-0.034-0.749C90.463,126.789,90.474,127.033,90.494,127.256 M71.492,4.605
		c-4.668,0-8.09,1.213-10.17,3.605c-5.136,5.904-4.75,8.424-4.303,11.342c0.031,0.201,0.062,0.403,0.091,0.61
		c0.466,3.267,3.511,8.367,4.029,8.973c0.069,0.083,0.156,0.146,0.259,0.189c0.041,1.66,0.056,3.619,0.011,5.209
		c-0.035,0.03-0.066,0.067-0.09,0.111l-0.409,0.746c-0.056,0.017-0.109,0.047-0.155,0.089c-2.021,1.877-4.45,4.248-4.541,4.88
		c-0.032,0.235,0.011,0.511,0.13,0.838c-0.193,0.183-0.36,0.356-0.515,0.535c-0.614,0.701-2.088,1.807-3.794,3.086
		c-1.769,1.327-3.773,2.83-5.528,4.399c-0.223,0.198-0.422,0.446-0.605,0.753c-0.033,0.023-0.062,0.052-0.085,0.086
		c-1.495,2.222-1.58,5.964-0.295,12.917c0.113,0.613,0.298,1.377,0.548,2.271c0.98,5.234,2.365,10.415,3.354,13.833
		c0.222,0.767,0.474,1.598,0.741,2.478c1.671,5.511,3.959,13.058,2.826,17.771c-2.497,10.387-5.283,23.223-4.382,25.385
		c0.379,0.912,1.446,1.842,3.171,2.769c-0.022,2.031,0.412,4.913,1.393,9.276c1.229,5.455,3.812,29.225,3.299,32.133
		c-0.101,0.572-0.306,1.576-0.565,2.848c-1.14,5.59-3.511,17.222-3.663,24.736c-0.179,9.07-0.362,23.892-0.363,24.04
		c-0.002,0.16,0.092,0.307,0.239,0.371c0.031,0.014,0.709,0.308,1.835,0.611c0.006,0.355,0.027,0.894,0.104,1.161
		c0.174,0.623,4.832,3.897,5.835,3.897c0.021,0,0.085-0.005,0.106-0.008c0.417-0.069,0.62-0.259,0.72-0.426
		c0.347,0.185,0.817,0.436,1.289,0.686c0.228,0.122,0.611,0.411,1.055,0.745c1.237,0.932,3.107,2.34,5.079,2.833
		c1.279,0.319,4.622,1.062,8.026,1.062c1.358,0,2.571-0.122,3.604-0.362c2.951-0.69,3.755-1.626,4.056-2.818
		c0.09-0.363,0.052-0.764-0.111-1.166c0-0.003,0-0.006,0.001-0.01c0.176-1.221-2.348-3.332-3.034-3.828
		c-0.847-0.611-3.9-2.189-5.725-3.132l-0.493-0.255c-0.873-0.458-1.755-1.441-2.282-2.096c0.466-0.214,0.471-0.218,0.495-0.233
		c0.112-0.075,0.179-0.202,0.178-0.337c0-0.001-0.015-1.411-0.027-3.32c2.116,1.243,5.53,1.888,8.156,1.975
		c0.138,0.005,0.272,0.007,0.403,0.007c1.648,0,2.812-0.365,3.665-1.15c0.649-0.598,0.807-1.651,0.433-2.896
		c-0.154-1.148-1.156-2.122-2.086-2.945c-0.702-0.625-2.67-1.833-4.407-2.9c-1.023-0.628-1.99-1.222-2.401-1.52
		c-0.458-0.331-0.846-0.755-1.139-1.237c0.238-0.167,0.393-0.332,0.48-0.508c0.087-0.174,0.184-0.491,0.345-1.018
		c0.587-1.92,1.96-6.414,5.312-11.225l0.208-0.299c4.496-6.446,12.865-18.446,14.147-21.615c1.182-2.924,2.068-5.773,0.938-11.058
		c-0.291-1.354-0.64-3.651-1.083-6.56c-0.96-6.311-2.262-14.861-4.088-21.172c0.068-0.008,0.134-0.024,0.198-0.048
		c0.045,0.097,0.098,0.235,0.14,0.346c0.15,0.397,0.337,0.892,0.696,1.302c0.261,0.298,0.566,0.448,0.905,0.448
		c0.328,0,0.611-0.145,0.817-0.25c0.038-0.019,0.084-0.042,0.124-0.061c0.028,0.03,0.06,0.065,0.095,0.104
		c0.306,0.335,0.875,0.957,1.778,0.957c0.187,0,0.38-0.027,0.574-0.08c1.079-0.297,1.169-1.146,1.185-1.632
		c0.292,0.139,0.553,0.205,0.797,0.205c0.623,0,1.003-0.452,1.208-0.694c0.646-0.772,0.389-2.725-0.013-5.196
		c-0.118-0.729-0.265-1.63-0.232-1.862c0.2-0.375,0.123-1.133,0.069-1.379c-0.206-0.927-2.58-5.603-4.348-7.164
		c-1.022-0.901-1.438-1.38-1.703-1.834c1.378-1.284,2.182-2.428,2.217-2.479c0.082-0.117,0.095-0.269,0.034-0.398
		c-0.507-1.079-1.039-2.398-1.585-3.928c3.393,0.481,6.508,0.917,8.089,1.129c0.02,0.009,0.04,0.019,0.06,0.028
		c0.081,0.04,0.163,0.078,0.247,0.102c0.174,0.051,0.354,0.077,0.533,0.077c1.029,0,2.078-0.872,2.955-2.456
		c0.035-0.062,0.068-0.128,0.102-0.201c1.072,0.459,3.74,1.487,6.164,1.487c0.084,0,0.167-0.001,0.25-0.004
		c3.166-0.094,5.094-2.1,5.82-2.855c0.569-0.591,1.177-1.642,1.493-2.256c0.261-0.134,0.566-0.301,0.904-0.486
		c0.14-0.077,0.286-0.156,0.436-0.238c0.352,1.252,0.735,2.009,1.398,2.009c0.258,0,0.485-0.129,0.676-0.3l26.065-6.534
		c-0.056,1.147-0.105,1.994-0.151,2.579c-0.178,2.204-1.649,23.297-1.069,25.484c0.749,2.805,1.322,2.805,1.566,2.805
		c0.251,0,0.443-0.145,0.574-0.429c-0.263,3.865-0.404,10.12-0.129,15.473c0.278,5.467,1.763,22.613,2.295,26.997
		c0.531,4.382,1.476,16.986,1.751,24.369c0.092,2.497,0.308,4.358,0.498,6c0.366,3.154,0.608,5.238-0.354,8.989
		c-0.033,0.129-0.001,0.265,0.087,0.364c0.023,0.026,0.513,0.577,1.391,1.317c-0.417,0.255-0.858,0.527-1.308,0.804
		c-1.626,1.002-3.307,2.038-4.275,2.559c-0.615,0.332-1.694,0.741-2.838,1.175c-2.927,1.11-4.738,1.854-4.965,2.716
		c-0.251,0.287-0.4,0.617-0.445,0.985c-0.174,1.375,1.385,2.727,2.476,3.3c0.942,0.499,3.872,0.537,4.747,0.537
		c1.942,0,3.796-0.146,4.96-0.391c1.474-0.307,3.959-1.481,5.774-2.34c0.665-0.313,1.239-0.585,1.629-0.75
		c1.033-0.439,2.397-0.752,3.054-0.889l0.062,0.313c0.021,0.11,0.088,0.205,0.183,0.264c0.063,0.039,0.136,0.059,0.209,0.059
		c0.037,0,0.073-0.005,0.109-0.015c0.138-0.039,3.38-0.967,4.846-1.736c1.274-0.673,1.538-1.159,1.536-1.449l-0.075-0.766
		c2.037-0.175,2.872-0.442,2.908-0.454c0.165-0.054,0.276-0.209,0.275-0.383l-0.107-17.436l5.52,28.302
		c0.029,0.149,0.142,0.27,0.288,0.31l0.37,0.101c-0.834,2.029-2.073,4.762-2.221,5.087c-0.257,0.565-0.935,1.649-1.652,2.796
		c-1.396,2.23-2.403,3.886-2.574,4.723c-0.138,0.301-0.343,0.82-0.343,1.23c0,1.026,2.004,2.389,3.362,2.537
		c0.532,0.06,1.338,0.149,2.289,0.149c1.332,0,2.571-0.173,3.788-0.527c2.729-0.794,3.907-1.772,5.154-2.809l0.272-0.227
		c1.495-1.238,2.28-3.713,2.543-4.689l0.289,0.076c0.034,0.01,0.068,0.014,0.103,0.014c0.142,0,0.276-0.075,0.348-0.203
		c0.058-0.101,1.397-2.48,1.688-3.502c0.105-0.368,0.083-0.967-0.066-1.822c1.351-0.136,2.313-0.633,2.864-1.482
		c1.608-2.485-0.145-16.079-0.886-20.646c-0.154-0.951-0.325-2.338-0.542-4.095c-0.922-7.482-2.463-19.985-6.063-26.825
		c-0.03-1.079-0.326-11.238-0.774-20.595c0.684-0.608,1.312-1.471,1.522-1.771c0.271-0.106,0.923-0.385,1.46-0.797
		c0.692-0.538,1.367-1.904,1.441-2.059l0.409-0.907c0.35-0.084,1.006-0.3,1.294-0.782c0.307-0.516,0.79-3.242,0.931-4.065
		c0.008-0.046,0.008-0.093,0-0.138l-0.768-4.265c0.664-0.139,1.062-0.259,1.082-0.266c0.15-0.045,0.26-0.175,0.28-0.33
		c0.171-1.3,4.183-31.871,4.451-35.214c0.18-2.245-0.448-7.878-0.953-12.405c-0.26-2.332-0.484-4.345-0.53-5.311
		c-0.124-2.619-2.001-23.686-2.576-25.84c-0.396-1.488-3.259-4.191-8.509-8.036c-0.657-0.486-1.603-1.526-2.812-3.094
		c0.001-0.002,0.001-0.005,0.002-0.007c0.287-1.294-3.187-5.742-4.258-7.074c-0.078-0.097-0.194-0.149-0.312-0.149
		c-0.065,0-0.132,0.017-0.193,0.05c-0.104,0.057-0.173,0.155-0.197,0.264c-0.492-1.148-0.936-2.704-1.17-3.588
		c2.894-2.513,5.893-7.954,6.239-11.379c0.572-5.667-2.59-11.295-4.525-14.147c-2.309-3.401-7.41-3.909-10.245-3.909
		c-2.166,0-4.511,0.291-6.433,0.798c-0.983,0.272-9.595,2.704-10.744,4.515c-1.355,2.133-1.84,3.783-1.481,5.044
		c0.19,0.672,0.623,1.218,1.286,1.627c-1.034,2.097-0.938,5.009-0.874,6.973l0.009,0.28c0.015,0.498,0.365,0.816,0.646,1.072
		c0.187,0.169,0.363,0.33,0.397,0.489c0.072,0.335-0.07,1.433-1.838,5.042c-0.281,0.575-0.167,0.972-0.022,1.204
		c0.369,0.591,1.264,0.679,1.764,0.679c0.15,0,0.298-0.008,0.433-0.023c0.037,0.229-0.041,0.797-0.184,1.279
		c-0.054,0.181,0.025,0.374,0.191,0.464l0.819,0.449c-0.242,0.369-0.461,0.826-0.355,1.164c0.113,0.359,0.674,0.823,1.098,1.132
		c-0.045,0.688-0.092,2.691,0.743,3.717c0.31,0.38,0.704,0.596,1.173,0.643c0.089,0.009,0.187,0.013,0.291,0.013
		c0.049,0,0.1-0.001,0.151-0.002c0.031,0.009,0.064,0.014,0.099,0.014c0.008,0,0.017,0,0.024,0c0.007,0,0.242-0.016,0.611-0.016
		c0.766,0,2.513,0.07,3.601,0.663c-0.319,0.292-0.643,0.589-0.966,0.887c-1.852,0.353-3.152,0.58-3.865,0.676
		c-2.666,0.353-4.658,2.69-5.328,6.255c-0.282,1.495-0.833,4.61-1.363,8.677c-0.019,0.146-0.031,0.305-0.043,0.46l-0.011,0.135
		l-0.026,0.117c-0.377,1.847-0.702,3.442-0.914,4.926c-0.849,5.938-1.631,12.174-1.801,13.54l-27.014,6.602
		c-0.005,0.001-0.009,0.002-0.014,0.003c-0.218,0.026-0.411,0.121-0.561,0.279c-0.292,0.308-0.431,0.848-0.436,1.722
		c-0.65-0.138-1.178-0.203-1.633-0.203c-0.524,0-0.954,0.084-1.314,0.259c-0.356,0.172-0.885,0.441-1.484,0.746
		c-1.261,0.641-2.808,1.428-3.739,1.819c-0.953-0.616-3.066-0.817-3.323-0.839c-0.012-0.001-0.023-0.002-0.035-0.002
		c-0.042,0-0.083,0.007-0.123,0.02c-0.473,0.153-1.75,0.931-2.604,1.476c-0.262-0.509-0.526-0.865-0.801-1.082
		c-0.356-0.277-0.686-0.406-1.038-0.406c-0.001,0-0.003,0-0.007,0l-4.308-1.02c-1.987-0.638-5.263-1.363-9.712-2.149
		c-0.483-2.222-0.862-4.169-1.019-5.246c-0.402-2.752-0.36-6.497-0.315-10.461c0.014-1.256,0.028-2.525,0.028-3.781
		c0-1.622-0.117-3.309-0.232-4.745c0.184-4.204-0.034-7.317-0.059-7.658c-0.04-0.535-0.179-1.334-0.414-2.378
		c0.003-0.047,0.005-0.095,0.007-0.144c0.003-0.072,0.006-0.145,0.014-0.214c0.484-4.438-0.106-9.211-0.937-10.355
		c-0.548-0.758-2.62-2.093-3.594-2.696c0.181-0.292,0.293-0.688,0.358-1.229c0.16-1.374,0.416-2.57,0.685-3.201
		c0.189-0.441,0.367-0.613,0.722-0.954c0.082-0.079,0.171-0.165,0.268-0.262c0.423-0.423,0.269-0.869,0.104-1.152
		c0.279-0.095,0.44-0.256,0.611-0.679c0.075-0.189,0.113-0.375,0.129-0.541c0.181,0.029,0.397,0.051,0.637,0.051
		c0.397,0,0.78-0.061,1.137-0.18c0.479-0.159,1.002-0.389,1.243-0.882c0.201-0.412,0.171-0.933-0.098-1.688
		c-0.242-0.678-0.919-1.91-1.575-3.101c-0.522-0.95-1.114-2.026-1.189-2.322c-0.043-0.173,0.208-0.468,0.451-0.753
		c0.33-0.387,0.704-0.826,0.808-1.404c0.111-0.614-0.017-1.532-0.164-2.596c-0.111-0.799-0.237-1.705-0.276-2.594
		c-0.044-0.996-0.331-1.961-0.876-2.946c0.422-0.827,1.291-2.866,0.703-4.688c-0.323-1.001-1.034-1.769-2.112-2.283
		C82.625,6.317,76.992,4.605,71.492,4.605L71.492,4.605z"/>
</g>
<g>
	<g>
		
			<path fill="none" stroke="#010101" stroke-width="1.0356" stroke-linecap="round" stroke-linejoin="round" stroke-miterlimit="10" d="
			M163.15,52.152c0.162-0.151,0.312-0.255,0.442-0.299c0.62-0.208,1.181,0.31,1.584,0.871
			C164.504,52.389,163.574,52.218,163.15,52.152z"/>
		
			<path fill="none" stroke="#010101" stroke-width="1.0356" stroke-linecap="round" stroke-linejoin="round" stroke-miterlimit="10" d="
			M160.823,51.191l-0.229,0.055c0.299-0.509,0.629-1.037,0.975-1.581C161.298,50.159,161.049,50.67,160.823,51.191z"/>
		
			<path fill="none" stroke="#010101" stroke-width="1.0356" stroke-linecap="round" stroke-linejoin="round" stroke-miterlimit="10" d="
			M179.909,72.484c0,0,0-0.056,0.006-0.086L179.909,72.484z"/>
		
			<path fill="none" stroke="#010101" stroke-width="1.0356" stroke-linecap="round" stroke-linejoin="round" stroke-miterlimit="10" d="
			M165.509,52.233c-0.072-0.455-0.149-0.972-0.212-1.525c0.182,0.457,0.347,0.885,0.498,1.282
			C165.67,52.087,165.574,52.171,165.509,52.233z"/>
		
			<path fill="none" stroke="#010101" stroke-width="1.0356" stroke-linecap="round" stroke-linejoin="round" stroke-miterlimit="10" d="
			M152.904,108.432c0.026,0.149,0.054,0.29,0.081,0.42c-0.039-0.021-0.073-0.041-0.1-0.055
			C152.894,108.681,152.898,108.559,152.904,108.432z"/>
		
			<path fill="#3A3043" stroke="#010101" stroke-width="0.4315" stroke-linecap="round" stroke-linejoin="round" stroke-miterlimit="10" d="
			M122.581,88.64c-1.03,0.156-3.173-2.776-1.746,5.393c1.428,8.166,1.905,9.595,3.569,6.581c1.665-3.013,0.793-9.913,0.793-9.913
			L122.581,88.64z"/>
		
			<path fill="#CC8A66" stroke="#010101" stroke-width="0.4315" stroke-linecap="round" stroke-linejoin="round" stroke-miterlimit="10" d="
			M115.674,91.95c0.101,0.188-1.228,1.003-2.89,1.646c-0.998,0.385-3.289,0.438-4.777,1.253c-1.866,1.025-1.215,2.172-0.848,3.479
			c0.365,1.31,2.414,3.524,3.358,3.87c0.946,0.344,2.537,0.492,3.971,0.662c0.885,0.103,4.305-1.37,5.513-1.937
			c0.819-0.393,2.193-1.274,3.649-1.856c0.777-0.307,1.118-0.056,1.469-0.311c1.013-0.735,1.729-1.839,1.419-3.035
			c-0.312-1.204-2.071-4.117-2.974-4.379c-0.592-0.173-1.895-0.565-2.925-0.895C120.101,90.273,115.624,91.849,115.674,91.95z"/>
		
			<path fill="#3A3043" stroke="#010101" stroke-width="0.4315" stroke-linecap="round" stroke-linejoin="round" stroke-miterlimit="10" d="
			M152.88,52.125c-0.768,6.964-2.143,11.771-2.697,15.645c-0.966,6.757-1.834,13.806-1.834,13.806l-27.282,6.667
			c0,0,2.229,1.743,3.008,6.766c0.827,5.333-0.377,6.764-0.377,6.764l28.507-7.146L152.88,52.125z"/>
		
			<path fill="#161011" stroke="#010101" stroke-width="0.4315" stroke-linecap="round" stroke-linejoin="round" stroke-miterlimit="10" d="
			M145.12,216.222c-0.849,0.146-2.091,0.516-2.231,1.642c-0.143,1.127,1.233,2.355,2.265,2.897c1.152,0.609,6.823,0.659,9.439,0.109
			c1.959-0.408,5.867-2.448,7.329-3.067c1.464-0.622,3.524-0.989,3.524-0.989l0.14,0.705c0,0,3.323-0.946,4.77-1.705
			c1.325-0.7,1.322-1.093,1.322-1.093l-0.312-3.12L145.12,216.222z"/>
		
			<path fill="#3D2529" stroke="#010101" stroke-width="0.4315" stroke-linecap="round" stroke-linejoin="round" stroke-miterlimit="10" d="
			M158.682,208.64c-1.551,0.848-5.92,3.666-7.752,4.65c-1.834,0.99-7.4,2.549-7.611,3.665c-0.249,1.319,0.564,2.537,1.691,3.104
			c1.127,0.562,7.61,0.562,10.288-0.285c2.677-0.842,6.766-2.818,8.177-3.24c1.409-0.422,6.904-1.831,7.752-2.959
			c0.844-1.129,0.563-3.809,0.563-3.809L158.682,208.64z"/>
		
			<path fill="#161011" stroke="#010101" stroke-width="0.4315" stroke-linecap="round" stroke-linejoin="round" stroke-miterlimit="10" d="
			M176.439,235.562c-0.703,0.282-1.574,1.959-1.574,2.666s1.739,2.001,3.007,2.14c1.268,0.142,3.417,0.366,5.921-0.364
			c2.85-0.828,3.964-1.87,5.285-2.96c1.763-1.459,2.507-4.872,2.507-4.872l0.682,0.182c0,0,1.37-2.428,1.652-3.415
			c0.282-0.984-0.705-4.23-0.705-4.23s-8.739,2.678-9.303,2.959C183.348,227.953,176.439,235.562,176.439,235.562z"/>
		
			<path fill="#3D2529" stroke="#010101" stroke-width="0.4315" stroke-linecap="round" stroke-linejoin="round" stroke-miterlimit="10" d="
			M182.382,222.463c-0.14,0.848-2.276,5.629-2.982,7.181c-0.703,1.548-4.228,6.48-4.228,7.608c0,1.129,0.848,1.834,3.383,2.256
			c2.538,0.422,4.933-0.144,6.907-1.127c1.973-0.991,4.086-2.537,4.934-4.37c0.847-1.834,2.114-4.794,2.536-5.496
			c0.422-0.707,0.705-4.37,0.705-4.37L182.382,222.463z"/>
		
			<path fill="#AB8D81" stroke="#010101" stroke-width="0.4315" stroke-linecap="round" stroke-linejoin="round" stroke-miterlimit="10" d="
			M152.807,109.159c0,0-1.347,12.943-1.618,16.852c-0.271,3.914-0.404,10.25-0.134,15.508c0.268,5.257,1.752,22.52,2.292,26.97
			c0.539,4.446,1.482,17.124,1.754,24.402c0.268,7.28,1.619,9.305,0.132,15.104c0,0,1.755,2.022,4.722,3.505
			c2.966,1.484,7.147,2.292,10.382,2.156c3.235-0.134,4.45-0.537,4.45-0.537l-0.134-21.71l6.338,32.497c0,0,5.933,1.621,7.819,2.158
			c1.888,0.54,6.472,1.752,7.956-0.539c1.482-2.291-0.136-15.374-0.945-20.363c-0.809-4.99-2.155-22.517-6.607-30.88
			c0,0-0.808-28.99-1.889-35.866c-1.077-6.877,0-8.629,0-8.629l-8.764-12.811c0,0-9.976-1.616-14.968-3.236
			c-4.985-1.618-10.786-4.986-10.786-4.986V109.159z"/>
		
			<path fill="#FFFFFF" stroke="#010101" stroke-width="0.4315" stroke-linecap="round" stroke-linejoin="round" stroke-miterlimit="10" d="
			M158.473,51.715c0,0-6.19,18.219-6.365,21.046c-0.178,2.83-0.886,29.359-0.886,29.359s4.775,9.376,7.958,10.435
			c3.184,1.062,8.666,3.007,11.321,0.53c2.65-2.473-6.369-44.92-1.77-50.756c4.597-5.838,6.014-10.79,6.014-10.79l-5.484,0.533
			l-5.262,2.205l-2.343-3.266L158.473,51.715z"/>
		
			<path fill="#3D2529" stroke="#010101" stroke-width="0.4315" stroke-linecap="round" stroke-linejoin="round" stroke-miterlimit="10" d="
			M153.614,105.518c0.542,0.403,2.967,4.186,5.665,5.258c7.132,2.839,8.764,1.349,8.764,1.349l1.754,4.72
			c0,0-3.774,0.944-7.82-0.271c-4.049-1.213-8.225-5.529-8.766-6.878c-0.54-1.347-0.941-7.146-0.941-7.146L153.614,105.518z"/>
		
			<path fill="#CC8A66" stroke="#010101" stroke-width="0.4315" stroke-linecap="round" stroke-linejoin="round" stroke-miterlimit="10" d="
			M185.682,136.7c-0.248,0.492-1.571,0.395-1.867,5.353c0,0-0.539,2.505-0.833,3.34s-0.49,2.554-0.394,2.994
			c0.1,0.44,0.982,1.181,1.965-0.344c0.98-1.521,0.98-1.77,0.98-1.77s0.05,3.241,0.05,3.978c0,0.738-0.736,1.522-0.883,2.751
			c-0.147,1.228,0.099,1.425,0.783,1.228c0.688-0.198,1.178-0.587,1.178-0.587s0.296,0.587,1.278,0.097
			c0.984-0.491,2.16-2.259,2.16-2.259s0.836-0.294,1.475-0.784c0.637-0.494,1.325-1.915,1.325-1.915l0.488-1.084
			c0,0,0.937-0.144,1.23-0.637c0.293-0.491,0.881-3.928,0.881-3.928l-1.175-6.529L185.682,136.7z"/>
		
			<path fill="#3A3043" stroke="#010101" stroke-width="0.4315" stroke-linecap="round" stroke-linejoin="round" stroke-miterlimit="10" d="
			M181.934,44.033c0.401,0.405,4.178,6.204,6.2,7.686c2.024,1.482,7.822,5.799,8.359,7.817c0.54,2.023,2.429,22.925,2.562,25.756
			c0.136,2.831,1.754,14.293,1.484,17.665c-0.271,3.371-4.449,35.194-4.449,35.194s-6.677,1.89-11.059-0.811
			c-1.807-1.113-2.426-1.887-2.426-1.887s0.097-0.883,0.25-2.295l-0.119-0.334c-3.641,1.62-13.616,1.55-13.616,1.55
			s-0.81-3.91-1.349-7.283c-0.536-3.368-2.155-9.168-2.155-11.865c0-2.694-1.349-13.619-1.887-17.663
			c-0.541-4.046,0.538-15.911,0.538-15.911l5.945-21.075L181.934,44.033c0.401,0.405,4.178,6.204,6.2,7.686
			c2.024,1.482,7.822,5.799,8.359,7.817c0.54,2.023,2.429,22.925,2.562,25.756c0.136,2.831,1.754,14.293,1.484,17.665
			c-0.271,3.371-4.449,35.194-4.449,35.194s-5.991,1.89-11.059-0.811c-1.626-0.87-2.426-1.887-2.426-1.887
			s2.021-18.339,2.292-21.846c0.27-3.502,1.077-12.403,1.077-12.403s-4.18-10.922-5.121-20.631
			c-0.945-9.709-0.945-8.089-0.945-8.089"/>
		
			<path fill="#A61E22" stroke="#010101" stroke-width="0.4315" stroke-linecap="round" stroke-linejoin="round" stroke-miterlimit="10" d="
			M162.244,55.36c0,0-2.56,7.009-4.045,11.863c-1.481,4.855-2.967,9.844-2.155,22.116c0.807,12.266,0.268,11.462,2.965,18.066
			c0,0,1.889-4.586,2.024-6.744c0.136-2.155-1.482-20.629-1.079-23.865s-0.27-11.462,3.234-19.015
			c3.507-7.546,0.811-3.505,0.811-3.505L162.244,55.36z"/>
		
			<path fill="#3A3043" stroke="#010101" stroke-width="0.4315" stroke-linecap="round" stroke-linejoin="round" stroke-miterlimit="10" d="
			M165.48,46.056c0,0-5.93,1.215-7.954,1.484c-2.024,0.268-4.235,1.921-4.989,5.933c-0.359,1.908-0.881,4.981-1.359,8.655
			c-0.291,2.247,0.186,5.28-0.029,7.85c-0.253,3.026-0.5,8.174-0.502,11.257c-0.003,3.51-0.268,13.633-0.535,17.003
			c-0.271,3.37-1.618,23.328-1.081,25.351c0.54,2.023,1.215,3.238,1.482,2.023c0.271-1.213,0.503-3.161,1.031-5.489
			c0.479-2.121,0.859-7.319,1.263-10.42c0.404-3.104-0.136-14.295,0.136-17.125c0.269-2.834-0.271-10.249-0.271-10.249
			s1.484-20.768,2.562-25.08C156.312,52.929,165.48,46.056,165.48,46.056z"/>
		
			<path fill="#A61E22" stroke="#010101" stroke-width="0.4315" stroke-linecap="round" stroke-linejoin="round" stroke-miterlimit="10" d="
			M161.977,56.571c1.616,0.402,3.37-1.345,3.91-2.698c0.537-1.347-2.967-1.753-2.967-1.753S160.357,56.165,161.977,56.571z"/>
		
			<path fill="#FFFFFF" stroke="#010101" stroke-width="0.4315" stroke-linecap="round" stroke-linejoin="round" stroke-miterlimit="10" d="
			M165.074,44.771c-1.948,2.187-4.981,6.223-5.256,10.316l-0.268,2.831c0,0,2.829-5.665,4.042-6.065
			c1.215-0.405,2.213,1.981,2.213,1.981s-1.278-5.808-0.307-8.188C165.536,45.553,165.209,44.615,165.074,44.771z"/>
		
			<path fill="#3A3043" stroke="#010101" stroke-width="0.4315" stroke-linecap="round" stroke-linejoin="round" stroke-miterlimit="10" d="
			M166.558,42.417c-0.94,0.539-8.088,7.275-9.302,8.358c-1.212,1.078-2.427,4.451-2.427,4.451l1.754-0.81
			c0,0-2.699,3.102-2.969,3.773c-0.271,0.676-2.696,7.688-2.696,11.057c0,3.37,0,5.259,0.404,10.114
			c0.405,4.851,1.601,11.896,1.601,11.896s0.287-8.93,0.287-11.358c0-2.424,1.349-14.158,2.158-16.45
			c0.81-2.293,3.192-8.575,4.718-11.328C162.11,48.483,166.558,42.417,166.558,42.417z"/>
		
			<path fill="#CC8A66" stroke="#010101" stroke-width="0.4315" stroke-linecap="round" stroke-linejoin="round" stroke-miterlimit="10" d="
			M178.529,35.603c0,0.406,1.414,6.475,2.583,7.369c1.494,1.137-1.876,5.506-1.876,5.506s-11.891,6.324-12.315,5.782
			c-0.812-1.037-1.179-2.664-2.16-4.812c-0.377-0.836-0.87-1.713-1.189-2.979c-0.566-2.266-5.506-1.934-5.506-1.934l14.874-12.057
			L178.529,35.603z"/>
		
			<path fill="#FFFFFF" stroke="#010101" stroke-width="0.4315" stroke-linecap="round" stroke-linejoin="round" stroke-miterlimit="10" d="
			M173.571,46.729c0,0-7.279,4.72-8.091,5.525c-0.807,0.81-1.347,6.879-1.347,6.879s4.72-5.531,9.304-7.013
			c4.584-1.481,7.957-5.932,7.957-5.932l-0.678-3.773L173.571,46.729z"/>
		
			<path fill="#3A3043" stroke="#010101" stroke-width="0.4315" stroke-linecap="round" stroke-linejoin="round" stroke-miterlimit="10" d="
			M180.99,41.472c0,0,0.806,2.291-4.183,5.934c-4.989,3.639-10.921,12.266-12.003,17.933c-1.074,5.664-1.75,24.675-1.212,28.72
			c0.541,4.046,1.726-12.72,2.43-14.969c1.483-4.751,3.79-11.863,7.633-15.899l-1.433-2.709c0,0,2.487,0.553,3.258-0.939
			c2.978-5.765,9.491-10.444,9.688-11.329C185.438,47.001,180.99,41.472,180.99,41.472z"/>
		
			<path fill="none" stroke="#010101" stroke-width="0.4315" stroke-linecap="round" stroke-linejoin="round" stroke-miterlimit="10" d="
			M159.279,131.269c0.944,0.405,3.507,3.641,4.18,6.07c0.675,2.428,5.123,28.986,6.202,32.627
			c1.079,3.643,3.106,13.828,3.771,16.232c0.538,1.954,1.221,5.21,1.221,5.21"/>
		
			<line fill="none" stroke="#010101" stroke-width="0.4315" stroke-linecap="round" stroke-linejoin="round" stroke-miterlimit="10" x1="157.406" y1="109.987" x2="157.406" y2="113.866"/>
		
			<line fill="none" stroke="#010101" stroke-width="0.4315" stroke-linecap="round" stroke-linejoin="round" stroke-miterlimit="10" x1="162.034" y1="111.986" x2="161.977" y2="116.574"/>
		<g>
			
				<path fill="#CC8A66" stroke="#010101" stroke-width="0.4315" stroke-linecap="round" stroke-linejoin="round" stroke-miterlimit="10" d="
				M155.748,18.602c-3.046,1.437-2.769,6.35-2.688,8.985c0.019,0.624,0.906,0.886,1.035,1.49c0.223,1.024-1.368,4.277-1.87,5.302
				c-0.623,1.275,1.118,1.383,1.85,1.277c0.729-0.104,0.165,1.8,0.165,1.8l1.218,0.667c0,0-0.669,0.839-0.563,1.177
				c0.109,0.347,1.132,1.057,1.132,1.057s-0.414,3.961,1.54,4.156c1.959,0.199,9.004-1.963,10.287-3.989
				c1.283-2.024,0.713-4.052,3.062-3.647c2.476,0.431,5.945-5.505,4.687-7.25c-1.263-1.747-5.285-1.071-6.281-0.095
				c-0.995,0.978,0.312-6.617-4.703-10.355C159.606,15.436,155.748,18.602,155.748,18.602z"/>
			
				<path fill="#9C6026" stroke="#010101" stroke-width="0.4315" stroke-linecap="round" stroke-linejoin="round" stroke-miterlimit="10" d="
				M164.567,9.546c4.706-1.241,13.228-1.497,16.245,2.949c1.957,2.882,5.011,8.418,4.459,13.882
				c-0.383,3.79-4.168,10.178-7.198,11.928c-2.496,1.442-5.772,1.241-5.878,0.14c-0.089-0.905,0.291-1.734,1.002-2.641
				c1.597-2.018,2.768-4.471-0.283-6.271c-2.74-1.616-4.604,1.352-4.604,1.352s-2.44,2.294-3.848-2.432
				c-0.181-0.609-1.566-1.683-2.967-3.008c-0.967-0.923,0.062-3.101-3.091-4.323c-1.364-0.528-9.11,0.268-4.346-7.233
				C155.159,12.156,164.567,9.546,164.567,9.546z"/>
			
				<path fill="#CC8A66" stroke="#010101" stroke-width="0.4315" stroke-linecap="round" stroke-linejoin="round" stroke-miterlimit="10" d="
				M155.468,29.212c0.199-0.07,2.485,0.062,2.895,0.246c0.411,0.185-2.01,0.635-2.429,0.546
				C155.515,29.916,155.468,29.212,155.468,29.212z"/>
			
				<path fill="#CC8A66" stroke="#010101" stroke-width="0.4315" stroke-linecap="round" stroke-linejoin="round" stroke-miterlimit="10" d="
				M157.881,37.143c-0.207,0.173-1.659,0.883-2.335,0.953"/>
		</g>
		
			<path fill="#CC8A66" stroke="#010101" stroke-width="0.4315" stroke-linecap="round" stroke-linejoin="round" stroke-miterlimit="10" d="
			M122.735,90.999c-1.769-0.441-4.22-1.366-5.547-0.723c-1.325,0.642-5.021,2.611-5.905,2.812c-0.884,0.202-2.131,0.964-1.446,1.688
			c0.682,0.721,4.138,0.284,4.741-0.039s2.209-0.965,2.209-0.965s0.846,0.803,1.566,1.004"/>
	</g>
	
		<path fill="none" stroke="#010101" stroke-width="1.0356" stroke-linecap="round" stroke-linejoin="round" stroke-miterlimit="10" d="
		M78.906,42.958c-0.555-0.75-1.253-1.446-1.724-1.889c0.144-0.022,0.292-0.039,0.44-0.053C78.042,41.54,78.475,42.2,78.906,42.958z"
		/>
	
		<path fill="none" stroke="#010101" stroke-width="1.0356" stroke-linecap="round" stroke-linejoin="round" stroke-miterlimit="10" d="
		M84.138,81.995c-0.016-0.314-0.034-0.643-0.055-0.99l0.214-0.723c-0.024,0.466-0.04,0.886-0.046,1.26
		C84.203,81.73,84.167,81.883,84.138,81.995z"/>
	
		<path fill="none" stroke="#010101" stroke-width="1.0356" stroke-linecap="round" stroke-linejoin="round" stroke-miterlimit="10" d="
		M85.591,70.883c0-0.134,0-0.271,0-0.406c0.022-0.026,0.041-0.056,0.063-0.083C85.634,70.558,85.615,70.72,85.591,70.883z"/>
	
		<path fill="none" stroke="#010101" stroke-width="1.0356" stroke-linecap="round" stroke-linejoin="round" stroke-miterlimit="10" d="
		M80.352,46.117c-0.181-0.512-0.359-0.994-0.525-1.414c0.232,0.47,0.461,0.959,0.686,1.451L80.352,46.117z"/>
	
		<path fill="none" stroke="#010101" stroke-width="1.0356" stroke-linecap="round" stroke-linejoin="round" stroke-miterlimit="10" d="
		M80.863,41.43l-0.118-0.094c0.042,0.003,0.08,0,0.118,0.003V41.43z"/>
	
		<path fill="none" stroke="#010101" stroke-width="1.0356" stroke-linecap="round" stroke-linejoin="round" stroke-miterlimit="10" d="
		M89.708,125.292c-1.074-2.365-1.796-4.309-2.288-5.889c0.086,0.02,0.177,0.041,0.267,0.055c0.55,1.412,1.37,2.711,1.78,3.178
		c0.697,0.794,0.997,1.396,0.997,3.882c0,0.271,0.011,0.516,0.031,0.738C90.24,126.551,89.979,125.887,89.708,125.292z"/>
	
		<path fill="#FFFFFF" stroke="#010101" stroke-width="0.4315" stroke-linecap="round" stroke-linejoin="round" stroke-miterlimit="10" d="
		M77.529,42.717c-0.778-0.779-2.335-3.407-3.211-1.752c-0.876,1.655,0.098,5.74,0.098,5.74s3.502,0.973,4.183-0.778
		C79.281,44.175,77.529,42.717,77.529,42.717z"/>
	
		<path fill="#181618" stroke="#010101" stroke-width="0.4315" stroke-linecap="round" stroke-linejoin="round" stroke-miterlimit="10" d="
		M54.445,220.166c-0.123,0.246-0.123,1.953,0,2.38c0.121,0.431,4.761,3.725,5.494,3.606c0.734-0.123,0.427-0.675,0.427-0.675
		s0.916,0.489,1.833,0.977c0.915,0.489,3.415,2.886,6.043,3.543c2.687,0.671,7.779,1.551,11.443,0.698
		c2.914-0.682,3.514-1.554,3.759-2.526c0.244-0.981-0.731-2.14-1.832-2.385C80.514,225.538,54.445,220.166,54.445,220.166z"/>
	
		<path fill="#181618" stroke="#010101" stroke-width="0.4315" stroke-linecap="round" stroke-linejoin="round" stroke-miterlimit="10" d="
		M84.726,211.007c0.611,1.16,0.856,2.688,0.061,3.42c-0.794,0.731-1.953,1.101-3.784,1.038c-2.624-0.087-6.472-0.794-8.487-2.259
		c-2.015-1.466-3.236-2.199-3.236-2.199l6.044-3.845L84.726,211.007z"/>
	
		<path fill="#2A272B" stroke="#010101" stroke-width="0.4315" stroke-linecap="round" stroke-linejoin="round" stroke-miterlimit="10" d="
		M74.531,201.728c0.06,1.1,0.732,2.26,1.832,3.056c1.098,0.794,5.676,3.415,6.777,4.395c1.1,0.975,2.151,2.049,1.953,3.233
		c-0.121,0.733-0.244,1.77-2.136,2.077c-1.892,0.301-6.348,0-8.487-1.221c-2.137-1.221-4.761-2.996-4.761-2.996
		s-0.245-4.877-0.305-5.065c-0.063-0.184,2.382-4.574,2.564-4.517C72.15,200.75,74.531,201.728,74.531,201.728z"/>
	
		<path fill="#2A272B" stroke="#010101" stroke-width="0.4315" stroke-linecap="round" stroke-linejoin="round" stroke-miterlimit="10" d="
		M70.745,216.382c0.366,0.73,2.014,3.053,3.541,3.849c1.527,0.791,5.258,2.699,6.167,3.355c1.099,0.796,2.992,2.624,2.869,3.479
		c-0.124,0.858-0.976,1.892-2.319,2.261c-1.344,0.363-4.395,1.16-8.304,0.609c-3.906-0.547-5.493-1.098-6.35-1.464
		c-0.854-0.367-4.154-3.138-5.494-4.031c-1.466-0.976-6.044-4.088-6.044-4.088l7.327-2.87L70.745,216.382z"/>
	
		<path fill="#CC8A66" stroke="#010101" stroke-width="0.4315" stroke-linecap="round" stroke-linejoin="round" stroke-miterlimit="10" d="
		M93.252,112.273c0.4,0.896,0.498,1.294,2.193,2.791c1.692,1.493,4.029,6.076,4.223,6.95c0.075,0.341,0.075,0.945-0.039,1.118
		c-0.311,0.472,1.221,5.874,0.299,6.976c-0.413,0.49-0.798,0.796-1.694,0.301c-0.897-0.5,0.245,1.269-1.295,1.692
		c-1.28,0.351-1.893-0.799-2.192-0.995c-0.297-0.202-0.998,0.793-1.694,0c-0.698-0.799-0.696-2.093-1.195-1.799
		c-0.499,0.301-1.395-0.294-1.395-2.789c0-2.486-0.3-3.087-0.997-3.882c-0.697-0.797-2.59-3.986-2.292-6.079
		c0.299-2.091,1.694-4.083,1.694-4.083L93.252,112.273z"/>
	
		<path fill="#5C5562" stroke="#010101" stroke-width="0.4315" stroke-linecap="round" stroke-linejoin="round" stroke-miterlimit="10" d="
		M52.645,124.743c-0.732,1.832-0.732,4.589,0.919,11.926c1.193,5.299,3.853,29.168,3.303,32.29
		c-0.55,3.122-4.036,18.348-4.222,27.522c-0.181,9.174-0.363,24.037-0.363,24.037s6.604,2.932,13.392-0.186
		c6.789-3.119,6.789-3.119,6.789-3.119s-0.112-11.322,0-13.211c0,0,2.751-0.733,3.119-1.467c0.367-0.733,1.468-6.238,5.687-12.293
		c4.222-6.054,13.027-18.657,14.313-21.836c1.202-2.973,2.017-5.685,0.918-10.823c-1.103-5.135-3.122-24.221-6.791-32.292
		c-3.668-8.072-3.3-11.378-3.3-11.378s-0.368-11.739-7.707-6.968C71.361,111.714,52.645,124.743,52.645,124.743z"/>
	
		<path fill="none" stroke="#010101" stroke-width="0.4315" stroke-linecap="round" stroke-linejoin="round" stroke-miterlimit="10" d="
		M93.051,118.801c1.394,0.398,1.931,0.54,2.42,0.906c0.533,0.401,1.666,0.836,1.866,1.532c0.2,0.696,1.019,1.834,1.425,2.022
		c0.418,0.196,0.716-0.037,0.906-0.453"/>
	
		<path fill="#FFFFFF" stroke="#010101" stroke-width="0.4315" stroke-linecap="round" stroke-linejoin="round" stroke-miterlimit="10" d="
		M74.419,47.843l3.846-2.237l4.387,1.074l2.955,6.8c0,0,1.432,13.963,0.894,15.48c-0.537,1.523-3.133,3.944-3.133,3.944
		s-5.726-8.417-7.338-11.279c-0.694-1.236-1.69-3.005-2.597-4.619c-1.192-2.121-2.234-3.972-2.234-3.972L74.419,47.843z"/>
	
		<path fill="#272429" stroke="#010101" stroke-width="0.4315" stroke-linecap="round" stroke-linejoin="round" stroke-miterlimit="10" d="
		M77.642,50.531c0.446,0.716,1.79,4.835,2.147,6.442c0.357,1.615,2.417,8.949,2.238,12.89c-0.18,3.934,1.163,9.753,1.163,9.753
		l0.536,2.594l1.613-5.458c0,0,0.806-9.13-0.448-12.978c-1.255-3.848-4.654-12.616-5.996-13.689
		C77.552,49.01,77.642,50.531,77.642,50.531z"/>
	
		<path fill="#272429" stroke="#010101" stroke-width="0.4315" stroke-linecap="round" stroke-linejoin="round" stroke-miterlimit="10" d="
		M76.12,47.4c0,0,1.343-0.718,1.612-1.073c0.266-0.358,1.971,3.667,1.971,4.296c0,0.625-0.808,1.344-1.346,1.433
		c-0.536,0.087-2.864-2.062-2.864-2.062L76.12,47.4z"/>
	
		<path fill="#FFFFFF" stroke="#010101" stroke-width="0.4315" stroke-linecap="round" stroke-linejoin="round" stroke-miterlimit="10" d="
		M75.851,40.688c0,0,1.254,5.011,0.895,5.727c-0.357,0.716,0.627-0.36,2.417,1.878c1.789,2.238,3.043,3.669,3.043,3.669
		s-2.06-7.07-2.955-8.501c-0.895-1.431-2.595-2.863-2.595-2.863L75.851,40.688z"/>
	
		<path fill="#CC8A66" stroke="#010101" stroke-width="0.4315" stroke-linecap="round" stroke-linejoin="round" stroke-miterlimit="10" d="
		M61.712,27.083c0.09,1.166,0.269,8.055-0.088,10.023c-0.359,1.968,13.691,11.277,13.691,11.277l0.536,0.178
		c0,0-0.983-6.268,0.092-7.07c1.074-0.803,4.474-0.448,4.474-0.448l-10.56-15.57L61.712,27.083z"/>
	
		<path fill="#5C5562" stroke="#010101" stroke-width="0.4315" stroke-linecap="round" stroke-linejoin="round" stroke-miterlimit="10" d="
		M80.863,39.883c0.894,0.358,5.01,2.86,5.727,3.848c0.715,0.984,1.352,5.601,0.863,10.078C87,57.978,88.134,63.8,88.134,68.99
		s-0.246,10.631,0.291,14.3c0.537,3.67,3.982,19.506,7.471,26.933c0,0-3.221,4.654-7.875,5.637c0,0,0.987,3.077,0.717,3.404
		c-0.496,0.585-1.968-0.093-1.968-0.093s-2.821-0.167-3.76-15.927c-0.324-5.45,1.074-21.033,1.074-21.033s2.417-9.754,2.864-12.257
		c0.447-2.51-0.984-9.757-1.163-10.92c-0.178-1.16-4.922-16.376-4.922-16.376V39.883z"/>
	
		<path fill="#FFFFFF" stroke="#010101" stroke-width="0.4315" stroke-linecap="round" stroke-linejoin="round" stroke-miterlimit="10" d="
		M61.671,34.836c0,0-0.763,1.376,1.115,2.808s13.96,9.13,13.96,9.13l-0.267,8.41L62.249,44.175l-2.953-5.009L61.671,34.836z"/>
	
		<path fill="none" stroke="#010101" stroke-width="0.4315" stroke-linecap="round" stroke-linejoin="round" stroke-miterlimit="10" d="
		M88.021,115.859c0,0-0.613-2.679-0.805-4.298c-0.374-3.17-0.657-24.478-0.64-29.34c0.017-4.861,0.885-12.714,0.973-15.665"/>
	
		<path fill="#5C5562" stroke="#010101" stroke-width="0.4315" stroke-linecap="round" stroke-linejoin="round" stroke-miterlimit="10" d="
		M70.006,51.605c2.386,2.384,10.896,16.073,11.445,19.379c0.551,3.301,3.2,14.825,2.867,16.17
		c-0.333,1.347-0.297,23.276-0.85,28.596c-0.55,5.321-1.963,11.285-3.853,13.027c-1.666,1.539-4.583,4.586-14.309,2.569
		c-9.723-2.018-15.412-4.586-16.329-6.789c-0.917-2.2,2.446-17.001,4.402-25.138c1.34-5.573-1.932-14.801-3.571-20.453
		c-3.063-10.589-6.52-26.329-3.033-29.451c3.486-3.118,8.073-6.055,9.357-7.521c1.285-1.47,2.937-2.203,2.937-2.203L70.006,51.605z"
		/>
	
		<path fill="#3A363E" stroke="#010101" stroke-width="0.4315" stroke-linecap="round" stroke-linejoin="round" stroke-miterlimit="10" d="
		M102.885,92.213c0.586,0.003,0.966-0.478,1.772,0.154s1.442,2.762,1.79,4.021c0.509,1.842,0.842,6.475-0.241,8.424
		c-0.781,1.411-1.87,2.527-3.026,2.188c-2.119-0.627-3.916-3.479-3.612-7.675c0.304-4.197,1.983-6.66,2.686-6.889
		c0.704-0.23,0.704-0.23,0.704-0.23"/>
	
		<path fill="#5C5562" stroke="#010101" stroke-width="0.4315" stroke-linecap="round" stroke-linejoin="round" stroke-miterlimit="10" d="
		M61.028,35.772c-0.447,0.448-0.835,1.959,0.416,3.035c1.253,1.075,8.591,8.504,10.562,11.009c1.968,2.502,6.532,9.126,8.231,12.527
		c1.702,3.399,3.174,9.854,3.492,13.694c0.59,7.146,0.547,10.176,0.547,10.176s-3.679-15.01-6.186-18.32
		C75.583,64.582,67.887,54.56,67.887,54.56l1.253-2.241l-2.238-0.894c0,0-7.284-6.311-9.576-9.217c0,0-0.805-1.165-0.716-1.792
		C56.7,39.792,61.028,35.772,61.028,35.772z"/>
	
		<path fill="#5C5562" stroke="#010101" stroke-width="0.4315" stroke-linecap="round" stroke-linejoin="round" stroke-miterlimit="10" d="
		M78.626,39.704l4.294,3.313l1.074,3.308l1.433,0.537c0,0,2.237,7.337,2.417,9.754c0.177,2.414,0.522,12.138-1.7,19.599
		c-1.558,5.227-1.88,7.158-1.88,7.158s-0.27-4.653,1.075-11.006c1.34-6.354-0.27-13.6-1.075-16.288
		c-0.807-2.683-4.744-14.049-7.607-16.017C73.792,38.092,78.626,39.704,78.626,39.704z"/>
	
		<path fill="#CC8A66" stroke="#010101" stroke-width="0.4315" stroke-linecap="round" stroke-linejoin="round" stroke-miterlimit="10" d="
		M108.434,92.041c-0.65,0.213-3.618,2.076-4.353,2.708c-0.74,0.627-2.379,2.789-2.034,5.123c0.346,2.327,0.933,4.972,4.316,4.366
		c0,0,3.656,1.746,6.696,1.651c3.039-0.09,4.904-2.068,5.568-2.758c0.662-0.688,1.562-2.345,1.709-2.835
		c0.144-0.489,0.002-3.415,0.188-4.114c0.188-0.702-0.613-3.024-1.917-2.599c-1.304,0.425-3.503,1.733-4.504,1.855
		c-1.002,0.118-3.122-0.606-3.603-0.684c-0.486-0.077,1.58-0.874,1.409-1.545C111.683,92.321,108.434,92.041,108.434,92.041z"/>
	
		<path fill="none" stroke="#010101" stroke-width="0.4315" stroke-linecap="round" stroke-linejoin="round" stroke-miterlimit="10" d="
		M81.634,128.042c-0.916,2.571-2.019,2.388-2.019,8.627c0,6.235-0.365,29.357-1.1,32.836c-0.734,3.49-3.303,15.415-4.219,20.555
		c-0.918,5.133-1.835,13.943-1.835,13.943"/>
	
		<path fill="#FFFFFF" stroke="#010101" stroke-width="0.4315" stroke-linecap="round" stroke-linejoin="round" stroke-miterlimit="10" d="
		M101.816,93.652c0.512,0.014,2.786,0.398,2.786,0.398s-0.981,1.29-1.546,3.91c-0.262,1.21-0.118,4.835,1.528,6.392
		c0.596,0.562,1.419,0.55,1.419,0.55l-4.681-0.019c0,0-2.297-5.204-1.228-7.886C101.164,94.319,101.816,93.652,101.816,93.652z"/>
	
		<path fill="#5C5562" stroke="#010101" stroke-width="0.4315" stroke-linecap="round" stroke-linejoin="round" stroke-miterlimit="10" d="
		M46.149,50.28c-1.452,2.158-1.468,5.944-0.233,12.621c1.235,6.676,10.337,28.709,14.46,34.315c2.905,3.952,9.355,4.547,9.355,4.547
		c4.796,1.229,35.354,5.427,34.034,5.215c-1.318-0.212-2.609-2.877-2.867-6.28c-0.484-6.403,3.326-8.559,3.326-8.559l-4.765-1.124
		c-6.338-2.023-23.894-4.371-25.336-4.379c-1.444-0.004-6.077-13.008-7.146-15.896c-0.69-1.867-0.525-3.789-0.525-3.789"/>
	
		<path fill="none" stroke="#010101" stroke-width="0.4315" stroke-linecap="round" stroke-linejoin="round" stroke-miterlimit="10" d="
		M67.113,90.298c1.805-1.44,5.803-3.495,6.886-3.673"/>
	
		<path fill="#CC8A66" stroke="#010101" stroke-width="0.4315" stroke-linecap="round" stroke-linejoin="round" stroke-miterlimit="10" d="
		M84.8,12.855c0.716,0.984,1.878,2.42,1.97,4.475c0.089,2.059,0.625,4.114,0.446,5.102c-0.178,0.987-1.431,1.608-1.253,2.326
		c0.181,0.715,2.327,4.205,2.775,5.459c0.446,1.252,0.178,1.701-0.895,2.057c-1.074,0.358-2.059,0-2.059,0s0.089,0.448-0.089,0.898
		c-0.179,0.444-0.267,0.444-0.716,0.533c-0.447,0.092,0.627,0.627,0.09,1.165c-0.537,0.534-0.806,0.713-1.076,1.342
		c-0.266,0.625-0.537,1.791-0.714,3.311c-0.181,1.52-0.716,1.431-1.433,1.699c-0.716,0.27-2.327,0.092-3.759-0.534
		c-1.432-0.628-5.637-3.312-7.605-5.55c-1.968-2.236-1.791-4.832-1.612-5.458c0.181-0.626-1.251,1.252-4.208-3.851
		c-3.765-6.507-0.536-7.692,1.613-7.961c2.147-0.271,18.077-6.713,18.077-6.713L84.8,12.855z"/>
	
		<path fill="none" stroke="#010101" stroke-width="0.4315" stroke-linecap="round" stroke-linejoin="round" stroke-miterlimit="10" d="
		M81.131,33.261c0.538,0.356,3.849,0.445,3.849,0.445"/>
	
		<path fill="none" stroke="#010101" stroke-width="0.4315" stroke-linecap="round" stroke-linejoin="round" stroke-miterlimit="10" d="
		M80.863,25.294c0,0,1.344-0.987,2.328-0.894v0.982L80.863,25.294z"/>
	
		<path fill="#301E12" stroke="#010101" stroke-width="0.4315" stroke-linecap="round" stroke-linejoin="round" stroke-miterlimit="10" d="
		M85.785,14.469c0,0,2.864-4.835-1.074-6.711c-3.938-1.881-17.719-5.461-23.087,0.715c-5.371,6.174-4.565,8.502-4.118,11.633
		c0.447,3.132,3.401,8.143,3.937,8.77c0.537,0.625,3.581-1.342,3.938-1.702c0.358-0.357-1.7-2.867-0.447-4.655
		c1.254-1.788,3.581-1.431,4.744-0.358c1.164,1.076,1.879,3.046,2.505,2.956c0.625-0.089,2.059-4.209,3.132-4.832
		c1.073-0.629,0.177-3.311,1.341-4.298c1.164-0.981,2.507-3.041,5.46-2.415C85.07,14.199,85.785,14.469,85.785,14.469z"/>
</g>
</svg>
