<?xml version="1.0" encoding="utf-8"?>
<!-- Generator: Adobe Illustrator 15.0.0, SVG Export Plug-In . SVG Version: 6.00 Build 0)  -->
<!DOCTYPE svg PUBLIC "-//W3C//DTD SVG 1.1//EN" "http://www.w3.org/Graphics/SVG/1.1/DTD/svg11.dtd">
<svg version="1.1" id="Layer_1" xmlns="http://www.w3.org/2000/svg" xmlns:xlink="http://www.w3.org/1999/xlink" x="0px" y="0px"
	 width="250px" height="250px" viewBox="0 0 250 250" enable-background="new 0 0 250 250" xml:space="preserve">
<path fill="#E6E7E8" d="M78.704,193.029c-13.297,7.677-4.35,25.371,20.011,39.529c24.332,14.133,54.842,19.374,68.139,11.695
	c13.302-7.678,4.352-25.362-19.981-39.512C122.513,190.594,92.005,185.353,78.704,193.029z"/>
<g>
	<g>
		
			<path fill="none" stroke="#010101" stroke-width="1.1494" stroke-linecap="round" stroke-linejoin="round" stroke-miterlimit="10" d="
			M72.563,111.525c0.103,0.242,0.273,0.621,0.571,1.197c0.65,1.286,1.932,3.271,3.106,3.459c0.26,0.041,0.583,0.024,0.914-0.025
			c1.06,0.288,2.56,0.159,3.402,0.139c0.465-0.013,0.844-0.209,1.165-0.476c0.626,0.187,1.364,0.047,1.816-0.126
			c0.248-0.104,0.443-0.344,0.623-0.681c0.753,0.174,1.938-0.646,2.119-1.117c0.207-0.48,0.612-1.61,0.451-2.315
			c-0.039-0.163-0.092-0.291-0.141-0.385c0.123-0.954-0.09-1.725-0.167-2.694c-0.084-1.154,0.187-1.87,0.205-2.772
			c0.026-0.949-0.293-1.951-0.687-2.822c1.083-0.562,1.449-1.059,1.449-1.059s3.379-19.26,3.428-19.758
			c0.04-0.491,0.89,8.538-0.02,13.265c-0.925,4.725-3.583,15.931-3.159,18.623c0.208,1.311,1.205,3.56,2.458,5.719
			c-0.603,7.724-1.274,24.874-1.43,28.148c-0.178,3.942-2.485,14.068-3.353,18.3c-2.319,11.336-1.28,31.752-1.183,40.38
			c0.091,8.622,0.19,9.49,0.19,9.49s0.148,0.498,0.501,1.12c-0.101,0.617-0.132,1.216-0.042,1.801
			c-0.533,1.875-0.126,4.44-0.126,4.44s0.436,1.01,1.417,1.613c1.198,0.738,4.154,0.969,6.058,0.395
			c2.084-0.625,6.117-4.357,6.117-4.357l0.114-2.146c0,0,1.322-2.331,3.454-3.816c1.46-1.016,3.421-2.348,7.375-5.107
			c3.06-2.132,2.974-4.498,2.271-6.16c-0.084-0.636-0.256-1.052-0.256-1.052c-2.083-4.067-6.892-3.904-9.391-3.187
			c-0.328-5.551,0.047-13.692,0.45-16.742c0.317-2.419,3.914-17.232,7.261-30.089c0.751,0.289,1.776,0.475,2.026,0.566l-0.066,0.009
			c0,0,0.049,0.011,0.121,0.022c0,0.009,0.004,0.011-0.007,0.011c-0.266,0.13-0.679,0.632-0.459,1.348
			c0.247,0.797,3.421,0.818,3.443,0.967c0.023,0.156,0.564,0.389,1.32,0.535c1.103,0.22,2.207-0.035,2.798-0.37
			c0.185-0.098,0.414-0.182,0.656-0.26c0.637,1.617,1.165,2.924,1.538,3.769c2.155,4.846,5.234,16.66,5.888,26.71
			c0.657,10.045,13.034,33.549,13.754,35.164c0.712,1.603,0.513,5.84,1.408,7.162c0.018,0.159,0.047,0.314,0.078,0.477l-0.062-0.006
			c0,0-0.79,2.848-0.211,4.398c0.49,1.308,2.531,1.786,2.531,1.786c5.995,1.432,13.156-0.837,13.156-0.837l0.311-2.502
			c0,0,0,0,0.909-0.097c0.911-0.098,10.689-0.812,12.328-1.022c2.414-0.318,6.547-1.721,8.272-3.543
			c1.101-1.158,1.811-2.027,2.192-3.408c0.279-1.004-0.073-1.92-0.564-2.634c-0.148-0.67-0.355-1.143-0.355-1.143
			c-2.09-3.885-8.166-3.431-11.305-3.622c-2.113-0.129-4.485-0.927-6.08-1.577c-1.392-2.249-4.707-6.176-5.811-7.963
			c-1.355-2.188-7.448-20.815-7.896-27.402c-0.452-6.585-3.745-33.407-5.296-41.123c-1.169-5.794-4.776-14.517-7.607-20.067
			c0.485-2.121-0.159-4.37-0.933-6.458c-1.34-3.602-3.875-16.096-3.325-20.357c0.392-3.071,4.571-13.819,5.294-22.143
			c0.012-0.003,0.012-0.013,0.012-0.024h-0.012c0.284-3.212,0.052-6.065-1.118-7.968c0,0-2.19-3.718-6.103-6.688
			c-0.571-1.148-2.841-4.186-4.372-5.812c-0.298-1.276-1.848-6-2.232-6.236c-0.077-0.049-0.518-0.134-1.187-0.234
			c-0.017-1.379,0.306-3.637,0.306-3.637c1.134,0.529,3.719-0.013,4.694-0.135c0.971-0.13,2.249-0.976,2.588-1.886
			c0.343-0.901,1.645-2.84,2.441-4.591c0.796-1.742,0.729-3.351,1-3.434c0.272-0.084,1.657-0.751,1.674-1.399
			c0.011-0.39-0.621-1.447-0.65-1.714c-0.027-0.271,0.722-1.375,0.99-2.74c0.202-0.958,0-3.293-0.216-5.009
			c0.339-1.143,0.606-1.806,0.606-1.806c0.431-1.897,3.185-9.757-8.483-11.702c-11.682-1.936-20.373,6.752-21.467,8.259
			c-1.328,1.815-4.452,7.974-2.479,14.718c1.352,4.611,2.35,6.478,3.152,7.399c-0.055,0.33-0.112,0.665-0.168,1.003
			c-0.13-0.039-0.232-0.044-0.232-0.044c-0.031,0.048-0.09,0.106-0.139,0.174c0.013-0.016,0.015-0.029,0.02-0.045
			c-0.209,0.225-0.667,0.71-1.137,1.24c-0.561-0.046-1.093-0.021-1.232,0.176c0.252-0.5-0.101-0.182-0.499,0.252
			c-1.33-0.621-2.912-1.294-4.701-1.859c-2.905-0.925-9.036-2.798-13.792,4.069c-4.758,6.875-5.582,21.724-6.637,26.104
			c-1.055,4.386-3.56,17.26-3.842,22.707c-0.254,4.76-0.93,10.36-0.672,11.217c0.091,0.304,0.776,1.158,1.842,2.044
			c-0.231,0.897-0.581,2.084-1.029,3.207c-0.788,2.044-1.793,4.003-2.106,5.175C72.21,110.577,72.307,111.099,72.563,111.525z
			 M130.318,54.409c-0.034-0.029-0.08-0.061-0.119-0.091c0,0-0.113-0.148-0.3-0.377C130.104,54.167,130.253,54.331,130.318,54.409z
			 M110.037,150.738c1.027-3.912,2.012-7.561,2.844-10.53c0.104,0.223,0.207,0.439,0.31,0.653c-0.407,1.174-0.568,2.276-0.568,2.276
			c0,0.839-0.628,6.21-0.698,6.509c-0.064,0.297-0.604,1.269-0.604,1.269S110.688,150.736,110.037,150.738z M83.081,111.23
			c-0.007,0.067,0.053,0.176,0.145,0.3c0,0,0,0.007-0.007,0.007c-0.547-0.949-1.894-2.846-2.016-2.925
			c-0.147-0.09-0.103-1.003,0.123-0.947c0.123,0.035,0.667,0.062,1.115,0.066c0.372,0.009,0.672-0.003,0.681,0.017
			c0.061,0.273,0.181,1.19,0.031,2.646C83.141,110.511,83.134,110.828,83.081,111.23z"/>
		
			<path fill="none" stroke="#010101" stroke-width="1.1494" stroke-linecap="round" stroke-linejoin="round" stroke-miterlimit="10" d="
			M106.216,35.534c0.025-0.037,0.097-0.097,0.097-0.097s-0.042,0.048-0.119,0.128C106.202,35.556,106.202,35.537,106.216,35.534z"/>
	</g>
	
		<path fill="#1C1610" stroke="#010101" stroke-width="0.3284" stroke-linecap="round" stroke-linejoin="round" stroke-miterlimit="10" d="
		M110.029,201.737c0.837,0.709,4.109,4.767-0.841,8.219c-3.954,2.76-5.915,4.092-7.375,5.107c-2.131,1.485-3.454,3.816-3.454,3.816
		l-0.114,2.146c0,0-4.033,3.732-6.117,4.357c-1.904,0.574-4.86,0.344-6.058-0.395c-0.981-0.604-1.417-1.613-1.417-1.613
		s-0.623-3.948,0.689-5.631C86.67,216.06,110.029,201.737,110.029,201.737z"/>
	
		<path fill="#1C1610" stroke="#010101" stroke-width="0.3284" stroke-linecap="round" stroke-linejoin="round" stroke-miterlimit="10" d="
		M179.639,219.653c0.678,0.515,2.329,2.104,1.81,3.952c-0.382,1.381-1.092,2.25-2.192,3.408c-1.726,1.822-5.858,3.225-8.272,3.543
		c-1.639,0.211-11.417,0.925-12.328,1.022c-0.909,0.097-0.909,0.097-0.909,0.097l-0.311,2.502c0,0-7.161,2.269-13.156,0.837
		c0,0-2.041-0.479-2.531-1.786c-0.579-1.551,0.211-4.398,0.211-4.398l6.731,0.329L179.639,219.653z"/>
	
		<path fill="#30302D" stroke="#010101" stroke-width="0.3284" stroke-linecap="round" stroke-linejoin="round" stroke-miterlimit="10" d="
		M161.497,213.896c0.859,0.438,4.586,2.119,7.727,2.312c3.139,0.191,9.215-0.263,11.305,3.622c0,0,1.119,2.53-0.015,4.141
		c-1.134,1.615-4.221,4.946-12.384,5.478c-8.156,0.54-14.598,2.034-15.594,2.038c-0.987,0.002-9.424,0.603-10.354-2.099
		c-0.936-2.697,0.77-5.609,0.77-5.609L161.497,213.896z"/>
	
		<path fill="#30302D" stroke="#010101" stroke-width="0.3284" stroke-linecap="round" stroke-linejoin="round" stroke-miterlimit="10" d="
		M100.435,200.158c1.26-0.971,8.157-2.516,10.769,2.586c0,0,1.137,2.771-0.897,4.963c-1.998,2.176-7.441,5.358-8.565,6.18
		c-2.104,1.534-5.483,5.252-7.32,6.642c-2.452,1.879-7.257,2.157-8.878,0.115c-1.624-2.032-0.348-4.261-0.21-6.771
		C85.469,211.357,100.435,200.158,100.435,200.158z"/>
	
		<path fill="#D4D4D4" stroke="#010101" stroke-width="0.3284" stroke-linecap="round" stroke-linejoin="round" stroke-miterlimit="10" d="
		M107.073,35.938c-0.227-0.506-0.76-0.502-0.76-0.502c-0.213,0.269-1.011,1.066-0.76,1.766c0.022,0.069,0.059,0.141,0.103,0.21
		c0.526,0.736,1.15,0.258,1.15,0.258L107.073,35.938z"/>
	
		<path fill="#6F6855" stroke="#010101" stroke-width="0.3284" stroke-linecap="round" stroke-linejoin="round" stroke-miterlimit="10" d="
		M90.448,116.305c-0.648,3.382-1.601,27.587-1.782,31.54c-0.178,3.942-2.485,14.068-3.353,18.3
		c-2.319,11.336-1.28,31.752-1.183,40.38c0.091,8.622,0.19,9.49,0.19,9.49s1.059,3.536,4.168,3.472
		c3.106-0.071,10.789-1.278,14.517-10.25c0,0,0.625-1.302-0.579-5.197c-1.207-3.9-0.702-17.14-0.165-21.224
		c0.544-4.089,10.426-43.515,12.653-49.173c2.225-5.661-6.171-25.531-8.66-28.507c-2.489-2.978-13.369,3.113-13.814,4.282
		C91.99,110.586,90.448,116.305,90.448,116.305z"/>
	
		<path fill="#6F6855" stroke="#010101" stroke-width="0.3284" stroke-linecap="round" stroke-linejoin="round" stroke-miterlimit="10" d="
		M134.082,113.82c2.603,3.675,8.505,16.603,10.06,24.322c1.551,7.716,4.844,34.538,5.296,41.123
		c0.447,6.587,6.54,25.214,7.896,27.402c1.353,2.194,6.039,7.602,6.415,9.187c0.375,1.589-3.485,8.138-7.816,10.332
		c-4.324,2.201-13.05,3.488-13.973,2.201c-0.92-1.289-0.705-5.578-1.425-7.189c-0.72-1.615-13.097-25.119-13.754-35.164
		c-0.653-10.05-3.732-21.864-5.888-26.71c-2.15-4.842-9.162-24.762-15.59-31.884C98.876,120.327,134.082,113.82,134.082,113.82z"/>
	
		<path fill="#ECB28D" stroke="#010101" stroke-width="0.3284" stroke-linecap="round" stroke-linejoin="round" stroke-miterlimit="10" d="
		M84.932,101.09c0.621,0.897,1.738,2.873,1.696,4.639c-0.018,0.903-0.289,1.619-0.205,2.772c0.084,1.161,0.396,2.029,0.05,3.264
		c-0.335,1.234-1.312,1.452-1.888,1.091c-0.421-0.251-1.533-1.359-1.503-1.626c0.053-0.403,0.06-0.72,0.071-0.835
		c0.15-1.456,0.029-2.373-0.031-2.646c-0.009-0.02-0.31-0.007-0.681-0.017c-0.449-0.003-0.993-0.031-1.115-0.066
		c-0.225-0.057-0.27,0.857-0.123,0.947c0.143,0.093,2.023,2.749,2.232,3.346c0.214,0.59-1.454,2.011-2.114,2.218
		c-0.67,0.212-5.625,0.416-6.43-0.567c-0.79-0.993-3.077-1.537-2.501-3.712c0.313-1.172,1.318-3.131,2.106-5.175
		c0.672-1.73,1.17-3.589,1.276-4.37C75.997,98.649,84.932,101.09,84.932,101.09z"/>
	
		<path fill="#ECB28D" stroke="#010101" stroke-width="0.3284" stroke-linecap="round" stroke-linejoin="round" stroke-miterlimit="10" d="
		M85.718,110.855c0.533-0.057,0.845,0.02,1.013,0.725c0.161,0.705-0.244,1.835-0.451,2.315c-0.188,0.476-1.41,1.324-2.159,1.111
		c-0.747-0.221,0.108-2.943,0.167-3.165C84.343,111.611,85.264,110.906,85.718,110.855z"/>
	
		<path fill="#ECB28D" stroke="#010101" stroke-width="0.3284" stroke-linecap="round" stroke-linejoin="round" stroke-miterlimit="10" d="
		M84.478,111.43c0.28,0.079,0.833,0.541,0.372,1.837c-0.465,1.299-0.755,2.207-1.312,2.427c-0.557,0.21-1.542,0.385-2.236-0.059
		c-0.688-0.449,1.289-3.848,1.976-4.137C84.106,111.151,84.478,111.43,84.478,111.43z"/>
	
		<path fill="#ECB28D" stroke="#010101" stroke-width="0.3284" stroke-linecap="round" stroke-linejoin="round" stroke-miterlimit="10" d="
		M81.114,112.666c0.97-0.917,2.294-1.256,2.628-0.3c0.258,0.74-0.411,1.348-0.799,1.852c-0.392,0.5-1.044,2.045-2.386,2.079
		c-1.346,0.033-4.36,0.337-4.605-1.214c-0.246-1.557,3.168-0.716,3.582-1.485C79.942,112.831,81.114,112.666,81.114,112.666z"/>
	
		<path fill="#C8BE9A" stroke="#010101" stroke-width="0.3284" stroke-linecap="round" stroke-linejoin="round" stroke-miterlimit="10" d="
		M105.497,38.304c-1.59-0.804-3.969-2.011-6.871-2.93c-2.905-0.925-9.036-2.798-13.792,4.069
		c-4.758,6.875-5.582,21.724-6.637,26.104c-1.055,4.386-3.56,17.26-3.842,22.707c-0.254,4.76-0.93,10.36-0.672,11.217
		c0.25,0.848,4.871,5.653,9.726,4.386c3.091-0.806,3.981-2.009,3.981-2.009s3.379-19.26,3.428-19.758
		c0.04-0.491,0.89,8.538-0.02,13.265c-0.925,4.725-3.583,15.931-3.159,18.623c0.421,2.688,4.15,9.318,6.651,11.036
		c0,0,2.227-10.247,3.025-11.671c0.789-1.417-1.505,13.133-1.505,13.133s6.957,9.403,16.742,9.288
		c9.798-0.13,16.175-10.332,20.766-13.409c4.584-3.071,3.618-7.135,2.283-10.737c-1.34-3.602-3.875-16.096-3.325-20.357
		c0.542-4.262,8.373-23.293,4.176-30.135c0,0-2.249-3.82-6.253-6.807c0,0-2.269-2.835-3.706-4.427
		c-1.429-1.591-19.369-5.765-20.686-7.4C104.484,40.852,105.497,38.304,105.497,38.304z"/>
	
		<path fill="#A39C7E" stroke="#010101" stroke-width="0.3284" stroke-linecap="round" stroke-linejoin="round" stroke-miterlimit="10" d="
		M106.178,36.979c-0.625-0.161-2.103-0.35-2.353,0.002c-0.24,0.354-0.921,1.357-0.751,1.912c0.159,0.544,1.214,1.333,1.809,1.28
		C105.467,40.121,106.178,36.979,106.178,36.979z"/>
	
		<path fill="#ECB28D" stroke="#010101" stroke-width="0.3284" stroke-linecap="round" stroke-linejoin="round" stroke-miterlimit="10" d="
		M135.139,15.9c0.209,1.19,0.745,5.351,0.463,6.717c-0.269,1.364-1.018,2.469-0.99,2.74c0.029,0.267,0.661,1.324,0.65,1.714
		c-0.017,0.648-1.401,1.315-1.674,1.399c-0.271,0.083-0.204,1.692-1,3.434c-0.797,1.751-2.099,3.69-2.441,4.591
		c-0.339,0.91-1.617,1.756-2.588,1.886c-0.975,0.123-3.56,0.665-4.694,0.135c0,0-0.425,3.005-0.267,4.198
		c0.157,1.19-14.283-0.315-15.768-2.262c-1.485-1.951,0.443-6.538,0.061-8.866c-0.379-2.329,2.61-1.366,2.61-1.366L135.139,15.9z"/>
	
		<path fill="#ECB28D" stroke="#010101" stroke-width="0.3284" stroke-linecap="round" stroke-linejoin="round" stroke-miterlimit="10" d="
		M125.006,30.699c0.337-0.832,0.573-2.631-0.725-1.789c-1.304,0.848-2.185,1.758-2.341,3.188c-0.121,1.088-0.055,2.967,1.041,3.278
		c0,0,0.688,0.337,0.959-0.584"/>
	
		<path fill="none" stroke="#010101" stroke-width="0.3284" stroke-linecap="round" stroke-linejoin="round" stroke-miterlimit="10" d="
		M132.795,27.172c0.569-0.431,1.821-1.87,1.842-2.077"/>
	
		<path fill="#FFFFFF" stroke="#010101" stroke-width="0.3284" stroke-linecap="round" stroke-linejoin="round" stroke-miterlimit="10" d="
		M126.01,48.787c-0.176-0.98-1.859-6.148-2.264-6.399c-0.399-0.249-9.092-1.188-12.044-2.086c-3.527-1.084-6.199-3.926-5.485-4.769
		c0.025-0.037,0.097-0.097,0.097-0.097s-2.592,2.708-2.683,3.185c-0.095,0.465,0.782,2.579,1.886,3.421
		c1.095,0.848,8.342,3.471,11.305,4.377C119.79,47.322,126.01,48.787,126.01,48.787z"/>
	
		<path fill="none" stroke="#010101" stroke-width="0.3284" stroke-linecap="round" stroke-linejoin="round" stroke-miterlimit="10" d="
		M85.104,49.525c-0.262,1.454,0.106,6.311,1.117,10.023c1.011,3.712,4.296,21.722,4.597,22.542"/>
	
		<path fill="#ECB28D" stroke="#010101" stroke-width="0.3284" stroke-linecap="round" stroke-linejoin="round" stroke-miterlimit="10" d="
		M85.273,107.21c-0.478,0.19-1.852,0.539-2.223,0.507"/>
	
		<path fill="#ECB28D" stroke="#010101" stroke-width="0.3284" stroke-linecap="round" stroke-linejoin="round" stroke-miterlimit="10" d="
		M72.398,111.121c0,0,0.086,0.318,0.736,1.602c0.65,1.286,1.932,3.271,3.106,3.459c1.172,0.174,3.242-0.712,3.692-1.097
		c0.458-0.377,1.678-2.449,1.863-2.778c0,0,0.227-0.439-0.68-0.52c-0.914-0.081-1.635,0.483-2.161,0.993
		c-0.321,0.311-0.473,0.635-0.473,0.635s-1.381-0.039-1.818,0.196c0,0-0.17-1.123-0.548-1.238"/>
	
		<path fill="none" stroke="#010101" stroke-width="0.3284" stroke-linecap="round" stroke-linejoin="round" stroke-miterlimit="10" d="
		M80.24,109.908c-0.346,0.081-2.192,1.501-2.687,1.831c-0.443,0.292-1.272,0.674-1.419,0.621"/>
	
		<path fill="none" stroke="#010101" stroke-width="0.3284" stroke-linecap="round" stroke-linejoin="round" stroke-miterlimit="10" d="
		M78.019,113.39c-0.13-0.284-0.593-1.495-0.747-1.465"/>
	
		<path fill="none" stroke="#010101" stroke-width="0.3284" stroke-linecap="round" stroke-linejoin="round" stroke-miterlimit="10" d="
		M79.832,112.056c-0.103-0.126-0.784-1.055-0.979-1.247"/>
	
		<path fill="#ECB28D" stroke="#010101" stroke-width="0.3284" stroke-linecap="round" stroke-linejoin="round" stroke-miterlimit="10" d="
		M79.997,107.511c0.302,0.103,1.328,0.156,1.328,0.156"/>
	
		<path fill="#ECB28D" stroke="#010101" stroke-width="0.3284" stroke-linecap="round" stroke-linejoin="round" stroke-miterlimit="10" d="
		M81.605,105.359c-0.136,0.251-1.515,1.967-2.183,2.639c-0.678,0.667-2.013,1.892-2.101,2.029"/>
	
		<path fill="#ECB28D" stroke="#010101" stroke-width="0.3284" stroke-linecap="round" stroke-linejoin="round" stroke-miterlimit="10" d="
		M71.406,104.18"/>
	
		<path fill="#ECB28D" stroke="#010101" stroke-width="0.3284" stroke-linecap="round" stroke-linejoin="round" stroke-miterlimit="10" d="
		M123.422,137.347c0,0,1.342,1.979,1.593,3.826c0.252,1.842,0.882,5.882,0.772,7.129c-0.113,1.244,0.128,4.11-0.227,5.062
		c-0.346,0.959-1.703,2.957-1.981,3.087c-0.273,0.129-1.76,1.058-2.232,0.793c-0.471-0.272-1.029-0.955-0.394-1.972
		c0.357-0.575,0.802-0.956,0.802-0.956s0.374-0.764,0.531-1.28c0.165-0.517,0.031-1.632,0.05-1.818
		c0.015-0.187-1.397,3.549-1.687,3.827c-0.293,0.278-1.35,0.449-1.95,0.77c-0.592,0.335-1.696,0.59-2.798,0.37
		c-0.756-0.146-1.297-0.379-1.32-0.535c-0.022-0.148-3.196-0.17-3.443-0.967c-0.22-0.716,0.194-1.218,0.459-1.348
		c0.205-0.094-2.654-0.467-2.892-1.171c-0.24-0.701,0.154-1.271,0.917-1.396c0.771-0.119,1.698,0.147,1.698,0.147
		s0.54-0.972,0.604-1.269c0.07-0.299,0.698-5.67,0.698-6.509c0,0,0.573-3.972,2.291-4.842
		C116.62,137.424,123.422,137.347,123.422,137.347z"/>
	
		<path fill="none" stroke="#010101" stroke-width="0.3284" stroke-linecap="round" stroke-linejoin="round" stroke-miterlimit="10" d="
		M123.228,149.784c-0.21,0.205-0.802,1.25-0.892,1.434"/>
	
		<path fill="none" stroke="#010101" stroke-width="0.3284" stroke-linecap="round" stroke-linejoin="round" stroke-miterlimit="10" d="
		M119.629,150.557c-0.408,0.31-2.065,3.161-2.256,3.599c-0.19,0.438-1.065,0.855-1.767,1.059c-0.701,0.195-1.025,0.436-1.025,0.436"
		/>
	
		<path fill="none" stroke="#010101" stroke-width="0.3284" stroke-linecap="round" stroke-linejoin="round" stroke-miterlimit="10" d="
		M111.483,153.302c0,0,0.86,0.258,1.575-0.14c0.132-0.076,1.595-0.848,1.692-1.102c0.099-0.259,0.659-1.456,0.736-1.908
		c0,0-0.626,0.703-0.896,1.06c-0.258,0.355-1.236,1.596-1.338,1.855"/>
	
		<path fill="#C8BE9A" stroke="#010101" stroke-width="0.3284" stroke-linecap="round" stroke-linejoin="round" stroke-miterlimit="10" d="
		M130.372,54.466c-0.682-1.397-4.031-5.754-5.333-6.728c-1.304-0.971-3.525-1.687-7.096-2.553
		c-3.765-0.919-10.327-3.051-12.127-4.714c-0.496-0.463-1.079-1.141-1.514-1.772c-0.436-0.634-0.703-1.256-0.476-1.718
		c0.459-0.925-1.095,0.923-1.337,1.216c-0.238,0.302-0.579,2.525,1.386,4.183c2.45,2.062,4.987,3.064,9.865,4.513
		c4.809,1.432,11.44,3.421,13.018,4.309C128.331,52.093,130.372,54.466,130.372,54.466z"/>
	
		<path fill="#231F20" stroke="#010101" stroke-width="0.3284" stroke-linecap="round" stroke-linejoin="round" stroke-miterlimit="10" d="
		M135.992,15.803c0.431-1.897,3.185-9.757-8.483-11.702c-11.682-1.936-20.373,6.752-21.467,8.259
		c-1.328,1.815-4.452,7.974-2.479,14.718c1.98,6.745,3.188,7.626,4.172,8.227c0.976,0.601,7.173,1.798,11.008-2.236
		c3.833-4.038,6.107-4.992,6.639-3.655c0.523,1.333,2.859,1.152,3.919-0.685c1.067-1.839,4.522-4.491,5.193-7.648
		C135.159,17.92,135.992,15.803,135.992,15.803z"/>
	
		<path fill="#FFFFFF" stroke="#010101" stroke-width="0.3284" stroke-linecap="round" stroke-linejoin="round" stroke-miterlimit="10" d="
		M124.208,134.492c-0.062,0.754-0.07,2.954-0.579,3.478c-0.501,0.527-3.583,1.973-6.4,1.628c-2.406-0.283-2.969-0.826-2.969-0.826
		s-0.016-3.153,0.128-3.98C114.536,133.97,124.208,134.492,124.208,134.492z"/>
	
		<path fill="#C8BE9A" stroke="#010101" stroke-width="0.3284" stroke-linecap="round" stroke-linejoin="round" stroke-miterlimit="10" d="
		M137.582,69.093c-0.278,1.586-1.859,6.796-3.96,10.765c-2.095,3.971-5.009,12.565-5.509,16.674
		c-0.5,4.112-2.956,36.666-3.124,38.532c-0.165,1.856-5.914,4.161-10.975,2.314c-1.104-0.404-1.579-2.007-1.579-2.007
		s-0.31-14.385-0.812-17.784c-0.313-2.121-0.903-7.025-0.562-12.995c0.201-3.586,0.979-7.683,1.667-11.438
		c1.83-10.027,2.394-16.283,4.448-19.852"/>
</g>
</svg>
