<?xml version="1.0" encoding="UTF-8" standalone="no"?>
<!-- Created with Inkscape (http://www.inkscape.org/) -->
<svg
   xmlns:dc="http://purl.org/dc/elements/1.1/"
   xmlns:cc="http://creativecommons.org/ns#"
   xmlns:rdf="http://www.w3.org/1999/02/22-rdf-syntax-ns#"
   xmlns:svg="http://www.w3.org/2000/svg"
   xmlns="http://www.w3.org/2000/svg"
   xmlns:sodipodi="http://sodipodi.sourceforge.net/DTD/sodipodi-0.dtd"
   xmlns:inkscape="http://www.inkscape.org/namespaces/inkscape"
   width="281.25003"
   height="281.25003"
   id="svg2"
   sodipodi:version="0.32"
   inkscape:version="0.46"
   sodipodi:docname="Sigmatek Attitude.svg"
   version="1.0"
   inkscape:output_extension="org.inkscape.output.svg.inkscape">
  <defs
     id="defs4">
    <inkscape:perspective
       sodipodi:type="inkscape:persp3d"
       inkscape:vp_x="0 : 526.18109 : 1"
       inkscape:vp_y="0 : 1000 : 0"
       inkscape:vp_z="744.09448 : 526.18109 : 1"
       inkscape:persp3d-origin="372.04724 : 350.78739 : 1"
       id="perspective10" />
    <inkscape:perspective
       id="perspective2500"
       inkscape:persp3d-origin="372.04724 : 350.78739 : 1"
       inkscape:vp_z="744.09448 : 526.18109 : 1"
       inkscape:vp_y="0 : 1000 : 0"
       inkscape:vp_x="0 : 526.18109 : 1"
       sodipodi:type="inkscape:persp3d" />
    <inkscape:perspective
       id="perspective3005"
       inkscape:persp3d-origin="372.04724 : 350.78739 : 1"
       inkscape:vp_z="744.09448 : 526.18109 : 1"
       inkscape:vp_y="0 : 1000 : 0"
       inkscape:vp_x="0 : 526.18109 : 1"
       sodipodi:type="inkscape:persp3d" />
    <inkscape:perspective
       id="perspective3158"
       inkscape:persp3d-origin="372.04724 : 350.78739 : 1"
       inkscape:vp_z="744.09448 : 526.18109 : 1"
       inkscape:vp_y="0 : 1000 : 0"
       inkscape:vp_x="0 : 526.18109 : 1"
       sodipodi:type="inkscape:persp3d" />
    <inkscape:perspective
       id="perspective3288"
       inkscape:persp3d-origin="372.04724 : 350.78739 : 1"
       inkscape:vp_z="744.09448 : 526.18109 : 1"
       inkscape:vp_y="0 : 1000 : 0"
       inkscape:vp_x="0 : 526.18109 : 1"
       sodipodi:type="inkscape:persp3d" />
    <inkscape:perspective
       id="perspective4361"
       inkscape:persp3d-origin="372.04724 : 350.78739 : 1"
       inkscape:vp_z="744.09448 : 526.18109 : 1"
       inkscape:vp_y="0 : 1000 : 0"
       inkscape:vp_x="0 : 526.18109 : 1"
       sodipodi:type="inkscape:persp3d" />
    <inkscape:perspective
       id="perspective4438"
       inkscape:persp3d-origin="372.04724 : 350.78739 : 1"
       inkscape:vp_z="744.09448 : 526.18109 : 1"
       inkscape:vp_y="0 : 1000 : 0"
       inkscape:vp_x="0 : 526.18109 : 1"
       sodipodi:type="inkscape:persp3d" />
    <inkscape:perspective
       id="perspective4571"
       inkscape:persp3d-origin="372.04724 : 350.78739 : 1"
       inkscape:vp_z="744.09448 : 526.18109 : 1"
       inkscape:vp_y="0 : 1000 : 0"
       inkscape:vp_x="0 : 526.18109 : 1"
       sodipodi:type="inkscape:persp3d" />
  </defs>
  <sodipodi:namedview
     id="base"
     pagecolor="#ffffff"
     bordercolor="#666666"
     borderopacity="1.0"
     gridtolerance="10000"
     guidetolerance="10"
     objecttolerance="10"
     inkscape:pageopacity="0.0"
     inkscape:pageshadow="2"
     inkscape:zoom="1.7884443"
     inkscape:cx="140.62501"
     inkscape:cy="140.62502"
     inkscape:document-units="px"
     inkscape:current-layer="layer1"
     showgrid="false"
     showguides="true"
     inkscape:guide-bbox="true">
    <inkscape:grid
       type="xygrid"
       id="grid4137"
       visible="true"
       enabled="true" />
  </sodipodi:namedview>
  <metadata
     id="metadata7">
    <rdf:RDF>
      <cc:Work
         rdf:about="">
        <dc:format>image/svg+xml</dc:format>
        <dc:type
           rdf:resource="http://purl.org/dc/dcmitype/StillImage" />
      </cc:Work>
    </rdf:RDF>
  </metadata>
  <g
     inkscape:label="Layer 1"
     inkscape:groupmode="layer"
     id="layer1"
     transform="translate(-504.71511,-218.13362)">
    <g
       id="g4580"
       transform="matrix(0.6915527,0,0,0.6915527,155.67803,154.03355)"
       inkscape:export-filename="F:\Aviation\SVGs\Attitude Indicator\Sigmatek Attitude.png"
       inkscape:export-xdpi="90"
       inkscape:export-ydpi="90">
      <g
         transform="matrix(1.3745776,0,0,1.3745776,-265.22411,-112.40041)"
         id="g4131">
        <path
           sodipodi:end="3.1415927"
           sodipodi:start="0"
           transform="matrix(0.9623161,0,0,0.9623161,377.79438,-345.85087)"
           d="M 483.73537,668.64954 A 140.53474,140.53474 0 1 1 202.66588,668.64953 L 343.20062,668.64954 z"
           sodipodi:ry="140.53474"
           sodipodi:rx="140.53474"
           sodipodi:cy="668.64954"
           sodipodi:cx="343.20062"
           id="path4133"
           style="fill:#7d5233;fill-opacity:1;fill-rule:evenodd;stroke:#000000;stroke-width:1;stroke-linecap:square;stroke-linejoin:miter;stroke-miterlimit:4;stroke-dasharray:none;stroke-dashoffset:0;stroke-opacity:1"
           sodipodi:type="arc" />
        <path
           sodipodi:end="6.2831853"
           sodipodi:start="3.1415927"
           transform="matrix(0.9623161,0,0,0.9623161,377.79438,-345.91408)"
           d="M 202.66588,668.64953 A 140.53474,140.53474 0 0 1 483.73537,668.64954 L 343.20062,668.64954 z"
           sodipodi:ry="140.53474"
           sodipodi:rx="140.53474"
           sodipodi:cy="668.64954"
           sodipodi:cx="343.20062"
           id="path4135"
           style="fill:#5b93c5;fill-opacity:1;fill-rule:evenodd;stroke:#000000;stroke-width:1;stroke-linecap:square;stroke-linejoin:miter;stroke-miterlimit:4;stroke-dasharray:none;stroke-dashoffset:0;stroke-opacity:1"
           sodipodi:type="arc" />
      </g>
      <g
         transform="translate(0,-1.1556707)"
         id="g4123">
        <path
           sodipodi:type="arc"
           style="fill:#7d5233;fill-opacity:1;fill-rule:evenodd;stroke:#000000;stroke-width:1;stroke-linecap:square;stroke-linejoin:miter;stroke-miterlimit:4;stroke-dasharray:none;stroke-dashoffset:0;stroke-opacity:1"
           id="path4097"
           sodipodi:cx="343.20062"
           sodipodi:cy="668.64954"
           sodipodi:rx="140.53474"
           sodipodi:ry="140.53474"
           d="M 483.73537,668.64954 A 140.53474,140.53474 0 1 1 202.66588,668.64953 L 343.20062,668.64954 z"
           transform="matrix(0.9623161,0,0,0.9623161,377.79438,-345.85087)"
           sodipodi:start="0"
           sodipodi:end="3.1415927" />
        <path
           sodipodi:type="arc"
           style="fill:#5b93c5;fill-opacity:1;fill-rule:evenodd;stroke:#000000;stroke-width:1;stroke-linecap:square;stroke-linejoin:miter;stroke-miterlimit:4;stroke-dasharray:none;stroke-dashoffset:0;stroke-opacity:1"
           id="path4099"
           sodipodi:cx="343.20062"
           sodipodi:cy="668.64954"
           sodipodi:rx="140.53474"
           sodipodi:ry="140.53474"
           d="M 202.66588,668.64953 A 140.53474,140.53474 0 0 1 483.73537,668.64954 L 343.20062,668.64954 z"
           transform="matrix(0.9623161,0,0,0.9623161,377.79438,-345.91408)"
           sodipodi:start="3.1415927"
           sodipodi:end="6.2831853" />
      </g>
      <path
         id="path4155"
         d="M 699.34619,287.38931 L 716.77752,287.29625"
         style="fill:none;fill-opacity:1;fill-rule:evenodd;stroke:#ffffff;stroke-width:1.5;stroke-linecap:square;stroke-linejoin:miter;stroke-miterlimit:4;stroke-dasharray:none;stroke-dashoffset:0;stroke-opacity:1" />
      <path
         style="fill:none;fill-opacity:1;fill-rule:evenodd;stroke:#ffffff;stroke-width:1.5;stroke-linecap:square;stroke-linejoin:miter;stroke-miterlimit:4;stroke-dasharray:none;stroke-dashoffset:0;stroke-opacity:1"
         d="M 699.34619,266.97733 L 716.77752,266.88428"
         id="path4157" />
      <path
         id="path4159"
         d="M 695.9113,277.20168 L 720.2124,277.07193"
         style="fill:none;fill-opacity:1;fill-rule:evenodd;stroke:#ffffff;stroke-width:2.09115648;stroke-linecap:square;stroke-linejoin:miter;stroke-miterlimit:4;stroke-dasharray:none;stroke-dashoffset:0;stroke-opacity:1" />
      <path
         id="text4161"
         d="M 682.68913,282.92115 L 682.59642,272.23405 L 683.97137,272.22213 L 684.06407,282.90923 L 682.68913,282.92115 z M 689.20621,283.05996 C 688.40936,283.06686 687.82214,282.62142 687.44455,281.72361 C 687.06695,280.82582 686.87009,279.44727 686.85396,277.58796 C 686.82216,273.92143 687.57446,272.08151 689.11086,272.06817 C 689.90249,272.06132 690.49351,272.49501 690.88393,273.36925 C 691.27433,274.24352 691.47783,275.63633 691.49441,277.5477 C 691.51031,279.38097 691.33994,280.75619 690.98331,281.67338 C 690.62666,282.59058 690.03429,283.05277 689.20621,283.05996 L 689.20621,283.05996 z M 690.0804,277.55997 C 690.06608,275.909 689.98473,274.78726 689.83636,274.19477 C 689.68799,273.60229 689.45495,273.30743 689.13725,273.31018 C 688.82998,273.31286 688.60307,273.57524 688.45656,274.09736 C 688.31004,274.61949 688.24457,275.77896 688.26016,277.57576 C 688.2846,280.39336 688.60149,281.79952 689.21085,281.79423 C 689.81499,281.78899 690.10484,280.37757 690.0804,277.55997 L 690.0804,277.55997 z"
         style="font-size:16px;font-style:normal;font-variant:normal;font-weight:normal;font-stretch:normal;text-align:start;line-height:100%;writing-mode:lr-tb;text-anchor:start;fill:#ffffff;fill-opacity:1;fill-rule:nonzero;stroke:none;stroke-width:1px;stroke-linecap:butt;stroke-linejoin:miter;marker:none;marker-start:none;marker-mid:none;marker-end:none;stroke-miterlimit:4;stroke-dashoffset:0;stroke-opacity:1;visibility:visible;display:inline;overflow:visible;enable-background:accumulate;font-family:Gill Sans MT Condensed;-inkscape-font-specification:'Gill Sans MT Condensed,'" />
      <path
         id="text4165"
         d="M 724.72101,282.92116 L 724.62831,272.23406 L 726.00326,272.22213 L 726.09596,282.90923 L 724.72101,282.92116 z M 731.23808,283.05994 C 730.44123,283.06686 729.85401,282.62141 729.47642,281.72361 C 729.09883,280.82582 728.90197,279.44726 728.88584,277.58796 C 728.85403,273.92144 729.60633,272.08151 731.14274,272.06818 C 731.93437,272.06132 732.52539,272.49501 732.91581,273.36925 C 733.30622,274.24352 733.5097,275.63633 733.52629,277.54771 C 733.54219,279.38097 733.37182,280.7562 733.01518,281.67339 C 732.65853,282.59058 732.06617,283.05276 731.23808,283.05994 L 731.23808,283.05994 z M 732.11229,277.55997 C 732.09796,275.909 732.01661,274.78727 731.86824,274.19477 C 731.71986,273.60231 731.48683,273.30743 731.16914,273.31017 C 730.86185,273.31285 730.63495,273.57525 730.48844,274.09736 C 730.34192,274.61951 730.27645,275.77896 730.29204,277.57576 C 730.31648,280.39337 730.63338,281.79952 731.24273,281.79424 C 731.84687,281.789 732.13672,280.37758 732.11229,277.55997 L 732.11229,277.55997 z"
         style="font-size:16px;font-style:normal;font-variant:normal;font-weight:normal;font-stretch:normal;text-align:start;line-height:100%;writing-mode:lr-tb;text-anchor:start;fill:#ffffff;fill-opacity:1;fill-rule:nonzero;stroke:none;stroke-width:1px;stroke-linecap:butt;stroke-linejoin:miter;marker:none;marker-start:none;marker-mid:none;marker-end:none;stroke-miterlimit:4;stroke-dashoffset:0;stroke-opacity:1;visibility:visible;display:inline;overflow:visible;enable-background:accumulate;font-family:Gill Sans MT Condensed;-inkscape-font-specification:'Gill Sans MT Condensed,'" />
      <path
         d="M 708.03826,110.5661 C 607.11787,110.5661 525.23266,192.45134 525.23265,293.37171 C 525.23265,342.18292 544.39049,386.54886 575.59505,419.34852 L 840.52867,419.34852 C 871.73323,386.54886 890.89106,342.18291 890.89107,293.37171 C 890.89107,192.45134 808.95865,110.5661 708.03826,110.5661 z M 910.90863,296.03685 C 910.90863,408.00827 820.03329,498.88362 708.06186,498.88362 C 596.09045,498.88362 505.21509,408.00827 505.21509,296.03685 C 505.21509,184.06544 596.09045,93.190076 708.06186,93.190076 C 820.03329,93.190076 910.90863,184.06544 910.90863,296.03685 z"
         style="fill:#5b6066;fill-opacity:1;fill-rule:evenodd;stroke:#000000;stroke-width:1;stroke-linecap:square;stroke-linejoin:miter;stroke-miterlimit:4;stroke-dashoffset:0;stroke-opacity:1"
         id="path2510" />
      <path
         id="path3167"
         d="M 708.06187,160.42071 C 633.42939,160.42071 572.84311,221.00697 572.84312,295.63946 C 572.84312,350.16487 605.19013,397.17223 651.71812,418.54571 L 652.84312,418.54571 L 689.12437,354.29571 L 726.59312,354.29571 L 763.28062,418.54571 L 764.40562,418.54571 C 810.93361,397.17223 843.28063,350.16486 843.28062,295.63946 C 843.28062,221.00697 782.69434,160.42071 708.06187,160.42071 z"
         style="fill:none;fill-opacity:1;fill-rule:evenodd;stroke:#000000;stroke-width:1;stroke-linecap:square;stroke-linejoin:miter;stroke-miterlimit:4;stroke-dashoffset:0;stroke-opacity:1" />
      <path
         id="path4153"
         d="M 574.73505,296.46294 L 841.38868,296.46294"
         style="fill:none;fill-rule:evenodd;stroke:#ffffff;stroke-width:4;stroke-linecap:butt;stroke-linejoin:miter;stroke-opacity:1" />
      <path
         sodipodi:nodetypes="cccccc"
         id="path4247"
         d="M 662.39946,335.29521 L 753.55534,335.29521 M 770.07247,335.29521 L 836.92037,335.29521 M 579.20336,335.29521 L 645.57065,335.29521"
         style="fill:none;fill-rule:evenodd;stroke:#ffffff;stroke-width:1.93297219;stroke-linecap:butt;stroke-linejoin:miter;stroke-opacity:1" />
      <path
         sodipodi:nodetypes="cccccc"
         id="path4245"
         d="M 754.33446,315.82883 L 841.38868,315.82883 M 676.57922,315.82883 L 739.68716,315.82883 M 574.73505,315.82883 L 661.93198,315.82883"
         style="fill:none;fill-rule:evenodd;stroke:#ffffff;stroke-width:2;stroke-linecap:butt;stroke-linejoin:miter;stroke-opacity:1" />
      <path
         d="M 795.2205,384.29858 L 709.52148,297.10214 L 837.69881,330.88512 M 620.0763,384.29858 L 705.77532,297.10214 L 577.59799,330.88512"
         style="fill:none;fill-rule:evenodd;stroke:#ffffff;stroke-width:2;stroke-linecap:butt;stroke-linejoin:miter;stroke-opacity:1"
         id="path4378" />
      <path
         id="flowRoot4463"
         d="M 494.34863,137.34649 L 494.34863,125.32305 L 495.89551,125.32305 L 495.89551,137.34649 L 494.34863,137.34649 z M 501.67871,137.56621 C 500.78222,137.56621 500.12597,137.05938 499.70996,136.04571 C 499.29394,135.03204 499.08594,133.4793 499.08594,131.3875 C 499.08594,127.26251 499.95019,125.20001 501.67871,125.2 C 502.56933,125.20001 503.22998,125.69367 503.66064,126.68096 C 504.0913,127.66827 504.30663,129.23712 504.30664,131.3875 C 504.30663,133.45001 504.10156,134.99542 503.69141,136.02373 C 503.28125,137.05205 502.61035,137.56621 501.67871,137.56621 L 501.67871,137.56621 z M 502.71582,131.3875 C 502.71582,129.53009 502.63525,128.26739 502.47412,127.59942 C 502.31298,126.93146 502.05371,126.59747 501.69629,126.59746 C 501.35058,126.59747 501.09277,126.89044 500.92285,127.47637 C 500.75293,128.06232 500.66797,129.36603 500.66797,131.3875 C 500.66797,134.55743 501.01074,136.14239 501.69629,136.14239 C 502.37597,136.14239 502.71582,134.55743 502.71582,131.3875 L 502.71582,131.3875 z"
         style="font-size:18px;font-style:normal;font-variant:normal;font-weight:normal;font-stretch:normal;text-align:start;line-height:100%;writing-mode:lr-tb;text-anchor:start;fill:#ffffff;fill-opacity:1;fill-rule:nonzero;stroke:none;stroke-width:1px;stroke-linecap:butt;stroke-linejoin:miter;marker:none;marker-start:none;marker-mid:none;marker-end:none;stroke-miterlimit:4;stroke-dashoffset:0;stroke-opacity:1;visibility:visible;display:inline;overflow:visible;enable-background:accumulate;font-family:Gill Sans MT Condensed;-inkscape-font-specification:'Gill Sans MT Condensed,'"
         transform="translate(247.61359,184.35891)" />
      <g
         transform="translate(264.55168,203.45045)"
         id="g3317">
        <path
           sodipodi:nodetypes="cssccccccccccssscc"
           style="fill:#a06b4f;fill-opacity:1;fill-rule:evenodd;stroke:#000000;stroke-width:0.5;stroke-linecap:square;stroke-linejoin:miter;stroke-miterlimit:4;stroke-dashoffset:0;stroke-opacity:1"
           d="M 442.03125,95.40625 C 440.35701,103.54382 441.26856,118.76249 436.9375,119.59375 C 432.60643,120.42501 432.61615,119.2922 426.96875,115.375 C 421.32134,111.45781 415.6368,105.46377 409.9375,97.28125 L 404.15625,97.28125 C 414.51152,113.68934 424.80324,123.34346 435.03125,126.6875 L 435.03125,150.21203 L 451.96875,150.21203 L 451.96875,126.375 L 452,126.375 L 452,126.5 C 462.35251,122.90828 472.63522,113.01771 482.875,97.28125 L 477.125,97.28125 C 471.62085,104.90678 466.08108,110.76317 460.53125,114.75 C 454.98142,118.73682 453.94058,120.33206 450.09375,119.59375 C 446.24691,118.85544 446.53123,106.77025 445.46875,98.375 C 445.33499,97.318208 445.18719,96.31608 445,95.40625 L 442.03125,95.40625 z"
           id="path3232" />
        <rect
           style="fill:#fc9258;fill-opacity:1;fill-rule:evenodd;stroke:#000000;stroke-width:0.75;stroke-linecap:square;stroke-linejoin:miter;stroke-miterlimit:4;stroke-dasharray:none;stroke-dashoffset:0;stroke-opacity:1"
           id="rect3175"
           width="66.373192"
           height="7.524087"
           x="346.16733"
           y="89.392006"
           ry="3.7620435" />
        <rect
           style="fill:#fc9258;fill-opacity:1;fill-rule:evenodd;stroke:#000000;stroke-width:0.75;stroke-linecap:square;stroke-linejoin:miter;stroke-miterlimit:4;stroke-dasharray:none;stroke-dashoffset:0;stroke-opacity:1"
           id="rect3177"
           width="66.373192"
           height="7.524087"
           x="474.47986"
           y="89.392006"
           ry="3.7620435" />
        <path
           sodipodi:type="arc"
           style="fill:#fc9258;fill-opacity:1;fill-rule:evenodd;stroke:#000000;stroke-width:0.75;stroke-linecap:square;stroke-linejoin:miter;stroke-miterlimit:4;stroke-dasharray:none;stroke-dashoffset:0;stroke-opacity:1"
           id="path3179"
           sodipodi:cx="251.78818"
           sodipodi:cy="295.92279"
           sodipodi:rx="3.7620432"
           sodipodi:ry="3.7620432"
           d="M 255.55022,295.92279 A 3.7620432,3.7620432 0 1 1 248.02613,295.92279 A 3.7620432,3.7620432 0 1 1 255.55022,295.92279 z"
           transform="translate(191.72199,-202.76873)" />
      </g>
      <path
         id="path4095"
         d="M 657.65256,412.50645 C 659.6568,409.04856 667.77758,394.73621 675.69873,380.70122 L 690.10083,355.18307 L 708.06855,355.22989 L 726.03629,355.27665 L 744.04808,387.03512 L 762.05996,418.79353 L 708.03425,418.79353 L 654.00845,418.79353 L 657.65256,412.50645 z"
         style="fill:#5b6066;fill-opacity:1;stroke:none;stroke-width:1px;stroke-linecap:butt;stroke-linejoin:miter;stroke-opacity:1" />
      <path
         d="M 741.33902,458.36208 C 741.33902,476.73106 726.43085,491.63924 708.06186,491.63924 C 689.69287,491.63924 674.7847,476.73106 674.7847,458.36208 C 674.7847,439.99308 689.69287,425.08492 708.06186,425.08492 C 726.43085,425.08492 741.33902,439.99308 741.33902,458.36208 z M 734.96039,458.36208 C 734.96039,473.21006 722.90985,485.26061 708.06186,485.26061 C 693.21387,485.26061 681.16333,473.21006 681.16333,458.36208 C 681.16333,443.51408 693.21387,431.46354 708.06186,431.46354 C 722.90985,431.46354 734.96039,443.51408 734.96039,458.36208 z"
         style="fill:#3f3e44;fill-opacity:1;fill-rule:evenodd;stroke:#000000;stroke-width:0.70736951;stroke-linecap:square;stroke-linejoin:miter;stroke-miterlimit:4;stroke-dashoffset:0;stroke-opacity:1"
         id="path2833" />
      <path
         id="path4139"
         d="M 548.95462,296.18526 L 568.95462,296.18526"
         style="fill:none;fill-rule:evenodd;stroke:#ffffff;stroke-width:8;stroke-linecap:round;stroke-linejoin:miter;stroke-miterlimit:4;stroke-dasharray:none;stroke-opacity:1" />
      <path
         style="fill:none;fill-rule:evenodd;stroke:#ffffff;stroke-width:8;stroke-linecap:round;stroke-linejoin:miter;stroke-miterlimit:4;stroke-dasharray:none;stroke-opacity:1"
         d="M 847.4957,296.18526 L 867.4957,296.18526"
         id="path4141" />
      <path
         style="fill:none;fill-rule:evenodd;stroke:#ffffff;stroke-width:8;stroke-linecap:round;stroke-linejoin:miter;stroke-miterlimit:4;stroke-dasharray:none;stroke-opacity:1"
         d="M 583.30321,231.59448 L 565.98271,221.59448"
         id="path4143" />
      <path
         style="fill:none;fill-rule:evenodd;stroke:#ffffff;stroke-width:8;stroke-linecap:round;stroke-linejoin:miter;stroke-miterlimit:4;stroke-dasharray:none;stroke-opacity:1"
         d="M 832.20412,231.59448 L 849.52462,221.59448"
         id="path4145" />
      <path
         style="fill:none;fill-rule:evenodd;stroke:#ffffff;stroke-width:8;stroke-linecap:square;stroke-linejoin:miter;stroke-miterlimit:4;stroke-dasharray:none;stroke-opacity:1"
         d="M 708.26855,136.07939 L 708.26855,156.07939"
         id="path4147" />
      <path
         style="fill:none;fill-rule:evenodd;stroke:#ffffff;stroke-width:8;stroke-linecap:round;stroke-linejoin:miter;stroke-miterlimit:4;stroke-dasharray:none;stroke-opacity:1"
         d="M 791.6726,160.23147 L 781.6726,177.55197"
         id="path4149" />
      <path
         style="fill:none;fill-rule:evenodd;stroke:#ffffff;stroke-width:8;stroke-linecap:round;stroke-linejoin:miter;stroke-miterlimit:4;stroke-dasharray:none;stroke-opacity:1"
         d="M 623.38124,160.23147 L 633.38124,177.55197"
         id="path4151" />
      <path
         id="flowRoot4471"
         d="M 494.34863,137.34649 L 494.34863,125.32305 L 495.89551,125.32305 L 495.89551,137.34649 L 494.34863,137.34649 z M 501.67871,137.56621 C 500.78222,137.56621 500.12597,137.05938 499.70996,136.04571 C 499.29394,135.03204 499.08594,133.4793 499.08594,131.3875 C 499.08594,127.26251 499.95019,125.20001 501.67871,125.2 C 502.56933,125.20001 503.22998,125.69367 503.66064,126.68096 C 504.0913,127.66827 504.30663,129.23712 504.30664,131.3875 C 504.30663,133.45001 504.10156,134.99542 503.69141,136.02373 C 503.28125,137.05205 502.61035,137.56621 501.67871,137.56621 L 501.67871,137.56621 z M 502.71582,131.3875 C 502.71582,129.53009 502.63525,128.26739 502.47412,127.59942 C 502.31298,126.93146 502.05371,126.59747 501.69629,126.59746 C 501.35058,126.59747 501.09277,126.89044 500.92285,127.47637 C 500.75293,128.06232 500.66797,129.36603 500.66797,131.3875 C 500.66797,134.55743 501.01074,136.14239 501.69629,136.14239 C 502.37597,136.14239 502.71582,134.55743 502.71582,131.3875 L 502.71582,131.3875 z"
         style="font-size:18px;font-style:normal;font-variant:normal;font-weight:normal;font-stretch:normal;text-align:start;line-height:100%;writing-mode:lr-tb;text-anchor:start;fill:#ffffff;fill-opacity:1;fill-rule:nonzero;stroke:none;stroke-width:1px;stroke-linecap:butt;stroke-linejoin:miter;marker:none;marker-start:none;marker-mid:none;marker-end:none;stroke-miterlimit:4;stroke-dashoffset:0;stroke-opacity:1;visibility:visible;display:inline;overflow:visible;enable-background:accumulate;font-family:Gill Sans MT Condensed;-inkscape-font-specification:'Gill Sans MT Condensed,'"
         transform="translate(170.70934,184.35891)" />
      <path
         id="flowRoot4479"
         d="M 492.45898,137.34649 L 492.45898,137.10918 C 494.56836,133.617 495.62304,130.8631 495.62305,128.84746 C 495.62304,128.2381 495.48095,127.75031 495.19678,127.38408 C 494.91259,127.01788 494.5332,126.83478 494.05859,126.83477 C 493.72461,126.83478 493.27344,126.96661 492.70508,127.23028 L 492.70508,125.63067 C 493.32617,125.34357 493.90918,125.20001 494.4541,125.2 C 495.30371,125.20001 495.97461,125.50031 496.4668,126.10088 C 496.95898,126.70148 497.20507,127.52325 497.20508,128.56621 C 497.20507,129.46857 497.01171,130.45001 496.625,131.51055 C 496.23828,132.5711 495.5791,134.00665 494.64746,135.81719 L 497.45996,135.81719 L 497.45996,137.34649 L 492.45898,137.34649 z M 501.67871,137.56621 C 500.78222,137.56621 500.12597,137.05938 499.70996,136.04571 C 499.29394,135.03204 499.08594,133.4793 499.08594,131.3875 C 499.08594,127.26251 499.95019,125.20001 501.67871,125.2 C 502.56933,125.20001 503.22998,125.69367 503.66064,126.68096 C 504.0913,127.66827 504.30663,129.23712 504.30664,131.3875 C 504.30663,133.45001 504.10156,134.99542 503.69141,136.02373 C 503.28125,137.05205 502.61035,137.56621 501.67871,137.56621 L 501.67871,137.56621 z M 502.71582,131.3875 C 502.71582,129.53009 502.63525,128.26739 502.47412,127.59942 C 502.31298,126.93146 502.05371,126.59747 501.69629,126.59746 C 501.35058,126.59747 501.09277,126.89044 500.92285,127.47637 C 500.75293,128.06232 500.66797,129.36603 500.66797,131.3875 C 500.66797,134.55743 501.01074,136.14239 501.69629,136.14239 C 502.37597,136.14239 502.71582,134.55743 502.71582,131.3875 L 502.71582,131.3875 z"
         style="font-size:18px;font-style:normal;font-variant:normal;font-weight:normal;font-stretch:normal;text-align:start;line-height:100%;writing-mode:lr-tb;text-anchor:start;fill:#ffffff;fill-opacity:1;fill-rule:nonzero;stroke:none;stroke-width:1px;stroke-linecap:butt;stroke-linejoin:miter;marker:none;marker-start:none;marker-mid:none;marker-end:none;stroke-miterlimit:4;stroke-dashoffset:0;stroke-opacity:1;visibility:visible;display:inline;overflow:visible;enable-background:accumulate;font-family:Gill Sans MT Condensed;-inkscape-font-specification:'Gill Sans MT Condensed,'"
         transform="translate(263.59665,203.62353)" />
      <path
         id="flowRoot4489"
         d="M 492.45898,137.34649 L 492.45898,137.10918 C 494.56836,133.617 495.62304,130.8631 495.62305,128.84746 C 495.62304,128.2381 495.48095,127.75031 495.19678,127.38408 C 494.91259,127.01788 494.5332,126.83478 494.05859,126.83477 C 493.72461,126.83478 493.27344,126.96661 492.70508,127.23028 L 492.70508,125.63067 C 493.32617,125.34357 493.90918,125.20001 494.4541,125.2 C 495.30371,125.20001 495.97461,125.50031 496.4668,126.10088 C 496.95898,126.70148 497.20507,127.52325 497.20508,128.56621 C 497.20507,129.46857 497.01171,130.45001 496.625,131.51055 C 496.23828,132.5711 495.5791,134.00665 494.64746,135.81719 L 497.45996,135.81719 L 497.45996,137.34649 L 492.45898,137.34649 z M 501.67871,137.56621 C 500.78222,137.56621 500.12597,137.05938 499.70996,136.04571 C 499.29394,135.03204 499.08594,133.4793 499.08594,131.3875 C 499.08594,127.26251 499.95019,125.20001 501.67871,125.2 C 502.56933,125.20001 503.22998,125.69367 503.66064,126.68096 C 504.0913,127.66827 504.30663,129.23712 504.30664,131.3875 C 504.30663,133.45001 504.10156,134.99542 503.69141,136.02373 C 503.28125,137.05205 502.61035,137.56621 501.67871,137.56621 L 501.67871,137.56621 z M 502.71582,131.3875 C 502.71582,129.53009 502.63525,128.26739 502.47412,127.59942 C 502.31298,126.93146 502.05371,126.59747 501.69629,126.59746 C 501.35058,126.59747 501.09277,126.89044 500.92285,127.47637 C 500.75293,128.06232 500.66797,129.36603 500.66797,131.3875 C 500.66797,134.55743 501.01074,136.14239 501.69629,136.14239 C 502.37597,136.14239 502.71582,134.55743 502.71582,131.3875 L 502.71582,131.3875 z"
         style="font-size:18px;font-style:normal;font-variant:normal;font-weight:normal;font-stretch:normal;text-align:start;line-height:100%;writing-mode:lr-tb;text-anchor:start;fill:#ffffff;fill-opacity:1;fill-rule:nonzero;stroke:none;stroke-width:1px;stroke-linecap:butt;stroke-linejoin:miter;marker:none;marker-start:none;marker-mid:none;marker-end:none;stroke-miterlimit:4;stroke-dashoffset:0;stroke-opacity:1;visibility:visible;display:inline;overflow:visible;enable-background:accumulate;font-family:Gill Sans MT Condensed;-inkscape-font-specification:'Gill Sans MT Condensed,'"
         transform="translate(156.10076,203.57299)" />
      <path
         style="fill:none;fill-rule:evenodd;stroke:#ffffff;stroke-width:3;stroke-linecap:square;stroke-linejoin:miter;stroke-miterlimit:4;stroke-dasharray:none;stroke-opacity:1"
         d="M 679.45184,140.48247 L 682.9248,160.17863"
         id="path4500" />
      <path
         style="fill:none;fill-rule:evenodd;stroke:#ffffff;stroke-width:3;stroke-linecap:square;stroke-linejoin:miter;stroke-miterlimit:4;stroke-dasharray:none;stroke-opacity:1"
         d="M 737.08526,140.48247 L 733.6123,160.17863"
         id="path4502" />
      <path
         style="fill:none;fill-rule:evenodd;stroke:#ffffff;stroke-width:3;stroke-linecap:square;stroke-linejoin:miter;stroke-miterlimit:4;stroke-dasharray:none;stroke-opacity:1"
         d="M 651.6228,148.54429 L 658.4632,167.33815"
         id="path4504" />
      <path
         style="fill:none;fill-rule:evenodd;stroke:#ffffff;stroke-width:3;stroke-linecap:square;stroke-linejoin:miter;stroke-miterlimit:4;stroke-dasharray:none;stroke-opacity:1"
         d="M 763.96291,148.54429 L 757.12251,167.33815"
         id="path4506" />
      <path
         sodipodi:nodetypes="ccccccccccc"
         id="path4508"
         d="M 686.02489,115.17796 L 729.97567,115.17796 L 717.32434,160.62231 L 711.94921,160.62231 L 711.94921,118.54798 L 711.94921,118.54798 L 703.79383,118.54798 L 704.34988,160.62231 L 704.34988,160.62231 L 699.53079,160.62231 L 686.02489,115.17796 z"
         style="fill:#ff4a23;fill-opacity:1;fill-rule:evenodd;stroke:#000000;stroke-width:0.5;stroke-linecap:butt;stroke-linejoin:miter;stroke-opacity:1" />
    </g>
  </g>
</svg>
