<?xml version="1.0" encoding="utf-8"?>
<!-- Generator: Adobe Illustrator 15.0.0, SVG Export Plug-In . SVG Version: 6.00 Build 0)  -->
<!DOCTYPE svg PUBLIC "-//W3C//DTD SVG 1.1//EN" "http://www.w3.org/Graphics/SVG/1.1/DTD/svg11.dtd">
<svg version="1.1" id="Layer_1" xmlns="http://www.w3.org/2000/svg" xmlns:xlink="http://www.w3.org/1999/xlink" x="0px" y="0px"
	 width="360px" height="360px" viewBox="0 0 360 360" enable-background="new 0 0 360 360" xml:space="preserve">
<rect x="319.33" y="156.318" fill="#010101" width="30.917" height="2.783"/>
<path fill="#010101" d="M319.33,160.338l12.674,22.148c0,0-0.001,10.925,0,10.932l5.832,3.676v-14.607l12.411-22.148H319.33z
	 M336.39,180.326c-0.16,0.173-2.205,0.172-2.425,0.172c-0.453,0-0.895-0.237-1.136-0.66l-8.624-15.14
	c-0.357-0.627-0.139-1.426,0.488-1.782c0.628-0.358,19.217-0.246,19.36-0.246c2.005,0,0.933,1.831,0.933,1.831l-7.092,13.623
	C337.484,179.073,336.891,179.79,336.39,180.326z"/>
<circle fill="#010101" cx="262.122" cy="212.733" r="2.26"/>
<circle fill="#010101" cx="248.364" cy="231.045" r="2.26"/>
<circle fill="#010101" cx="243.667" cy="154.527" r="2.26"/>
<path fill="#010101" d="M245.909,142.021c1.091,0.603,1.487,1.978,0.884,3.07c-0.604,1.093-1.979,1.489-3.07,0.885
	c-1.095-0.604-1.491-1.98-0.887-3.071C243.44,141.813,244.814,141.416,245.909,142.021z"/>
<circle fill="#010101" cx="261.086" cy="163.524" r="2.26"/>
<circle fill="#010101" cx="253.429" cy="171.757" r="2.26"/>
<circle fill="#010101" cx="252.855" cy="150.125" r="2.259"/>
<circle fill="#010101" cx="262.426" cy="154.336" r="2.26"/>
<path fill="#010101" d="M261.989,141.831c1.091,0.602,1.487,1.978,0.884,3.07c-0.604,1.092-1.979,1.488-3.07,0.883
	c-1.095-0.603-1.489-1.979-0.886-3.07C259.521,141.622,260.896,141.225,261.989,141.831z"/>
<circle fill="#010101" cx="269.93" cy="196.246" r="2.26"/>
<circle fill="#010101" cx="257.254" cy="197.089" r="2.26"/>
<circle fill="#010101" cx="245.781" cy="193.265" r="2.26"/>
<circle fill="#010101" cx="268.489" cy="239.107" r="2.26"/>
<circle fill="#010101" cx="268.372" cy="173.062" r="2.26"/>
<path fill="#010101" d="M263.903,183.372c1.092,0.604,1.488,1.978,0.884,3.071c-0.604,1.092-1.979,1.487-3.071,0.883
	c-1.092-0.602-1.488-1.978-0.884-3.071C261.436,183.164,262.811,182.768,263.903,183.372z"/>
<circle fill="#010101" cx="274.679" cy="166.013" r="2.26"/>
<circle fill="#010101" cx="270.467" cy="156.825" r="2.26"/>
<circle fill="#010101" cx="251.691" cy="182.137" r="2.26"/>
<circle fill="#010101" cx="271.041" cy="147.444" r="2.26"/>
<circle fill="#010101" cx="251.707" cy="160.271" r="2.26"/>
<path fill="#010101" d="M245.524,166.524c1.093,0.604,1.489,1.98,0.885,3.071c-0.604,1.092-1.979,1.487-3.071,0.886
	c-1.092-0.607-1.488-1.98-0.884-3.073S244.434,165.92,245.524,166.524z"/>
<path fill="#010101" d="M337.424,206.24c0,1.43-1.16,2.588-2.588,2.588c-1.429,0-2.587-1.158-2.587-2.588s2.226-2.378,2.587-5.646
	C334.993,199.177,337.424,204.811,337.424,206.24z"/>
<path fill="#010101" d="M283.106,262.834h-47.978V135.592h47.978V262.834L283.106,262.834z M239.301,258.662h39.634V139.763h-39.634
	V258.662L239.301,258.662z"/>
<path fill="#010101" d="M338.211,138.198h-6.954c0-19.074-15.518-34.592-34.592-34.592s-34.592,15.518-34.592,34.592h-6.953
	c0-22.908,18.637-41.544,41.545-41.544C319.574,96.653,338.211,115.29,338.211,138.198L338.211,138.198z"/>
<path fill="#010101" d="M334.747,154.557c-2.241,0-4.067-1.825-4.067-4.066v-13.498h8.135v13.498
	C338.814,152.732,336.99,154.557,334.747,154.557L334.747,154.557z M331.375,137.689v12.802c0,1.858,1.513,3.372,3.372,3.372
	s3.372-1.513,3.372-3.372v-12.802H331.375L331.375,137.689z"/>
<path fill="#010101" d="M278.477,250.271c-3.208,0-3.107-3.606-3.11-3.581c-0.133,1.484-0.669,3.581-3.487,3.581
	s-3.266-3.581-3.266-3.581s-0.577,3.581-3.652,3.581s-2.819-3.625-2.819-3.581c0,3.302-2.777,3.581-2.777,3.581H258.9
	c-3.207,0-3.105-3.606-3.109-3.581c-0.133,1.484-0.668,3.581-3.487,3.581c-2.818,0-3.266-3.581-3.266-3.581
	s-0.577,3.581-3.652,3.581s-2.818-3.625-2.818-3.581c0,3.128-2.779,3.581-2.779,3.581v7.833h38.79L278.477,250.271z"/>
<path fill="#010101" d="M333.624,178.638l-6.054-9.116c0,0-0.097-0.422-0.097-3.549c0-0.044-0.257,3.582,2.818,3.582
	s3.651-3.582,3.651-3.582s0.448,3.582,3.267,3.582c2.819,0,3.354-2.097,3.487-3.582c0.002-0.018-0.048,1.772,1.05,2.828l-4.76,9.689
	C336.987,178.489,335.192,180.208,333.624,178.638z"/>
<g>
	<path fill="#010101" d="M146.703,246.032c0-0.012,0.003-0.023,0.003-0.037C146.706,245.992,146.705,246.009,146.703,246.032z"/>
	<path fill="#010101" d="M123.786,246.03c0-0.012,0.003-0.022,0.003-0.035C123.789,245.993,123.788,246.006,123.786,246.03z"/>
	<path fill="#010101" d="M168.967,246.03c0-0.012,0.002-0.022,0.002-0.035C168.969,245.993,168.969,246.006,168.967,246.03z"/>
	<path fill="#010101" d="M211.009,248.923c-3.756,0-3.637-2.947-3.64-2.928c-0.156,1.214-0.782,2.928-4.082,2.928
		c-3.301,0-3.825-2.928-3.825-2.928s-0.675,2.928-4.274,2.928c-3.348,0-3.324-2.559-3.304-2.891
		c-0.032,2.661-3.249,2.891-3.249,2.891h-0.543c-3.755,0-3.637-2.947-3.641-2.928c-0.154,1.214-0.782,2.928-4.082,2.928
		c-3.299,0-3.824-2.928-3.824-2.928s-0.676,2.928-4.275,2.928c-3.357,0-3.323-2.572-3.303-2.893
		c-0.03,2.391-2.915,2.847-3.219,2.889c-3.669-0.044-3.557-2.943-3.56-2.924c-0.155,1.214-0.782,2.928-4.083,2.928
		c-3.299,0-3.824-2.928-3.824-2.928s-0.675,2.928-4.275,2.928c-3.347,0-3.322-2.559-3.303-2.891c-0.032,2.661-3.25,2.891-3.25,2.891
		h-0.542c-3.755,0-3.637-2.947-3.64-2.928c-0.155,1.214-0.782,2.928-4.082,2.928s-3.824-2.928-3.824-2.928s-0.675,2.928-4.276,2.928
		c-3.356,0-3.322-2.572-3.303-2.893c-0.03,2.523-3.25,2.893-3.25,2.893v6.4h45.181h0.23h45.181L211.009,248.923z"/>
	<path fill="#010101" d="M191.884,246.032c0-0.012,0.004-0.023,0.004-0.037C191.888,245.992,191.885,246.009,191.884,246.032z"/>
</g>
<g>
	<polygon fill="#010101" points="342.854,263.097 328.107,263.097 325.053,245.116 345.91,245.116 	"/>
	<polygon fill="#010101" points="336.027,243.942 334.956,243.942 334.956,228.967 336.027,228.967 336.027,243.942 	"/>
	<path fill="#010101" d="M328.965,221.788c0,0,1.538,1.318,2.373,1.81c0.696,0.411,4.301,1.098,3.573,4.328
		c0,0-0.128,0.812-0.632,1.242l-0.276,0.139c-0.573,0.332-1.378,0.177-1.378,0.177c-3.275-0.406-2.809-3.68-2.778-4.493
		c0.029-0.813-0.412-2.061-0.412-2.061L328.965,221.788z"/>
	<path fill="#010101" d="M340.986,214.209c0,0,0.07,3.018,0.355,4.435c0.235,1.18,3.063,5.857-1.242,8.268
		c0,0-1.026,0.666-2.004,0.534l-0.43-0.167c-0.938-0.306-1.566-1.351-1.566-1.351c-2.811-4.035,1.282-6.777,2.214-7.553
		c0.932-0.776,1.875-2.507,1.875-2.507L340.986,214.209z"/>
	<path fill="#010101" d="M343.283,226.715c0,0-0.75,1.882-0.946,2.83c-0.164,0.792,0.352,4.425-2.94,4.78
		c0,0-0.81,0.143-1.378-0.196l-0.223-0.215c-0.498-0.437-0.612-1.247-0.612-1.247c-0.675-3.231,2.574-3.848,3.354-4.082
		c0.779-0.235,1.817-1.056,1.817-1.056L343.283,226.715z"/>
</g>
<g>
	<path fill="#010101" d="M84.227,179.957h15.913c0.931,0,1.689-0.757,1.689-1.689c0-0.931-0.758-1.688-1.689-1.688H84.227
		c-0.933,0-1.689,0.757-1.689,1.688C82.538,179.2,83.294,179.957,84.227,179.957z"/>
	<path fill="#010101" d="M112.927,195.636v3.973h13.848v-4.313h-1.139c0.002-0.473,0.004-1.064,0.004-1.817
		c0-6.355-4.66-6.355-5.221-6.355c-0.983,0-17.337,0-20.634,0c-0.337-1.955-1.242-3.27-3.67-3.27h-2.492v-2.519h-3.405v2.519h-2.492
		c-3.64,0-3.866,2.952-3.866,6.59c0,2.976,0.153,5.487,2.193,6.307v4.553h-4.42v50.418h4.521v1.136
		c-3.387,1.972-5.675,5.678-5.675,9.935h22.476c0-4.257-2.288-7.965-5.675-9.937v-1.134h4.521v-50.418h-4.013v-4.553
		c1.447-0.582,1.944-2.061,2.111-3.905h12.688c1.847,0,1.313,2.792,1.313,2.792H112.927z"/>
	<path fill="#010101" d="M118.922,202.23c-0.008,0.185-0.063,2.532-2,5.345c-1.239,1.798-1.726,4.061,0.574,5.319
		c3.385,1.852,5.001-1.608,4.703-2.932c-0.575-2.547-2.181-3.032-2.918-7.917C119.229,201.711,118.96,201.431,118.922,202.23z"/>
	<path fill="#010101" d="M127.909,218.339c-0.574-2.546-2.181-3.032-2.918-7.917c-0.05-0.335-0.319-0.614-0.358,0.185
		c-0.007,0.184-0.063,2.532-2,5.345c-1.24,1.798-1.726,4.061,0.574,5.319C126.592,223.123,128.208,219.662,127.909,218.339z"/>
	<path fill="#010101" d="M118.518,218.038c-0.051-0.337-0.319-0.616-0.358,0.184c-0.007,0.184-0.062,2.532-1.999,5.346
		c-1.24,1.797-1.726,4.06,0.574,5.318c3.385,1.853,5.001-1.608,4.702-2.933C120.862,223.407,119.255,222.922,118.518,218.038z"/>
</g>
<path fill="#010101" d="M106.711,233.014l5.222,29.669h106.837l5.224-29.669H106.711z M212.093,257.208h-93.48l-3.405-19.559
	h100.292L212.093,257.208z"/>
<rect x="218.895" y="253.215" fill="#010101" width="15.763" height="4.563"/>
<path fill="#010101" d="M79.432,176.084c-1.537-2.077-3.168-2.047-3.314-2.034c-0.312-0.306-0.699-0.63-1.127-0.874
	c0,0-0.73-0.489-0.923-1.063c0,0-0.244-1.313-1.997-1.899c0,0-1.986-0.624-3.107-2.085c0,0-9.745-12.133-11.742-13.832
	c0,0-0.822-1.259-0.917-1.943c0,0-2.282-6.457-3.25-7.276c0,0-0.831-1.502-0.919-1.797c0,0-1.607-2.473-3.936-3.591
	c0,0-1.359-0.587-1.45-1.02c0,0-0.232-0.293-0.629-0.745l0.629-0.124c1.835,0,2.374-2.193,2.374-2.193
	c0.042-0.293,0.339-0.671,0.339-0.671c0.678-0.88,1.164-3.062,1.164-3.062l0.483-0.146c0.779-0.385-0.095-3.202-0.095-3.202
	c-0.149-0.775,0.438-1.503,0.438-1.503c0.384-0.831,0-1.362,0-1.362c-0.098-0.629-0.195-1.251-0.195-1.251
	c-0.024-0.698-0.312-1.508-0.584-2.145l0.006-0.073c0,0-0.036,0,0.248-0.562c0,0,1.25-1.907-0.063-3.055
	c0,0-0.275-0.123-0.373-0.409c0,0-0.284-2.256-4.656-1.137c0,0-0.941,0.097-1.54,0c0,0-5.413-1.315-6.711,1.069
	c0,0-1.579,2.388-1.881,2.627c0,0-1.842,3.287-0.401,7.466c0,0,0.544,2.09,0.492,3.055c0,0-0.385,1.618,0.224,1.93
	c-0.214,0.33-0.593,0.814-1.207,1.349h-0.012l-0.055,0.062h0.006c-0.52,0.453-1.197,0.922-2.083,1.361c0,0-8.681,3.783-9.213,7.772
	c0,0-1.411,3.538-1.939,3.978c0,0-1.319,2.571-1.319,3.445c0,0-2.227,5.964-2.958,7.033c0,0-2.761,6.794-0.919,8.926
	c0,0,3.248,2.97,3.754,3.146l0.009,0.195h0.012c-0.024,0.771-0.021,3.788,1.42,4.332c0,0,1.421,0.568,3.321,0.764
	c-0.088,0.49-0.413,2.176-0.709,2.633c0,0-1.988,8.296,0.975,16.159c0,0,2.478,6.019,2.713,7.032c0,0,2.395,6.604,3.332,7.692
	l-0.003,0.012l0.021,0.019c0,0-0.235,0.53-0.873,1.209c0,0-2.612,5.145-2.612,6.355c0,0-0.681,2.382-1.124,2.962
	c0,0-2.908,7.913-2.96,9.078c0,0-5.145,11.407-6.253,13.008c0,0-2.188,4.363-2.188,5.188c0,0-0.341,1.361-0.922,1.747
	c0,0-1.209,1.698-1.023,2.438l0.297,0.214c-0.37,0.067-0.728,0.306-0.728,0.948c0,0,0,0.868-0.342,1.355c0,0-1.402,1.79-1.36,2.285
	c0,0-0.876,0.678-1.069,1.155c0,0-1.362,1.171-0.822,1.99c0,0,4.023,2.139,5.722,2.139c0,0,2.676,0.342,3.061,0.245
	c0,0,0.339-0.392,1.069-0.056c0,0,2.856,1.699,5.483,1.95c0,0,8.929,0.243,9.61-0.343c0,0,0.679-0.782-0.051-1.455
	c0,0,0.635-1.796-1.109-2.767c0,0-1.026-0.441-3.207-0.146c0,0-2.084-0.54-3.156-1.847c0,0-1.155-1.961-1.799-2.847l0.292,0.421
	c0,0,0.874,0.575,0.874-0.056c0,0,0.098-3.188,0.581-3.928c0,0,1.023-0.965,0.974-2.132c0,0,0.822-3.69,1.796-4.613
	c0,0,3.443-4.752,4.03-6.359c0,0,4.276-8.054,5.088-8.485c0,0,5.242,15.858,7.814,18.927c0,0,0.737,0.873,0.737,1.747
	c0,0,0.916,4.173,1.79,4.508c0,0,0.195,0.014,0.519,0.014l-0.519-0.014c0,0,0.097,1.027-0.092,1.9c0,0-0.253,1.742-0.104,2.133
	c0,0-0.192,0.972-0.241,1.404c0,0-0.339,1.448,0.101,1.553c0,0,4.365,0.489,7.811,0.294l0.581-0.196v-0.97
	c0,0,0.097-0.393,0.729-0.435c0,0,4.316-0.435,4.661-3.69c0,0,0.144-1.259-0.537-1.259c-0.104-0.458-0.438-1.437-1.354-1.656
	c0,0-0.687-0.292-1.799-0.049c0,0-0.828,0.148-1.408-0.342c0,0-0.049-0.525-0.235-0.837l0.092-0.135c0,0,0.528-0.231,0.385-0.568
	c0,0-0.971-2.389-1.695-3.354c0,0-2.719-4.277-2.719-5.633c0,0-1.792-6.939-2.429-8.401c0,0-1.796-3.684-1.747-4.898
	c0,0-0.049-0.385-0.437-0.819c0,0-0.385-2.816,0.101-3.934c0,0-0.144-8.544-2.236-11.743c0,0-0.681-1.111-0.241-3.061
	c0,0,1.359-4.37,2.334-6.258c0,0,0.864-1.51,0.864-4.661c0,0,1.216-13.343,0.44-14.51c0,0-0.629-1.602-0.728-2.23
	c0,0-0.308-1.979-0.595-2.583c0.296,0.061,0.595,0.047,0.883-0.092c0,0,1.17-0.042,1.268-0.582c0,0,0.431-1.643-0.052-2.859
	c0,0-0.242-2.522,0.583-3.934c0,0,0.87-3.349,0.535-4.02c0,0,3.595,3.487,4.176,3.733c0,0,1.353,1.16,1.646,1.6
	c0,0,2.914,2.181,4.945,2.181c0,0,2.866-0.092,3.74,0.922c0,0,2.865,1.754,4.902,1.803c0,0,0.926,0.189,1.8,0.671
	c0,0,1.317,0.953,2.316,0.893l-0.004,0.03c0.554,0.477,2.563,0.391,2.563,0.391c0.367,0,0.629,0.501,0.629,0.501l0.455,0.91
	c-0.162,0.422-0.235,0.971-0.235,0.971s-0.059-0.079-0.373,0.502c-0.315,0.581,0.345,0.874,0.345,0.874
	c0.923-0.135,1.634-1.613,1.634-1.613c0.367-0.287,0.587-1.087,0.587-1.087c0.684-1.351-0.425-3.458-0.425-3.458
	C79.725,176.927,79.432,176.084,79.432,176.084z M23.56,253.327c0.147-0.013,0.428-0.013,0.746,0.164L23.56,253.327z
	 M55.403,252.942c-0.287,0.169-0.608,0.312-0.892,0.342C54.822,253.181,55.127,253.064,55.403,252.942z"/>
</svg>
