<?xml version="1.0" encoding="utf-8"?>
<!-- Generator: Adobe Illustrator 15.0.0, SVG Export Plug-In . SVG Version: 6.00 Build 0)  -->
<!DOCTYPE svg PUBLIC "-//W3C//DTD SVG 1.1//EN" "http://www.w3.org/Graphics/SVG/1.1/DTD/svg11.dtd">
<svg version="1.1" id="Layer_1" xmlns="http://www.w3.org/2000/svg" xmlns:xlink="http://www.w3.org/1999/xlink" x="0px" y="0px"
	 width="250px" height="250px" viewBox="0 0 250 250" enable-background="new 0 0 250 250" xml:space="preserve">
<g>
	<path fill="#E6E7E8" d="M177.765,188.743c13.563,7.829,4.438,25.873-20.409,40.313c-24.815,14.415-55.928,19.762-69.494,11.931
		c-13.568-7.834-4.437-25.87,20.378-40.299C133.088,186.254,164.195,180.912,177.765,188.743z"/>
	
		<path fill="#FFFFFF" stroke="#010101" stroke-width="0.6089" stroke-linecap="round" stroke-linejoin="round" stroke-miterlimit="10" d="
		M160.156,90.694c2.641-4.093,3.988-13.257,4.206-15.2c0.212-1.938,1.397-9.809-0.058-13.154c-1.452-3.342-4.365-6.843-7.167-8.409
		c-1.191-0.661-1.96-1.423-2.461-2.12c0.123-2.149,0.438-7.589-3.87-11.312c-0.175-0.501-0.317-0.888-0.406-1.121
		c-0.594-1.508-1.295-1.778-3.343-8.41c-2.049-6.632-3.073-9.215-3.073-9.215s-0.325-0.284-1.034-0.5
		c0.005-0.341-0.05-0.66-0.207-0.903c-0.174-0.275-0.487-0.441-0.843-0.537c-0.113-1.155-0.217-2.938-0.193-5.565
		c0,0-0.05-2.858-0.277-3.499c-0.032-0.084-0.361-0.642-0.83-1.376l2.081,0.136l0.119-1.91l-3.511-0.222
		c-0.877-1.286-1.766-2.468-2.1-2.574c-0.739-0.23-3.314-0.222-3.919-0.275c-0.504-0.047-2.566,0.901-2.905,1.06
		c-0.486,0.228-0.71,0.811-0.338,1.2l-2.305-0.147l-1.808,0.534c0,0-0.812-0.056-0.788,0.184c0.022,0.191,0.729,0.291,0.729,0.291
		l1.748,0.899l3.036,0.193c-0.186,0.082-0.854,0.422-0.732,1.176c0.065,0.431,0.245,1.096,0.429,1.679
		c-0.338,0.295-0.688,0.602-0.845,0.763c-0.321,0.326-0.321,2.211-0.229,2.765c0.083,0.525,0.468,1.075,1.209,0.625
		c-0.012,0.218,0,0.39,0.04,0.47c0.163,0.327,0.782,1.5,1.436,1.596c0.65,0.1,1.307-0.258,0.977-1.206
		c-0.326-0.944-0.226-0.779-0.226-0.779c0.003,0.025,0.008,0.025,0.017,0.008c0.074,0.047,0.787,0.47,1.177,0.542
		c0.003,0.108,0.006,0.209,0.013,0.297c0.064,0.946-0.359,2.281,0.226,3.683c0.224,0.53,0.745,1.285,1.36,1.875
		c-0.015,0.12-0.03,0.236-0.03,0.346c-1.179,0.812-1.339,1.596-1.339,1.596c0,0.197,1.538,8.433,2.543,13.597
		c-2.22,0.917-4.558,2.86-5.68,5.902c-1.298,3.509-1.101,8.036-0.074,10.839c0.172,0.482,0.366,0.988,0.569,1.502
		c-0.085,0.976-0.103,2.282,0.322,3.091c0.408,0.778,0.992,1.067,1.354,1.067c0.293,0.73,0.495,1.271,0.533,1.464
		c0.078,0.43,1.332,1.517,2.229,2.333c-0.005,0.662-0.021,1.447-0.043,2.089c-0.387-0.127-0.818-0.291-0.945-0.324
		c-0.218-0.056-1.186,0.698-1.509,0.917l-1.2,2.533c-1.782,0.953-4.964,3.027-5.861,4.691c-1.08,1.993-2.159,0.968-6.094,6.628
		c-3.935,5.664-3.718,8.305-4.364,10.407c-0.649,2.105-1.51,6.843-4.582,11.317c0,0-2.319,3.613-3.022,4.583
		c-0.697,0.968-1.883,1.403-2.37,2.103c-0.486,0.699-19.674,3.452-20.97,4.365c-0.749,0.53-1.316,1.625-1.535,2.828
		c-0.023,0.026-0.044,0.045-0.069,0.072c-0.958-0.67-2.454-1.378-3.092-1.527c-0.876-0.197-5.064-0.756-5.585-0.796
		c-0.519-0.04-1.715-0.96-2.833-1.234c-1.117-0.281-2.231-0.043-2.55,0.12c0,0-1.199,0.519-0.999,1.632
		c0.125,0.71,1.318,0.997,2.234,1.28c0.075,0.021,0.157,0.043,0.24,0.066c-0.285,0.696-0.42,1.699-0.481,1.919
		c-0.011,0.029-0.017,0.058-0.023,0.083c-0.43-0.65-0.959-1.447-1.16-1.602c-0.789-0.589-1.061,0.324-1.116,0.565l-0.087-0.055
		c0.021,0.035,0.052,0.069,0.078,0.109v0.003c-0.239-0.321-1.043-0.888-1.643-1.089c-0.597-0.2-1.353,0.315-1.037,0.874
		c0.319,0.561,0.96,1.676,1.477,2.154c0.374,0.347,1.628,1.609,2.354,2.274c0.287,0.264,0.559,0.404,0.559,0.404
		s1.396,1.831,1.954,2.191c0.561,0.361,3.632,0,4.31-0.083c0.68-0.077,4.191-0.475,5.786-0.596c0.758-0.057,1.684-0.137,2.48-0.24
		c0.517,0.453,1.199,0.842,2.014,0.639c0.443,0.377,0.921,0.615,1.423,0.63c1.887,0.051,12.829-0.378,13.961-0.378
		c1.132,0,4.904-0.917,5.552-1.186c0.647-0.269,7.114-1.131,8.625-3.019c0,0-1.186,4.794-1.616,6.682
		c-0.434,1.889-3.182,6.793-3.777,8.142c-0.322,0.736,0.548,1.793,1.864,2.89c-0.658,2.51-1.536,6.691-1.634,13.492
		c-0.142,9.61,1.975,23.458,2.964,29.677c0.989,6.216,2.966,12.291,3.108,14.411c0.141,2.12,0.99,12.854,0.708,14.976
		c-0.284,2.116-1.272,6.499-2.261,7.487c-0.002,0.003-0.005,0.009-0.008,0.009c-1.68,0.037-3.29,0.009-3.754,0.059
		c-0.897,0.089-8.963-0.09-10.308,0.538c-0.653,0.303-1.075,0.627-1.075,0.627c-0.224,0.151-0.546,0.553-0.828,1.055
		c-0.191,0.332-0.361,0.707-0.479,1.076c-0.32,0.367-0.557,0.742-0.665,1.274c-0.181,0.896,0.179,2.425,1.524,3.679
		c1.344,1.254,5.109,3.854,9.86,4.391c4.045,0.456,9.232,1.164,9.77,1.255c0.538,0.092,0.538,0.986,0.538,0.986
		s6.456,0.801,8.874,0.801c2.421,0,4.483-0.443,5.201-1.787c0,0,0.401-2.147-0.326-3.268c-0.046-0.241-0.117-0.551-0.203-0.899
		c0.599-2.206,0.386-8.854,0.386-12.058c0-3.672,1.077-11.558,1.222-20.885c0.138-9.327-1.737-15.104-1.886-17.125
		c-0.352-4.809-0.077-11.86,1.621-20.949c2.836,7.803,8.536,23.952,10.21,28.728c0.676,1.937,1.157,4.783,1.492,7.674
		c-1.412,0.184-3.108,0.771-3.824,2.479c-0.063,0.159-0.12,0.312-0.172,0.46c-0.693,0.726-1.291,1.753-1.077,3.126
		c0.355,2.331,0.805,4.214,4.119,6.814c3.317,2.595,4.126,3.314,5.826,6.361c1.822,3.258,4.304,4.938,5.919,5.11
		c1.701,0.179,3.853-0.452,4.479-1.523c0.471-0.811,0.793-2.681,0.539-4.325c0.014-0.344-0.012-0.714-0.072-1.117
		c1.797-2.808,0.132-5.413-0.138-8.106c-0.283-2.827-1.835-12.291-2.26-19.639c-0.424-7.346-3.251-16.386-4.099-19.073
		c-0.848-2.687-2.118-7.49-2.118-11.44c0-3.008,0.161-10.169,0.241-14.245c1.341-2.144,0.819-4.964,0.926-7.359
		c0.108-2.429,0.055-9.865-0.215-11.864c-0.272-1.991,0.054-12.34,0.323-13.42C154.978,103.418,157.51,94.793,160.156,90.694z
		 M132.405,13.516c-0.143-0.026-0.277-0.029-0.41-0.026c0.359-0.134,0.846-0.332,1.275-0.87c0.224,0.35,0.436,0.721,0.613,1.102
		C133.354,13.64,132.657,13.551,132.405,13.516z M133.09,6.693l0.822,0.25c0.08,0.03,0.151,0.05,0.227,0.073
		c-0.06-0.007-0.115-0.017-0.146-0.017c-0.046,0.003-0.105,0.017-0.172,0.032l-1.083-0.07l-0.132-0.125
		C132.605,6.835,132.912,6.715,133.09,6.693z"/>
	
		<path fill="#211F1E" stroke="#010101" stroke-width="0.174" stroke-linecap="round" stroke-linejoin="round" stroke-miterlimit="10" d="
		M143.657,194.109c-0.808,0.538-2.778,1.881-2.418,4.214c0.355,2.331,0.805,4.214,4.119,6.814c3.317,2.595,4.126,3.314,5.826,6.361
		c1.822,3.258,4.304,4.938,5.919,5.11c1.701,0.179,3.853-0.452,4.479-1.523s0.988-4.034,0.092-5.826
		C160.778,207.467,143.657,194.109,143.657,194.109z"/>
	
		<path fill="#211F1E" stroke="#010101" stroke-width="0.174" stroke-linecap="round" stroke-linejoin="round" stroke-miterlimit="10" d="
		M99.466,219.658c-0.719,0.716-1.256,1.166-1.436,2.059c-0.181,0.896,0.179,2.425,1.524,3.679c1.344,1.254,5.109,3.854,9.86,4.391
		c4.045,0.456,9.232,1.164,9.77,1.255c0.538,0.092,0.538,0.986,0.538,0.986s6.456,0.801,8.874,0.801
		c2.421,0,4.483-0.443,5.201-1.787c0,0,0.629-3.314-1.077-3.854C131.017,226.649,99.466,219.658,99.466,219.658z"/>
	
		<path fill="#30302D" stroke="#010101" stroke-width="0.174" stroke-linecap="round" stroke-linejoin="round" stroke-miterlimit="10" d="
		M100.002,218.312c-0.224,0.151-0.546,0.553-0.828,1.055c-0.393,0.684-0.709,1.549-0.606,2.17c0.179,1.077,1.256,3.768,5.289,5.383
		c4.032,1.61,11.562,2.867,13.715,2.867c2.149,0,8.694,1.524,11.472,1.077c2.778-0.449,4.483-2.15,4.483-2.689
		c0-0.538-1.078-4.394-1.078-4.394s-11.563-7.623-13.266-7.081c-1.7,0.536-6.902,0.357-7.799,0.447
		c-0.897,0.089-8.963-0.09-10.308,0.538C100.424,217.987,100.002,218.312,100.002,218.312z"/>
	
		<path fill="#30302D" stroke="#010101" stroke-width="0.174" stroke-linecap="round" stroke-linejoin="round" stroke-miterlimit="10" d="
		M148.32,192.227c-0.899-0.092-4.663-0.266-5.832,2.511c-1.162,2.78-0.267,4.306,0.545,5.645c0.804,1.344,2.237,3.052,3.94,4.845
		c1.702,1.787,3.944,4.3,4.661,6.004c0.717,1.707,4.214,4.389,6.631,3.678c2.424-0.722,5.022-2.153,3.317-7.176
		C159.882,202.718,148.32,192.227,148.32,192.227z"/>
	
		<path fill="#6F6855" stroke="#010101" stroke-width="0.174" stroke-linecap="round" stroke-linejoin="round" stroke-miterlimit="10" d="
		M153.717,134.427c0,1.833-0.281,12.999-0.281,16.958c0,3.95,1.271,8.754,2.118,11.44c0.848,2.688,3.675,11.728,4.099,19.073
		c0.425,7.348,1.977,16.812,2.26,19.639c0.284,2.828,2.111,5.562-0.146,8.528c-2.263,2.967-4.798,2.771-6.497,2.208
		c-1.696-0.565-6.637-3.954-8.192-8.757c0,0-0.28-13.283-2.257-18.932c-1.982-5.654-9.611-27.271-11.446-32.071
		c-1.84-4.804-0.284-16.254-0.284-16.254l14.979-15.253L153.717,134.427z"/>
	
		<path fill="#6F6855" stroke="#010101" stroke-width="0.174" stroke-linecap="round" stroke-linejoin="round" stroke-miterlimit="10" d="
		M112.886,134.71c-0.424,1.837-2.116,6.214-2.258,15.818c-0.142,9.61,1.975,23.458,2.964,29.677
		c0.989,6.216,2.966,12.291,3.108,14.411c0.141,2.12,0.99,12.854,0.708,14.976c-0.284,2.116-1.272,6.499-2.261,7.487
		c-0.989,0.989,0.847,4.521,2.261,5.793c1.412,1.271,5.653,5.228,11.16,5.081c0,0,3.39,0.43,4.381-0.421
		c0.992-0.848,0.704-9.043,0.704-12.716c0-3.672,1.077-11.558,1.222-20.885c0.138-9.327-1.737-15.104-1.886-17.125
		c-0.539-7.346,0.385-19.915,5.612-37.015C143.829,122.7,112.886,134.71,112.886,134.71z"/>
	
		<path fill="#ECB28D" stroke="#010101" stroke-width="0.174" stroke-linecap="round" stroke-linejoin="round" stroke-miterlimit="10" d="
		M70.044,120.652c-0.119-0.402,0.041-2.315,0.241-3.008c0.096-0.341,0.359-2.524,1.08-2.609c1.171-0.138,4.347,2.337,4.479,2.455
		c0.106,0.103,2.522,1.47,2.522,1.47L70.044,120.652z"/>
	
		<path fill="#ECB28D" stroke="#010101" stroke-width="0.174" stroke-linecap="round" stroke-linejoin="round" stroke-miterlimit="10" d="
		M69.29,112.746c0.319-0.164,1.434-0.401,2.55-0.12c1.119,0.274,2.315,1.194,2.833,1.234c0.521,0.041,4.709,0.599,5.585,0.796
		c0.879,0.201,3.393,1.479,3.873,2.238c0.477,0.756,2.194,5.066,1.876,5.344c-0.319,0.281-2.675,0.519-4.272,0.639
		c-1.595,0.121-5.106,0.519-5.786,0.596c-0.678,0.083-3.749,0.444-4.31,0.083c-0.558-0.361-1.954-2.191-1.954-2.191
		s-0.272-0.141-0.559-0.404c-0.726-0.665-1.98-1.927-2.354-2.274c-0.517-0.479-1.158-1.593-1.477-2.154
		c-0.316-0.559,0.44-1.074,1.037-0.874c0.6,0.201,1.404,0.768,1.643,1.089c0,0,0.224-1.295,1.125-0.622
		c0.341,0.255,1.604,2.335,1.763,2.498c0.161,0.158,1.283,0.112,1.992,0.41c0.56,0.234,0.62,0.172,0.62,0.172
		s1.557-0.837,2.076-0.837c0.519,0,0.519,0,0.519,0s-1.077-1.157-2.234-1.713c-1.159-0.561-2.396-0.722-3.312-0.997
		c-0.917-0.283-2.11-0.57-2.234-1.28C68.091,113.264,69.29,112.746,69.29,112.746z"/>
	
		<path fill="#EBB18D" stroke="#231F20" stroke-width="0.174" stroke-linecap="round" stroke-linejoin="round" stroke-miterlimit="10" d="
		M69.687,121.365c0.441,0.118,2.992,0.633,3.634,0.914"/>
	
		<path fill="none" stroke="#231F20" stroke-width="0.174" stroke-linecap="round" stroke-linejoin="round" stroke-miterlimit="10" d="
		M67.899,116.635c0.155,0.235,0.448,0.524,0.476,0.542c0.527,0.31,1.494,1.006,1.955,1.415c0.196,0.169,0.265,0.072,1.008,0.144"/>
	
		<path fill="#FFFFFF" stroke="#010101" stroke-width="0.174" stroke-linecap="round" stroke-linejoin="round" stroke-miterlimit="10" d="
		M84.171,115.616c-0.435,0.157-1.136,0.642-1.637,1.914c-0.356,0.922-0.201,3.03,0.96,4.351c0.621,0.702,1.915,2.277,3.669,0.919
		C88.922,121.442,84.171,115.616,84.171,115.616z"/>
	
		<path fill="#ECB28D" stroke="#010101" stroke-width="0.174" stroke-linecap="round" stroke-linejoin="round" stroke-miterlimit="10" d="
		M130.87,13.775c-0.195,0.323-0.521,2.12-0.358,2.444c0.163,0.327,0.782,1.5,1.436,1.596c0.65,0.1,1.307-0.258,0.977-1.206
		c-0.326-0.944-0.226-0.779-0.226-0.779s1.073,0.652,1.368,0.55c0.296-0.096,0.653-2.217,0.653-2.217s0.063-0.228-0.229-0.324
		c-0.296-0.1-1.702-0.263-2.086-0.323C131.589,13.385,130.87,13.775,130.87,13.775z"/>
	
		<path fill="#ECB28D" stroke="#010101" stroke-width="0.174" stroke-linecap="round" stroke-linejoin="round" stroke-miterlimit="10" d="
		M134.13,12.991c-0.063,0.554-0.295,2.74-0.226,3.686c0.064,0.946-0.359,2.281,0.226,3.683c0.341,0.808,1.369,2.153,2.381,2.605
		c1.013,0.46,2.575-3.095,2.644-3.712C139.217,18.633,134.13,12.991,134.13,12.991z"/>
	
		<path fill="#ECB28D" stroke="#010101" stroke-width="0.174" stroke-linecap="round" stroke-linejoin="round" stroke-miterlimit="10" d="
		M131.15,10.93c-0.274,0.185-1.335,1.105-1.658,1.429c-0.321,0.326-0.321,2.211-0.229,2.765c0.09,0.554,0.507,1.154,1.338,0.554
		c0.828-0.598,0.781-1.43,0.873-1.845c0.095-0.413,1.201-0.229,1.983-1.474c0.925-1.471-0.462-1.704-0.462-1.704L131.15,10.93z"/>
	
		<path fill="#8C8B7F" stroke="#010101" stroke-width="0.174" stroke-linecap="round" stroke-linejoin="round" stroke-miterlimit="10" d="
		M133.42,66.655c0.323-0.219,1.291-0.973,1.509-0.917c0.215,0.056,1.296,0.487,1.561,0.487c0.27,0,0.975-0.108,0.975-0.108
		s-0.433,1.885-0.433,2.045c0,0.164-2.48-0.051-2.75-0.051C134.01,68.111,133.42,66.655,133.42,66.655z"/>
	
		<path fill="#ECB28D" stroke="#010101" stroke-width="0.174" stroke-linecap="round" stroke-linejoin="round" stroke-miterlimit="10" d="
		M135.896,62.667c0.056,0.483,0,4.15-0.105,4.579c-0.108,0.432,3.449,2.103,4.583,1.836c1.13-0.272,8.623-2.588,9.27-3.613
		c0.647-1.024,1.187-6.471,1.187-6.471L135.896,62.667z"/>
	
		<path fill="#FFFFFF" stroke="#010101" stroke-width="0.174" stroke-linecap="round" stroke-linejoin="round" stroke-miterlimit="10" d="
		M133.42,66.655c1.775-0.487,4.471,0.808,5.711,0.971c1.243,0.16,6.417,1.022,9.812-2.969c0,0,1.728-1.667,1.728-2.532
		c0,0,2.153,0.812,2.372,1.136c0.214,0.321,0.053,2.369-1.244,3.287c-1.292,0.915-4.365,4.152-5.82,4.312
		s-10.997-0.381-11.806-1.025c-0.807-0.646-2.156-0.216-2.156-0.216L133.42,66.655z"/>
	
		<path fill="#ECB28D" stroke="#010101" stroke-width="0.174" stroke-linecap="round" stroke-linejoin="round" stroke-miterlimit="10" d="
		M130.691,8.72c0,0-0.922,0.322-0.783,1.197c0.137,0.875,0.738,2.722,0.876,2.903c0.137,0.183,0.919,0.918,1.426-0.275
		c0.508-1.199-0.138-2.764-0.138-2.764L130.691,8.72z"/>
	
		<path fill="#EBB18D" stroke="#231F20" stroke-width="0.174" stroke-linecap="round" stroke-linejoin="round" stroke-miterlimit="10" d="
		M137.79,12.729c-0.326-0.044-1.615-0.92-2.812-2.903c-1.2-1.983-2.354-2.994-2.72-3.178c-0.369-0.188-0.902-0.131-1.217,0.182
		c-0.179,0.174-0.234,0.292-0.234,0.292"/>
	
		<path fill="#ECB28D" stroke="#010101" stroke-width="0.174" stroke-linecap="round" stroke-linejoin="round" stroke-miterlimit="10" d="
		M141.707,14.249c0,0-0.05-2.858-0.277-3.499c-0.099-0.274-3.502-5.716-4.24-5.946c-0.739-0.23-3.314-0.222-3.919-0.275
		c-0.504-0.047-2.566,0.901-2.905,1.06c-0.688,0.322-0.856,1.346,0.434,1.542l0.057-0.067c-0.249,0.367-0.413,0.912-0.164,1.657
		c0.417,1.245,0.917,1.611,1.473,2.349c0.554,0.74,1.751,2.261,2.077,3.64c0.321,1.386,0.502,4.424,2.303,6.359
		c1.797,1.937,5.624,0.512,5.624,0.512S141.657,19.734,141.707,14.249z M135.207,7.302c-0.212-0.048-1.037-0.315-1.215-0.304
		c-0.252,0.017-0.888,0.236-0.945,0.255l-0.441-0.418c0,0,0.49-0.195,0.596-0.136c0.108,0.055,1.705,0.554,2.063,0.571
		c0.092,0.004,0.529-0.095,0.529-0.095s0.015,0.193,0.044,0.338c0.021,0.146,0.096,0.381,0.096,0.381S135.413,7.349,135.207,7.302z"
		/>
	
		<path fill="#EBB18D" stroke="#231F20" stroke-width="0.174" stroke-linecap="round" stroke-linejoin="round" stroke-miterlimit="10" d="
		M131.947,15.013c0.129,0.131,0.716,0.586,0.751,0.817c0.03,0.225,0.162-1.209,0.096-1.435"/>
	
		<path fill="#FFFFFF" stroke="#010101" stroke-width="0.174" stroke-linecap="round" stroke-linejoin="round" stroke-miterlimit="10" d="
		M138.055,20.081c-0.699,0.211-2.267,0.646-2.536,1.94c-0.271,1.293,0.327,2.21,0.327,2.21l6.628-0.97c0,0,0.863-1.994,0.27-2.911
		c-0.593-0.919-2.63-0.619-3.07-0.595C138.962,19.803,138.055,20.081,138.055,20.081z"/>
	
		<path fill="#C8BE9A" stroke="#010101" stroke-width="0.174" stroke-linecap="round" stroke-linejoin="round" stroke-miterlimit="10" d="
		M134.121,24.177c0,0.271,2.91,15.741,3.343,17.519c0.427,1.779,10.616,2.858,10.776,2.965c0.164,0.109-1.129,15.688-1.292,15.688
		c-0.162,0,4.58,1.729,5.228,2.748c0.378,0.595,0.43,1.833-1.022,3.02c-1.772,1.447-4.031,2.857-5.279,3.26
		c-1.728,0.553-3.735,0.899-5.946,0.416c-1.825-0.398-5.54-1.574-6.832-1.034c-1.294,0.539-5.662,3.124-6.737,5.122
		c-1.08,1.993-2.159,0.968-6.094,6.628c-3.935,5.664-3.718,8.305-4.364,10.407c-0.649,2.105-1.51,6.843-4.582,11.317
		c0,0-2.319,3.613-3.022,4.583c-0.697,0.968-1.883,1.403-2.37,2.103c-0.486,0.699-19.674,3.452-20.97,4.365
		c-1.292,0.917-2.045,3.506-1.4,5.446c0.647,1.939,2.208,5.122,4.098,5.176c1.887,0.051,12.829-0.378,13.961-0.378
		c1.132,0,4.904-0.917,5.552-1.186c0.647-0.269,7.114-1.131,8.625-3.019c0,0-1.186,4.794-1.616,6.682
		c-0.434,1.889-3.182,6.793-3.777,8.142c-0.592,1.344,2.805,3.772,5.607,5.497c2.805,1.727,8.68,4.153,14.663,4.852
		c5.983,0.697,9.92,1.235,15.2-2.535c0,0-0.699-14.282-0.376-14.608c0.324-0.327,0.914,14.07,0.914,14.448s5.827-2.429,7.224-4.583
		c1.404-2.154,0.865-5.01,0.972-7.437c0.108-2.429,0.055-9.865-0.215-11.864c-0.272-1.991,0.054-12.34,0.323-13.42
		c0.267-1.078,2.799-9.703,5.445-13.802c2.641-4.093,3.988-13.257,4.206-15.2c0.212-1.938,1.397-9.809-0.058-13.154
		c-1.452-3.342-4.365-6.843-7.167-8.409c-2.805-1.562-3.289-3.662-3.343-4.202c-0.055-0.542-2.806-8.843-3.395-10.351
		c-0.594-1.508-1.295-1.778-3.343-8.41c-2.049-6.632-3.073-9.215-3.073-9.215s-1.358-1.186-4.636-0.594
		C134.551,22.021,134.121,24.177,134.121,24.177z"/>
	
		<path fill="none" stroke="#231F20" stroke-width="0.174" stroke-linecap="round" stroke-linejoin="round" stroke-miterlimit="10" d="
		M151.584,62.45c0.538,0,2.749,0.431,2.749,1.509c0,1.08,0.37,3.708-5.5,7.061c-4.528,2.587-10.35,1.591-12.344,1.4
		c-2.265-0.214-7.75-0.546-9.161,0.867c-0.649,0.645-1.351,1.234-1.351,1.234"/>
	
		<path fill="#ECB28D" stroke="#010101" stroke-width="0.174" stroke-linecap="round" stroke-linejoin="round" stroke-miterlimit="10" d="
		M131.586,55.065c-0.109,0.808-0.379,2.912,0.216,4.043c0.592,1.132,1.563,1.241,1.669,0.915c0.108-0.324-0.968-3.719-0.968-4.419
		C132.503,54.903,131.586,55.065,131.586,55.065z"/>
	
		<path fill="#231F20" stroke="#010101" stroke-width="0.174" stroke-linecap="round" stroke-linejoin="round" stroke-miterlimit="10" d="
		M137.624,37.434c-2.469,0.71-5.354,2.756-6.64,6.242c-1.298,3.509-1.101,8.036-0.074,10.839c1.022,2.801,2.669,6.532,2.778,7.124
		c0.108,0.593,2.483,2.459,3.022,3.106c0.541,0.647,1.558,1.671,1.449,1.835c-0.105,0.159,1.458-0.738,1.619-1.274
		c0.162-0.542,1.274,0.535,1.438,0.968c0.16,0.43,4.114,0.705,4.437,0.161c0.324-0.537,1.133-1.023,1.511-1.347
		s3.081-0.68,3.139-1.488c0.052-0.809,0.942-0.707,0.837-0.383c-0.106,0.325,0.604-1.74,0.765-2.439
		c0.163-0.702,1.122,0.143,1.068,0.303c-0.055,0.161,0.553-2.028,0.714-3.161c0.162-1.131,0.965-4.013,0.965-5.465
		c0-1.455,1.062-8.165-4.309-12.333c-3.295-2.562-6.731-3.541-9.536-3.321C140.807,36.801,139.217,36.981,137.624,37.434z"/>
	
		<path fill="none" stroke="#231F20" stroke-width="0.174" stroke-linecap="round" stroke-linejoin="round" stroke-miterlimit="10" d="
		M132.961,92.539c-0.419,0.625-4.321,8.923-5.229,10.387s-4.328,6.803-6.936,10.33c-1.151,1.555-4.678,5.704-4.995,6.053"/>
	
		<path fill="none" stroke="#231F20" stroke-width="0.174" stroke-linecap="round" stroke-linejoin="round" stroke-miterlimit="10" d="
		M123.087,118.729c-0.871-0.39-3.913-2.257-3.869-3.389"/>
	
		<path fill="none" stroke="#231F20" stroke-width="0.174" stroke-linecap="round" stroke-linejoin="round" stroke-miterlimit="10" d="
		M136.359,6.416c-0.23,0.232-0.145,1.359-2.447,0.527l-0.824-0.25"/>
	
		<path fill="none" stroke="#231F20" stroke-width="0.174" stroke-linecap="round" stroke-linejoin="round" stroke-miterlimit="10" d="
		M132.58,6.832c0.32-0.139,0.69-0.142,0.785-0.372"/>
	
		<path fill="#C8BE9A" stroke="#010101" stroke-width="0.174" stroke-linecap="round" stroke-linejoin="round" stroke-miterlimit="10" d="
		M142.681,9.509l-15.076-0.961l-1.748-0.899c0,0-0.707-0.099-0.729-0.291c-0.023-0.239,0.788-0.184,0.788-0.184l1.808-0.534
		L142.8,7.599L142.681,9.509z"/>
	
		<line fill="none" stroke="#231F20" stroke-width="0.174" stroke-linecap="round" stroke-linejoin="round" stroke-miterlimit="10" x1="125.893" y1="7.262" x2="125.856" y2="7.649"/>
	
		<path fill="none" stroke="#231F20" stroke-width="0.174" stroke-linecap="round" stroke-linejoin="round" stroke-miterlimit="10" d="
		M137.108,9.921c-0.321-0.279-1.305-1.846-1.314-2.746"/>
	
		<line fill="none" stroke="#231F20" stroke-width="0.174" stroke-linecap="round" stroke-linejoin="round" stroke-miterlimit="10" x1="127.723" y1="6.641" x2="127.604" y2="8.548"/>
	
		<polygon fill="#484743" stroke="#010101" stroke-width="0.174" stroke-linecap="round" stroke-linejoin="round" stroke-miterlimit="10" points="
		142.681,9.509 127.604,8.548 127.723,6.641 142.8,7.599 	"/>
	
		<path fill="#EBB18D" stroke="#231F20" stroke-width="0.174" stroke-linecap="round" stroke-linejoin="round" stroke-miterlimit="10" d="
		M137.79,12.729c-0.326-0.044-1.615-0.92-2.812-2.903c-1.2-1.983-2.354-2.994-2.72-3.178c-0.369-0.188-0.902-0.131-1.217,0.182
		c-0.179,0.174-0.243,0.301-0.243,0.301s-0.004,0.024-0.029,0.074c-0.197,0.364-0.295,0.862-0.078,1.516
		c0.417,1.245,0.917,1.611,1.473,2.349c0,0,1.152,1.33,1.74,2.686"/>
	
		<path fill="#EBB18D" stroke="#231F20" stroke-width="0.174" stroke-linecap="round" stroke-linejoin="round" stroke-miterlimit="10" d="
		M72.604,116.274c-0.063,0.152,0.088,1.782,0.112,2.02c0.019,0.241,0.762,0.911,0.762,0.911"/>
</g>
</svg>
