<?xml version="1.0" encoding="utf-8"?>
<!-- Generator: Adobe Illustrator 15.0.0, SVG Export Plug-In . SVG Version: 6.00 Build 0)  -->
<!DOCTYPE svg PUBLIC "-//W3C//DTD SVG 1.1//EN" "http://www.w3.org/Graphics/SVG/1.1/DTD/svg11.dtd">
<svg version="1.1" id="Layer_1" xmlns="http://www.w3.org/2000/svg" xmlns:xlink="http://www.w3.org/1999/xlink" x="0px" y="0px"
	 width="250px" height="250px" viewBox="0 0 250 250" enable-background="new 0 0 250 250" xml:space="preserve">
<g>
	<path fill="#E6E7E8" d="M164.504,193.513c12.517,7.224,4.099,23.877-18.831,37.2c-22.898,13.302-51.611,18.236-64.127,11.012
		c-12.52-7.233-4.094-23.873,18.805-37.188C123.278,191.22,151.988,186.285,164.504,193.513z"/>
	
		<path fill="#FFFFFF" stroke="#010101" stroke-width="0.6089" stroke-linecap="round" stroke-linejoin="round" stroke-miterlimit="10" d="
		M174.588,59.498c-1.07-2.135-6.879-8.26-9.659-10.958c-1.254-1.216-8.652-7.717-10.958-8.941c-2.03-1.078-8.073-0.204-9.894,0.073
		c-0.222-0.322-0.514-0.605-0.703-0.724c-0.361-0.213-0.855-0.236-1.217-0.019c0,0,0.51-0.033,0.563,0.667
		c-0.497-0.624-1.168-1.192-1.168-1.192s-0.01,0.021-0.025,0.044c-0.073-0.417-0.149-0.836-0.219-1.254
		c0.025-0.046,0.057-0.097,0.076-0.149c0.367-1.041,1.847-6.513,2.667-8.516c0.811-1.997,1.922-8.801,0.883-10.657
		c-1.035-1.848-5.919-7.843-6.954-9.245c-1.039-1.408-3.554-2.299-3.554-2.299s1.555,1.776,0.813,1.776s-3.109-2.665-4.069-2.734
		c-0.966-0.078-4.812,1.773-5.479,1.628c-0.665-0.147,0-1.559-0.149-1.777c-0.144-0.227-2.366,1.332-3.476,0.885
		c-1.111-0.442-0.371,0.963,0.222,1.332c0.594,0.372-1.849,0.223-2.445-0.218c-0.591-0.45-1.846,0.218-1.846,0.218
		c-0.816-0.516-2.073,1.186-3.185,1.333c-1.11,0.15-2.071,0.814-2.071,3.11c0,2.293-0.15,4.214,1.701,5.622
		c0.611,0.467,1.124,1.215,1.539,2.03c-0.291,1.56-0.575,3.614-0.428,4.405c0.224,1.189,0.268,1.653,0.946,2.754
		c0.25,0.404,0.362,0.614,0.378,0.645c0-0.005-0.008-0.011-0.008-0.011l0.008,0.037c-0.029,0.081-0.358,0.972-0.287,1.463
		c0.074,0.521,0.887,0.964,0.887,0.964s-0.147,1.778,0.443,2.814c0.592,1.036,2,3.552,2.296,4.363
		c0.294,0.819,0.59,2.665,3.254,2.815c2.667,0.144,2.622,0.038,2.622,0.038s0.4,1.091,0.621,2.306
		c-0.795-0.011-1.254-0.011-1.254-0.011c-0.45,0.111-2.087,0.993-3.186,5.238c-1.208,1.105-4.716,6.159-4.716,6.159
		s0.206-0.09,0.458-0.22c-5.272,3.243-6.882,5.701-8.749,10.606c-1.945,5.121,0.793,16.224,1.442,20.117
		c0.651,3.893-1.656,14.705-1.945,17.441c-0.29,2.743-0.651,11.684-0.868,12.624c-0.217,0.934-1.297,10.594-1.297,10.594
		c0.073,0.143,0.162,0.279,0.25,0.412c-0.608,0.621-1.317,1.473-1.553,2.151c-0.348,0.991-0.647,1.241-0.847,2.235
		c-0.201,0.998-0.597,1.992-0.796,2.689c-0.201,0.693-0.249,2.09-0.498,2.736c-0.25,0.646-1.145,2.739,0.35,3.341
		c0.025,0.007,0.044,0.013,0.07,0.025c-0.529,2.198-1.154,4.858-1.482,7.725c-0.538,4.729-1.08,14.455-0.809,19.322
		c0.271,4.861,2.971,15.94,3.783,20.399c0.811,4.462,2.475,14.046,2.432,19.588c-0.032,3.811,0.2,10.211-1.622,12.428
		c-0.032,0.038-0.052,0.066-0.076,0.108c-3.247-0.013-9.271-0.295-10.776-0.241c-1.989,0.069-5.075,1.032-5.74,2.502
		c-0.185,0.415-0.316,0.881-0.396,1.358c-0.417,0.779-0.703,1.606-0.659,2.154c0.171,2.306,2.395,3.962,5.926,5.656
		c3.531,1.691,7.706,2.451,9.321,2.451c1.62,0,7.143,1.203,8.092,1.399c0.366,0.07,0.222,0.878,0.222,0.878
		s9.631,1.764,13.381-0.222c0,0,1.473-0.735,1.695-1.321c0.171-0.462,0.12-2.321-0.222-3.243c-0.007-0.307-0.022-0.674-0.051-1.076
		c0.437-1.66-0.443-8.731-0.181-11.348c0.114-1.134,0.323-5.679,0.51-10.8c1.07,0.988,2.635,2.15,3.617,2.787
		c1.469,0.953,2.615,1.289,5.368,3.31c0,0,1.276,1.286,1.276,1.577s0.085,1.46,0.085,1.46s1.371,1.457,2.571,2.315
		c1.885,1.346,4.438,2.141,6.519,2.141c1.457,0,2.638-0.361,3.297-1.317c0.665-0.96,0.737-1.837,0.589-3.088
		c0-0.032-0.013-0.061-0.025-0.086c0.057-0.456,0.02-1.355-0.14-2.245c0.824-4.044,1.977-16.282,2.407-18.882
		c0.735-4.46,1.488-15.541,1.35-18.246c-0.133-2.698-0.808-13.099-2.027-17.967c-1.216-4.864,0.048-24.285,0.405-27.019
		c0.472-3.544,0.596-4.187,0.868-8.104c0.494-0.542,0.95-1.039,1.317-1.406c1.59-1.583,1.441-4.827,1.514-6.486
		c0.076-1.656-1.226-11.535-1.656-13.916c-0.434-2.375-0.576-9.229-0.576-9.229s7.712-8.074,8.938-9.37
		c1.226-1.302,9.01-10.241,11.68-13.413C176.967,65.629,175.456,61.23,174.588,59.498z M127.222,188.949
		c-0.602-6.328-1.889-15.266-3.915-19.991c0,0,0.268-4.867,0.402-5.539c0.136-0.678,4.596-9.998,5.676-13.108
		c0.202-0.583,0.51-1.521,0.902-2.683c0.836,3.607,2.217,9.903,3.016,13.488c1.083,4.865,2.799,13.067,2.837,17.565
		c0.025,2.587-0.225,11.221-1.488,18.286c-1.46-0.836-3.027-1.14-3.965-1.14c-0.963,0-2.379,0.352-3.478,0.734
		C127.291,192.898,127.316,189.924,127.222,188.949z"/>
	
		<path fill="#181616" stroke="#010101" stroke-width="0.174" stroke-linecap="round" stroke-linejoin="round" stroke-miterlimit="10" d="
		M90.8,219.314c-1.029,0.298-2.665,3.025-2.568,4.292c0.171,2.306,2.395,3.962,5.926,5.656c3.531,1.691,7.706,2.451,9.321,2.451
		c1.62,0,7.143,1.203,8.092,1.399c0.366,0.07,0.222,0.878,0.222,0.878s9.631,1.764,13.381-0.222c0,0,1.473-0.735,1.695-1.321
		c0.218-0.592,0.072-3.534-0.593-3.756C125.614,228.474,90.8,219.314,90.8,219.314z"/>
	
		<path fill="#30302D" stroke="#010101" stroke-width="0.174" stroke-linecap="round" stroke-linejoin="round" stroke-miterlimit="10" d="
		M107.818,217.737c-0.955,0.295-10.808-0.222-12.792-0.146c-1.989,0.069-5.075,1.032-5.74,2.502
		c-0.659,1.47-0.706,3.519,0.294,4.779c1.693,2.132,6.621,4.19,9.122,4.928c1.831,0.539,11.469,1.986,12.573,2.28
		c1.104,0.292,9.396,0.652,12.28-0.148c2.826-0.785,3.09-1.84,3.09-1.84s0.146-3.823-0.957-5.806
		C124.586,222.298,107.818,217.737,107.818,217.737z"/>
	
		<path fill="#181616" stroke="#010101" stroke-width="0.174" stroke-linecap="round" stroke-linejoin="round" stroke-miterlimit="10" d="
		M125.834,204.73c0.44,0.95,3.237,3.081,4.707,4.038c1.469,0.953,2.615,1.289,5.368,3.31c0,0,1.276,1.286,1.276,1.577
		s0.085,1.46,0.085,1.46s1.371,1.457,2.571,2.315c1.885,1.346,4.438,2.141,6.519,2.141c1.457,0,2.638-0.361,3.297-1.317
		c0.665-0.96,0.737-1.837,0.589-3.088c-0.146-1.251-3.528-2.274-3.528-2.274l-17.938-10.666L125.834,204.73z"/>
	
		<path fill="#30302D" stroke="#010101" stroke-width="0.174" stroke-linecap="round" stroke-linejoin="round" stroke-miterlimit="10" d="
		M125.981,197.075c0.958-0.513,3.309-1.247,4.705-1.247c1.399,0,4.196,0.658,5.96,2.79c1.4,1.697,9.913,7.886,12.795,12.281
		c0.741,1.141,0.932,3.946,0.732,4.415c-0.954,2.277-1.556,2.471-3.013,2.651c-5.59,0.658-8.899-3.975-10.812-6.106
		c-1.909-2.138-3.452-2.356-6.397-4.266c-1.419-0.925-2.72-2.354-3.97-3.604c-3.949-3.952-2.717-3.531-2.717-3.531L125.981,197.075z
		"/>
	
		<path fill="#484948" stroke="#010101" stroke-width="0.174" stroke-linecap="round" stroke-linejoin="round" stroke-miterlimit="10" d="
		M129.654,145.04c0.405,1.355,2.568,11.215,3.648,16.076c1.083,4.865,2.799,13.067,2.837,17.565
		c0.032,3.392-0.401,17.155-2.971,24.184c0,0-1.488,2.163,0.675,4.729c2.163,2.568,5.539,6.35,8.922,7.164
		c3.376,0.811,6.211,1.079,7.019-0.814c0.811-1.888,2.22-17.058,2.704-19.99c0.735-4.46,1.488-15.541,1.35-18.246
		c-0.133-2.698-0.808-13.099-2.027-17.967c-1.216-4.864,0.048-24.285,0.405-27.019c0.682-5.105,0.637-4.187,1.368-15.73
		l-9.473-4.535l-5.539,8.241L129.654,145.04z"/>
	
		<path fill="#484948" stroke="#010101" stroke-width="0.174" stroke-linecap="round" stroke-linejoin="round" stroke-miterlimit="10" d="
		M104.39,134.64c-0.404,2.433-1.755,6.619-2.296,11.348c-0.538,4.729-1.08,14.455-0.809,19.322
		c0.271,4.861,2.971,15.94,3.783,20.399c0.811,4.462,2.475,14.046,2.432,19.588c-0.032,3.811,0.2,10.211-1.622,12.428
		c-1.441,1.762,0.021,3.098,1.372,4.713c1.351,1.625,6.464,5.827,11.731,6.502c5.27,0.678,7.026,0.678,7.569-0.675
		c0.539-1.353-0.408-8.778-0.136-11.483c0.27-2.701,1.099-24.824,0.808-27.832c-0.602-6.328-1.889-15.266-3.915-19.991
		c0,0,0.268-4.867,0.402-5.539c0.136-0.678,4.596-9.998,5.676-13.108c1.08-3.107,5.267-16.481,8.377-19.994
		c3.11-3.512-14.053-8.782-14.053-8.782l-10.673-0.542L104.39,134.64z"/>
	
		<path fill="#FFFFFF" stroke="#010101" stroke-width="0.174" stroke-linecap="round" stroke-linejoin="round" stroke-miterlimit="10" d="
		M106.966,123.814c-0.112,1.115,0.109,2.438,0.667,3.218c0.825,1.153,5.898,4.158,8.268,1.245c2.369-2.908,0.264-3.908,0.264-3.908
		L106.966,123.814z"/>
	
		<path fill="#E3B48B" stroke="#010101" stroke-width="0.174" stroke-linecap="round" stroke-linejoin="round" stroke-miterlimit="10" d="
		M116.366,17.8c-0.294,0.963-1.036,4.958-0.812,6.138c0.224,1.189,0.268,1.653,0.946,2.754c0.271,0.438,0.386,0.654,0.386,0.654
		s-0.369,0.963-0.294,1.479c0.074,0.521,0.887,0.964,0.887,0.964s-0.147,1.778,0.443,2.814c0.592,1.036,2,3.552,2.296,4.363
		c0.294,0.819,0.59,2.665,3.254,2.815c2.667,0.144,2.622,0.038,2.622,0.038s1.438,3.907,0.372,5.183
		c-0.468,0.556,14.254,0.182,15.286-1.521c1.039-1.701-1.33-7.625-0.589-10.436c0.738-2.814-0.076-5.701-0.076-5.701L116.366,17.8z"
		/>
	
		<path fill="none" stroke="#231F20" stroke-width="0.174" stroke-linecap="round" stroke-linejoin="round" stroke-miterlimit="10" d="
		M117.492,29.63c0.174-1.598-0.622-2.306-0.622-2.306"/>
	
		<path fill="#FFFFFF" stroke="#010101" stroke-width="0.174" stroke-linecap="round" stroke-linejoin="round" stroke-miterlimit="10" d="
		M125.46,42.113c-0.465,0.111-2.203,1.039-3.3,5.674c0,0,3.878-0.522,4.516-0.812c0.64-0.29,8.044-1.103,9.495-1.739
		c1.447-0.635,6.828-3.701,7.06-4.456c0.23-0.751-1.679-2.377-1.679-2.377s-0.681,1.062-1.273,1.564
		c-1.419,1.218-3.575,2.354-7.699,2.256C128.44,42.131,125.46,42.113,125.46,42.113z"/>
	
		<path fill="#E3B48B" stroke="#010101" stroke-width="0.174" stroke-linecap="round" stroke-linejoin="round" stroke-miterlimit="10" d="
		M107.585,124.391c-0.544,0.45-1.941,1.843-2.288,2.844c-0.348,0.991-0.647,1.241-0.847,2.235c-0.201,0.998-0.597,1.992-0.796,2.689
		c-0.201,0.693-0.249,2.09-0.498,2.736c-0.25,0.646-1.145,2.739,0.35,3.341c1.492,0.596,1.591,0.795,1.591,0.795
		s-0.299,0.995,0.445,2.142c0.75,1.146,1.348,1.2,2.103,0.921c0.225-0.085,0.488-0.427,0.488-0.427s0.25,1.346,0.947,1.494
		c0.697,0.149,1.293,0,1.544-0.348c0.249-0.346,0.455-2.151,0.796-2.689c0.451-0.703,1.394-2.736,1.394-2.736
		s-0.562,2.496-0.545,2.968c0.018,0.579,0.445,1.365,1.045,1.312c0.595-0.048,0.995-0.247,1.243-0.944
		c0.249-0.7,0.959-2.375,1.387-3.284c0.274-0.589,0.701-1.995,0.752-3.585c0.049-1.597,0.4-5.226-0.796-6.774
		C114.708,125.538,107.585,124.391,107.585,124.391z"/>
	
		<path fill="none" stroke="#231F20" stroke-width="0.174" stroke-linecap="round" stroke-linejoin="round" stroke-miterlimit="10" d="
		M105.098,139.032c0,0,0.141-0.658,0.467-1.555c0.274-0.76,0.349-1.425,0.478-1.631c0,0,0.103,0.079-0.012,0.507
		c0,0-0.387,0.908-0.466,1.086"/>
	
		<path fill="none" stroke="#231F20" stroke-width="0.174" stroke-linecap="round" stroke-linejoin="round" stroke-miterlimit="10" d="
		M108.133,141.668c0,0-0.011-0.213-0.081-1.023c-0.071-0.805,0.25-1.358,0.382-1.732c0.126-0.377,0.568-1.812,0.733-1.91
		c0,0,0.168-0.003,0.073,0.326c-0.097,0.33-0.448,1.084-0.611,1.477c-0.117,0.281-0.372,0.871-0.505,1.231
		c-0.054,0.143-0.051,0.808-0.037,1.473"/>
	
		<path fill="#3D311B" stroke="#010101" stroke-width="0.174" stroke-linecap="round" stroke-linejoin="round" stroke-miterlimit="10" d="
		M117.998,7.437c-0.816-0.516-2.073,1.186-3.185,1.333c-1.11,0.15-2.071,0.814-2.071,3.11c0,2.293-0.15,4.214,1.701,5.622
		s2.814,5.405,2.814,6.066c0,0.668-0.371,1.187,0.89,3.039c1.255,1.848,1.922,3.476,1.922,3.476s1.849-0.74,3.257-1.182
		c1.408-0.446,3.328,1.33,4.734,3.18c1.409,1.854,5.033,6.442,7.696,6.592c2.663,0.147,5.254-0.595,5.628-1.629
		c0.367-1.041,1.847-6.513,2.667-8.516c0.811-1.997,1.922-8.801,0.883-10.657c-1.035-1.848-5.919-7.843-6.954-9.245
		c-1.039-1.408-3.554-2.299-3.554-2.299s1.555,1.776,0.813,1.776s-3.109-2.665-4.069-2.734c-0.966-0.078-4.812,1.773-5.479,1.628
		c-0.665-0.147,0-1.559-0.149-1.777c-0.144-0.227-2.366,1.332-3.476,0.885c-1.111-0.442-0.371,0.963,0.222,1.332
		c0.594,0.372-1.849,0.223-2.445-0.218C119.253,6.769,117.998,7.437,117.998,7.437z"/>
	
		<path fill="#E3B48C" stroke="#231F20" stroke-width="0.174" stroke-linecap="round" stroke-linejoin="round" stroke-miterlimit="10" d="
		M123.399,30.75c-0.073-0.74,0.149-2.738,1.335-1.775c1.183,0.96,2.488,3.151,1.848,5.183c-0.385,1.213-1.039,2.071-1.628,1.181"/>
	
		<path fill="#C8BE9A" stroke="#010101" stroke-width="0.174" stroke-linecap="round" stroke-linejoin="round" stroke-miterlimit="10" d="
		M143.589,39.741c0.576-0.069,8.073-1.367,10.382-0.143c2.306,1.224,9.704,7.725,10.958,8.941c2.78,2.698,8.589,8.823,9.659,10.958
		c0.868,1.732,2.379,6.131-0.288,9.3c-2.67,3.172-10.454,12.111-11.68,13.413c-1.226,1.295-8.938,9.37-8.938,9.37
		s0.143,6.854,0.576,9.229c0.431,2.381,1.732,12.26,1.656,13.916c-0.072,1.66,0.076,4.903-1.514,6.486
		c-1.583,1.586-4.902,5.558-5.118,5.77c-0.215,0.216-1.44-13.264-1.729-13.843c-0.291-0.58,0.431,13.631,0.646,14.495
		c0,0-2.502,2.965-5.985,5.115c-3.13,1.935-11.304,3.04-14.547,2.392c-2.419-0.488-5.812-1.645-7.875-4.916
		c-2.032-3.218-1.728-3.528-2.234-3.893c0,0-0.866,1.584-1.658,1.945c-0.793,0.364-7.497-0.143-9.3-3.604
		c0,0,1.08-9.66,1.297-10.594c0.217-0.94,0.578-9.881,0.868-12.624c0.289-2.736,2.596-13.549,1.945-17.441
		c-0.649-3.894-3.387-14.996-1.442-20.117c1.947-5.123,3.604-7.569,9.445-11.031c0,0,1.802-2.884,2.884-3.603
		c1.082-0.724,12.69-3.034,13.773-3.535c1.077-0.506,7.421-3.246,7.712-4.042C143.374,40.893,143.589,39.741,143.589,39.741z"/>
	
		<path fill="#C8BE9A" stroke="#010101" stroke-width="0.174" stroke-linecap="round" stroke-linejoin="round" stroke-miterlimit="10" d="
		M142.157,38.929c0.361-0.217,0.855-0.194,1.217,0.019c0.354,0.217,1.079,1.01,1.007,1.587c-0.069,0.58-0.178,1.902-1.806,3.026
		c-2.546,1.775-6.122,2.92-8.215,3.176c-3.439,0.421-9.88,2.018-11.321,2.809c-1.443,0.793-3.964,3.028-4.327,3.319
		c-0.361,0.288-1.154,0.645-1.154,0.645s3.751-5.406,4.833-6.268c1.08-0.868,3.389-1.66,4.685-1.804
		c1.295-0.146,8.215-0.974,10.818-1.949c1.977-0.738,4.922-2.635,4.826-3.891C142.671,38.896,142.157,38.929,142.157,38.929z"/>
	
		<path fill="none" stroke="#231F20" stroke-width="0.174" stroke-linecap="round" stroke-linejoin="round" stroke-miterlimit="10" d="
		M125.806,68.521c0.222,0.887,0.665,5.094,0.776,6.871c0.11,1.773-0.443,6.98-0.443,11.413c0,4.434-1.109,13.745-1.996,17.286
		c-0.885,3.547-3.767,13.967-4.988,16.513c-1.216,2.55-1.596,5.729-1.596,5.729"/>
	
		<path fill="none" stroke="#231F20" stroke-width="0.174" stroke-linecap="round" stroke-linejoin="round" stroke-miterlimit="10" d="
		M159.196,55.111c-0.614,1.232-0.408,3.183-0.719,5.449c-0.117,0.844-0.463,2.605-0.874,4.613c-0.682,3.345-1.543,7.383-1.799,9.05
		c-0.409,2.675-1.745,12.639-1.954,14.9c-0.203,2.263-0.203,2.263-0.203,2.263"/>
	
		<path fill="none" stroke="#231F20" stroke-width="0.174" stroke-linecap="round" stroke-linejoin="round" stroke-miterlimit="10" d="
		M170.398,68.467c-1.954,0.722-4.624,1.237-8.016-0.819c-3.389-2.054-4.779-2.475-4.779-2.475"/>
	
		<line fill="none" stroke="#231F20" stroke-width="0.174" stroke-linecap="round" stroke-linejoin="round" stroke-miterlimit="10" x1="157.242" y1="67.133" x2="158.373" y2="65.49"/>
</g>
</svg>
