<?xml version="1.0" encoding="UTF-8" standalone="no"?>
<!-- Created with Inkscape (http://www.inkscape.org/) -->
<svg
   xmlns:dc="http://purl.org/dc/elements/1.1/"
   xmlns:cc="http://web.resource.org/cc/"
   xmlns:rdf="http://www.w3.org/1999/02/22-rdf-syntax-ns#"
   xmlns:svg="http://www.w3.org/2000/svg"
   xmlns="http://www.w3.org/2000/svg"
   xmlns:sodipodi="http://sodipodi.sourceforge.net/DTD/sodipodi-0.dtd"
   xmlns:inkscape="http://www.inkscape.org/namespaces/inkscape"
   width="380"
   height="220"
   id="svg2"
   sodipodi:version="0.32"
   inkscape:version="0.44.1"
   sodipodi:docbase="E:\Vektorgrafiken\myOwn\Sonstige"
   sodipodi:docname="thumb.svg"
   version="1.0"
   inkscape:export-filename="E:\Vektorgrafiken\myOwn\Sonstige\thumb.png"
   inkscape:export-xdpi="90"
   inkscape:export-ydpi="90">
  <defs
     id="defs4" />
  <sodipodi:namedview
     id="base"
     pagecolor="#ffffff"
     bordercolor="#666666"
     borderopacity="1.0"
     inkscape:pageopacity="0.0"
     inkscape:pageshadow="2"
     inkscape:zoom="0.98994949"
     inkscape:cx="197.26465"
     inkscape:cy="117.32928"
     inkscape:document-units="px"
     inkscape:current-layer="layer1"
     inkscape:window-width="1280"
     inkscape:window-height="744"
     inkscape:window-x="-4"
     inkscape:window-y="-4"
     width="380px"
     height="220px" />
  <metadata
     id="metadata7">
    <rdf:RDF>
      <cc:Work
         rdf:about="">
        <dc:format>image/svg+xml</dc:format>
        <dc:type
           rdf:resource="http://purl.org/dc/dcmitype/StillImage" />
      </cc:Work>
    </rdf:RDF>
  </metadata>
  <g
     inkscape:label="Ebene 1"
     inkscape:groupmode="layer"
     id="layer1">
    <g
       id="g3742"
       transform="translate(-61.83612,-214.1298)">
      <path
         sodipodi:nodetypes="ccccccccccccc"
         id="path1968"
         d="M 88.388348,312.93052 C 84.712185,394.77537 148.06532,385.65189 197.9899,394.75288 C 208.01338,404.6668 221.06339,416.80671 240.33967,418.08469 C 261.49377,414.10155 276.89156,411.11362 303.55084,402.32902 C 399.97608,416.51367 424.69337,401.36343 417.98872,359.01058 C 411.73968,344.29946 360.45988,316.9947 329.30973,349.80109 L 296.47977,350.30616 C 295.27271,329.71234 291.84492,316.22936 273.92518,283.40172 C 271.47566,257.20802 263.2842,226.70091 240.92138,225.55232 C 225.70181,224.51631 218.47521,235.1279 209.89163,244.06694 C 196.44936,244.377 183.41251,244.48677 170.2107,243.22999 C 155.9004,248.11255 147.94469,273.83716 123.23861,274.03965 C 110.39998,282.11575 99.988759,299.90152 88.388348,312.93052 z "
         style="fill:#f9cc9a;fill-opacity:1;fill-rule:evenodd;stroke:none;stroke-width:1px;stroke-linecap:butt;stroke-linejoin:miter;stroke-opacity:1" />
      <path
         sodipodi:nodetypes="ccccccccccccc"
         id="path2855"
         d="M 95.34355,347.11066 C 106.28687,359.62052 117.23019,355.62095 128.17351,345.3429 C 140.75651,363.99036 156.78248,373.41066 172.87276,350.6462 C 201.61173,359.68732 218.94685,348.47267 232.97683,329.43299 C 257.52859,334.43469 273.3081,324.39824 283.737,305.18933 C 301.95507,331.6814 294.05549,353.72791 280.95908,374.88986 C 286.03791,387.87309 294.94399,390.73412 301.66721,393.57768 C 333.60643,384.57721 369.88231,409.7302 418.8449,366.30356 C 423.69277,394.90692 404.25564,401.24903 385.50987,408.22489 C 354.26793,412.71611 323.89206,408.54663 293.58599,403.6792 L 240.55298,419.33657 L 186.00474,390.54722 C 144.92799,390.38952 97.556103,385.17838 95.34355,347.11066 z "
         style="opacity:0.64000005;fill:#b18e6c;fill-opacity:1;fill-rule:evenodd;stroke:none;stroke-width:1px;stroke-linecap:butt;stroke-linejoin:miter;stroke-opacity:1" />
      <path
         sodipodi:nodetypes="csssssssccccscccccssccccccccccccccccccscccccccccccsscccccc"
         id="path1948"
         d="M 162.19732,396.49461 C 144.36198,395.33465 134.11076,393.39149 126.05622,389.64391 C 113.63679,383.86547 94.30041,366.89485 88.19896,356.41839 C 84.370521,349.84482 80.482681,333.79202 80.324781,323.90621 C 80.171861,314.33148 81.268081,312.06234 88.37415,307.2443 C 96.775061,301.54834 102.35807,295.02863 107.0785,285.40182 C 113.41363,272.48199 117.40977,269.55262 128.83002,269.45688 C 138.04225,269.37965 142.60044,266.82887 149.00715,258.16571 C 157.33102,246.91017 164.98239,240.89464 173.24152,239.11259 C 184.11213,237.65889 195.44762,246.45382 206.10493,242.79049 C 211.76003,236.23667 215.87852,230.51591 222.68602,224.99407 C 236.91948,217.77873 257.62605,222.90541 265.93238,235.73299 C 269.61475,243.28767 272.38791,255.04942 273.62755,268.37047 C 274.8955,281.99558 276.87775,287.83187 284.38923,300.0558 C 292.67873,315.39637 297.58211,324.52434 297.77297,345.25716 L 325.03966,346.48964 C 342.12461,328.69907 355.63059,325.7954 379.05623,331.9908 C 397.00994,338.09682 410.8268,336.77746 419.64987,355.43537 C 423.62664,364.98801 424.35152,372.30826 422.09077,380.08497 C 418.26711,393.23791 411.80569,401.84625 402.26426,406.49919 C 384.45247,415.18522 346.12681,416.51192 312.84888,409.59444 C 298.98497,405.46829 286.18563,407.75594 273.44053,413.94219 C 251.22289,422.85693 246.32431,418.94695 239.83081,426.5558 C 207.31256,405.82968 201.3331,399.63365 162.19732,396.49461 z M 273.72241,404.14399 C 286.36838,397.37452 301.22929,398.2708 314.68335,401.67572 C 342.02112,406.97029 377.66425,410.29916 402.91378,397.50723 C 410.46154,392.32164 416.55623,380.0675 416.55623,370.07739 C 415.91428,346.33169 398.12239,345.74214 380.05623,340.20089 C 370.44883,335.91343 358.75479,335.53913 349.14402,339.95871 C 332.7785,348.44828 325.18465,365.75283 313.99388,379.32679 C 312.71036,371.04423 316.39688,363.38017 319.1689,355.83514 L 294.93286,356.8171 C 283.15538,382.1948 260.31106,384.02524 236.79322,374.57022 C 230.39793,383.19601 218.45527,390.93956 201.31414,390.83435 C 214.55733,395.49945 225.17823,406.46319 238.28941,411.2359 C 251.45477,414.16099 262.50897,410.2468 273.72241,404.14399 z M 168.05832,345.37639 C 165.58895,336.15914 164.70034,327.2341 166.43837,329.1058 C 166.92355,329.6283 169.92868,335.9058 173.11644,343.0558 C 183.46788,376.87687 226.2282,395.0575 234.55623,352.99172 C 234.8213,332.85541 213.66912,309.60327 225.27976,290.37773 C 223.02713,302.23483 228.07571,312.55905 233.08892,323.0558 C 239.69311,336.35078 241.4865,343.05985 241.53642,354.65792 C 242.49593,370.33863 259.73571,369.97611 271.49714,366.96277 C 301.165,350.29975 286.31538,318.6179 275.23667,295.93813 C 268.99322,283.45518 267.23415,277.12414 265.05267,259.2851 C 263.72185,238.69853 254.98343,230.28938 233.45968,229.84484 C 219.81794,229.33977 217.58492,251.16974 205.73542,251.5558 C 196.23639,251.09935 187.02085,248.31184 177.55622,247.57657 C 168.88291,247.54323 162.20033,252.83231 155.50699,265.02791 C 150.28389,274.54467 148.29056,275.66289 135.03724,276.51104 C 129.52679,276.86369 124.35179,277.55936 123.53724,278.05697 C 112.95184,293.19854 110.42368,302.2969 94.24462,314.32762 C 87.530357,332.77792 100.10515,372.22894 125.39928,368.15279 C 123.70306,351.62247 122.72991,336.55596 132.3776,324.08677 C 133.64257,329.21973 133.52415,334.48737 133.22239,339.72893 C 121.52488,384.41821 186.71478,399.46779 168.05832,345.37639 z "
         style="fill:black" />
    </g>
  </g>
</svg>
