<?xml version="1.0" encoding="utf-8"?>
<!-- Generator: Adobe Illustrator 15.0.0, SVG Export Plug-In . SVG Version: 6.00 Build 0)  -->
<!DOCTYPE svg PUBLIC "-//W3C//DTD SVG 1.1//EN" "http://www.w3.org/Graphics/SVG/1.1/DTD/svg11.dtd">
<svg version="1.1" id="Layer_1" xmlns="http://www.w3.org/2000/svg" xmlns:xlink="http://www.w3.org/1999/xlink" x="0px" y="0px"
	 width="360px" height="360px" viewBox="0 0 360 360" enable-background="new 0 0 360 360" xml:space="preserve">
<g>
	<linearGradient id="SVGID_1_" gradientUnits="userSpaceOnUse" x1="179.4341" y1="226.6143" x2="179.4341" y2="132.4717">
		<stop  offset="0" style="stop-color:#939598"/>
		<stop  offset="0.5153" style="stop-color:#939598;stop-opacity:0"/>
		<stop  offset="1" style="stop-color:#939598"/>
	</linearGradient>
	<path fill="url(#SVGID_1_)" d="M238.505,133.313c-3.002-1.497-6.744-1-9.243,1.504l-49.832,30.065l-49.823-30.065
		c-2.505-2.504-6.243-3.001-9.243-1.504c0.751,0.376,1.464,0.877,2.092,1.504l53.401,32.223l-11.329,6.834
		c-3.129,3.128-3.129,8.208,0,11.339l11.329,6.833l-53.401,32.224c-0.628,0.629-1.341,1.127-2.092,1.503
		c3,1.495,6.738,0.997,9.243-1.503l49.823-30.067l49.832,30.067c2.499,2.5,6.241,2.998,9.243,1.503
		c-0.759-0.376-1.468-0.874-2.1-1.503l-53.398-32.224l11.324-6.833c3.133-3.132,3.133-8.211,0-11.339l-11.324-6.834l53.398-32.223
		C237.037,134.19,237.746,133.69,238.505,133.313z M187.183,173.875c3.129,3.128,3.129,8.208,0,11.339l-7.752,4.678l-7.75-4.678
		c-3.13-3.132-3.13-8.211,0-11.339l7.75-4.679L187.183,173.875z M312.708,173.875l-64.727-39.057
		c-2.501-2.504-6.24-3.001-9.243-1.504c0.753,0.376,1.464,0.877,2.099,1.504l64.722,39.057c3.13,3.128,3.13,8.208,0,11.339
		l-64.722,39.057c-0.635,0.629-1.346,1.127-2.099,1.503c3.003,1.495,6.742,0.997,9.243-1.503l64.727-39.057
		C315.842,182.082,315.842,177.003,312.708,173.875z M118.031,134.817c0.63-0.627,1.338-1.127,2.093-1.504
		c-2.998-1.497-6.74-1-9.241,1.504l-64.726,39.057c-3.131,3.128-3.131,8.208,0,11.339l64.726,39.057
		c2.5,2.5,6.243,2.998,9.241,1.503c-0.755-0.376-1.463-0.874-2.093-1.503l-64.722-39.057c-3.136-3.132-3.136-8.211,0-11.339
		L118.031,134.817z"/>
	<g>
		<path d="M28.012,169.682h-2.027v-2.681h8.918c6.71,0,11.134,4.02,11.134,10.978c0,6.984-4.424,11.037-11.134,11.037h-4.896
			c-1.403,0-1.995-0.59-1.995-1.994V169.682z M31.815,186.335h2.871c4.894,0,8.108-2.929,8.108-8.355
			c0-5.398-3.246-8.297-8.108-8.297h-3.555v15.967C31.131,186.086,31.38,186.335,31.815,186.335z"/>
		<path d="M50.312,169.682h-2.029v-2.681h12.942c1.407,0,1.996,0.589,1.996,1.994v2.774h-2.84v-1.404
			c0-0.465-0.247-0.683-0.684-0.683h-6.267v6.893h7.703v2.681h-7.703v6.394c0,0.437,0.249,0.686,0.685,0.686h6.425
			c0.437,0,0.685-0.249,0.685-0.686v-1.405h2.873v2.778c0,1.404-0.598,1.994-1.998,1.994h-9.793c-1.402,0-1.994-0.59-1.994-1.994
			V169.682z"/>
		<path d="M67.711,183.904c0,0,2.248,2.65,5.521,2.65c2.059,0,3.773-1.25,3.773-3.275c0-4.618-10.633-3.896-10.633-10.761
			c0-3.303,2.899-5.894,7.049-5.894c2.337,0,6.27,1.06,6.27,4.055v1.808h-2.875v-1.028c0-1.157-1.65-1.997-3.396-1.997
			c-2.373,0-3.87,1.311-3.87,2.962c0,4.46,10.606,3.462,10.606,10.699c0,3.366-2.62,6.271-6.985,6.271
			c-4.68,0-7.298-3.278-7.298-3.278L67.711,183.904z"/>
		<path d="M82.745,186.335h2.152v-16.653h-2.152v-2.681h7.268v2.681h-2.154v16.653h2.154v2.682h-7.268V186.335z"/>
		<path d="M103.517,166.625c5.268,0,7.857,2.715,7.857,2.715l-1.777,2.274c0,0-2.37-2.12-6.019-2.12
			c-4.397,0-7.923,3.523-7.923,8.423c0,5.112,3.526,8.545,7.986,8.545c3.932,0,6.271-2.745,6.271-2.745v-2.214
			c0-0.438-0.254-0.688-0.687-0.688h-1.34v-2.681h2.897c1.405,0,1.996,0.592,1.996,1.996v8.886h-2.743v-1.37
			c0-0.468,0.029-0.938,0.029-0.938h-0.061c0,0-2.465,2.686-6.862,2.686c-5.867,0-10.729-4.618-10.729-11.478
			C92.412,171.584,97.217,166.625,103.517,166.625z"/>
		<path d="M115.46,186.335h1.341c0.437,0,0.685-0.249,0.685-0.686v-18.648h2.84l9.789,13.939c0.813,1.185,1.844,2.995,1.844,2.995
			h0.063c0,0-0.221-1.746-0.221-2.995v-11.946c0-1.404,0.593-1.994,2.031-1.994h3.117v2.681h-1.34c-0.436,0-0.688,0.218-0.688,0.683
			v18.651h-2.808l-9.822-13.939c-0.811-1.187-1.81-2.993-1.81-2.993h-0.062c0,0,0.186,1.777,0.186,2.993v11.945
			c0,1.404-0.591,1.994-1.995,1.994h-3.148V186.335z"/>
		<path d="M149.359,175.108h-1.963v-1.778h1.963v-0.562c0-5.177,3.65-5.831,5.396-5.831c0.593,0,0.967,0.064,0.967,0.064v1.899
			c0,0-0.282-0.06-0.746-0.06c-1.187,0-3.495,0.437-3.495,3.927v0.562h3.995v1.778h-3.995v13.909h-2.122V175.108z"/>
		<path d="M164.922,172.957c4.587,0,8.298,3.49,8.298,8.139c0,4.74-3.711,8.299-8.267,8.299c-4.583,0-8.294-3.559-8.294-8.299
			C156.659,176.447,160.37,172.957,164.922,172.957z M164.953,187.49c3.339,0,6.082-2.743,6.082-6.395
			c0-3.556-2.743-6.207-6.082-6.207c-3.364,0-6.111,2.651-6.111,6.207C158.842,184.747,161.589,187.49,164.953,187.49z"/>
		<path d="M177.18,175.858c0-0.437-0.252-0.688-0.686-0.688h-1.309v-1.841h2.18c1.312,0,1.903,0.532,1.903,1.778v1.062
			c0,0.655-0.063,1.184-0.063,1.184h0.063c0.748-2.371,2.498-4.179,4.957-4.179c0.436,0,0.844,0.094,0.844,0.094v2.091
			c0,0-0.374-0.062-0.778-0.062c-2.214,0-3.867,1.744-4.554,4.053c-0.312,0.998-0.434,2.058-0.434,3.056v6.61h-2.123V175.858z"/>
		<path d="M206.435,166.625c5.271,0,7.857,2.715,7.857,2.715l-1.776,2.274c0,0-2.371-2.12-6.021-2.12
			c-4.396,0-7.919,3.523-7.919,8.423c0,5.112,3.523,8.545,7.985,8.545c3.926,0,6.267-2.745,6.267-2.745v-2.214
			c0-0.438-0.25-0.688-0.686-0.688h-1.343v-2.681h2.902c1.401,0,1.994,0.592,1.994,1.996v8.886h-2.744v-1.37
			c0-0.468,0.031-0.938,0.031-0.938h-0.064c0,0-2.461,2.686-6.86,2.686c-5.861,0-10.727-4.618-10.727-11.478
			C195.331,171.584,200.132,166.625,206.435,166.625z"/>
		<path d="M220.217,169.682h-2.026v-2.681h9.604c3.871,0,6.583,2.432,6.583,6.454c0,3.681-2.402,5.489-3.96,5.833v0.062
			c0,0,0.559,0.281,0.933,0.998l2.651,5.272c0.312,0.653,0.811,0.715,1.561,0.715h0.408v2.682h-1.532
			c-1.712,0-2.34-0.218-3.056-1.651l-2.994-5.925c-0.56-1.03-0.968-1.187-2.183-1.187h-2.869v8.763h-3.12V169.682z M227.395,177.573
			c2.368,0,3.771-1.529,3.771-3.993s-1.403-3.897-3.711-3.897h-4.118v7.891H227.395z"/>
		<path d="M248.537,166.625c6.364,0,11.321,4.896,11.321,11.227c0,6.488-4.957,11.542-11.321,11.542
			c-6.358,0-11.292-5.055-11.292-11.542C237.245,171.521,242.179,166.625,248.537,166.625z M248.537,186.462
			c4.461,0,8.076-3.744,8.076-8.61c0-4.708-3.615-8.325-8.076-8.325c-4.46,0-8.05,3.618-8.05,8.325
			C240.487,182.718,244.077,186.462,248.537,186.462z"/>
		<path d="M262.667,170.365c-0.159-0.56-0.5-0.683-1.059-0.683h-0.471v-2.681h1.776c1.56,0,2.34,0.311,2.714,1.805l3.399,14.16
			c0.279,1.188,0.439,2.338,0.439,2.338h0.061c0,0,0.187-1.121,0.53-2.338l4.427-15.904h2.808l4.116,15.904
			c0.315,1.217,0.469,2.338,0.469,2.338h0.062c0,0,0.128-1.149,0.405-2.338l3.463-14.16c0.376-1.495,1.125-1.805,2.683-1.805h1.778
			v2.681H289.8c-0.562,0-0.906,0.123-1.06,0.683l-4.839,18.651h-3.614l-3.743-13.909c-0.375-1.435-0.625-3.023-0.625-3.023h-0.062
			c0,0-0.311,1.589-0.717,2.993l-3.992,13.939h-3.647L262.667,170.365z"/>
		<path d="M299.371,169.682h-4.429c-0.435,0-0.687,0.218-0.687,0.683v1.404h-2.775v-2.898c0-1.403,0.469-1.87,1.873-1.87h15.158
			c1.404,0,1.871,0.467,1.871,1.87v2.898h-2.781v-1.404c0-0.465-0.244-0.683-0.681-0.683h-4.43v19.334h-3.12V169.682z"/>
		<path d="M314.062,170.365c0-0.465-0.254-0.683-0.688-0.683h-1.342v-2.681h3.149c1.406,0,1.998,0.589,1.998,1.994v7.703h11.196
			v-7.703c0-1.404,0.594-1.994,1.995-1.994h3.151v2.681h-1.341c-0.438,0-0.687,0.218-0.687,0.683v18.651h-3.119v-9.667h-11.196
			v9.667h-3.118V170.365z"/>
	</g>
</g>
</svg>
