<?xml version="1.0" encoding="utf-8"?>
<!-- Generator: Adobe Illustrator 15.0.0, SVG Export Plug-In . SVG Version: 6.00 Build 0)  -->
<!DOCTYPE svg PUBLIC "-//W3C//DTD SVG 1.1//EN" "http://www.w3.org/Graphics/SVG/1.1/DTD/svg11.dtd">
<svg version="1.1" id="Layer_1" xmlns="http://www.w3.org/2000/svg" xmlns:xlink="http://www.w3.org/1999/xlink" x="0px" y="0px"
	 width="360px" height="360px" viewBox="0 0 360 360" enable-background="new 0 0 360 360" xml:space="preserve">
<radialGradient id="SVGID_1_" cx="174.7925" cy="272.5596" r="104.6516" gradientUnits="userSpaceOnUse">
	<stop  offset="0" style="stop-color:#939598"/>
	<stop  offset="0.5706" style="stop-color:#D1D3D4"/>
	<stop  offset="0.7219" style="stop-color:#D3D5D6"/>
	<stop  offset="0.8243" style="stop-color:#DBDCDD"/>
	<stop  offset="0.9122" style="stop-color:#E8E8E9"/>
	<stop  offset="0.9915" style="stop-color:#FBFBFB"/>
	<stop  offset="1" style="stop-color:#FFFFFF"/>
</radialGradient>
<polygon fill="url(#SVGID_1_)" points="204.024,268.385 249.495,259.171 222.239,277.217 273.354,280.283 226.917,288.639 
	267.449,303.009 216.572,299.022 233.651,320.133 194.488,305.071 182.693,326.223 167.679,304.865 130.753,319.34 144.652,298.47 
	94.322,301.674 132.724,287.915 84.966,278.83 135.677,276.551 105.656,258.062 152.576,267.989 149.823,245.966 178.054,264.943 
	203.443,246.378 "/>
<path d="M71.639,116.969l-0.127-0.068l-28.056-15.03l28.183-13.054l0.112,0.051l28.07,13.002L71.639,116.969L71.639,116.969z
	 M44.653,101.906l26.986,14.456l26.985-14.456l-26.985-12.5L44.653,101.906L44.653,101.906z"/>
<polygon points="71.512,116.9 43.929,102.124 44.181,101.653 71.765,116.429 71.512,116.9 "/>
<polygon points="71.512,116.9 43.929,102.124 44.181,101.653 71.765,116.429 71.512,116.9 "/>
<g>
	<polygon fill="#545456" points="44.055,131.146 71.639,145.923 71.639,116.665 44.055,101.888 	"/>
	<path d="M71.906,146.369l-28.119-15.062v-29.864l28.119,15.062V146.369L71.906,146.369z M44.322,130.986l27.049,14.49v-28.65
		l-27.049-14.491V130.986L44.322,130.986z"/>
</g>
<g>
	<polygon fill="#D5D7D8" points="99.213,131.146 71.628,145.923 71.628,116.665 99.213,101.888 	"/>
	<path d="M71.361,146.369v-29.864l0.141-0.076l27.978-14.987v29.864l-0.141,0.075L71.361,146.369L71.361,146.369z M71.896,116.825
		v28.65l27.049-14.49v-28.651L71.896,116.825L71.896,116.825z"/>
</g>
<g>
	<line fill="#545456" x1="71.639" y1="148.311" x2="44.055" y2="133.533"/>
	<polygon points="71.512,148.546 43.929,133.77 44.181,133.298 71.765,148.075 71.512,148.546 	"/>
</g>
<g>
	<line fill="#545456" x1="71.639" y1="148.311" x2="44.055" y2="133.533"/>
	<polygon points="71.512,148.546 43.929,133.77 44.181,133.298 71.765,148.075 71.512,148.546 	"/>
</g>
<g>
	<polygon fill="#545456" points="44.055,162.791 71.639,177.568 71.639,148.311 44.055,133.533 	"/>
	<path d="M71.906,178.014l-28.119-15.062v-29.865l28.119,15.062V178.014L71.906,178.014z M44.322,162.631l27.049,14.49V148.47
		l-27.049-14.49V162.631L44.322,162.631z"/>
</g>
<g>
	<polygon fill="#D5D7D8" points="99.213,162.791 71.628,177.568 71.628,148.311 99.213,133.533 	"/>
	<path d="M71.361,178.014v-29.865l0.141-0.075l27.978-14.988v29.865l-0.141,0.075L71.361,178.014L71.361,178.014z M71.896,148.47
		v28.651l27.049-14.49V133.98L71.896,148.47L71.896,148.47z"/>
</g>
<g>
	<line fill="#545456" x1="71.639" y1="179.956" x2="44.055" y2="165.18"/>
	<polygon points="71.512,180.191 43.929,165.415 44.181,164.944 71.765,179.721 71.512,180.191 	"/>
</g>
<g>
	<line fill="#545456" x1="71.639" y1="179.956" x2="44.055" y2="165.18"/>
	<polygon points="71.512,180.191 43.929,165.415 44.181,164.944 71.765,179.721 71.512,180.191 	"/>
</g>
<g>
	<polygon fill="#545456" points="44.055,194.438 71.639,209.214 71.639,179.956 44.055,165.18 	"/>
	<path d="M71.906,209.659l-28.119-15.062v-29.865l28.119,15.062V209.659L71.906,209.659z M44.322,194.277l27.049,14.489v-28.65
		l-27.049-14.491V194.277L44.322,194.277z"/>
</g>
<g>
	<polygon fill="#D5D7D8" points="99.213,194.438 71.628,209.214 71.628,179.956 99.213,165.18 	"/>
	<path d="M71.361,209.659v-29.864l0.141-0.075l27.978-14.988v29.865l-0.141,0.075L71.361,209.659L71.361,209.659z M71.896,180.116
		v28.65l27.049-14.489v-28.652L71.896,180.116L71.896,180.116z"/>
</g>
<g>
	<line fill="#545456" x1="71.639" y1="211.602" x2="44.055" y2="196.826"/>
	<polygon fill="#6D6E71" points="71.512,211.837 43.929,197.062 44.181,196.59 71.765,211.366 71.512,211.837 	"/>
</g>
<g>
	<line fill="#545456" x1="71.639" y1="211.602" x2="44.055" y2="196.826"/>
	<polygon fill="#6D6E71" points="71.512,211.837 43.929,197.062 44.181,196.59 71.765,211.366 71.512,211.837 	"/>
</g>
<g>
	<polygon fill="#545456" points="44.055,226.082 71.639,240.858 71.639,211.602 44.055,196.826 	"/>
	<path d="M71.906,241.306l-28.119-15.062v-29.864l28.119,15.062V241.306L71.906,241.306z M44.322,225.922l27.049,14.49v-28.649
		l-27.049-14.491V225.922L44.322,225.922z"/>
</g>
<g>
	<polygon fill="#D5D7D8" points="99.213,226.082 71.628,240.858 71.628,211.602 99.213,196.826 	"/>
	<path d="M71.361,241.306V211.44l0.141-0.074l27.978-14.987v29.864l-0.141,0.075L71.361,241.306L71.361,241.306z M71.896,211.763
		v28.649l27.049-14.49v-28.65L71.896,211.763L71.896,211.763z"/>
</g>
<path d="M283.904,116.969l-0.126-0.068l-28.056-15.03l28.182-13.054l0.113,0.051l28.07,13.002L283.904,116.969L283.904,116.969z
	 M256.92,101.906l26.984,14.456l26.986-14.456l-26.986-12.5L256.92,101.906L256.92,101.906z"/>
<polygon points="283.778,116.9 256.194,102.124 256.447,101.653 284.031,116.429 283.778,116.9 "/>
<polygon points="283.778,116.9 256.194,102.124 256.447,101.653 284.031,116.429 283.778,116.9 "/>
<g>
	<polygon fill="#545456" points="256.321,131.146 283.904,145.923 283.904,116.665 256.321,101.888 	"/>
	<path d="M284.171,146.369l-28.117-15.062v-29.864l28.117,15.062V146.369L284.171,146.369z M256.589,130.986l27.049,14.49v-28.65
		l-27.049-14.491V130.986L256.589,130.986z"/>
</g>
<g>
	<polygon fill="#D5D7D8" points="311.478,131.146 283.895,145.923 283.895,116.665 311.478,101.888 	"/>
	<path d="M283.627,146.369v-29.864l0.141-0.076l27.979-14.987v29.864l-0.141,0.075L283.627,146.369L283.627,146.369z
		 M284.162,116.825v28.65l27.049-14.49v-28.651L284.162,116.825L284.162,116.825z"/>
</g>
<g>
	<line fill="#545456" x1="283.904" y1="148.311" x2="256.321" y2="133.533"/>
	<polygon points="283.778,148.546 256.194,133.77 256.447,133.298 284.031,148.075 283.778,148.546 	"/>
</g>
<g>
	<line fill="#545456" x1="283.904" y1="148.311" x2="256.321" y2="133.533"/>
	<polygon points="283.778,148.546 256.194,133.77 256.447,133.298 284.031,148.075 283.778,148.546 	"/>
</g>
<g>
	<polygon fill="#545456" points="256.321,162.791 283.904,177.568 283.904,148.311 256.321,133.533 	"/>
	<path d="M284.171,178.014l-28.117-15.062v-29.865l28.117,15.062V178.014L284.171,178.014z M256.589,162.631l27.049,14.49V148.47
		l-27.049-14.49V162.631L256.589,162.631z"/>
</g>
<g>
	<polygon fill="#D5D7D8" points="311.478,162.791 283.895,177.568 283.895,148.311 311.478,133.533 	"/>
	<path d="M283.627,178.014v-29.865l0.141-0.075l27.979-14.988v29.865l-0.141,0.075L283.627,178.014L283.627,178.014z
		 M284.162,148.47v28.651l27.049-14.49V133.98L284.162,148.47L284.162,148.47z"/>
</g>
<g>
	<line fill="#545456" x1="283.904" y1="179.956" x2="256.321" y2="165.18"/>
	<polygon points="283.778,180.191 256.194,165.415 256.447,164.944 284.031,179.721 283.778,180.191 	"/>
</g>
<g>
	<line fill="#545456" x1="283.904" y1="179.956" x2="256.321" y2="165.18"/>
	<polygon points="283.778,180.191 256.194,165.415 256.447,164.944 284.031,179.721 283.778,180.191 	"/>
</g>
<g>
	<polygon fill="#545456" points="256.321,194.438 283.904,209.214 283.904,179.956 256.321,165.18 	"/>
	<path d="M284.171,209.659l-28.117-15.062v-29.865l28.117,15.062V209.659L284.171,209.659z M256.589,194.277l27.049,14.489v-28.65
		l-27.049-14.491V194.277L256.589,194.277z"/>
</g>
<g>
	<polygon fill="#D5D7D8" points="311.478,194.438 283.895,209.214 283.895,179.956 311.478,165.18 	"/>
	<path d="M283.627,209.659v-29.864l0.141-0.075l27.979-14.988v29.865l-0.141,0.075L283.627,209.659L283.627,209.659z
		 M284.162,180.116v28.65l27.049-14.489v-28.652L284.162,180.116L284.162,180.116z"/>
</g>
<g>
	<line fill="#545456" x1="283.904" y1="211.602" x2="256.321" y2="196.826"/>
	<polygon points="283.778,211.837 256.194,197.062 256.447,196.59 284.031,211.366 283.778,211.837 	"/>
</g>
<g>
	<line fill="#545456" x1="283.904" y1="211.602" x2="256.321" y2="196.826"/>
	<polygon points="283.778,211.837 256.194,197.062 256.447,196.59 284.031,211.366 283.778,211.837 	"/>
</g>
<g>
	<polygon fill="#545456" points="256.321,226.082 283.904,240.858 283.904,211.602 256.321,196.826 	"/>
	<path d="M284.171,241.306l-28.117-15.062v-29.864l28.117,15.062V241.306L284.171,241.306z M256.589,225.922l27.049,14.49v-28.649
		l-27.049-14.491V225.922L256.589,225.922z"/>
</g>
<g>
	<polygon fill="#D5D7D8" points="311.478,226.082 283.895,240.858 283.895,211.602 311.478,196.826 	"/>
	<path d="M283.627,241.306V211.44l0.141-0.074l27.979-14.987v29.864l-0.141,0.075L283.627,241.306L283.627,241.306z
		 M284.162,211.763v28.649l27.049-14.49v-28.65L284.162,211.763L284.162,211.763z"/>
</g>
<path d="M176.967,61.361l-0.126-0.068l-28.056-15.028l28.183-13.055l0.112,0.051l28.071,13.004L176.967,61.361L176.967,61.361z
	 M149.982,46.298l26.985,14.456l26.985-14.456l-26.985-12.501L149.982,46.298L149.982,46.298z"/>
<polygon points="176.841,61.292 149.257,46.517 149.51,46.045 177.094,60.822 176.841,61.292 "/>
<polygon points="176.841,61.292 149.257,46.517 149.51,46.045 177.094,60.822 176.841,61.292 "/>
<g>
	<polygon fill="#545456" points="149.383,75.539 176.967,90.315 176.967,61.058 149.383,46.281 	"/>
	<path d="M177.234,90.761l-28.119-15.062V45.834l28.119,15.062V90.761L177.234,90.761z M149.651,75.378L176.7,89.868v-28.65
		l-27.049-14.491V75.378L149.651,75.378z"/>
</g>
<g>
	<polygon fill="#D5D7D8" points="204.541,75.539 176.957,90.315 176.957,61.058 204.541,46.281 	"/>
	<path d="M176.689,90.761V60.897l0.142-0.075l27.977-14.987v29.864l-0.142,0.075L176.689,90.761L176.689,90.761z M177.224,61.218
		v28.65l27.049-14.489V46.727L177.224,61.218L177.224,61.218z"/>
</g>
<g>
	<line fill="#545456" x1="176.967" y1="92.703" x2="149.383" y2="77.926"/>
	<polygon points="176.841,92.938 149.257,78.162 149.51,77.691 177.094,92.467 176.841,92.938 	"/>
</g>
<g>
	<line fill="#545456" x1="176.967" y1="92.703" x2="149.383" y2="77.926"/>
	<polygon points="176.841,92.938 149.257,78.162 149.51,77.691 177.094,92.467 176.841,92.938 	"/>
</g>
<g>
	<polygon fill="#545456" points="149.383,107.183 176.967,121.96 176.967,92.703 149.383,77.926 	"/>
	<path d="M177.234,122.407l-28.119-15.063V77.479l28.119,15.063V122.407L177.234,122.407z M149.651,107.023l27.049,14.49v-28.65
		l-27.049-14.49V107.023L149.651,107.023z"/>
</g>
<g>
	<polygon fill="#D5D7D8" points="204.541,107.183 176.957,121.96 176.957,92.703 204.541,77.926 	"/>
	<path d="M176.689,122.407V92.542l0.142-0.075l27.977-14.988v29.865l-0.142,0.076L176.689,122.407L176.689,122.407z M177.224,92.863
		v28.65l27.049-14.49v-28.65L177.224,92.863L177.224,92.863z"/>
</g>
<g>
	<line fill="#545456" x1="176.967" y1="124.348" x2="149.383" y2="109.572"/>
	<polygon points="176.841,124.583 149.257,109.808 149.51,109.336 177.094,124.113 176.841,124.583 	"/>
</g>
<g>
	<line fill="#545456" x1="176.967" y1="124.348" x2="149.383" y2="109.572"/>
	<polygon points="176.841,124.583 149.257,109.808 149.51,109.336 177.094,124.113 176.841,124.583 	"/>
</g>
<g>
	<polygon fill="#545456" points="149.383,138.829 176.967,153.605 176.967,124.348 149.383,109.572 	"/>
	<path d="M177.234,154.051l-28.119-15.062v-29.864l28.119,15.062V154.051L177.234,154.051z M149.651,138.669l27.049,14.49v-28.651
		l-27.049-14.489V138.669L149.651,138.669z"/>
</g>
<g>
	<polygon fill="#D5D7D8" points="204.541,138.829 176.957,153.605 176.957,124.348 204.541,109.572 	"/>
	<path d="M176.689,154.051v-29.863l0.142-0.075l27.977-14.987v29.864l-0.142,0.076L176.689,154.051L176.689,154.051z
		 M177.224,124.508v28.651l27.049-14.49v-28.65L177.224,124.508L177.224,124.508z"/>
</g>
<g>
	<line fill="#545456" x1="176.967" y1="155.994" x2="149.383" y2="141.218"/>
	<polygon fill="#6D6E71" points="176.841,156.23 149.257,141.454 149.51,140.982 177.094,155.758 176.841,156.23 	"/>
</g>
<g>
	<line fill="#545456" x1="176.967" y1="155.994" x2="149.383" y2="141.218"/>
	<polygon fill="#6D6E71" points="176.841,156.23 149.257,141.454 149.51,140.982 177.094,155.758 176.841,156.23 	"/>
</g>
<g>
	<polygon fill="#545456" points="149.383,170.475 176.967,185.251 176.967,155.994 149.383,141.218 	"/>
	<path d="M177.234,185.697l-28.119-15.062v-29.863l28.119,15.062V185.697L177.234,185.697z M149.651,170.314l27.049,14.49v-28.65
		l-27.049-14.491V170.314L149.651,170.314z"/>
</g>
<g>
	<polygon fill="#D5D7D8" points="204.541,170.475 176.957,185.251 176.957,155.994 204.541,141.218 	"/>
	<path d="M176.689,185.697v-29.863l0.142-0.076l27.977-14.987v29.863l-0.142,0.075L176.689,185.697L176.689,185.697z
		 M177.224,156.154v28.65l27.049-14.49v-28.651L177.224,156.154L177.224,156.154z"/>
</g>
<path d="M176.967,236.987l-0.126-0.068l-28.056-15.028l28.183-13.056l0.112,0.052l28.071,13.004L176.967,236.987L176.967,236.987z
	 M149.982,221.926l26.985,14.454l26.985-14.454l-26.985-12.501L149.982,221.926L149.982,221.926z"/>
<polygon points="176.841,236.919 149.257,222.143 149.51,221.674 177.094,236.448 176.841,236.919 "/>
<polygon points="176.841,236.919 149.257,222.143 149.51,221.674 177.094,236.448 176.841,236.919 "/>
<g>
	<polygon fill="#545456" points="149.383,251.166 176.967,265.942 176.967,236.685 149.383,221.908 	"/>
	<path d="M177.234,266.389l-28.119-15.062v-29.864l28.119,15.062V266.389L177.234,266.389z M149.651,251.005l27.049,14.49v-28.65
		l-27.049-14.49V251.005L149.651,251.005z"/>
</g>
<g>
	<polygon fill="#D5D7D8" points="204.541,251.166 176.957,265.942 176.957,236.685 204.541,221.908 	"/>
	<path d="M176.689,266.389v-29.864l0.142-0.076l27.977-14.985v29.864l-0.142,0.073L176.689,266.389L176.689,266.389z
		 M177.224,236.845v28.65l27.049-14.49v-28.65L177.224,236.845L177.224,236.845z"/>
</g>
<g>
	<line fill="#6D6E71" x1="176.967" y1="268.331" x2="149.383" y2="253.554"/>
	<polygon points="176.841,268.565 149.257,253.789 149.51,253.318 177.094,268.095 176.841,268.565 	"/>
</g>
<g>
	<line fill="#6D6E71" x1="176.967" y1="268.331" x2="149.383" y2="253.554"/>
	<polygon points="176.841,268.565 149.257,253.789 149.51,253.318 177.094,268.095 176.841,268.565 	"/>
</g>
<g>
	<polygon fill="#545456" points="149.383,282.812 176.967,297.587 176.967,268.331 149.383,253.554 	"/>
	<path d="M177.234,298.034l-28.119-15.063v-29.864l28.119,15.062V298.034L177.234,298.034z M149.651,282.649l27.049,14.491v-28.65
		l-27.049-14.491V282.649L149.651,282.649z"/>
</g>
<g>
	<polygon fill="#D5D7D8" points="204.541,282.812 176.957,297.587 176.957,268.331 204.541,253.554 	"/>
	<path d="M176.689,298.034v-29.865l0.142-0.074l27.977-14.988v29.864l-0.142,0.075L176.689,298.034L176.689,298.034z
		 M177.224,268.49v28.65l27.049-14.491v-28.65L177.224,268.49L177.224,268.49z"/>
</g>
<g>
	<path d="M200.027,254.466c0,0,1.15-0.744,1.527-0.938c0,0,0.482-0.201,0.714-0.419c0,0,0.253-0.378,0.331-0.512
		c0,0,0.066-0.255,0.026-0.52c0,0-0.391-0.591-0.367-1.146c0,0-0.419-0.09-0.474-0.729c0,0-0.13-0.685,0.1-0.901
		c0,0-0.805-2.717,2.211-3.37c0,0,2.538-0.184,2.604,2.633c0,0,0.024,0.909-0.038,1.217c0,0,0.097,0.296-0.095,0.759
		c0,0-0.165,0.782-0.445,0.646c0,0-0.288,0.597-0.263,0.88c0,0,0.833,0.768,1.364,0.9c0,0,3.279,0.752,3.431,1.258
		c0,0,0.613,1.733,0.761,5.097c0,0,0.071,3.315,0.1,4.241c0,0,0.119,1.598-0.004,2.037c0,0-0.134,0.101-0.101,0.687
		c0,0,0.132,1.329,0.037,1.678c0,0,1.163,2.506,1.267,2.873c0,0,0.186,0.288,0.026,0.517c0,0-0.854,0.663-1.439,0.498
		c0,0-0.533-0.383-0.539-0.041c0,0,0.136,0.542,0.212,0.802c0,0,0.432,1.07,0.51,4.244c0,0,0.32,3.508-0.21,3.982
		c0,0-1.349,1.134-1.791,1.816c0,0-1.42,2.159-1.695,2.485c0,0,0.166,0.896,0.112,1.313c0,0-0.069,0.219,0.195,0.393
		c0,0,0.706,0.314,0.915,0.673c0,0,0.369,1.164,0.294,1.546c0,0-0.179,0.193-0.1,0.507c0,0,0.161,0.184,0.166,0.664
		c0,0-0.134,1.567-0.115,1.781c0,0-0.039,0.163-0.181,0.176c0,0,0.867,2.604,0.846,3.178c0,0,0.008,2.356-2.794,0.938
		c0,0-0.778-0.54-0.491-1.548c0,0,0.139-1.709,0.257-1.986c0,0-0.953-1.329-1.019-1.662c0,0-0.087-0.386-0.233-0.643
		c0,0-0.553-0.595-0.399-1.108c0,0,0.755-0.779-0.134-1.131l-0.373-0.182c0,0-1.202,0.765-1.669,0.947c0,0-0.113-0.079-0.251,0.2
		c0,0-0.425,0.662-0.641,0.86c0,0-0.496,0.864-0.404,1.303c0,0,0.281,1.189,0.553,1.648c0,0,0.622,1.625-0.165,1.817
		c0,0-0.608,0.178-1.271-0.657c0,0-1.461-1.839-1.346-2.759c0,0-0.172-0.968-0.606-1.646l-0.523,0.134c0,0-1.277-2.175-0.765-2.862
		c0,0,0.626-0.393,0.896-0.382c0,0,0.335-0.046,0.635-0.304c0,0,1.448-1.215,1.938-1.348c0,0,1.659-0.429,1.983-0.812
		c0,0,0.67-0.72,0.472-1.382c0,0-0.333-1.363-0.123-1.632c0,0,0.264-0.237-0.171-0.717c0,0-1.238-1.305-1.142-2.261
		c0,0,0.376-0.818-0.284-2.457c0,0-1.208-3.45-1.197-4.363c0,0-0.42-0.517-1.291-1.282c0,0-1.371-1.81-1.374-2.274
		c0,0,0.09-1.026-0.148-1.934c0,0-0.508-1.938-0.438-2.588c0,0,0.503-3.473,0.581-4.032c0,0,0.456-3.81,0.948-4.119
		C198.927,255.149,199.604,254.733,200.027,254.466z"/>
	<path d="M208.653,297.031c-0.46,0-1.017-0.162-1.649-0.483c-0.355-0.243-0.896-0.917-0.626-1.86
		c0.021-0.313,0.113-1.397,0.221-1.861c-0.289-0.409-0.925-1.333-0.989-1.662c-0.02-0.085-0.093-0.355-0.189-0.537
		c-0.127-0.143-0.614-0.746-0.438-1.34l0.019-0.062l0.046-0.049c0.087-0.09,0.254-0.327,0.22-0.482
		c-0.021-0.101-0.152-0.173-0.258-0.215l-0.259-0.125c-0.327,0.205-1.19,0.735-1.588,0.892l-0.091,0.036
		c-0.005,0.009-0.011,0.021-0.018,0.034c-0.058,0.092-0.429,0.667-0.667,0.905c-0.182,0.328-0.402,0.858-0.356,1.084
		c0.074,0.313,0.315,1.219,0.521,1.567c0.066,0.162,0.463,1.24,0.15,1.836c-0.102,0.194-0.269,0.325-0.481,0.378
		c-0.032,0.009-0.767,0.23-1.545-0.752c-0.154-0.193-1.488-1.902-1.406-2.913c-0.032-0.157-0.176-0.814-0.465-1.348l-0.523,0.135
		l-0.103-0.174c-0.229-0.389-1.338-2.369-0.749-3.158l0.071-0.067c0.158-0.098,0.697-0.421,1.025-0.423
		c0.007-0.002,0.255-0.051,0.473-0.238c0.253-0.213,1.523-1.261,2.043-1.402c0.762-0.197,1.684-0.531,1.85-0.729
		c0.166-0.178,0.545-0.711,0.419-1.131c-0.17-0.693-0.316-1.567-0.078-1.873c0.032-0.043,0.037-0.16-0.156-0.373
		c-0.132-0.14-1.315-1.421-1.21-2.466l0.022-0.085c0.002-0.004,0.311-0.759-0.288-2.248c-0.125-0.356-1.154-3.316-1.215-4.36
		c-0.141-0.16-0.539-0.6-1.202-1.182l-0.037-0.041c-0.428-0.564-1.425-1.934-1.429-2.434c0.002-0.035,0.084-1.018-0.14-1.867
		c-0.054-0.203-0.519-2.007-0.446-2.684c0.002-0.012,0.504-3.481,0.582-4.042c0.177-1.464,0.549-3.98,1.07-4.309
		c0.004-0.002,0.68-0.416,1.101-0.684c0.047-0.03,1.164-0.751,1.549-0.948c0.135-0.059,0.464-0.212,0.632-0.357
		c0.053-0.08,0.207-0.312,0.283-0.436c0.013-0.06,0.033-0.19,0.021-0.329c-0.093-0.153-0.335-0.595-0.373-1.065
		c-0.184-0.113-0.431-0.358-0.477-0.877c-0.029-0.144-0.105-0.655,0.078-0.98c-0.077-0.351-0.218-1.324,0.302-2.199
		c0.41-0.693,1.131-1.156,2.141-1.376c0.037-0.006,0.077-0.008,0.149-0.008c0.453,0,2.714,0.139,2.777,2.895
		c0.002,0.092,0.021,0.854-0.033,1.219c0.027,0.139,0.054,0.45-0.119,0.866c-0.049,0.255-0.197,0.727-0.52,0.814
		c-0.075,0.179-0.141,0.371-0.161,0.496c0.271,0.238,0.818,0.672,1.153,0.756c1.561,0.357,3.461,0.899,3.622,1.44
		c0.022,0.059,0.625,1.796,0.772,5.16c0,0.007,0.073,3.321,0.1,4.246c0.012,0.157,0.119,1.647-0.014,2.117l-0.059,0.113
		c-0.016,0.044-0.05,0.18-0.032,0.487c0.021,0.201,0.114,1.203,0.05,1.656c0.214,0.462,1.089,2.361,1.233,2.798
		c0.099,0.175,0.191,0.503,0,0.779l-0.057,0.059c-0.075,0.059-0.766,0.581-1.401,0.581c-0.097,0-0.189-0.012-0.272-0.036
		l-0.084-0.04c-0.016-0.011-0.033-0.023-0.05-0.032c0.042,0.166,0.097,0.37,0.135,0.5c0.009,0.021,0.442,1.128,0.52,4.311
		c0.078,0.838,0.287,3.667-0.299,4.19c-0.019,0.017-1.328,1.123-1.744,1.762c-0.054,0.084-1.237,1.88-1.636,2.411
		c0.045,0.273,0.141,0.913,0.094,1.276c-0.009,0.054,0.011,0.093,0.077,0.137c0.042,0.014,0.754,0.339,0.998,0.759l0.025,0.056
		c0.065,0.205,0.385,1.25,0.301,1.677l-0.015,0.076l-0.052,0.056c-0.002,0.005-0.063,0.084-0.044,0.218
		c0.068,0.112,0.176,0.352,0.182,0.77c-0.065,0.783-0.125,1.638-0.116,1.759l0.004,0.044l-0.01,0.042
		c-0.019,0.08-0.06,0.162-0.122,0.229c0.214,0.655,0.813,2.544,0.794,3.073c0,0.021-0.003,0.761-0.485,1.247
		C209.433,296.896,209.081,297.031,208.653,297.031L208.653,297.031z M205.483,289.489c-0.044,0.295,0.24,0.682,0.351,0.801
		l0.036,0.048c0.165,0.287,0.258,0.699,0.264,0.716c0.036,0.182,0.533,0.952,0.975,1.565l0.087,0.123l-0.059,0.139
		c-0.063,0.15-0.172,1.104-0.237,1.902c-0.24,0.866,0.371,1.303,0.378,1.306c0.925,0.465,1.662,0.545,2.045,0.162
		c0.323-0.323,0.33-0.872,0.33-0.879c0.015-0.393-0.503-2.104-0.832-3.094l-0.106-0.321l0.272-0.023
		c0.005-0.391,0.097-1.481,0.117-1.718c-0.007-0.332-0.105-0.474-0.107-0.475l-0.051-0.102c-0.081-0.32,0.025-0.558,0.103-0.676
		c0.008-0.238-0.133-0.846-0.284-1.332c-0.135-0.2-0.545-0.436-0.778-0.54c-0.383-0.245-0.391-0.564-0.341-0.72
		c0.028-0.258-0.077-0.942-0.122-1.183l-0.023-0.122l0.082-0.097c0.218-0.26,1.285-1.865,1.679-2.462
		c0.456-0.705,1.784-1.825,1.84-1.873c0.228-0.203,0.285-1.926,0.116-3.756c-0.075-3.077-0.487-4.156-0.491-4.167
		c-0.086-0.288-0.224-0.838-0.224-0.838l-0.009-0.034l0.001-0.036c0.004-0.236,0.165-0.403,0.392-0.403
		c0.194,0,0.416,0.131,0.524,0.203c0.34,0.062,0.902-0.269,1.123-0.429c0.021-0.077-0.044-0.191-0.045-0.191l-0.032-0.075
		c-0.071-0.253-0.787-1.832-1.251-2.833l-0.041-0.089l0.024-0.094c0.058-0.207,0.009-1.048-0.044-1.579
		c-0.027-0.458,0.037-0.701,0.119-0.831c0.066-0.339,0.026-1.328-0.017-1.899c-0.027-0.938-0.1-4.257-0.1-4.257
		c-0.143-3.269-0.739-4.996-0.745-5.013c-0.169-0.241-1.814-0.758-3.24-1.085c-0.584-0.146-1.394-0.882-1.484-0.966l-0.076-0.07
		l-0.008-0.102c-0.031-0.341,0.234-0.909,0.288-1.021l0.116-0.24l0.159,0.077c0.052-0.089,0.116-0.265,0.148-0.421
		c0.16-0.4,0.103-0.616,0.101-0.625l-0.018-0.062l0.012-0.069c0.041-0.203,0.041-0.817,0.032-1.157
		c-0.051-2.204-1.729-2.376-2.243-2.376l-0.074,0.002c-0.818,0.18-1.421,0.559-1.754,1.117c-0.515,0.865-0.222,1.9-0.218,1.912
		l0.045,0.156l-0.12,0.113c-0.06,0.062-0.07,0.389-0.02,0.657c0.039,0.438,0.25,0.511,0.274,0.518l0.202,0.058l0.001,0.213
		c-0.019,0.461,0.32,0.983,0.324,0.988l0.041,0.108c0.047,0.31-0.024,0.596-0.033,0.627l-0.027,0.068
		c-0.08,0.136-0.34,0.524-0.34,0.524l-0.04,0.047c-0.259,0.24-0.738,0.447-0.792,0.469c-0.342,0.177-1.474,0.907-1.486,0.915
		c-0.427,0.271-1.107,0.687-1.107,0.687c-0.239,0.225-0.617,2.214-0.821,3.924c-0.078,0.564-0.582,4.04-0.582,4.04
		c-0.051,0.481,0.294,1.955,0.433,2.48c0.247,0.942,0.16,1.982,0.156,2.026c0.012,0.207,0.682,1.239,1.306,2.068
		c0.864,0.76,1.283,1.273,1.301,1.297l0.061,0.074v0.097c-0.009,0.71,0.851,3.323,1.183,4.271c0.606,1.508,0.371,2.39,0.294,2.607
		c-0.039,0.681,0.758,1.682,1.073,2.015c0.228,0.25,0.334,0.491,0.321,0.719c-0.008,0.171-0.082,0.284-0.131,0.343
		c-0.056,0.152,0.021,0.802,0.167,1.408c0.239,0.787-0.502,1.592-0.533,1.627c-0.353,0.418-1.822,0.815-2.112,0.891
		c-0.312,0.084-1.291,0.839-1.834,1.293c-0.346,0.299-0.726,0.358-0.768,0.364c-0.157,0.003-0.49,0.16-0.743,0.312
		c-0.203,0.389,0.267,1.56,0.706,2.357l0.514-0.132l0.104,0.163c0.457,0.714,0.638,1.7,0.645,1.741l0.008,0.04l-0.005,0.041
		c-0.076,0.589,0.751,1.882,1.289,2.561c0.395,0.498,0.741,0.57,0.914,0.57c0.05,0,0.079-0.006,0.081-0.006
		c0.067-0.017,0.108-0.048,0.139-0.107c0.151-0.289-0.015-0.984-0.156-1.356c-0.27-0.447-0.553-1.632-0.564-1.683
		c-0.107-0.519,0.343-1.34,0.435-1.499l0.05-0.062c0.14-0.129,0.439-0.563,0.597-0.808c0.131-0.271,0.312-0.334,0.436-0.334h0.01
		c0.401-0.179,1.246-0.699,1.556-0.896l0.126-0.081l0.509,0.248c0.393,0.155,0.525,0.408,0.565,0.592
		C205.873,288.974,205.605,289.345,205.483,289.489L205.483,289.489z"/>
</g>
<g>
	<g>
		<path d="M311.882,196.137c0,0,0.613,0,0.801,0.21c0.007,0.01,0.016,0.021,0.022,0.029c0.154,0.241,0.463,0.532,0.636,0.549
			c0,0,0.771,0.173,0.789,0.396c0,0,0.274,0.378,0.516,0.395c0,0,0.532,0.087,0.806-0.017c0,0,0.602-0.171,0.858-0.087
			c0,0,0.808,0.345,1.048,0.121c0,0,0.722-0.445,1.047-0.445c0,0,0.773-0.207,1.168-0.293c0,0,0.79-0.223,1.082-0.188
			c0,0,0.36,0.085,0.635,0.016c0,0,0.36-0.016,0.636,0.018c0,0,1.253-0.018,1.441-0.103c0,0,0.309,0.017,0.413,0.017
			c0,0,0.136-0.171-0.035-0.224c0,0-0.857-0.017-0.943-0.497c0,0-0.138-0.516-0.241-0.635c-0.103-0.12,0-0.035,0-0.035
			s-0.138-0.188,0-0.274c0,0-0.206-0.224-0.051-0.31c0,0,0.103-0.325,0.033-0.445c0,0-0.394-0.138-0.291-0.431
			c0,0,0.377-0.445,0.498-0.652c0,0-0.172-0.514-0.035-0.789c0,0,0.652-2.988,2.902-2.078c0,0,3.621,0.808,1.512,4.378
			c0,0-0.483,0.807-0.843,0.67c0,0-0.12,0.875,0.311,1.117c0,0,0.839,0.789,1.459,0.944c0,0,0.737,0.257,1.012,0.429
			c0,0,0.703,0.344,0.909,0.944c0,0,0.36,1.029,0.447,1.922c0,0,0.446,2.542,0.446,3.349c0,0,0.273,3.262,0.223,3.726
			c0,0,0.017,1.201-0.119,1.527c0,0-0.154,0.412-0.172,0.806c0,0-0.138,2.183-0.361,2.61c0,0-0.48,1.202-0.687,1.374
			c0,0-0.204,0.086-0.239,0.36c0,0,0.084,0.636-0.172,0.91c0,0-0.79,0.927-0.996,0.927c0,0-0.138,0.052-0.189-0.052
			c0,0-0.325,1.924-0.412,2.37c0,0-0.137,1.166-0.12,1.459c0,0-0.103,1.718-0.172,2.215c0,0-0.258,1.305-0.239,1.648
			c0,0,0.034,1.511,0,2.077c0,0-0.052,2.128-0.172,2.662c0,0-0.207,1.321-0.241,1.732c0,0-0.155,1.613-0.325,1.976
			c0,0-0.018,0.411-0.189,0.635c0,0,0.034,1.597-0.396,1.905c0,0-2.54,0.789-2.454-0.138c0,0,0.155-1.733,0.068-1.974
			c0,0-0.119-0.928-0.224-1.133c0,0-0.172-0.43-0.051-0.963c0,0,0.189-1.201,0.292-1.424c0,0,0.104-0.617,0.119-1.099
			c0,0,0.068-1.271,0.189-1.598c0,0,0.172-0.635,0.172-1.064c0,0-0.017-1.39,0.068-1.751c0,0,0.154-0.583,0.104-0.979
			c0,0-0.24-1.167-0.24-1.717c0,0,0-1.372-0.154-2.267c0,0-0.413-2.231-0.532-2.438c0,0-0.601,1.546-0.842,2.473
			c0,0-0.566,2.008-0.773,2.574c0,0-0.634,1.049-0.841,1.804c0,0-0.497,1.854-0.565,2.232c0,0-0.43,1.527-0.567,2.18
			c0,0-0.36,1.546-0.531,2.025c0,0-0.224,0.635-0.379,0.875c0,0-0.309,0.346-0.292,0.618c0,0-0.017,1.563-0.257,1.855
			c0,0,0.257,0.479-0.087,0.721c0,0-1.613,0.601-1.938,0.069c0,0-1.512,1.442-3.675,0.994c0,0-1.408-0.463-0.445-0.961
			c0,0,1.955-0.738,2.368-1.425c0,0,0.259-0.274,0.259-0.498l-0.087-0.188c0,0,0.79-0.928,0.824-1.203c0,0,0.102-0.395,0.273-0.6
			c0,0,0.189-0.584,0.276-0.928c0,0,0.239-1.185,0.325-1.528c0,0,0.24-1.133,0.258-1.511c0,0,0.12-0.738,0.207-1.305
			c0,0,0.103-1.149,0.205-1.373c0,0,0.274-0.275,0.292-0.636c0,0,0.206-0.652,0.137-0.927c0,0-0.034-0.138,0.069-0.652
			c0,0,0.36-1.202,0.532-1.58c0,0,0.154-0.444,0.258-1.014c0,0,0.153-1.218,0.273-1.784c0,0,0.431-1.854,0.636-2.49
			c0,0,0.24-0.892,0.172-1.235c0,0-0.36-2.748-0.446-3.605c0,0-0.274-2.489-0.274-3.056c0,0-0.223-1.648-0.223-1.975
			c0,0-0.207-0.653-0.55-0.979c0,0-0.567-0.395-0.876-0.413c0,0-1.562-0.24-1.854-0.514c0,0-2.181-1.151-2.695-1.614
			c0,0-1.7-1.528-1.976-1.87c-0.274-0.345-0.017-0.035-0.017-0.035s-0.549-0.858-0.825-1.34c0,0-0.256-0.738-0.325-1.098
			c-0.069-0.362-0.017-0.052-0.017-0.052s-0.018-0.515-0.12-0.67c0,0-0.189-0.327-0.035-0.396c0,0-0.206-0.206-0.326-0.48
			c0,0-0.051-0.189-0.24-0.293c0,0-0.43-0.29-0.617-0.411c0,0-0.568-0.548,0.102-0.479c0,0-0.17-0.859,0.464-0.773
			c0,0,0.052-0.067,0.259,0.035c0,0,0.24-0.138,0.016-0.344c0,0-0.823-0.842-0.788-1.149c0,0,0.118-0.19,0.343,0.032
			c0,0,0.48,0.551,0.617,0.62c0,0,0.274,0.273,0.464,0.549c0,0,0.481,0.549,0.583,0.927c0,0,0.155,0.618,0.155,0.79
			c0,0,0.188,0.359,0.446,0.651c0,0,0.584,0.378,0.721,0.532C311.297,195.638,311.727,196.153,311.882,196.137z"/>
		<path d="M324.157,235.585c-0.401,0-0.676-0.087-0.839-0.265c-0.08-0.089-0.171-0.243-0.149-0.478
			c0.069-0.773,0.119-1.708,0.081-1.867c-0.067-0.473-0.158-0.995-0.208-1.097c-0.018-0.039-0.211-0.532-0.074-1.139
			c0.042-0.261,0.186-1.148,0.295-1.438c0.019-0.125,0.099-0.638,0.111-1.037c0.013-0.223,0.078-1.333,0.205-1.68l0,0
			c-0.001,0,0.155-0.589,0.155-0.973c-0.001-0.142-0.015-1.431,0.076-1.812c0.041-0.155,0.135-0.603,0.099-0.884
			c-0.007-0.028-0.243-1.181-0.243-1.751c0-0.014-0.002-1.361-0.15-2.221c-0.102-0.551-0.219-1.142-0.315-1.595
			c-0.185,0.513-0.412,1.17-0.535,1.651c-0.024,0.088-0.574,2.03-0.782,2.601c-0.027,0.056-0.64,1.071-0.834,1.78
			c-0.004,0.017-0.494,1.847-0.561,2.21c-0.011,0.04-0.435,1.551-0.568,2.187c-0.017,0.069-0.367,1.572-0.542,2.06
			c-0.022,0.067-0.238,0.673-0.405,0.932c-0.123,0.145-0.256,0.353-0.249,0.456c-0.005,0.455-0.038,1.43-0.228,1.884
			c0.094,0.268,0.126,0.68-0.229,0.929l-0.062,0.031c-0.033,0.013-0.827,0.306-1.452,0.306c-0.243,0-0.439-0.044-0.588-0.132
			c-0.407,0.318-1.434,0.992-2.834,0.992c-0.295,0-0.594-0.03-0.888-0.091c-0.246-0.079-0.955-0.349-0.993-0.817
			c-0.02-0.252,0.141-0.469,0.479-0.645c0.752-0.285,1.998-0.882,2.263-1.323l0.034-0.046c0.078-0.084,0.152-0.202,0.177-0.274
			l-0.123-0.273l0.109-0.129c0.343-0.401,0.73-0.926,0.763-1.067c0.017-0.07,0.118-0.441,0.301-0.689
			c0.044-0.141,0.185-0.584,0.255-0.865c0,0,0.239-1.183,0.327-1.527c0.062-0.301,0.235-1.167,0.249-1.458
			c0.003-0.031,0.123-0.768,0.209-1.333c0.022-0.264,0.113-1.198,0.228-1.446l0.054-0.077c0,0,0.201-0.209,0.213-0.457l0.013-0.068
			c0.088-0.281,0.163-0.662,0.133-0.781c-0.019-0.072-0.034-0.271,0.066-0.771c0.02-0.073,0.373-1.246,0.55-1.637l0,0
			c-0.001,0,0.143-0.424,0.239-0.951c0.003-0.035,0.155-1.223,0.275-1.792c0.02-0.081,0.435-1.878,0.643-2.517
			c0.089-0.334,0.203-0.908,0.164-1.102c-0.019-0.131-0.365-2.779-0.449-3.632c-0.013-0.1-0.277-2.508-0.277-3.082
			c-0.02-0.13-0.208-1.521-0.223-1.929c-0.063-0.188-0.242-0.618-0.467-0.831c-0.173-0.116-0.547-0.33-0.706-0.339
			c-0.399-0.061-1.617-0.266-1.99-0.559c-0.259-0.137-2.215-1.181-2.724-1.639c-0.176-0.158-1.724-1.552-2.004-1.902
			c-0.109-0.137-0.175-0.217-0.187-0.299c-0.186-0.293-0.491-0.781-0.679-1.109c-0.031-0.074-0.285-0.805-0.355-1.181l-0.013-0.059
			h-0.007c-0.017-0.098-0.026-0.167-0.016-0.228c-0.021-0.2-0.048-0.31-0.064-0.341c-0.058-0.097-0.163-0.311-0.132-0.504
			c-0.079-0.101-0.177-0.245-0.249-0.409c-0.013-0.035-0.041-0.119-0.123-0.164c-0.024-0.015-0.448-0.302-0.635-0.422l-0.042-0.033
			c-0.149-0.146-0.386-0.431-0.278-0.695c0.035-0.087,0.111-0.187,0.277-0.229c0.002-0.182,0.037-0.405,0.176-0.572
			c0.086-0.104,0.242-0.221,0.517-0.221c-0.349-0.378-0.756-0.895-0.721-1.217l0.008-0.062l0.034-0.052
			c0.057-0.091,0.188-0.198,0.362-0.198c0.138,0,0.271,0.064,0.396,0.188c0.215,0.245,0.48,0.525,0.555,0.572l0.062,0.046
			c0.012,0.013,0.294,0.296,0.495,0.587c0.033,0.036,0.506,0.583,0.62,1.008c0.035,0.141,0.137,0.558,0.16,0.783
			c0.056,0.098,0.19,0.327,0.36,0.524c0.152,0.1,0.603,0.4,0.744,0.56c0.15,0.18,0.339,0.364,0.415,0.409
			c0.239,0.005,0.743,0.044,0.971,0.298l0.044,0.059c0.145,0.224,0.377,0.415,0.449,0.434c0.581,0.13,0.911,0.31,0.998,0.54
			c0.1,0.122,0.235,0.24,0.291,0.248c0.029,0.004,0.215,0.033,0.411,0.033c0.168,0,0.248-0.021,0.281-0.033
			c0.051-0.017,0.735-0.19,1.037-0.089c0.135,0.056,0.48,0.182,0.705,0.182c0.063,0,0.085-0.012,0.085-0.012
			c0.158-0.102,0.792-0.484,1.181-0.509c0.144-0.04,0.797-0.211,1.15-0.288c0.063-0.018,0.845-0.232,1.17-0.192
			c0.045,0.009,0.371,0.064,0.539,0.023c0.104-0.015,0.439-0.027,0.733,0.011c0.285-0.005,0.617-0.018,0.88-0.034
			c-0.148-0.106-0.264-0.253-0.301-0.461c-0.057-0.207-0.145-0.457-0.184-0.512c-0.039-0.044-0.115-0.136-0.107-0.251
			c-0.015-0.061-0.021-0.126-0.007-0.196c0.001-0.008,0.003-0.014,0.004-0.021c-0.041-0.081-0.071-0.182-0.054-0.288
			c0.009-0.068,0.039-0.128,0.082-0.18c0.011-0.043,0.019-0.085,0.024-0.122c-0.099-0.057-0.212-0.15-0.278-0.285
			c-0.061-0.13-0.068-0.271-0.019-0.41l0.048-0.085c0.084-0.097,0.291-0.352,0.411-0.521c-0.052-0.198-0.115-0.561,0.001-0.834
			c0.07-0.291,0.64-2.431,2.347-2.431c0.288,0,0.596,0.065,0.911,0.192c0.023,0.001,1.587,0.363,2.146,1.653
			c0.373,0.862,0.202,1.909-0.506,3.108c-0.102,0.17-0.43,0.672-0.821,0.791c-0.001,0.258,0.05,0.547,0.189,0.626l0.052,0.038
			c0.219,0.207,0.892,0.766,1.342,0.88c0.101,0.035,0.798,0.279,1.089,0.461c0.009,0.003,0.783,0.387,1.021,1.084
			c0.016,0.043,0.373,1.07,0.459,1.985c0.017,0.083,0.448,2.552,0.448,3.373c0.029,0.314,0.275,3.279,0.223,3.755
			c0.004,0.176,0.011,1.242-0.14,1.601l0,0c0.001,0-0.137,0.373-0.152,0.716c-0.022,0.38-0.152,2.266-0.39,2.722
			c-0.177,0.447-0.527,1.269-0.752,1.455l-0.068,0.041c-0.003,0.002-0.054,0.034-0.073,0.121c0.018,0.174,0.054,0.767-0.247,1.086
			c-0.752,0.883-1.022,0.996-1.145,1.009c-0.007,0.002-0.013,0.002-0.018,0.005c-0.095,0.55-0.301,1.758-0.367,2.099
			c-0.049,0.424-0.126,1.197-0.116,1.394c-0.004,0.102-0.104,1.765-0.173,2.267c-0.1,0.509-0.25,1.372-0.237,1.599
			c0,0.069,0.033,1.535-0.001,2.107c-0.001,0.079-0.053,2.151-0.179,2.703l0,0c0.002,0-0.201,1.3-0.234,1.698
			c-0.025,0.269-0.157,1.568-0.328,2.014c-0.011,0.122-0.048,0.42-0.185,0.651c0.004,0.484-0.033,1.703-0.508,2.044l-0.076,0.039
			C325.928,235.272,324.913,235.585,324.157,235.585L324.157,235.585z M323.768,232.844c0.072,0.319-0.01,1.407-0.066,2.047
			c-0.004,0.052,0.007,0.062,0.013,0.069c0.014,0.016,0.1,0.091,0.443,0.091c0.584,0,1.392-0.225,1.602-0.285
			c0.172-0.189,0.272-1.004,0.26-1.66l-0.002-0.094l0.057-0.076c0.091-0.117,0.129-0.376,0.134-0.482l0.026-0.104
			c0.104-0.219,0.237-1.234,0.301-1.885c0.034-0.414,0.233-1.695,0.242-1.749c0.097-0.433,0.155-2.041,0.169-2.626
			c0.033-0.56,0-2.05,0-2.065c-0.019-0.358,0.218-1.568,0.245-1.706c0.063-0.467,0.167-2.162,0.167-2.18
			c-0.018-0.273,0.106-1.352,0.122-1.474c0.088-0.465,0.413-2.383,0.413-2.383l0.138-0.806l0.309,0.615
			c0.159-0.111,0.521-0.488,0.799-0.813c0.123-0.133,0.138-0.496,0.11-0.702l-0.004-0.034l0.004-0.033
			c0.041-0.326,0.242-0.485,0.345-0.546c0.109-0.131,0.394-0.741,0.599-1.256c0.147-0.285,0.287-1.644,0.342-2.526
			c0.02-0.428,0.182-0.866,0.188-0.884c0.084-0.199,0.111-0.954,0.104-1.431c0.037-0.354-0.111-2.405-0.222-3.706
			c-0.001-0.797-0.438-3.299-0.443-3.323c-0.084-0.871-0.432-1.872-0.435-1.882c-0.167-0.484-0.769-0.789-0.775-0.792
			c-0.229-0.141-0.786-0.348-0.984-0.416c-0.605-0.151-1.389-0.851-1.532-0.983c-0.535-0.336-0.427-1.261-0.412-1.366l0.045-0.333
			l0.314,0.119c0.089-0.004,0.354-0.284,0.518-0.558c0.616-1.043,0.776-1.925,0.476-2.622c-0.453-1.042-1.803-1.354-1.816-1.357
			c-0.291-0.115-0.531-0.165-0.751-0.165c-1.369,0-1.825,2.019-1.83,2.04l-0.022,0.062c-0.057,0.114-0.009,0.414,0.048,0.585
			l0.04,0.114l-0.062,0.105c-0.103,0.176-0.351,0.48-0.467,0.62c0.024,0.027,0.084,0.062,0.118,0.073l0.094,0.033l0.05,0.088
			c0.11,0.192,0.04,0.495-0.011,0.659l-0.014,0.04c0.003,0.003,0.005,0.006,0.007,0.009l0.212,0.236l-0.181,0.116
			c0.123,0.188,0.22,0.512,0.271,0.702c0.037,0.206,0.476,0.295,0.691,0.3l0.072,0.012c0.176,0.053,0.238,0.175,0.26,0.244
			c0.06,0.189-0.058,0.355-0.095,0.401l-0.08,0.1h-0.128c-0.081,0-0.287-0.01-0.38-0.015c-0.275,0.07-0.937,0.094-1.472,0.102
			c-0.328-0.035-0.62-0.018-0.626-0.018c-0.04,0.016-0.145,0.026-0.258,0.026c-0.234,0-0.443-0.049-0.452-0.051
			c-0.248,0.005-0.768,0.136-0.946,0.187c-0.407,0.089-1.171,0.293-1.173,0.293l-0.068,0.009c-0.148,0-0.588,0.21-0.906,0.406
			c-0.063,0.066-0.212,0.115-0.398,0.115c-0.367,0-0.826-0.188-0.891-0.216c0.006,0.003-0.023-0.003-0.086-0.003
			c-0.203,0-0.501,0.07-0.598,0.1c-0.101,0.038-0.255,0.061-0.449,0.061c-0.241,0-0.464-0.037-0.474-0.038
			c-0.314-0.02-0.608-0.389-0.688-0.501l-0.047-0.08c-0.09-0.065-0.35-0.159-0.585-0.21c-0.293-0.028-0.67-0.461-0.802-0.666
			c-0.055-0.059-0.354-0.099-0.605-0.117c-0.09,0-0.3-0.015-0.783-0.594c-0.063-0.073-0.395-0.309-0.66-0.479l-0.056-0.048
			c-0.275-0.312-0.475-0.688-0.483-0.705l-0.03-0.059v-0.065c0-0.083-0.075-0.443-0.146-0.726c-0.062-0.224-0.354-0.621-0.525-0.815
			c-0.023-0.035-0.049-0.068-0.074-0.102c0.004,0.033,0.004,0.066,0,0.094c-0.024,0.221-0.209,0.335-0.244,0.355l-0.124,0.07
			l-0.128-0.063c-0.001-0.001-0.005-0.003-0.007-0.003l-0.011,0.017l-0.155-0.022c-0.106,0.001-0.122,0.012-0.129,0.022
			c-0.064,0.076-0.063,0.302-0.038,0.435l0.068,0.354l-0.255-0.025c0.203,0.131,0.59,0.396,0.59,0.396
			c0.258,0.139,0.34,0.41,0.348,0.442c0.085,0.186,0.257,0.36,0.259,0.362l0.272,0.276l-0.231,0.102
			c0.011,0.026,0.024,0.052,0.034,0.07c0.025,0.035,0.121,0.18,0.152,0.721l0.018,0.086c0.063,0.336,0.313,1.053,0.315,1.06
			c0.248,0.426,0.791,1.275,0.796,1.283l-0.005,0.005c0.002,0.002,0.005,0.004,0.006,0.007c0.214,0.268,1.476,1.418,1.944,1.839
			c0.402,0.362,2.043,1.262,2.642,1.576l0.058,0.042c0.139,0.13,0.998,0.336,1.713,0.446c0.34,0.017,0.883,0.384,0.987,0.457
			c0.421,0.396,0.642,1.088,0.652,1.117l0.012,0.08c0,0.226,0.132,1.282,0.22,1.938c0.003,0.581,0.273,3.037,0.276,3.062
			c0.084,0.848,0.441,3.572,0.445,3.601c0.073,0.368-0.135,1.181-0.179,1.34c-0.203,0.631-0.628,2.461-0.633,2.479
			c-0.115,0.544-0.268,1.746-0.27,1.76c-0.107,0.595-0.264,1.048-0.271,1.067c-0.171,0.38-0.524,1.555-0.528,1.567
			c-0.077,0.391-0.062,0.524-0.062,0.529c0.072,0.288-0.074,0.821-0.136,1.022c-0.03,0.353-0.232,0.622-0.325,0.729
			c-0.052,0.174-0.128,0.765-0.171,1.255c-0.088,0.585-0.209,1.325-0.209,1.325c-0.016,0.363-0.25,1.476-0.26,1.521
			c-0.087,0.352-0.325,1.526-0.325,1.526c-0.091,0.362-0.283,0.957-0.283,0.957l-0.049,0.089c-0.108,0.13-0.197,0.409-0.222,0.497
			c-0.027,0.244-0.454,0.798-0.77,1.177l0.041,0.146c0,0.285-0.229,0.569-0.312,0.659c-0.472,0.738-2.282,1.437-2.488,1.514
			c-0.14,0.074-0.165,0.13-0.165,0.131c0.03,0.063,0.328,0.237,0.6,0.328c0.229,0.045,0.491,0.07,0.75,0.07
			c1.582,0,2.646-0.997,2.656-1.006l0.239-0.229l0.173,0.282c0.027,0.044,0.136,0.092,0.354,0.092c0.457,0,1.065-0.201,1.226-0.258
			c0.108-0.11-0.016-0.356-0.017-0.358l-0.084-0.158l0.113-0.139c0.098-0.135,0.188-0.909,0.196-1.687
			c-0.021-0.349,0.297-0.722,0.36-0.794c0.075-0.122,0.244-0.553,0.325-0.786c0.165-0.462,0.521-1.981,0.524-1.997
			c0.136-0.647,0.551-2.129,0.568-2.192c0.064-0.36,0.546-2.153,0.566-2.229c0.214-0.782,0.844-1.827,0.87-1.869
			c0.179-0.505,0.739-2.491,0.745-2.511c0.239-0.927,0.824-2.434,0.85-2.496l0.2-0.519l0.278,0.479
			c0.125,0.215,0.407,1.674,0.565,2.524c0.156,0.908,0.158,2.259,0.158,2.314c0,0.517,0.233,1.652,0.236,1.663
			c0.06,0.463-0.101,1.075-0.106,1.102c-0.057,0.231-0.067,1.155-0.062,1.68c0,0.463-0.173,1.108-0.18,1.137
			c-0.085,0.233-0.154,1.065-0.18,1.542c-0.019,0.487-0.12,1.102-0.124,1.128l-0.021,0.068c-0.055,0.116-0.182,0.794-0.271,1.354
			c-0.103,0.455,0.035,0.817,0.036,0.821C323.633,231.865,323.735,232.599,323.768,232.844L323.768,232.844z"/>
	</g>
</g>
<g>
	<g>
		<polygon points="88.265,221.264 88.285,213.491 89.932,212.537 86.599,211.337 83.085,216.506 84.734,215.55 84.714,223.321 		"/>
		<path d="M84.714,223.589c-0.046,0-0.092-0.012-0.133-0.035c-0.083-0.048-0.134-0.137-0.134-0.233l0.019-7.305l-1.247,0.722
			c-0.108,0.062-0.245,0.043-0.33-0.05c-0.085-0.091-0.095-0.228-0.025-0.332l3.514-5.169c0.069-0.101,0.196-0.143,0.312-0.102
			l3.333,1.2c0.098,0.036,0.166,0.124,0.175,0.229c0.01,0.103-0.042,0.203-0.132,0.255l-1.515,0.878l-0.019,7.617
			c0,0.096-0.05,0.185-0.133,0.231l-3.551,2.059C84.807,223.577,84.761,223.589,84.714,223.589L84.714,223.589z M84.734,215.283
			c0.046,0,0.092,0.012,0.134,0.036c0.083,0.047,0.134,0.136,0.133,0.231l-0.018,7.306l3.015-1.748l0.02-7.617
			c0-0.095,0.05-0.183,0.133-0.23l1.15-0.666l-2.598-0.935l-2.738,4.026l0.635-0.367C84.641,215.295,84.688,215.283,84.734,215.283
			L84.734,215.283z"/>
	</g>
	<g>
		<polygon points="88.265,190.607 88.285,182.836 89.932,181.882 86.599,180.681 83.085,185.851 84.734,184.896 84.714,192.665 		
			"/>
		<path d="M84.714,192.934c-0.046,0-0.092-0.013-0.133-0.037c-0.083-0.047-0.134-0.136-0.134-0.231l0.019-7.306l-1.247,0.723
			c-0.108,0.062-0.245,0.042-0.33-0.05c-0.085-0.091-0.095-0.229-0.025-0.332l3.514-5.169c0.069-0.101,0.196-0.142,0.312-0.102
			l3.333,1.201c0.098,0.035,0.166,0.124,0.175,0.229c0.01,0.104-0.042,0.202-0.132,0.255l-1.515,0.877l-0.019,7.618
			c0,0.095-0.05,0.183-0.133,0.23l-3.551,2.058C84.807,192.921,84.761,192.934,84.714,192.934L84.714,192.934z M84.734,184.629
			c0.046,0,0.092,0.011,0.134,0.035c0.083,0.047,0.134,0.136,0.133,0.231l-0.018,7.305l3.015-1.747l0.02-7.617
			c0-0.096,0.05-0.185,0.133-0.231l1.15-0.665l-2.598-0.937l-2.738,4.028l0.635-0.367C84.641,184.64,84.688,184.629,84.734,184.629
			L84.734,184.629z"/>
	</g>
	<g>
		<polygon points="88.265,158.883 88.285,151.111 89.932,150.157 86.599,148.957 83.085,154.126 84.734,153.17 84.714,160.94 		"/>
		<path d="M84.714,161.208c-0.046,0-0.092-0.012-0.133-0.036c-0.083-0.048-0.134-0.136-0.134-0.232l0.019-7.306l-1.247,0.722
			c-0.108,0.062-0.245,0.043-0.33-0.049c-0.085-0.092-0.095-0.229-0.025-0.333l3.514-5.169c0.069-0.101,0.196-0.142,0.312-0.101
			l3.333,1.2c0.098,0.036,0.166,0.124,0.175,0.228c0.01,0.104-0.042,0.203-0.132,0.255l-1.515,0.877l-0.019,7.618
			c0,0.095-0.05,0.183-0.133,0.23l-3.551,2.059C84.807,161.196,84.761,161.208,84.714,161.208L84.714,161.208z M84.734,152.902
			c0.046,0,0.092,0.013,0.134,0.036c0.083,0.048,0.134,0.136,0.133,0.232l-0.018,7.305l3.015-1.746l0.02-7.619
			c0-0.095,0.05-0.183,0.133-0.23l1.15-0.666l-2.598-0.936l-2.738,4.028l0.635-0.368C84.641,152.915,84.688,152.902,84.734,152.902
			L84.734,152.902z"/>
	</g>
	<g>
		<polygon points="88.265,127.693 88.285,119.921 89.932,118.967 86.599,117.767 83.085,122.936 84.734,121.979 84.714,129.75 		"/>
		<path d="M84.714,130.018c-0.046,0-0.092-0.013-0.133-0.036c-0.083-0.048-0.134-0.136-0.134-0.231l0.019-7.306l-1.247,0.722
			c-0.108,0.062-0.245,0.043-0.33-0.048c-0.085-0.092-0.095-0.23-0.025-0.333l3.514-5.168c0.069-0.102,0.196-0.144,0.312-0.102
			l3.333,1.2c0.098,0.036,0.166,0.124,0.175,0.227c0.01,0.103-0.042,0.204-0.132,0.255l-1.515,0.878l-0.019,7.617
			c0,0.096-0.05,0.184-0.133,0.232l-3.551,2.057C84.807,130.005,84.761,130.018,84.714,130.018L84.714,130.018z M84.734,121.712
			c0.046,0,0.092,0.012,0.134,0.036c0.083,0.047,0.134,0.135,0.133,0.232l-0.018,7.305l3.015-1.748l0.02-7.617
			c0-0.096,0.05-0.184,0.133-0.23l1.15-0.667l-2.598-0.935l-2.737,4.028l0.634-0.368C84.641,121.724,84.688,121.712,84.734,121.712
			L84.734,121.712z"/>
	</g>
</g>
<g>
	<g>
		<polygon points="193.599,165.656 193.617,157.883 195.265,156.93 191.933,155.729 188.419,160.898 190.068,159.943 
			190.048,167.714 		"/>
		<path d="M190.048,167.981c-0.046,0-0.092-0.012-0.133-0.036c-0.084-0.048-0.135-0.137-0.134-0.232l0.019-7.305l-1.247,0.722
			c-0.107,0.062-0.245,0.042-0.329-0.049c-0.085-0.092-0.097-0.229-0.025-0.333l3.513-5.168c0.068-0.101,0.196-0.142,0.312-0.102
			l3.332,1.2c0.099,0.036,0.167,0.124,0.176,0.228c0.011,0.103-0.042,0.203-0.132,0.255l-1.514,0.878l-0.019,7.618
			c0,0.095-0.052,0.184-0.135,0.231l-3.551,2.058C190.142,167.969,190.095,167.981,190.048,167.981L190.048,167.981z
			 M190.068,159.675c0.045,0,0.092,0.012,0.133,0.037c0.083,0.047,0.135,0.136,0.134,0.231l-0.018,7.306l3.014-1.748l0.02-7.618
			c0.001-0.095,0.051-0.184,0.133-0.23l1.15-0.667l-2.597-0.935l-2.738,4.028l0.635-0.368
			C189.975,159.688,190.021,159.675,190.068,159.675L190.068,159.675z"/>
	</g>
	<g>
		<polygon points="193.599,135.535 193.617,127.763 195.265,126.809 191.933,125.608 188.419,130.777 190.068,129.823 
			190.048,137.593 		"/>
		<path d="M190.048,137.86c-0.046,0-0.092-0.012-0.133-0.036c-0.084-0.047-0.135-0.136-0.134-0.232l0.019-7.305l-1.247,0.722
			c-0.107,0.062-0.245,0.042-0.329-0.049c-0.085-0.092-0.097-0.229-0.025-0.333l3.513-5.169c0.068-0.101,0.196-0.142,0.312-0.101
			l3.332,1.2c0.099,0.036,0.167,0.124,0.176,0.228c0.011,0.104-0.042,0.203-0.132,0.255l-1.514,0.877l-0.019,7.618
			c0,0.095-0.052,0.184-0.134,0.23l-3.552,2.059C190.142,137.848,190.095,137.86,190.048,137.86L190.048,137.86z M190.068,129.555
			c0.045,0,0.092,0.012,0.133,0.036c0.083,0.048,0.135,0.136,0.134,0.231l-0.018,7.306l3.014-1.748l0.02-7.619
			c0.001-0.095,0.051-0.183,0.133-0.23l1.149-0.666l-2.596-0.936l-2.738,4.029l0.635-0.368
			C189.975,129.567,190.021,129.555,190.068,129.555L190.068,129.555z"/>
	</g>
	<g>
		<polygon points="193.599,103.81 193.617,96.038 195.265,95.084 191.933,93.883 188.419,99.053 190.068,98.097 190.048,105.868 		
			"/>
		<path d="M190.048,106.136c-0.046,0-0.092-0.013-0.133-0.036c-0.084-0.048-0.135-0.137-0.134-0.232l0.019-7.306l-1.247,0.723
			c-0.107,0.062-0.245,0.042-0.329-0.05c-0.085-0.091-0.097-0.229-0.025-0.332l3.513-5.169c0.068-0.1,0.196-0.141,0.312-0.101
			l3.332,1.2c0.099,0.036,0.167,0.125,0.176,0.228c0.011,0.104-0.042,0.203-0.132,0.255l-1.514,0.878l-0.019,7.617
			c0,0.096-0.052,0.184-0.135,0.232l-3.551,2.058C190.142,106.123,190.095,106.136,190.048,106.136L190.048,106.136z M190.068,97.83
			c0.045,0,0.092,0.012,0.133,0.036c0.083,0.047,0.135,0.136,0.134,0.232l-0.018,7.306l3.014-1.748l0.02-7.618
			c0.001-0.096,0.051-0.184,0.133-0.231l1.149-0.666l-2.596-0.936l-2.738,4.029l0.635-0.368
			C189.975,97.842,190.021,97.83,190.068,97.83L190.068,97.83z"/>
	</g>
	<g>
		<polygon points="193.599,72.085 193.617,64.314 195.265,63.359 191.933,62.159 188.419,67.328 190.068,66.372 190.048,74.143 		
			"/>
		<path d="M190.048,74.41c-0.046,0-0.092-0.012-0.133-0.036c-0.084-0.047-0.135-0.135-0.134-0.231l0.019-7.306l-1.247,0.723
			c-0.107,0.062-0.245,0.042-0.329-0.05c-0.085-0.091-0.097-0.229-0.025-0.333l3.513-5.168c0.068-0.102,0.196-0.142,0.312-0.102
			l3.332,1.2c0.099,0.036,0.167,0.124,0.176,0.228c0.011,0.104-0.042,0.203-0.132,0.255l-1.514,0.878l-0.019,7.618
			c0,0.094-0.052,0.183-0.135,0.23l-3.551,2.057C190.142,74.398,190.095,74.41,190.048,74.41L190.048,74.41z M190.068,66.104
			c0.045,0,0.092,0.012,0.133,0.036c0.083,0.047,0.135,0.137,0.134,0.232l-0.018,7.305l3.014-1.747l0.02-7.618
			c0.001-0.095,0.051-0.184,0.133-0.23l1.15-0.667l-2.597-0.935l-2.738,4.027l0.635-0.368
			C189.975,66.116,190.021,66.104,190.068,66.104L190.068,66.104z"/>
	</g>
</g>
<g>
	<g>
		<polygon points="300.537,221.798 300.556,214.026 302.204,213.071 298.87,211.871 295.356,217.041 297.006,216.086 
			296.986,223.856 		"/>
		<path d="M296.986,224.123c-0.047,0-0.094-0.012-0.134-0.036c-0.084-0.048-0.135-0.137-0.135-0.231l0.019-7.306l-1.245,0.722
			c-0.108,0.062-0.244,0.043-0.33-0.049c-0.086-0.091-0.096-0.229-0.026-0.333l3.514-5.168c0.068-0.101,0.197-0.143,0.312-0.103
			l3.333,1.201c0.098,0.035,0.166,0.124,0.176,0.228c0.009,0.104-0.043,0.202-0.133,0.255l-1.514,0.878l-0.02,7.619
			c0,0.094-0.052,0.182-0.134,0.229l-3.551,2.058C297.078,224.111,297.031,224.123,296.986,224.123L296.986,224.123z
			 M297.006,215.818c0.046,0,0.092,0.012,0.133,0.035c0.083,0.048,0.135,0.137,0.135,0.232l-0.019,7.306l3.015-1.747l0.02-7.619
			c0.001-0.095,0.051-0.184,0.133-0.23l1.15-0.667l-2.598-0.935l-2.738,4.028l0.635-0.368
			C296.912,215.83,296.959,215.818,297.006,215.818L297.006,215.818z"/>
	</g>
	<g>
		<polygon points="300.537,190.073 300.556,182.301 302.204,181.347 298.87,180.146 295.356,185.317 297.006,184.36 
			296.986,192.131 		"/>
		<path d="M296.986,192.398c-0.047,0-0.094-0.013-0.134-0.035c-0.084-0.048-0.135-0.137-0.135-0.232l0.019-7.306l-1.245,0.722
			c-0.108,0.062-0.244,0.043-0.33-0.049c-0.086-0.091-0.096-0.229-0.026-0.332l3.514-5.17c0.068-0.101,0.197-0.142,0.312-0.102
			l3.333,1.2c0.098,0.037,0.166,0.126,0.176,0.228c0.009,0.104-0.043,0.204-0.133,0.256l-1.514,0.878l-0.02,7.617
			c0,0.096-0.052,0.184-0.134,0.232l-3.551,2.058C297.078,192.386,297.031,192.398,296.986,192.398L296.986,192.398z
			 M297.006,184.093c0.046,0,0.092,0.013,0.133,0.036c0.083,0.048,0.135,0.138,0.135,0.232l-0.019,7.305l3.015-1.747l0.02-7.618
			c0.001-0.096,0.051-0.183,0.133-0.231l1.15-0.666l-2.598-0.935l-2.738,4.029l0.635-0.368
			C296.912,184.105,296.959,184.093,297.006,184.093L297.006,184.093z"/>
	</g>
	<g>
		<polygon points="300.537,158.883 300.556,151.111 302.204,150.157 298.87,148.957 295.356,154.126 297.006,153.17 296.986,160.94 
					"/>
		<path d="M296.986,161.208c-0.047,0-0.094-0.012-0.134-0.036c-0.084-0.048-0.135-0.136-0.135-0.232l0.019-7.306l-1.245,0.722
			c-0.108,0.062-0.244,0.043-0.33-0.049c-0.086-0.092-0.096-0.229-0.026-0.333l3.514-5.169c0.068-0.101,0.197-0.142,0.312-0.101
			l3.333,1.2c0.098,0.036,0.166,0.124,0.176,0.228c0.009,0.104-0.043,0.203-0.133,0.255l-1.514,0.877l-0.02,7.618
			c0,0.095-0.052,0.183-0.134,0.23l-3.551,2.059C297.078,161.196,297.031,161.208,296.986,161.208L296.986,161.208z
			 M297.006,152.902c0.046,0,0.092,0.013,0.133,0.036c0.083,0.048,0.135,0.136,0.135,0.232l-0.019,7.305l3.015-1.746l0.02-7.619
			c0.001-0.095,0.051-0.183,0.133-0.23l1.15-0.666l-2.598-0.936l-2.738,4.028l0.635-0.368
			C296.912,152.915,296.959,152.902,297.006,152.902L297.006,152.902z"/>
	</g>
	<g>
		<polygon points="300.537,127.693 300.556,119.921 302.204,118.967 298.87,117.767 295.356,122.936 297.006,121.979 
			296.986,129.75 		"/>
		<path d="M296.986,130.018c-0.047,0-0.094-0.013-0.134-0.036c-0.084-0.048-0.135-0.136-0.135-0.231l0.019-7.306l-1.245,0.722
			c-0.108,0.062-0.244,0.043-0.33-0.048c-0.086-0.092-0.096-0.23-0.026-0.333l3.514-5.168c0.068-0.102,0.197-0.144,0.312-0.102
			l3.333,1.2c0.098,0.036,0.166,0.124,0.176,0.227c0.009,0.103-0.043,0.204-0.133,0.255l-1.514,0.878l-0.02,7.617
			c0,0.096-0.052,0.184-0.134,0.232l-3.551,2.057C297.078,130.005,297.031,130.018,296.986,130.018L296.986,130.018z
			 M297.006,121.712c0.046,0,0.092,0.012,0.133,0.036c0.083,0.047,0.135,0.135,0.135,0.232l-0.019,7.305l3.015-1.748l0.02-7.617
			c0.001-0.096,0.051-0.184,0.133-0.23l1.15-0.667l-2.598-0.935l-2.738,4.028l0.635-0.368
			C296.912,121.724,296.959,121.712,297.006,121.712L297.006,121.712z"/>
	</g>
</g>
<path fill="#010101" d="M119.894,147.302l0.261,0.117l1.053,1.868c0.548,1.484,2.534,3.158,2.534,3.158
	c0.238,0.145,0.525,0.668,0.525,0.668c0,0.264,0.816,0.503,0.816,0.503c0.547-0.048,0.931,0.452,0.931,0.452
	c-0.239,0.552-0.213,4.212-0.213,4.212c0.118,0.382,0.167,0.862,0.167,0.862c-0.049,0.26-0.072,1.075-0.072,1.075
	c0.119,0.31-0.095,1.673-0.095,1.673c-0.17,0.407-0.241,1.366-0.241,1.366c0,0.548-0.335,1.123-0.335,1.123
	c-0.694,0.574-1.625,7.892-1.625,7.892c-0.049,0.552-0.456,1.984-0.456,1.984c-0.191,0.289-0.119,0.838-0.119,0.838l0.167,0.072
	l-0.215,1.031c-0.143,0.837,0.91,0.956,0.91,0.956c0.357,0,1.219,0.453,1.219,0.453c0.287,0.41,1.722,0.552,1.722,0.552
	c1.506,0.048,1.912-0.668,1.912-0.668c0.507-0.408-0.62-0.983-0.62-0.983c-0.024-0.12-0.838-0.5-0.838-0.5
	c0.431-0.431,0.288-1.891,0.288-1.891c0.455-0.694,0.693-4.739,0.693-4.739c0-0.309,0.334-1.96,0.334-1.96
	c0.31-0.595,0.287-2.319,0.287-2.319c0.097-0.118,1.125-2.031,1.125-2.031c-0.359,0.691-0.192,6.407-0.192,6.407
	c0.288,0.625-0.022,2.034-0.022,2.034c-0.218,0.482-0.335,3.588-0.335,3.588c-0.142,0.096-0.167,0.527-0.167,0.527
	c0,0.502,1.89,0.622,1.89,0.622c0.429-0.07,1.649,0.073,1.649,0.073c0.358,0.097,2.106,0.262,2.106,0.262
	c1.506-0.024,1.459-1.004,1.459-1.004c0.072-0.335-1.792-0.742-1.792-0.742c-0.122-0.12-0.909-0.576-0.909-0.576l0.141-0.142
	c0.407-0.623-0.047-4.474-0.047-4.474c-0.122-0.188,0.098-0.956,0.098-0.956c0.261-0.382,1.146-3.54,1.146-3.54
	c1.102-2.298,0.55-11.862,0.55-11.862c0.07-0.789-1.149-1.795-0.837-2.272l0.032-0.062c0.313-0.77,0.805-6.085,0.805-6.085
	c0.023-0.935,0.502-2.178,0.502-2.178c0.429-0.237,0.838-1.198,0.838-1.198c0.189-0.645,1.889-1.362,1.889-1.362
	c0.739-0.049,0.909-0.646,0.909-0.646c0.024-0.911,1.124-1.172,1.124-1.172c0.218,0,0.96-0.264,0.96-0.264
	c0-0.142,0.979-0.311,0.979-0.311c0.789-0.095,1.892-0.955,1.892-0.955c0.188-0.048,2.149-1.293,2.149-1.293
	c0.359-0.239,0.766-0.214,0.766-0.214c1.026,0.025,1.556-0.361,1.556-0.361c0.213-0.188,0.068,0.311,0.068,0.311
	c-0.047,0.264,0.576,0.264,0.576,0.264c0.477-0.047,0.768-0.981,0.768-0.981c0.261-0.118,0.093-0.478,0.093-0.478l-0.384-0.574
	c0.145,0,0.384-0.311,0.384-0.311l0.43-0.12c0.937-0.047,0.815-0.457,0.815-0.457c0.022-0.357-1.174,0.074-1.174,0.074
	c-0.336,0-1.315,0.43-1.315,0.43c-0.359,0-1.673,0.669-1.673,0.669c-0.239,0-1.675,0.456-1.675,0.456
	c-0.454,0.239-1.866,0.693-1.866,0.693c-1.507,0-3.302,1.004-3.302,1.004c-0.405,0.408-1.244,0.645-1.244,0.645
	c-0.5-0.071-2.343,0.837-2.343,0.837l-1.029,0.121c-0.238-0.096-0.836,0.096-0.836,0.096c-0.122-0.048-1.197,0.264-1.197,0.264
	c0-0.122-0.979-0.312-0.979-0.312c0.145,0,0.121-0.766,0.121-0.766c0.143,0,0.069-0.432,0.069-0.432l-0.024-0.241
	c-0.07-0.117,0.048-0.428,0.048-0.428c0.333-0.167,0.097-0.457,0.097-0.457l-0.288-0.691c-0.097-0.217,0.073-0.456,0.073-0.456
	c0.07-0.288-0.769-1.531-0.769-1.531v-0.264c-0.069-0.765-0.786-0.79-0.786-0.79c-0.145,0.075-0.577-0.144-0.577-0.144
	c-0.189-0.141-0.859,0-0.859,0c-0.525-0.141-0.909,0.049-0.909,0.049c-0.188,0-0.791,0.453-0.791,0.453
	c-1.675,1.771-0.977,3.709-0.977,3.709l0.474,1.051c0,0.146,0.433,0.481,0.433,0.481l-0.145,0.214
	c-0.957-0.408-1.146,1.196-1.146,1.196c-0.48,0-3.374,2.25-3.374,2.25c-0.192,0.118-1.221,1.362-1.221,1.362
	c0,0.262-0.574,0.98-0.574,0.98c-0.335,0.192-1.674,2.585-1.674,2.585C120.182,146.058,119.894,147.302,119.894,147.302z
	 M122.866,147.671c0,0,0.303-0.161,0.525-0.849c0,0,1.214-0.627,1.377-0.849c0,0,0.273-0.324,0.488-0.233
	c0,0,0.634,2.538,0.845,5.285c0,0-0.021,0.488-0.284,0.671c0,0-0.546,0.041-0.828-0.083c0,0-0.993-1.394-1.293-1.517
	C123.697,150.097,122.804,148.381,122.866,147.671z"/>
<path fill="#010101" d="M209.018,136.439c0,0-0.319-0.374-0.053-0.642c0,0,0.186-1.043,0.296-1.177c0,0-0.029-1.231,0.588-1.206
	c0,0,0.616-0.482,0.802-0.294c0,0,0.537-0.509,0.563-0.239c0,0,0.695-0.403,0.776-0.028c0,0,0.644-0.108,0.696,0.213
	c0,0,0.909,0.134,0.883,0.376c0,0,0.804,0.643,0.535,0.963c0,0,0.59,0.991,0.59,1.287c0,0,0.215,0.802,0.053,1.043
	c0,0,0.134,0.618-0.134,0.884c0,0,0.376,0.268,0.376,0.563c0,0,0.481-0.135,0.535,0.026c0,0,3.134,1.286,3.588,2.196
	c0,0,0.803,1.444,1.046,1.606c0,0,0.802,1.364,0.802,1.606c0,0,0.695,1.445,0.857,1.58c0,0,1.848,2.25,1.848,2.382
	c0,0,0.588,0.777,0.588,1.098l0.588,1.206c0,0,1.527,2.167,0.59,4.174c0,0-1.019,1.982-1.124,2.063c0,0-0.161,3.267-0.588,4.098
	c0,0-0.081,0.266,0.161,0.481c0,0,0.373,0.536,0.373,0.777c0,0,0.616,0.91,0.616,1.204c0,0,1.285,3.749,1.285,4.097
	c0,0.349,1.071,2.57,1.042,2.945l0.432,1.125l0.131,0.402c0,0,0.295-0.188,0.324,0.213c0,0,0.319,1.472,0,1.821
	c0,0,0.294,0.294,0.08,0.562c0,0-0.429,0.509-1.288,0.348c0,0-1.633-0.455-1.685-0.562c0,0-1.016-0.267-1.981-0.241
	c0,0-2.197-0.481-2.223-1.045c0,0-0.484-0.855,0.351-0.935c0,0,1.471,0,1.658,0.024c0,0-0.055-0.56,0.107-0.802
	c0,0-1.34-2.624-1.34-2.812c0,0-1.072-2.354-1.072-2.515c0,0-0.585-0.964-0.775-1.125c0,0-1.042-2.222-1.042-2.518
	c0,0-0.858,1.044-0.884,1.314c0,0-0.563,0.909-1.071,1.043c0,0-0.376,0.642-0.564,0.642c0,0-0.213,1.231-0.43,1.393
	c0,0-0.133,3.532-0.587,3.694c0,0,0.134,1.258,0.027,1.286c0,0,0.295,1.606,0.081,1.98c0,0,0.319,0.589-0.081,0.751
	c0,0-0.617,0.426-1.526,0.214c0,0-1.633-0.351-2.169-0.295c0,0-2.889-0.081-3.479-0.724c0,0-0.883-0.991-0.162-1.34
	c0,0,0.671-0.133,0.99-0.026c0,0,1.366-0.161,1.851-0.64c0,0-0.322-0.19-0.218-0.43c0,0,0.696-5.757,0.806-5.945
	c0,0,0.294-2.275,0.294-2.623c0,0,0.268-2.545,1.15-3.428c0,0,1.554-1.766,1.741-1.82c0,0,1.9-2.221,2.142-2.303
	c0,0,0.509-0.909,0.643-0.963c0,0,0.347-0.696,0.055-1.018c0,0-4.152-3.935-4.152-4.953l-1.659,1.258c0,0,0.081,0.269-0.643,0.215
	c0,0-0.831,0.989-1.39,0.989c0,0-0.619,0.215-0.912-0.214c0,0-0.513-0.829-0.778-0.936c0,0-1.686-2.25-1.66-3.374
	c0,0-0.48-1.661-0.695-1.983c0,0-0.482-0.775-0.615-0.882c0,0-0.507-1.018-0.507-1.259c0,0-0.107-0.937,0.399-0.884
	c0,0,0.403-0.482,0.644-0.294c0,0,0.242-0.269,0.373-0.162c0,0,0.537-0.615,0.725-0.347l0.32,0.215c0,0,0.562-0.082,0.562,0.32
	c0,0,0.188,0.803-0.134,1.233c0,0-0.402,0.962-0.376,1.257c0,0,0.779,1.446,0.779,1.581c0,0,0.668,1.098,0.831,1.206
	c0,0,0.854,0.642,0.854,0.829c0,0.187,0,0.08,0,0.08s0.403-0.776,0.75-1.043c0,0,0.429-0.242,0.51-0.697c0,0,0.458-1.177,0.724-1.5
	c0,0,0.188-1.017,0.4-1.232l0.351-0.615c0,0,0.08-0.32-0.215-0.536c-0.296-0.213-0.079,0-0.079,0l-0.723-0.456
	c0,0-0.513-0.24-0.779-0.267l-0.694-0.134c0,0-0.593-0.08-0.485-0.456c0,0,0-0.214-0.107-0.269c0,0-0.266-0.266-0.079-0.398
	c0,0,0.054-0.11-0.053-0.162c0,0-0.24-0.295-0.106-0.457c0,0,0.024-0.132-0.078-0.187c0,0-0.43-0.214-0.295-0.454
	C208.485,137.458,208.993,136.628,209.018,136.439z"/>
<path fill="#010101" d="M147.811,249.534c0,0-0.861-0.056-1.321-0.999c0,0,0.217-2.126-0.402-1.479c0,0-1.403-4.551-4.094-2.207
	c0,0-2.371,1.561-0.242,4.119c0,0,0.484,1.158,0.755,1.214c0,0,0.376,0.887,0.672,0.914c0,0-2.666,1.454-2.666,2.073
	c0,0-0.701,1.59-0.431,2.53c0,0-0.27,1.725-0.594,2.076c0,0-1.075,1.266-0.617,1.883c0,0-0.296,2.237,0.916,2.293
	c0,0,0.295,1.022,0.592,1.048c0,0-0.672,0.836-0.216,1.617c0,0,0.163,0.431-0.025,0.646c0,0-0.917,2.396-0.215,2.236
	c0,0-1,4.146-0.621,4.954c0,0-0.108,4.069-0.188,4.256c0,0,0.132,0.783,0,0.917c0,0-0.081,2.692,0.27,2.8
	c0,0-0.138,1.723-0.138,2.182c0,0-0.427,0.807-0.427,1.131c0,0-2.426,0.996-2.453,1.534c0,0-0.028,1.724,0.188,1.833
	c0,0,0.243,0.86,0,1.319c0,0-0.619,2.34-0.028,3.608c0,0,0.621,0.782,1.292,0.616c0,0,0.73,0.108,0.836-0.672l0.349-0.779
	c0,0,0.243-1.535,0.462-1.645c0,0,0.778-0.726,0.778-0.887c0,0,0.514-1.053,0.809-1.08l0.027,0.675v-0.105c0,0,0,0.806,0.323,0.969
	c0,0-0.135,0.456-0.081,0.672c0,0-1.614,1.534-1.614,1.83c0,0-0.972,0.406-0.945,0.891c0,0-0.242,0.754,0.136,0.834
	c0,0,3.474,0.188,3.905-0.24c0,0,0.458-0.163,0.833-0.027c0,0,2.046-0.136,2.019-0.435c0,0,0.083-0.538-0.053-0.751
	c0,0-0.213-0.484-0.027-0.647c0,0,0.458-0.917,0.137-1.294c0,0-0.216-1.317-0.432-1.505c0,0,0.432-0.78-0.16-1.566
	c0,0,0.08-2.206-0.083-2.475c0,0,0.271-3.177,0.111-3.367c0,0-0.028-0.62,0.185-0.89c0,0,1.375-1.372,0.996-2.179
	c0,0,0.296-0.861,0.758-1.187c0,0,1.424-1.913,1.4-2.424c0,0,1.615-2.423,1.292-3.229c0,0,1.292-2.185,0.837-3.424
	c0,0,0.375,0.083,0.457-0.213c0,0,0.023-0.863,0.513-1.293c0,0,0.94-3.558,0.563-4.903c0,0,0.621-0.401,0.861-0.673
	c0,0,2.048-1.077,1.831-1.777c0,0-2.208-6.786-3.148-7.405c0,0-1.157-1.941-2.911-1.805
	C148.78,249.642,148.564,249.183,147.811,249.534z"/>
<path fill="#010101" d="M30.704,198.944c0.258-1.004,3.874-2.567,4.269-2.846c0.121-0.083,0.207-0.142,0.281-0.197l-0.006-0.007
	l0.014-0.014l0.009,0.008c0.16-0.125,0.246-0.241,0.403-0.607l0.042-0.089l0.016-0.027l0.024-0.05l0.019-0.026l0.026-0.038
	l0.018-0.024l0.022-0.031l0.021-0.021l0.025-0.025l0.014-0.017l0.031-0.025l0.011-0.01l0.074-0.048l0.009-0.005l0.024-0.012
	l0.012-0.004l0.02-0.006l0.012-0.001l0.018-0.006l0.008-0.002h0.015l0.009-0.001h0.011h0.005h0.01l0.018,0.001
	c0.118-0.186,0.305-0.933,0.305-0.933c-0.397-0.934-0.143-2.94-0.143-2.94c0.677-2.637,2.613-2.637,2.78-2.521
	c0.161,0.117,0.487,0.047,0.487,0.047c1.331-0.093,2.032,1.563,2.172,2.008c0.138,0.442-0.396,1.562-0.396,1.656l-0.28,0.49
	c0,0.07-0.165,0.209-0.165,0.326c0,0.118-0.115,0.677-0.139,0.746c-0.023,0.071-0.282,0.353-0.282,0.491
	c0,0.141-0.14,0.7-0.187,0.77l-0.211,0.49c0,0.42-0.698,0.328-0.698,0.328c-0.328-0.049-0.444,0.746-0.444,0.746
	s0.116,0.35,0.209,0.467c0.094,0.114,0.561,0.442,0.959,0.466c0.394,0.024,1.352,0.467,1.492,0.607c0.14,0.14,1.33,1.423,1.447,1.54
	c0.115,0.116,1.167,2.007,1.75,2.381c0.585,0.372,0.77-0.888,0.816-0.957l0.018-0.029l0.001-0.006l0.023-0.047
	c0.09-0.2,0.286-0.696,0.286-0.852c0-0.186-0.141-0.769,0.185-1.096c0.329-0.328,0.35-0.374,0.35-0.374
	c-0.465-0.35,1.352-1.05,1.352-1.05c-1.327-0.094-0.138-0.561-0.138-0.561c0.21-0.069,0.655,0.188,0.655,0.188
	c0.256,0.068,0.023,0.583,0.023,0.583c0.164,0.068-0.07,0.419,0.139,0.535l0.03,0.021c0.181,0.144,0.181,0.561,0.181,0.561
	c0.164,0.164-0.093,0.47-0.093,0.47c0.14,0.186-0.444,1.025-0.678,1.166c-0.204,0.123-0.611,1.102-0.736,1.426l-0.032,0.092
	c-0.047,0.139-0.351,0.91-0.351,0.91s0.093,1.049-0.351,2.028c-0.442,0.981-1.772,0.864-2.356,0.841
	c-0.582-0.023-1.213-0.607-1.445-0.979c-0.234-0.372-0.376-0.537-0.305-0.093c0.071,0.442-0.351,2.286-0.629,3.22
	c-0.053,0.175-0.095,0.325-0.136,0.452l-0.001,0.009l-0.032,0.102l-0.021,0.077l-0.007,0.021l-0.066,0.239
	c-0.051,0.187-0.065,0.244-0.065,0.244s-0.021,0.981,0.116,1.33c0.142,0.351-0.069,5.484-0.137,5.812
	c-0.07,0.326-0.587,1.75-0.607,2.544c-0.024,0.794-0.14,3.244-0.351,4.037c-0.209,0.795-0.91,5.136-1.003,5.951
	c-0.094,0.817-1.354,4.854-1.611,5.392c-0.256,0.535-0.301,1.423-0.301,1.493l0.233,0.537c0.095,0.069,0.491,0.816,0.584,0.956
	c0.091,0.141,0.488,0.304,0.605,0.304c0.116,0,0.794,0.232,1.074,0.42c0.278,0.186,0.864,0.49-0.047,1.004
	c-0.912,0.514-3.152-0.351-3.476-0.469c-0.33-0.114-0.539-0.301-0.772-0.301c-0.233,0-1.308-0.188-1.611-0.234
	c-0.304-0.047,0-1.144,0-1.377c0-0.232,0.047-1.145,0.047-1.145s-0.305,1.214-0.305,1.448s-0.188,0.701-0.188,0.701l-0.231,0.162
	c0,0.094,0.047,0.908,0.094,1.167c0.046,0.259,0.023,1.003,0.023,1.003c-0.211,0.583-2.055,0.327-2.055,0.327
	c-1.562-0.468-0.512-2.824-0.512-2.824c-0.115,0-0.186,0.07-0.303-0.584c-0.117-0.651,0.208-3.872,0.303-5.53
	c0.094-1.657,0.911-5.414,1.471-6.44s0.254-6.114-0.142-7.677c-0.398-1.565,0.538-7.471,0.538-7.471s-0.079-0.344-0.072-0.84
	l-0.003,0.001l0.004-0.117c0.022-0.561,0-0.653-0.208-0.629c-0.211,0.023-0.866-0.024-0.866-0.024s-0.838-0.07-1.562-0.094
	c-0.724-0.022-1.005-1.026-1.052-1.283c-0.047-0.256-0.164-1.051-0.164-1.051C28.626,204.734,30.444,199.948,30.704,198.944z"/>
</svg>
