<?xml version="1.0" encoding="utf-8"?>
<!-- Generator: Adobe Illustrator 14.0.0, SVG Export Plug-In . SVG Version: 6.00 Build 43363)  -->
<!DOCTYPE svg PUBLIC "-//W3C//DTD SVG 1.0//EN" "http://www.w3.org/TR/2001/REC-SVG-20010904/DTD/svg10.dtd">
<svg version="1.0" id="Layer_1" xmlns="http://www.w3.org/2000/svg" xmlns:xlink="http://www.w3.org/1999/xlink" x="0px" y="0px"
	 width="100.001px" height="91.842px" viewBox="0 0 100.001 91.842" enable-background="new 0 0 100.001 91.842"
	 xml:space="preserve">
<path d="M8.892,72.408V8.894h11.254v31.397h40.291V8.894h3.581l8.392,8.17v13.145H81.3V13.312L67.631,0H0v81.301h50.34l-8.161-8.893
	H8.892z M42.649,8.894h8.893v22.504h-8.893V8.894z"/>
<path d="M99.854,61.229c-5.999,0-11.999,0-17.999,0c0-7.735,0-15.471,0-23.206c0-0.082-0.068-0.15-0.149-0.15
	c-6.452,0-12.904,0-19.357,0c-0.081,0-0.149,0.068-0.149,0.15c0,7.376,0,14.753,0,22.129c0,1.237,0.31,1.077-0.855,1.077
	c-2.045,0-4.091,0-6.137,0c-3.668,0-7.336,0-11.003,0c-0.136,0-0.193,0.161-0.106,0.256c9.274,10.104,18.55,20.208,27.825,30.312
	c0.055,0.059,0.158,0.059,0.213,0c9.275-10.104,18.55-20.209,27.824-30.312C100.047,61.391,99.988,61.229,99.854,61.229z
	 M99.524,61.37h-0.342C99.372,61.338,99.492,61.327,99.524,61.37z"/>
</svg>
