<?xml version="1.0" encoding="UTF-8" standalone="no"?>
<!-- Created with Inkscape (http://www.inkscape.org/) -->
<svg
   xmlns:dc="http://purl.org/dc/elements/1.1/"
   xmlns:cc="http://creativecommons.org/ns#"
   xmlns:rdf="http://www.w3.org/1999/02/22-rdf-syntax-ns#"
   xmlns:svg="http://www.w3.org/2000/svg"
   xmlns="http://www.w3.org/2000/svg"
   xmlns:sodipodi="http://sodipodi.sourceforge.net/DTD/sodipodi-0.dtd"
   xmlns:inkscape="http://www.inkscape.org/namespaces/inkscape"
   width="281.25592"
   height="281.24405"
   id="svg2"
   sodipodi:version="0.32"
   inkscape:version="0.46"
   sodipodi:docbase="F:\Aviation\Cessna 736RY\SVGs\Engine Gages"
   sodipodi:docname="MP and Fuel Flow.svg"
   inkscape:output_extension="org.inkscape.output.svg.inkscape"
   inkscape:export-filename="F:\Aviation\SVGs\Engine Gages\MP and Fuel Flow.png"
   inkscape:export-xdpi="90"
   inkscape:export-ydpi="90"
   version="1.0">
  <defs
     id="defs4">
    <inkscape:perspective
       sodipodi:type="inkscape:persp3d"
       inkscape:vp_x="0 : 526.18109 : 1"
       inkscape:vp_y="0 : 1000 : 0"
       inkscape:vp_z="744.09448 : 526.18109 : 1"
       inkscape:persp3d-origin="372.04724 : 350.78739 : 1"
       id="perspective82" />
    <inkscape:perspective
       id="perspective2518"
       inkscape:persp3d-origin="372.04724 : 350.78739 : 1"
       inkscape:vp_z="744.09448 : 526.18109 : 1"
       inkscape:vp_y="0 : 1000 : 0"
       inkscape:vp_x="0 : 526.18109 : 1"
       sodipodi:type="inkscape:persp3d" />
  </defs>
  <sodipodi:namedview
     id="base"
     pagecolor="#ffffff"
     bordercolor="#666666"
     borderopacity="1.0"
     gridtolerance="10000"
     guidetolerance="10"
     objecttolerance="10"
     inkscape:pageopacity="0.0"
     inkscape:pageshadow="2"
     inkscape:zoom="1.7884822"
     inkscape:cx="140.62796"
     inkscape:cy="140.62202"
     inkscape:document-units="px"
     inkscape:current-layer="layer1"
     inkscape:window-width="1024"
     inkscape:window-height="708"
     inkscape:window-x="-4"
     inkscape:window-y="-4"
     inkscape:connector-spacing="0"
     showgrid="false"
     showguides="true"
     inkscape:guide-bbox="true" />
  <metadata
     id="metadata7">
    <rdf:RDF>
      <cc:Work
         rdf:about="">
        <dc:format>image/svg+xml</dc:format>
        <dc:type
           rdf:resource="http://purl.org/dc/dcmitype/StillImage" />
      </cc:Work>
    </rdf:RDF>
  </metadata>
  <g
     inkscape:label="Layer 1"
     inkscape:groupmode="layer"
     id="layer1"
     transform="translate(-211.45594,-74.679712)">
    <g
       id="g2731"
       inkscape:export-filename="F:\Aviation\SVGs\Engine Gages\MP and Fuel Flow.png"
       inkscape:export-xdpi="90"
       inkscape:export-ydpi="90">
      <g
         id="g2649">
        <path
           sodipodi:type="arc"
           style="fill:#676b6f;fill-opacity:0.98431373;fill-rule:evenodd;stroke:#000000;stroke-width:1;stroke-linecap:butt;stroke-linejoin:round;stroke-miterlimit:4;stroke-dasharray:none;stroke-dashoffset:0;stroke-opacity:1"
           id="path2184"
           sodipodi:cx="123.74092"
           sodipodi:cy="123.55259"
           sodipodi:rx="84.601456"
           sodipodi:ry="96.644371"
           d="M 208.34238,123.55259 A 84.601456,96.644371 0 1 1 39.139465,123.55259 A 84.601456,96.644371 0 1 1 208.34238,123.55259 z"
           transform="matrix(1.6530997,0,0,1.4470445,147.52782,36.515645)" />
        <path
           sodipodi:type="arc"
           style="fill:#1f1f1f;fill-opacity:1;fill-rule:evenodd;stroke:#000000;stroke-width:1;stroke-linecap:butt;stroke-linejoin:round;stroke-miterlimit:4;stroke-dasharray:none;stroke-dashoffset:0;stroke-opacity:1"
           id="path13663"
           sodipodi:cx="123.74092"
           sodipodi:cy="123.55259"
           sodipodi:rx="84.601456"
           sodipodi:ry="96.644371"
           d="M 208.34238,123.55259 A 84.601456,96.644371 0 1 1 39.139465,123.55259 A 84.601456,96.644371 0 1 1 208.34238,123.55259 z"
           transform="matrix(1.5293057,0,0,1.3386808,162.84622,49.904256)" />
        <path
           style="fill:none;fill-opacity:0;fill-rule:evenodd;stroke:#03752f;stroke-width:10;stroke-linecap:butt;stroke-linejoin:round;stroke-miterlimit:4;stroke-dashoffset:0;stroke-opacity:1"
           d="M 405.7885,285.72276 C 408.79422,283.75183 411.03868,282.52738 413.70906,280.26902 C 416.37945,278.01067 418.87877,275.61394 421.20021,273.08951 C 423.52164,270.56509 425.66519,267.91294 427.62408,265.14379 C 429.58295,262.37463 431.35713,259.48842 432.93983,256.49588 C 434.52254,253.50333 435.91374,250.40442 437.10665,247.20982 C 438.29957,244.01523 439.2942,240.72495 440.0837,237.34965 C 440.87322,233.97436 441.45763,230.51405 441.83014,226.97941 C 442.20263,223.44476 441.75758,220.43957 441.69947,216.76692"
           id="path2578"
           sodipodi:nodetypes="csssssssc" />
        <g
           id="g2632"
           transform="matrix(0.9947703,0.1021375,-0.1021375,0.9947703,167.84702,33.476345)">
          <path
             id="path20634"
             d="M 159.10508,145.28494 L 170.87052,128.41578 L 129.04304,111.9446 L 159.10508,145.28494 z"
             style="fill:#ffffff;fill-rule:evenodd;stroke:#000000;stroke-width:0.52277064;stroke-linecap:butt;stroke-linejoin:miter;stroke-opacity:1" />
          <text
             transform="matrix(0.7871193,0.6168008,-0.6168008,0.7871193,0,0)"
             sodipodi:linespacing="100%"
             id="text2610"
             y="10.908365"
             x="195.73517"
             style="font-size:12px;font-style:normal;font-variant:normal;font-weight:normal;font-stretch:normal;text-align:start;line-height:100%;writing-mode:lr-tb;text-anchor:start;fill:#000000;fill-opacity:1;fill-rule:nonzero;stroke:none;stroke-width:1px;stroke-linecap:butt;stroke-linejoin:miter;marker:none;marker-start:none;marker-mid:none;marker-end:none;stroke-miterlimit:4;stroke-dasharray:none;stroke-dashoffset:0;stroke-opacity:1;visibility:visible;display:inline;overflow:visible;enable-background:accumulate;font-family:Arial"
             xml:space="preserve"><tspan
               y="10.908365"
               x="195.73517"
               id="tspan2612"
               sodipodi:role="line">M</tspan></text>
        </g>
        <path
           style="fill:none;fill-rule:evenodd;stroke:#ffffff;stroke-width:7.60374403;stroke-linecap:butt;stroke-linejoin:miter;stroke-miterlimit:4;stroke-dasharray:none;stroke-opacity:1"
           d="M 351.66874,260.94365 L 352.49909,343.38978"
           id="path4127" />
        <path
           sodipodi:type="arc"
           style="fill:#120808;fill-opacity:1;fill-rule:evenodd;stroke:#060606;stroke-width:0.18050076;stroke-linecap:butt;stroke-linejoin:round;stroke-miterlimit:4;stroke-dasharray:none;stroke-dashoffset:0;stroke-opacity:1"
           id="path4129"
           sodipodi:cx="0.96804553"
           sodipodi:cy="53.500553"
           sodipodi:rx="10.6485"
           sodipodi:ry="10.164478"
           d="M 11.616546,53.500553 A 10.6485,10.164478 0 1 1 -9.6804549,53.500553 A 10.6485,10.164478 0 1 1 11.616546,53.500553 z"
           transform="matrix(-1.6470385,4.2174932,-4.3926758,-1.7154518,588.6889,302.99663)" />
        <path
           style="fill:none;fill-rule:evenodd;stroke:#ffffff;stroke-width:7.58837414;stroke-linecap:butt;stroke-linejoin:miter;stroke-miterlimit:4;stroke-dasharray:none;stroke-opacity:1"
           d="M 351.66103,86.566051 L 352.50679,167.18138"
           id="path7038" />
        <path
           style="fill:#ffffff;fill-rule:evenodd;stroke:#000000;stroke-width:0.75;stroke-linecap:butt;stroke-linejoin:miter;stroke-opacity:1"
           d="M 341.78928,262.93662 L 362.37855,263.04121 L 351.78827,302.94713 L 341.78928,262.93662 z"
           id="path6303" />
        <path
           style="fill:none;fill-rule:evenodd;stroke:#ffffff;stroke-width:4.66804504;stroke-linecap:butt;stroke-linejoin:miter;stroke-miterlimit:4;stroke-dasharray:none;stroke-opacity:1"
           d="M 335.04143,294.80255 L 329.61507,314.85284"
           id="path4297" />
        <path
           sodipodi:type="arc"
           style="fill:none;fill-opacity:0;fill-rule:evenodd;stroke:#03752f;stroke-width:6.8127389;stroke-linecap:butt;stroke-linejoin:round;stroke-miterlimit:4;stroke-dasharray:none;stroke-dashoffset:0;stroke-opacity:1"
           id="path25489"
           sodipodi:cx="278.1965"
           sodipodi:cy="150.41562"
           sodipodi:rx="44.585583"
           sodipodi:ry="40.254795"
           d="M 246.01191,178.27347 A 44.585583,40.254795 0 0 1 237.82515,133.33192"
           transform="matrix(1.6384294,-0.2450613,0.2994266,1.9461317,-163.52175,-4.157376)"
           sodipodi:start="2.377284"
           sodipodi:end="3.5798797"
           sodipodi:open="true" />
        <path
           style="fill:none;fill-rule:evenodd;stroke:#ffffff;stroke-width:4.66804504;stroke-linecap:butt;stroke-linejoin:miter;stroke-miterlimit:4;stroke-dasharray:none;stroke-opacity:1"
           d="M 326.17838,117.08402 L 331.60474,137.13432"
           id="path2347" />
        <path
           style="fill:none;fill-rule:evenodd;stroke:#ffffff;stroke-width:4.66804504;stroke-linecap:butt;stroke-linejoin:miter;stroke-miterlimit:4;stroke-dasharray:none;stroke-opacity:1"
           d="M 281.1906,145.54741 L 295.1971,160.80169"
           id="path4287" />
        <path
           style="fill:none;fill-rule:evenodd;stroke:#ffffff;stroke-width:4.66804504;stroke-linecap:butt;stroke-linejoin:miter;stroke-miterlimit:4;stroke-dasharray:none;stroke-opacity:1"
           d="M 256.78171,192.4896 L 276.91856,196.9771"
           id="path4289" />
        <path
           style="fill:none;fill-rule:evenodd;stroke:#ffffff;stroke-width:4.66804504;stroke-linecap:butt;stroke-linejoin:miter;stroke-miterlimit:4;stroke-dasharray:none;stroke-opacity:1"
           d="M 277.97148,239.37401 L 257.89933,244.14681"
           id="path4291" />
        <path
           style="fill:none;fill-rule:evenodd;stroke:#ffffff;stroke-width:4.66804504;stroke-linecap:butt;stroke-linejoin:miter;stroke-miterlimit:4;stroke-dasharray:none;stroke-opacity:1"
           d="M 298.67139,274.52179 L 285.67495,290.65842"
           id="path4293" />
        <path
           style="fill:none;fill-rule:evenodd;stroke:#f60e0e;stroke-width:6;stroke-linecap:butt;stroke-linejoin:miter;stroke-miterlimit:4;stroke-dasharray:none;stroke-opacity:1"
           d="M 374.11126,315.94648 L 368.68491,295.89619"
           id="path4299" />
        <path
           style="fill:none;fill-rule:evenodd;stroke:#ffffff;stroke-width:2.57991481;stroke-linecap:butt;stroke-linejoin:miter;stroke-miterlimit:4;stroke-dasharray:none;stroke-opacity:1"
           d="M 398.34802,283.28742 L 408.64958,297.99374"
           id="path4301" />
        <path
           style="fill:none;fill-rule:evenodd;stroke:#ffffff;stroke-width:2.6601944;stroke-linecap:butt;stroke-linejoin:miter;stroke-miterlimit:4;stroke-dasharray:none;stroke-opacity:1"
           d="M 388.10839,289.27702 L 396.65685,305.58051"
           id="path4303" />
        <path
           style="fill:none;fill-rule:evenodd;stroke:#ffffff;stroke-width:3;stroke-linecap:butt;stroke-linejoin:miter;stroke-miterlimit:4;stroke-dasharray:none;stroke-opacity:1"
           d="M 439.90731,268.20477 L 422.57739,256.93826"
           id="path4305" />
        <path
           style="fill:none;fill-rule:evenodd;stroke:#ffffff;stroke-width:3;stroke-linecap:butt;stroke-linejoin:miter;stroke-miterlimit:4;stroke-dasharray:none;stroke-opacity:1"
           d="M 431.38885,232.51453 L 451.76924,235.69515"
           id="path4307" />
        <path
           style="fill:none;fill-rule:evenodd;stroke:#ffffff;stroke-width:3;stroke-linecap:butt;stroke-linejoin:miter;stroke-miterlimit:4;stroke-dasharray:none;stroke-opacity:1"
           d="M 427.05566,181.75205 L 445.97324,173.47595"
           id="path4309" />
        <path
           style="fill:none;fill-opacity:1;fill-rule:evenodd;stroke:#ff0000;stroke-width:6;stroke-linecap:butt;stroke-linejoin:miter;stroke-miterlimit:4;stroke-dasharray:none;stroke-opacity:1"
           d="M 377.00531,117.2663 L 371.57896,137.31659"
           id="path4313" />
        <path
           style="fill:none;fill-rule:evenodd;stroke:#ffffff;stroke-width:2.05943155;stroke-linecap:butt;stroke-linejoin:miter;stroke-miterlimit:4;stroke-dasharray:none;stroke-opacity:1"
           d="M 317.28589,125.88243 L 321.62699,136.08985"
           id="path4315" />
        <path
           style="fill:none;fill-rule:evenodd;stroke:#ffffff;stroke-width:2.05943155;stroke-linecap:butt;stroke-linejoin:miter;stroke-miterlimit:4;stroke-dasharray:none;stroke-opacity:1"
           d="M 308.44379,130.19933 L 312.9712,139.73882"
           id="path4317" />
        <path
           style="fill:none;fill-rule:evenodd;stroke:#ffffff;stroke-width:2.05943155;stroke-linecap:butt;stroke-linejoin:miter;stroke-miterlimit:4;stroke-dasharray:none;stroke-opacity:1"
           d="M 300.29975,136.26412 L 305.45148,144.25106"
           id="path4319" />
        <path
           style="fill:none;fill-rule:evenodd;stroke:#ffffff;stroke-width:2.05943155;stroke-linecap:butt;stroke-linejoin:miter;stroke-miterlimit:4;stroke-dasharray:none;stroke-opacity:1"
           d="M 291.9567,142.18096 L 298.58833,149.35388"
           id="path4321" />
        <path
           style="fill:none;fill-rule:evenodd;stroke:#ffffff;stroke-width:2.05943155;stroke-linecap:butt;stroke-linejoin:miter;stroke-miterlimit:4;stroke-dasharray:none;stroke-opacity:1"
           d="M 276.96863,156.39822 L 286.41166,163.43174"
           id="path6261" />
        <path
           style="fill:none;fill-rule:evenodd;stroke:#ffffff;stroke-width:2.05943155;stroke-linecap:butt;stroke-linejoin:miter;stroke-miterlimit:4;stroke-dasharray:none;stroke-opacity:1"
           d="M 271.47392,164.51439 L 280.37072,170.93412"
           id="path6263" />
        <path
           style="fill:none;fill-rule:evenodd;stroke:#ffffff;stroke-width:2.05943155;stroke-linecap:butt;stroke-linejoin:miter;stroke-miterlimit:4;stroke-dasharray:none;stroke-opacity:1"
           d="M 267.11505,172.53394 L 275.83958,178.94684"
           id="path6265" />
        <path
           style="fill:none;fill-rule:evenodd;stroke:#ffffff;stroke-width:2.05943155;stroke-linecap:butt;stroke-linejoin:miter;stroke-miterlimit:4;stroke-dasharray:none;stroke-opacity:1"
           d="M 263.00938,182.67048 L 272.76033,187.63531"
           id="path6267" />
        <path
           style="fill:none;fill-rule:evenodd;stroke:#ffffff;stroke-width:2.11262655;stroke-linecap:butt;stroke-linejoin:miter;stroke-miterlimit:4;stroke-dasharray:none;stroke-opacity:1"
           d="M 258.47024,203.61066 L 270.72122,204.82932"
           id="path6269" />
        <path
           style="fill:none;fill-rule:evenodd;stroke:#ffffff;stroke-width:2.05943155;stroke-linecap:butt;stroke-linejoin:miter;stroke-miterlimit:4;stroke-dasharray:none;stroke-opacity:1"
           d="M 257.72536,213.08071 L 268.93954,214.08854"
           id="path6271" />
        <path
           style="fill:none;fill-rule:evenodd;stroke:#ffffff;stroke-width:2.21358442;stroke-linecap:butt;stroke-linejoin:miter;stroke-miterlimit:4;stroke-dasharray:none;stroke-opacity:1"
           d="M 257.15847,221.97289 L 269.0412,222.77064"
           id="path6275" />
        <path
           style="fill:none;fill-rule:evenodd;stroke:#ffffff;stroke-width:2.11776447;stroke-linecap:butt;stroke-linejoin:miter;stroke-miterlimit:4;stroke-dasharray:none;stroke-opacity:1"
           d="M 258.24366,232.17596 L 270.11281,231.69425"
           id="path6277" />
        <path
           style="fill:none;fill-rule:evenodd;stroke:#ffffff;stroke-width:2.05943155;stroke-linecap:butt;stroke-linejoin:miter;stroke-miterlimit:4;stroke-dasharray:none;stroke-opacity:1"
           d="M 264.62086,254.46513 L 275.78004,250.32255"
           id="path6281" />
        <path
           style="fill:none;fill-rule:evenodd;stroke:#ffffff;stroke-width:2.05943155;stroke-linecap:butt;stroke-linejoin:miter;stroke-miterlimit:4;stroke-dasharray:none;stroke-opacity:1"
           d="M 269.06578,264.13753 L 279.92547,258.47899"
           id="path6283" />
        <path
           style="fill:none;fill-rule:evenodd;stroke:#ffffff;stroke-width:2.05943155;stroke-linecap:butt;stroke-linejoin:miter;stroke-miterlimit:4;stroke-dasharray:none;stroke-opacity:1"
           d="M 273.93774,271.863 L 284.53742,265.16064"
           id="path6285" />
        <path
           style="fill:none;fill-rule:evenodd;stroke:#ffffff;stroke-width:2.05943155;stroke-linecap:butt;stroke-linejoin:miter;stroke-miterlimit:4;stroke-dasharray:none;stroke-opacity:1"
           d="M 280.76436,278.71774 L 290.03283,271.18547"
           id="path6289" />
        <path
           style="fill:none;fill-rule:evenodd;stroke:#ffffff;stroke-width:2.05943155;stroke-linecap:butt;stroke-linejoin:miter;stroke-miterlimit:4;stroke-dasharray:none;stroke-opacity:1"
           d="M 301.84431,283.99949 L 295.58949,291.92341"
           id="path6291" />
        <path
           style="fill:none;fill-rule:evenodd;stroke:#ffffff;stroke-width:2.05943155;stroke-linecap:butt;stroke-linejoin:miter;stroke-miterlimit:4;stroke-dasharray:none;stroke-opacity:1"
           d="M 303.81011,297.50618 L 309.17139,289.94243"
           id="path6295" />
        <path
           style="fill:none;fill-rule:evenodd;stroke:#ffffff;stroke-width:2.05943155;stroke-linecap:butt;stroke-linejoin:miter;stroke-miterlimit:4;stroke-dasharray:none;stroke-opacity:1"
           d="M 312.56687,301.64824 L 317.39202,294.08448"
           id="path6297" />
        <path
           style="fill:none;fill-rule:evenodd;stroke:#ffffff;stroke-width:2.05943155;stroke-linecap:butt;stroke-linejoin:miter;stroke-miterlimit:4;stroke-dasharray:none;stroke-opacity:1"
           d="M 321.14492,305.79027 L 324.7191,298.76681"
           id="path6299" />
        <path
           style="fill:none;fill-rule:evenodd;stroke:#ffffff;stroke-width:2;stroke-linecap:butt;stroke-linejoin:miter;stroke-miterlimit:4;stroke-dasharray:none;stroke-opacity:1"
           d="M 419.62431,267.4483 L 426.95531,273.09796"
           id="path6307" />
        <path
           style="fill:none;fill-rule:evenodd;stroke:#ffffff;stroke-width:2.05943155;stroke-linecap:butt;stroke-linejoin:miter;stroke-miterlimit:4;stroke-dasharray:none;stroke-opacity:1"
           d="M 431.57608,247.49701 L 440.78575,251.04554"
           id="path6309" />
        <path
           style="fill:none;fill-rule:evenodd;stroke:#ffffff;stroke-width:3;stroke-linecap:butt;stroke-linejoin:miter;stroke-miterlimit:4;stroke-dasharray:none;stroke-opacity:1"
           d="M 432.61746,210.60801 L 454.90975,207.69955"
           id="path6311" />
        <path
           style="fill:none;fill-rule:evenodd;stroke:#ffffff;stroke-width:2.05943155;stroke-linecap:butt;stroke-linejoin:miter;stroke-miterlimit:4;stroke-dasharray:none;stroke-opacity:1"
           d="M 394.73044,288.74331 L 399.50832,296.98615"
           id="path6313" />
        <path
           style="fill:none;fill-rule:evenodd;stroke:#ffffff;stroke-width:2.05943155;stroke-linecap:butt;stroke-linejoin:miter;stroke-miterlimit:4;stroke-dasharray:none;stroke-opacity:1"
           d="M 425.09393,154.68004 L 416.96774,161.7771"
           id="path6317" />
        <path
           style="text-align:start;line-height:125%;writing-mode:lr-tb;text-anchor:start;fill:#ffffff"
           d="M 324.22832,330.31794 L 322.78585,330.31794 L 322.78585,321.05517 C 322.43859,321.38897 321.98313,321.72277 321.4195,322.05655 C 320.85586,322.39035 320.34965,322.64069 319.90089,322.80759 L 319.90089,321.40242 C 320.7076,321.02018 321.41282,320.55719 322.01653,320.01341 C 322.62023,319.46967 323.04763,318.94205 323.29874,318.43058 L 324.22832,318.43058 L 324.22832,330.31794 z M 327.93069,324.47924 C 327.93069,323.07947 328.07361,321.95292 328.35943,321.0996 C 328.64525,320.24627 329.06998,319.5881 329.63362,319.12509 C 330.19725,318.6621 330.90647,318.4306 331.76128,318.43058 C 332.39169,318.4306 332.94465,318.55846 333.42013,318.81418 C 333.89561,319.06992 334.28829,319.4387 334.59815,319.92055 C 334.90801,320.4024 335.1511,320.98923 335.32741,321.68104 C 335.50371,322.37286 335.59185,323.3056 335.59187,324.47924 C 335.59185,325.86827 335.45028,326.98944 335.16713,327.84275 C 334.88397,328.69609 334.46057,329.3556 333.89695,329.82129 C 333.33331,330.28699 332.62142,330.51984 331.76128,330.51984 C 330.62866,330.51984 329.73914,330.11067 329.09269,329.29234 C 328.31803,328.30711 327.93069,326.70275 327.93069,324.47924 L 327.93069,324.47924 z M 329.41324,324.47924 C 329.41324,326.42279 329.63897,327.71625 330.09041,328.3596 C 330.54184,329.00296 331.0988,329.32464 331.76128,329.32464 C 332.42375,329.32464 332.9807,329.00161 333.43216,328.35556 C 333.88359,327.70952 334.10931,326.41741 334.10931,324.47924 C 334.10931,322.53034 333.88359,321.23553 333.43216,320.59485 C 332.9807,319.95421 332.4184,319.63387 331.74525,319.63386 C 331.08278,319.63387 330.55386,319.91651 330.15852,320.4818 C 329.66167,321.20324 329.41324,322.53571 329.41324,324.47924 L 329.41324,324.47924 z"
           id="flowRoot6379" />
        <path
           style="text-align:start;line-height:125%;writing-mode:lr-tb;text-anchor:start;fill:#ffffff"
           d="M 271.42037,302.99095 L 269.9779,302.99095 L 269.9779,293.72819 C 269.63064,294.06198 269.17518,294.39578 268.61155,294.72956 C 268.04791,295.06336 267.5417,295.3137 267.09294,295.4806 L 267.09294,294.07543 C 267.89965,293.69319 268.60487,293.2302 269.20858,292.68643 C 269.81228,292.14268 270.23968,291.61506 270.49079,291.10359 L 271.42037,291.10359 L 271.42037,302.99095 z M 275.12274,299.8899 L 276.63735,299.76069 C 276.74954,300.50366 277.00999,301.06223 277.4187,301.43639 C 277.82739,301.81057 278.32023,301.99765 278.89723,301.99765 C 279.59176,301.99765 280.17944,301.73384 280.66026,301.20624 C 281.14108,300.67863 281.38149,299.97875 281.38151,299.10657 C 281.38149,298.27747 281.15044,297.62334 280.68831,297.14418 C 280.22618,296.66503 279.62113,296.42545 278.87319,296.42545 C 278.40839,296.42545 277.98899,296.53178 277.61503,296.74445 C 277.24105,296.95711 276.94721,297.23302 276.73351,297.57219 L 275.37918,297.39452 L 276.51715,291.31357 L 282.35918,291.31357 L 282.35918,292.70258 L 277.67113,292.70258 L 277.03804,295.88438 C 277.74325,295.38908 278.48318,295.14142 279.25785,295.14142 C 280.28361,295.14142 281.1491,295.49945 281.85432,296.21549 C 282.55952,296.93153 282.91212,297.85216 282.91214,298.97735 C 282.91212,300.04873 282.60226,300.97473 281.98254,301.75539 C 281.22923,302.71369 280.2008,303.19285 278.89723,303.19285 C 277.82873,303.19285 276.95656,302.89136 276.28073,302.28838 C 275.6049,301.6854 275.21891,300.88591 275.12274,299.8899 L 275.12274,299.8899 z"
           id="flowRoot6417" />
        <path
           style="text-align:start;line-height:125%;writing-mode:lr-tb;text-anchor:start;fill:#ffffff"
           d="M 245.02322,250.77527 L 245.02322,252.17235 L 237.25786,252.17235 C 237.24718,251.82242 237.30327,251.48593 237.42615,251.1629 C 237.62382,250.62991 237.94036,250.10499 238.37578,249.58815 C 238.81119,249.0713 239.44027,248.47371 240.26303,247.79535 C 241.53989,246.74014 242.4027,245.9043 242.85148,245.28786 C 243.30025,244.67142 243.52463,244.08863 243.52463,243.53948 C 243.52463,242.96343 243.32027,242.47755 242.91158,242.08183 C 242.50287,241.68613 241.96996,241.48828 241.31284,241.48827 C 240.6183,241.48828 240.06268,241.69825 239.64597,242.11817 C 239.22925,242.53811 239.01822,243.11956 239.01287,243.8625 L 237.53033,243.70908 C 237.63184,242.59464 238.01382,241.74535 238.6763,241.1612 C 239.33876,240.57707 240.22829,240.28501 241.34488,240.28499 C 242.47216,240.28501 243.36435,240.59996 244.02148,241.22985 C 244.67861,241.85976 245.00717,242.6404 245.00719,243.57179 C 245.00717,244.04556 244.91101,244.51126 244.71869,244.96888 C 244.52635,245.42651 244.20713,245.90834 243.76103,246.41442 C 243.31494,246.9205 242.57367,247.615 241.53722,248.49794 C 240.67172,249.23013 240.1161,249.72678 239.87035,249.98789 C 239.6246,250.24901 239.42158,250.51146 239.26131,250.77527 L 245.02322,250.77527 z M 246.57788,246.33366 C 246.57788,244.93388 246.7208,243.80733 247.00662,242.95401 C 247.29244,242.10068 247.71717,241.44251 248.28081,240.97951 C 248.84444,240.51651 249.55366,240.28501 250.40847,240.28499 C 251.03888,240.28501 251.59184,240.41287 252.06732,240.66859 C 252.5428,240.92433 252.93548,241.29311 253.24534,241.77496 C 253.5552,242.25681 253.79829,242.84364 253.9746,243.53545 C 254.1509,244.22727 254.23904,245.16001 254.23906,246.33366 C 254.23904,247.72268 254.09747,248.84385 253.81432,249.69717 C 253.53116,250.55051 253.10776,251.21001 252.54414,251.6757 C 251.9805,252.1414 251.26861,252.37425 250.40847,252.37425 C 249.27585,252.37425 248.38633,251.96508 247.73988,251.14675 C 246.96522,250.16152 246.57788,248.55716 246.57788,246.33366 L 246.57788,246.33366 z M 248.06043,246.33366 C 248.06043,248.2772 248.28616,249.57066 248.7376,250.21401 C 249.18903,250.85737 249.74599,251.17905 250.40847,251.17905 C 251.07094,251.17905 251.62789,250.85602 252.07935,250.20997 C 252.53078,249.56393 252.7565,248.27183 252.7565,246.33366 C 252.7565,244.38475 252.53078,243.08994 252.07935,242.44927 C 251.62789,241.80862 251.06559,241.48828 250.39244,241.48827 C 249.72997,241.48828 249.20105,241.77092 248.80571,242.33621 C 248.30886,243.05765 248.06043,244.39012 248.06043,246.33366 L 248.06043,246.33366 z"
           id="flowRoot6427" />
        <path
           style="text-align:start;line-height:125%;writing-mode:lr-tb;text-anchor:start;fill:#ffffff"
           d="M 243.12022,191.80652 L 243.12022,193.2036 L 235.35486,193.2036 C 235.34418,192.85367 235.40027,192.51718 235.52315,192.19415 C 235.72082,191.66116 236.03736,191.13624 236.47278,190.6194 C 236.90819,190.10255 237.53727,189.50496 238.36003,188.8266 C 239.63689,187.77139 240.49971,186.93555 240.94848,186.31911 C 241.39725,185.70267 241.62163,185.11988 241.62163,184.57073 C 241.62163,183.99468 241.41727,183.5088 241.00858,183.11308 C 240.59987,182.71738 240.06696,182.51953 239.40984,182.51952 C 238.7153,182.51953 238.15968,182.7295 237.74297,183.14942 C 237.32625,183.56936 237.11522,184.15081 237.10987,184.89375 L 235.62733,184.74033 C 235.72884,183.62589 236.11082,182.7766 236.7733,182.19245 C 237.43576,181.60832 238.32529,181.31626 239.44188,181.31624 C 240.56916,181.31626 241.46135,181.63121 242.11848,182.2611 C 242.77561,182.89101 243.10417,183.67165 243.10419,184.60304 C 243.10417,185.07681 243.00801,185.54251 242.81569,186.00013 C 242.62335,186.45776 242.30413,186.93959 241.85804,187.44567 C 241.41194,187.95175 240.67067,188.64625 239.63422,189.52919 C 238.76872,190.26138 238.2131,190.75803 237.96735,191.01914 C 237.7216,191.28026 237.51858,191.54271 237.35831,191.80652 L 243.12022,191.80652 z M 244.67488,190.10255 L 246.18949,189.97334 C 246.30168,190.71631 246.56213,191.27488 246.97084,191.64904 C 247.37953,192.02322 247.87237,192.2103 248.44937,192.2103 C 249.1439,192.2103 249.73158,191.94649 250.2124,191.41889 C 250.69322,190.89128 250.93363,190.1914 250.93365,189.31922 C 250.93363,188.49012 250.70258,187.83599 250.24045,187.35683 C 249.77832,186.87768 249.17327,186.6381 248.42533,186.6381 C 247.96053,186.6381 247.54113,186.74443 247.16717,186.9571 C 246.79319,187.16976 246.49935,187.44567 246.28565,187.78484 L 244.93132,187.60717 L 246.06929,181.52622 L 251.91132,181.52622 L 251.91132,182.91523 L 247.22327,182.91523 L 246.59018,186.09703 C 247.29539,185.60173 248.03532,185.35407 248.80999,185.35407 C 249.83575,185.35407 250.70124,185.7121 251.40646,186.42814 C 252.11166,187.14418 252.46426,188.06481 252.46428,189.19 C 252.46426,190.26138 252.1544,191.18738 251.53468,191.96804 C 250.78137,192.92634 249.75294,193.4055 248.44937,193.4055 C 247.38087,193.4055 246.5087,193.10401 245.83287,192.50103 C 245.15704,191.89805 244.77105,191.09856 244.67488,190.10255 L 244.67488,190.10255 z"
           id="flowRoot6437" />
        <path
           style="text-align:start;line-height:125%;writing-mode:lr-tb;text-anchor:start;fill:#ffffff"
           d="M 263.14055,141.1774 L 264.58302,140.98359 C 264.74864,141.80731 265.03045,142.40086 265.42848,142.76426 C 265.82649,143.12767 266.31132,143.30937 266.88297,143.30937 C 267.56146,143.30937 268.13446,143.07248 268.60193,142.59871 C 269.06939,142.12495 269.30313,141.53811 269.30314,140.83822 C 269.30313,140.17064 269.08676,139.62014 268.65402,139.18676 C 268.22128,138.75337 267.67099,138.53666 267.00319,138.53666 C 266.7307,138.53666 266.39146,138.5905 265.98543,138.69818 L 266.14571,137.42222 C 266.24187,137.43299 266.31933,137.43838 266.3781,137.43837 C 266.99249,137.43838 267.54545,137.27687 268.03695,136.95383 C 268.52846,136.63081 268.77422,136.13281 268.77423,135.45984 C 268.77422,134.92685 268.59524,134.48538 268.23731,134.13543 C 267.87935,133.7855 267.41723,133.61053 266.85092,133.61051 C 266.28995,133.61053 265.82248,133.78818 265.44851,134.14351 C 265.07453,134.49885 264.83412,135.03184 264.72727,135.74248 L 263.2848,135.48406 C 263.46109,134.50961 263.86178,133.75454 264.48685,133.21885 C 265.11193,132.68318 265.88926,132.41533 266.81887,132.41531 C 267.45997,132.41533 268.05032,132.55397 268.58991,132.83121 C 269.1295,133.10849 269.54221,133.48669 269.82803,133.96584 C 270.11385,134.44502 270.25677,134.95378 270.25677,135.49214 C 270.25677,136.0036 270.12054,136.4693 269.84807,136.88924 C 269.5756,137.30917 269.17224,137.64297 268.638,137.89061 C 269.33251,138.05213 269.87211,138.38726 270.25677,138.89603 C 270.64143,139.40479 270.83376,140.04143 270.83377,140.80592 C 270.83376,141.8396 270.45978,142.71582 269.71183,143.43455 C 268.96387,144.15327 268.01826,144.51265 266.87497,144.51265 C 265.84386,144.51265 264.98771,144.20308 264.30655,143.58395 C 263.62538,142.96481 263.23671,142.16263 263.14055,141.1774 L 263.14055,141.1774 z M 272.26823,138.46398 C 272.26823,137.0642 272.41115,135.93765 272.69697,135.08433 C 272.98279,134.231 273.40752,133.57283 273.97116,133.10983 C 274.53479,132.64683 275.24401,132.41533 276.09882,132.41531 C 276.72923,132.41533 277.28219,132.54319 277.75767,132.79891 C 278.23315,133.05466 278.62583,133.42343 278.93569,133.90528 C 279.24555,134.38713 279.48864,134.97396 279.66495,135.66577 C 279.84125,136.35759 279.92939,137.29033 279.92941,138.46398 C 279.92939,139.853 279.78782,140.97417 279.50467,141.82749 C 279.22151,142.68083 278.79811,143.34033 278.23449,143.80602 C 277.67085,144.27172 276.95896,144.50457 276.09882,144.50457 C 274.9662,144.50457 274.07668,144.0954 273.43023,143.27707 C 272.65557,142.29184 272.26823,140.68748 272.26823,138.46398 L 272.26823,138.46398 z M 273.75078,138.46398 C 273.75078,140.40752 273.97651,141.70098 274.42795,142.34433 C 274.87938,142.98769 275.43634,143.30937 276.09882,143.30937 C 276.76129,143.30937 277.31824,142.98634 277.7697,142.34029 C 278.22113,141.69425 278.44685,140.40215 278.44685,138.46398 C 278.44685,136.51507 278.22113,135.22026 277.7697,134.57959 C 277.31824,133.93894 276.75594,133.61861 276.08279,133.61859 C 275.42032,133.61861 274.8914,133.90124 274.49606,134.46653 C 273.99921,135.18797 273.75078,136.52044 273.75078,138.46398 L 273.75078,138.46398 z"
           id="flowRoot6447" />
        <path
           style="text-align:start;line-height:125%;writing-mode:lr-tb;text-anchor:start;fill:#ffffff"
           d="M 314.04553,109.05621 L 315.488,108.8624 C 315.65362,109.68612 315.93543,110.27967 316.33346,110.64307 C 316.73147,111.00648 317.2163,111.18819 317.78795,111.18819 C 318.46644,111.18819 319.03944,110.95129 319.50691,110.47752 C 319.97437,110.00376 320.20811,109.41692 320.20812,108.71703 C 320.20811,108.04945 319.99174,107.49895 319.559,107.06557 C 319.12626,106.63218 318.57597,106.41548 317.90817,106.41548 C 317.63568,106.41548 317.29644,106.46931 316.89041,106.57699 L 317.05069,105.30103 C 317.14685,105.3118 317.22431,105.31719 317.28308,105.31718 C 317.89747,105.31719 318.45043,105.15568 318.94193,104.83264 C 319.43344,104.50962 319.6792,104.01162 319.67921,103.33865 C 319.6792,102.80566 319.50022,102.36419 319.14229,102.01424 C 318.78433,101.66431 318.32221,101.48934 317.7559,101.48932 C 317.19493,101.48934 316.72746,101.667 316.35349,102.02232 C 315.97951,102.37766 315.7391,102.91065 315.63225,103.62129 L 314.18978,103.36287 C 314.36607,102.38842 314.76676,101.63335 315.39183,101.09766 C 316.01691,100.56199 316.79424,100.29414 317.72385,100.29412 C 318.36495,100.29414 318.9553,100.43278 319.49489,100.71003 C 320.03448,100.9873 320.44719,101.3655 320.73301,101.84465 C 321.01883,102.32382 321.16175,102.83259 321.16175,103.37095 C 321.16175,103.88241 321.02552,104.34811 320.75305,104.76805 C 320.48058,105.18798 320.07722,105.52178 319.54298,105.76942 C 320.23749,105.93094 320.77709,106.26607 321.16175,106.77484 C 321.54641,107.2836 321.73874,107.92024 321.73875,108.68473 C 321.73874,109.71841 321.36476,110.59463 320.61681,111.31336 C 319.86885,112.03208 318.92324,112.39146 317.77995,112.39146 C 316.74884,112.39146 315.89269,112.08189 315.21153,111.46276 C 314.53036,110.84362 314.14169,110.04144 314.04553,109.05621 L 314.04553,109.05621 z M 323.17321,109.08043 L 324.68782,108.95122 C 324.80001,109.6942 325.06046,110.25276 325.46917,110.62692 C 325.87786,111.0011 326.3707,111.18819 326.9477,111.18819 C 327.64223,111.18819 328.22991,110.92437 328.71073,110.39677 C 329.19155,109.86916 329.43196,109.16928 329.43198,108.2971 C 329.43196,107.468 329.20091,106.81387 328.73878,106.33471 C 328.27665,105.85556 327.6716,105.61598 326.92366,105.61598 C 326.45886,105.61598 326.03946,105.72231 325.6655,105.93498 C 325.29152,106.14764 324.99768,106.42355 324.78398,106.76272 L 323.42965,106.58505 L 324.56762,100.5041 L 330.40965,100.5041 L 330.40965,101.89311 L 325.7216,101.89311 L 325.08851,105.07491 C 325.79372,104.57961 326.53365,104.33195 327.30832,104.33195 C 328.33408,104.33195 329.19957,104.68998 329.90479,105.40602 C 330.60999,106.12206 330.96259,107.04269 330.96261,108.16789 C 330.96259,109.23926 330.65273,110.16527 330.03301,110.94592 C 329.2797,111.90422 328.25127,112.38339 326.9477,112.38339 C 325.8792,112.38339 325.00703,112.08189 324.3312,111.47891 C 323.65537,110.87593 323.26938,110.07644 323.17321,109.08043 L 323.17321,109.08043 z"
           id="flowRoot6457" />
        <path
           style="fill:none;fill-rule:evenodd;stroke:#ffffff;stroke-width:2.05943155;stroke-linecap:butt;stroke-linejoin:miter;stroke-miterlimit:4;stroke-dasharray:none;stroke-opacity:1"
           d="M 390.18271,140.42722 L 394.82514,130.65272"
           id="path25487" />
        <path
           style="font-size:10px;font-style:normal;font-variant:normal;font-weight:bold;font-stretch:normal;text-align:center;line-height:100%;writing-mode:lr-tb;text-anchor:middle;fill:#ffffff;fill-opacity:1;fill-rule:nonzero;stroke:none;stroke-width:1px;stroke-linecap:butt;stroke-linejoin:miter;marker:none;marker-start:none;marker-mid:none;marker-end:none;stroke-miterlimit:4;stroke-dashoffset:0;stroke-opacity:1;visibility:visible;display:inline;overflow:visible;enable-background:accumulate;font-family:Arial;-inkscape-font-specification:Arial Bold"
           d="M 371.82198,324.88961 L 373.1501,324.72848 C 373.19242,325.06702 373.30635,325.32581 373.4919,325.50485 C 373.67744,325.68389 373.90205,325.7734 374.16573,325.7734 C 374.44893,325.7734 374.68737,325.66598 374.88106,325.45114 C 375.07474,325.23629 375.17158,324.94658 375.17159,324.582 C 375.17158,324.23695 375.07881,323.96351 374.89327,323.76168 C 374.70772,323.55986 374.48148,323.45895 374.21456,323.45895 C 374.03877,323.45895 373.82881,323.49313 373.58467,323.56149 L 373.73604,322.44332 C 374.10713,322.45309 374.39033,322.37253 374.58565,322.20163 C 374.78096,322.03073 374.87862,321.80368 374.87862,321.52047 C 374.87862,321.27959 374.807,321.08754 374.66378,320.9443 C 374.52054,320.80108 374.33011,320.72946 374.09249,320.72946 C 373.85811,320.72946 373.65791,320.81084 373.4919,320.9736 C 373.32588,321.13636 373.22497,321.37399 373.18917,321.68649 L 371.92452,321.47165 C 372.01241,321.03871 372.14506,320.69284 372.32247,320.43405 C 372.49987,320.17526 372.74727,319.97181 373.06465,319.8237 C 373.38204,319.67559 373.73767,319.60154 374.13155,319.60153 C 374.80537,319.60154 375.34574,319.81638 375.75264,320.24606 C 376.08792,320.59763 376.25557,320.99476 376.25557,321.43747 C 376.25557,322.06573 375.91214,322.56703 375.2253,322.94137 C 375.63545,323.02927 375.96341,323.22621 376.20919,323.53219 C 376.45495,323.83818 376.57783,324.20765 376.57784,324.64059 C 376.57783,325.26885 376.34834,325.80433 375.88936,326.24704 C 375.43037,326.68974 374.85908,326.9111 374.17549,326.9111 C 373.52771,326.9111 372.9906,326.72474 372.56417,326.35202 C 372.13773,325.9793 371.89034,325.49183 371.82198,324.88961 L 371.82198,324.88961 z M 366.89034,336.78903 L 366.89034,329.63082 L 369.20967,329.63082 C 370.08858,329.63083 370.66149,329.66664 370.92842,329.73825 C 371.33857,329.84568 371.682,330.07924 371.9587,330.43893 C 372.23538,330.79864 372.37373,331.26332 372.37374,331.83297 C 372.37373,332.27243 372.29398,332.6419 372.13448,332.94137 C 371.97497,333.24085 371.77233,333.47604 371.52657,333.64694 C 371.28079,333.81784 371.03096,333.93096 370.77706,333.98629 C 370.432,334.05466 369.93233,334.08884 369.27803,334.08883 L 368.33565,334.08883 L 368.33565,336.78903 L 366.89034,336.78903 z M 368.33565,330.84176 L 368.33565,332.87301 L 369.12667,332.87301 C 369.69632,332.87302 370.07718,332.83558 370.26924,332.76071 C 370.4613,332.68584 370.61185,332.56865 370.7209,332.40915 C 370.82995,332.24964 370.88447,332.0641 370.88448,331.8525 C 370.88447,331.59209 370.80798,331.37725 370.65499,331.20797 C 370.50199,331.03871 370.3083,330.93291 370.07393,330.89059 C 369.9014,330.85804 369.55472,330.84177 369.03389,330.84176 L 368.33565,330.84176 z M 373.20381,334.45993 L 374.61006,334.32321 C 374.6947,334.79521 374.86641,335.14189 375.1252,335.36325 C 375.38399,335.5846 375.73311,335.69528 376.17256,335.69528 C 376.63806,335.69528 376.9888,335.59681 377.22481,335.39987 C 377.46081,335.20293 377.57881,334.97262 377.57881,334.70895 C 377.57881,334.53968 377.52917,334.39564 377.42989,334.27682 C 377.3306,334.15801 377.15726,334.05466 376.90987,333.96676 C 376.74059,333.90817 376.35485,333.804 375.75264,333.65426 C 374.9779,333.46221 374.43428,333.22621 374.12178,332.94625 C 373.68233,332.55238 373.4626,332.07224 373.4626,331.50582 C 373.4626,331.14125 373.56596,330.80026 373.77266,330.48288 C 373.97937,330.1655 374.27722,329.9238 374.66622,329.75778 C 375.05521,329.59177 375.52478,329.50876 376.07491,329.50875 C 376.97334,329.50876 377.64961,329.7057 378.10372,330.09957 C 378.55781,330.49346 378.79626,331.01918 378.81905,331.67672 L 377.37374,331.7402 C 377.31188,331.37237 377.17923,331.10788 376.97579,330.94674 C 376.77233,330.78562 376.46716,330.70505 376.06026,330.70504 C 375.64034,330.70505 375.31156,330.79131 375.07393,330.96383 C 374.92093,331.07452 374.84444,331.22263 374.84444,331.40817 C 374.84444,331.57744 374.91605,331.7223 375.05928,331.84274 C 375.24157,331.99574 375.68428,332.15524 376.38741,332.32125 C 377.09053,332.48727 377.61055,332.65899 377.94747,332.83639 C 378.28438,333.0138 378.54805,333.25632 378.73848,333.56393 C 378.92891,333.87155 379.02412,334.2516 379.02413,334.70407 C 379.02412,335.11422 378.91019,335.49834 378.68233,335.85641 C 378.45446,336.21448 378.13219,336.4806 377.71553,336.65475 C 377.29886,336.8289 376.77966,336.91598 376.15792,336.91598 C 375.25297,336.91598 374.55798,336.70683 374.07295,336.28854 C 373.58793,335.87025 373.29821,335.26071 373.20381,334.45993 L 373.20381,334.45993 z M 380.20577,336.78903 L 380.20577,329.63082 L 381.65108,329.63082 L 381.65108,336.78903 L 380.20577,336.78903 z"
           id="flowRoot2657" />
        <path
           transform="translate(70.462174,79.263308)"
           style="font-size:10px;font-style:normal;font-variant:normal;font-weight:normal;font-stretch:normal;text-align:center;line-height:100%;writing-mode:lr-tb;text-anchor:middle;fill:#ffffff;fill-opacity:1;fill-rule:nonzero;stroke:none;stroke-width:1px;stroke-linecap:butt;stroke-linejoin:miter;marker:none;marker-start:none;marker-mid:none;marker-end:none;stroke-miterlimit:4;stroke-dashoffset:0;stroke-opacity:1;visibility:visible;display:inline;overflow:visible;enable-background:accumulate;font-family:Arial;-inkscape-font-specification:Arial"
           d="M 302.30176,22.590838 L 301.42285,22.590838 L 301.42285,16.990252 C 301.21126,17.19208 300.93375,17.393903 300.59033,17.595721 C 300.24691,17.797548 299.93848,17.948915 299.66504,18.049822 L 299.66504,17.200213 C 300.15657,16.969099 300.58626,16.689151 300.9541,16.360369 C 301.32194,16.0316 301.58235,15.712589 301.73535,15.403338 L 302.30176,15.403338 L 302.30176,22.590838 z M 305.91016,18.709002 C 305.54557,18.575542 305.27539,18.385113 305.09961,18.137713 C 304.92383,17.890322 304.83594,17.594098 304.83594,17.249041 C 304.83594,16.728213 305.02311,16.290388 305.39746,15.935564 C 305.77181,15.580754 306.26985,15.403345 306.8916,15.403338 C 307.5166,15.403345 308.01953,15.584823 308.40039,15.947771 C 308.78125,16.310733 308.97167,16.752628 308.97168,17.273455 C 308.97167,17.605491 308.8846,17.894391 308.71045,18.140154 C 308.53629,18.385927 308.27181,18.575542 307.91699,18.709002 C 308.35644,18.852235 308.69091,19.083354 308.92041,19.402361 C 309.1499,19.721375 309.26464,20.102234 309.26465,20.544939 C 309.26464,21.15692 309.04817,21.671242 308.61523,22.087908 C 308.18229,22.504575 307.61263,22.712908 306.90625,22.712908 C 306.19987,22.712908 305.63021,22.503761 305.19727,22.085467 C 304.76432,21.667173 304.54785,21.145527 304.54785,20.520525 C 304.54785,20.055033 304.66585,19.665222 304.90186,19.351092 C 305.13786,19.036968 305.47396,18.822938 305.91016,18.709002 L 305.91016,18.709002 z M 305.73438,17.219744 C 305.73437,17.558291 305.84342,17.834983 306.06152,18.049822 C 306.27962,18.26467 306.56282,18.372092 306.91113,18.372088 C 307.24967,18.372092 307.52718,18.265484 307.74365,18.052264 C 307.96012,17.839052 308.06836,17.577822 308.06836,17.268572 C 308.06836,16.946312 307.95686,16.675316 307.73389,16.455584 C 307.5109,16.235864 307.2334,16.126001 306.90137,16.125994 C 306.56608,16.126001 306.28776,16.233422 306.06641,16.44826 C 305.84505,16.663109 305.73437,16.920271 305.73438,17.219744 L 305.73438,17.219744 z M 305.45117,20.525408 C 305.45117,20.776061 305.51058,21.018574 305.62939,21.252947 C 305.74821,21.487323 305.9248,21.668801 306.15918,21.797381 C 306.39355,21.925962 306.64583,21.990252 306.91602,21.990252 C 307.33593,21.990252 307.68261,21.855161 307.95605,21.584978 C 308.22949,21.314797 308.36621,20.971373 308.36621,20.554705 C 308.36621,20.13153 308.22542,19.781596 307.94385,19.5049 C 307.66227,19.228211 307.30989,19.089865 306.88672,19.089861 C 306.4733,19.089865 306.13069,19.226583 305.85889,19.500018 C 305.58708,19.773458 305.45117,20.115254 305.45117,20.525408 L 305.45117,20.525408 z M 310.61719,22.590838 L 310.61719,21.589861 L 311.61816,21.589861 L 311.61816,22.590838 L 310.61719,22.590838 z M 312.89746,20.715838 L 313.82031,20.637713 C 313.88867,21.086933 314.04736,21.424661 314.29639,21.650896 C 314.54541,21.877134 314.8457,21.990252 315.19727,21.990252 C 315.62044,21.990252 315.97851,21.830747 316.27148,21.511736 C 316.56445,21.192727 316.71093,20.769551 316.71094,20.242205 C 316.71093,19.740906 316.57015,19.345398 316.28857,19.055682 C 316.007,18.765972 315.63834,18.621115 315.18262,18.621111 C 314.89941,18.621115 314.64388,18.685406 314.41602,18.813982 C 314.18815,18.942567 314.00911,19.109396 313.87891,19.314471 L 313.05371,19.207049 L 313.74707,15.530291 L 317.30664,15.530291 L 317.30664,16.370135 L 314.4502,16.370135 L 314.06445,18.293963 C 314.49414,17.994488 314.94498,17.844749 315.41699,17.844744 C 316.04199,17.844749 316.56933,18.06122 316.99902,18.494158 C 317.42871,18.927104 317.64355,19.483745 317.64355,20.16408 C 317.64355,20.811868 317.45475,21.371764 317.07715,21.843768 C 316.61816,22.423195 315.99153,22.712908 315.19727,22.712908 C 314.54622,22.712908 314.01481,22.530617 313.60303,22.166033 C 313.19124,21.801451 312.95605,21.318053 312.89746,20.715838 L 312.89746,20.715838 z M 301.01758,32.590838 L 301.01758,25.432635 L 303.71777,25.432635 C 304.19303,25.432642 304.55599,25.455428 304.80664,25.500994 C 305.1582,25.559595 305.45279,25.671086 305.69043,25.835467 C 305.92805,25.999861 306.1193,26.230167 306.26416,26.526385 C 306.40901,26.822614 306.48144,27.148135 306.48145,27.502947 C 306.48144,28.111676 306.28775,28.626812 305.90039,29.048357 C 305.51302,29.46991 304.81315,29.680684 303.80078,29.680682 L 301.96484,29.680682 L 301.96484,32.590838 L 301.01758,32.590838 z M 301.96484,28.835955 L 303.81543,28.835955 C 304.4274,28.835959 304.86197,28.722027 305.11914,28.494158 C 305.3763,28.266298 305.50488,27.94566 305.50488,27.532244 C 305.50488,27.23277 305.42919,26.976423 305.27783,26.763201 C 305.12646,26.549991 304.92708,26.409203 304.67969,26.340838 C 304.52018,26.298526 304.22558,26.277368 303.7959,26.277361 L 301.96484,26.277361 L 301.96484,28.835955 z M 307.375,30.291033 L 308.26855,30.212908 C 308.31087,30.570983 308.40934,30.864765 308.56396,31.094256 C 308.71859,31.323749 308.95866,31.509296 309.28418,31.650896 C 309.6097,31.792499 309.97591,31.863299 310.38281,31.863299 C 310.74414,31.863299 311.06315,31.809589 311.33984,31.702166 C 311.61653,31.594745 311.82242,31.447447 311.95752,31.260271 C 312.09261,31.073098 312.16015,30.868834 312.16016,30.647478 C 312.16015,30.422871 312.09505,30.226745 311.96484,30.0591 C 311.83463,29.891459 311.61979,29.750671 311.32031,29.636736 C 311.12825,29.561869 310.70345,29.445496 310.0459,29.287615 C 309.38834,29.129741 308.92773,28.980815 308.66406,28.840838 C 308.32226,28.661805 308.06754,28.439638 307.8999,28.174334 C 307.73226,27.909039 307.64844,27.612002 307.64844,27.283221 C 307.64844,26.921898 307.75098,26.584171 307.95605,26.270037 C 308.16113,25.955916 308.46061,25.717472 308.85449,25.554705 C 309.24837,25.391952 309.6862,25.310572 310.16797,25.310564 C 310.69856,25.310572 311.1665,25.396021 311.57178,25.566912 C 311.97705,25.737817 312.28873,25.989282 312.50684,26.321307 C 312.72493,26.653344 312.84212,27.02932 312.8584,27.449236 L 311.9502,27.517596 C 311.90136,27.065127 311.73616,26.723331 311.45459,26.492205 C 311.17301,26.261092 310.75716,26.145532 310.20703,26.145525 C 309.63411,26.145532 309.21663,26.250512 308.95459,26.460467 C 308.69254,26.670434 308.56152,26.923526 308.56152,27.219744 C 308.56152,27.476911 308.6543,27.688499 308.83984,27.85451 C 309.02213,28.02053 309.49821,28.190614 310.26807,28.364764 C 311.03792,28.538921 311.56608,28.691102 311.85254,28.821307 C 312.2692,29.013367 312.57682,29.256694 312.77539,29.551287 C 312.97395,29.845886 313.07324,30.185241 313.07324,30.569353 C 313.07324,30.950214 312.96419,31.309101 312.74609,31.646014 C 312.52799,31.982928 312.21468,32.244972 311.80615,32.432146 C 311.39762,32.619321 310.93782,32.712908 310.42676,32.712908 C 309.77897,32.712908 309.23616,32.618507 308.79834,32.429705 C 308.36051,32.240903 308.01709,31.956887 307.76807,31.577654 C 307.51904,31.198424 307.38802,30.769551 307.375,30.291033 L 307.375,30.291033 z M 314.53809,32.590838 L 314.53809,25.432635 L 315.48535,25.432635 L 315.48535,32.590838 L 314.53809,32.590838 z"
           id="flowRoot2668" />
        <path
           style="fill:none;fill-rule:evenodd;stroke:#ffffff;stroke-width:3;stroke-linecap:butt;stroke-linejoin:miter;stroke-miterlimit:4;stroke-dasharray:none;stroke-opacity:1"
           d="M 414.75516,133.29771 L 403.24288,150.54094"
           id="path4311" />
        <path
           transform="translate(11.28977,78.017573)"
           style="font-size:14px;font-style:normal;font-variant:normal;font-weight:normal;font-stretch:normal;text-align:start;line-height:100%;writing-mode:lr-tb;text-anchor:start;fill:#ffffff;fill-opacity:1;fill-rule:nonzero;stroke:none;stroke-width:1px;stroke-linecap:butt;stroke-linejoin:miter;marker:none;marker-start:none;marker-mid:none;marker-end:none;stroke-miterlimit:4;stroke-dashoffset:0;stroke-opacity:1;visibility:visible;display:inline;overflow:visible;enable-background:accumulate;font-family:Arial;-inkscape-font-specification:Arial"
           d="M 406.34082,50.795923 L 405.11035,50.795923 L 405.11035,42.955103 C 404.81412,43.237662 404.42562,43.520214 403.94482,43.802759 C 403.46403,44.085318 403.03222,44.297232 402.64941,44.438501 L 402.64941,43.249048 C 403.33756,42.925488 403.93912,42.533561 404.4541,42.073267 C 404.96907,41.612989 405.33365,41.166375 405.54785,40.733423 L 406.34082,40.733423 L 406.34082,50.795923 z M 415.88379,43.22854 L 414.66016,43.324243 C 414.55078,42.841178 414.39583,42.490267 414.19531,42.271509 C 413.86263,41.920606 413.45247,41.745151 412.96484,41.745142 C 412.57291,41.745151 412.22884,41.854526 411.93262,42.073267 C 411.54524,42.355827 411.23991,42.768262 411.0166,43.310571 C 410.79329,43.852896 410.67708,44.625356 410.66797,45.627954 C 410.96419,45.176788 411.32649,44.841827 411.75488,44.623071 C 412.18326,44.404328 412.63216,44.294953 413.10156,44.294946 C 413.92187,44.294953 414.62027,44.596873 415.19678,45.200708 C 415.77327,45.804554 416.06152,46.58499 416.06152,47.542017 C 416.06152,48.170926 415.92594,48.755398 415.65479,49.295435 C 415.38362,49.835475 415.01106,50.249048 414.53711,50.536157 C 414.06315,50.823267 413.52539,50.966821 412.92383,50.966821 C 411.89843,50.966821 411.06217,50.589706 410.41504,49.835474 C 409.7679,49.081244 409.44434,47.838244 409.44434,46.10647 C 409.44434,44.169627 409.80208,42.761426 410.51758,41.88186 C 411.14192,41.116245 411.98274,40.733433 413.04004,40.733423 C 413.82845,40.733433 414.47444,40.954461 414.97803,41.396509 C 415.4816,41.838575 415.78352,42.449252 415.88379,43.22854 L 415.88379,43.22854 z M 410.85938,47.548853 C 410.85937,47.972684 410.94938,48.378282 411.12939,48.76565 C 411.30941,49.153021 411.5612,49.448105 411.88477,49.650903 C 412.20833,49.853704 412.54785,49.955103 412.90332,49.955103 C 413.42285,49.955103 413.86946,49.745468 414.24316,49.326196 C 414.61686,48.906927 414.80371,48.337267 414.80371,47.617212 C 414.80371,46.924508 414.61913,46.378772 414.25,45.980005 C 413.88085,45.581247 413.41601,45.381866 412.85547,45.38186 C 412.29948,45.381866 411.8278,45.581247 411.44043,45.980005 C 411.05306,46.378772 410.85937,46.901721 410.85938,47.548853 L 410.85938,47.548853 z"
           id="flowRoot2680" />
        <path
           transform="translate(56.136226,129.71556)"
           style="font-size:14px;font-style:normal;font-variant:normal;font-weight:normal;font-stretch:normal;text-align:start;line-height:100%;writing-mode:lr-tb;text-anchor:start;fill:#ffffff;fill-opacity:1;fill-rule:nonzero;stroke:none;stroke-width:1px;stroke-linecap:butt;stroke-linejoin:miter;marker:none;marker-start:none;marker-mid:none;marker-end:none;stroke-miterlimit:4;stroke-dashoffset:0;stroke-opacity:1;visibility:visible;display:inline;overflow:visible;enable-background:accumulate;font-family:Arial;-inkscape-font-specification:Arial"
           d="M 395.74707,43.952173 L 394.5166,43.952173 L 394.5166,36.111353 C 394.22037,36.393912 393.83187,36.676464 393.35107,36.959009 C 392.87028,37.241568 392.43847,37.453482 392.05566,37.594751 L 392.05566,36.405298 C 392.74381,36.081738 393.34537,35.689811 393.86035,35.229517 C 394.37532,34.769239 394.7399,34.322625 394.9541,33.889673 L 395.74707,33.889673 L 395.74707,43.952173 z M 402.84961,43.952173 L 402.84961,41.552759 L 398.50195,41.552759 L 398.50195,40.424829 L 403.0752,33.930689 L 404.08008,33.930689 L 404.08008,40.424829 L 405.43359,40.424829 L 405.43359,41.552759 L 404.08008,41.552759 L 404.08008,43.952173 L 402.84961,43.952173 z M 402.84961,40.424829 L 402.84961,35.906275 L 399.71191,40.424829 L 402.84961,40.424829 z"
           id="flowRoot2688" />
        <path
           id="path2696"
           d="M 432.36358,195.90428 L 444.00487,193.36104"
           style="fill:#ffffff;fill-rule:evenodd;stroke:#ffffff;stroke-width:2;stroke-linecap:butt;stroke-linejoin:miter;stroke-miterlimit:4;stroke-dasharray:none;stroke-opacity:1"
           sodipodi:nodetypes="cc" />
        <path
           transform="translate(65.369706,167.11852)"
           style="font-size:14px;font-style:normal;font-variant:normal;font-weight:normal;font-stretch:normal;text-align:start;line-height:100%;writing-mode:lr-tb;text-anchor:start;fill:#ffffff;fill-opacity:1;fill-rule:nonzero;stroke:none;stroke-width:1px;stroke-linecap:butt;stroke-linejoin:miter;marker:none;marker-start:none;marker-mid:none;marker-end:none;stroke-miterlimit:4;stroke-dashoffset:0;stroke-opacity:1;visibility:visible;display:inline;overflow:visible;enable-background:accumulate;font-family:Arial;-inkscape-font-specification:Arial"
           d="M 395.74707,43.952173 L 394.5166,43.952173 L 394.5166,36.111353 C 394.22037,36.393912 393.83187,36.676464 393.35107,36.959009 C 392.87028,37.241568 392.43847,37.453482 392.05566,37.594751 L 392.05566,36.405298 C 392.74381,36.081738 393.34537,35.689811 393.86035,35.229517 C 394.37532,34.769239 394.7399,34.322625 394.9541,33.889673 L 395.74707,33.889673 L 395.74707,43.952173 z M 405.37207,42.769556 L 405.37207,43.952173 L 398.74805,43.952173 C 398.73893,43.655949 398.78678,43.371119 398.8916,43.097681 C 399.06022,42.64651 399.33024,42.202175 399.70166,41.764673 C 400.07308,41.327176 400.6097,40.821317 401.31152,40.247095 C 402.40071,39.35387 403.13671,38.646351 403.51953,38.124536 C 403.90234,37.602733 404.09374,37.109406 404.09375,36.644556 C 404.09374,36.156933 403.91943,35.745638 403.5708,35.410669 C 403.22216,35.075717 402.76757,34.908237 402.20703,34.908228 C 401.61458,34.908237 401.14062,35.085971 400.78516,35.441431 C 400.42969,35.796908 400.24967,36.289095 400.24512,36.917993 L 398.98047,36.78811 C 399.06706,35.844759 399.3929,35.125847 399.95801,34.631372 C 400.52311,34.136916 401.2819,33.889683 402.23438,33.889673 C 403.19596,33.889683 403.95703,34.156284 404.51758,34.689478 C 405.07812,35.222689 405.35839,35.883496 405.3584,36.6719 C 405.35839,37.072948 405.27636,37.467153 405.1123,37.854517 C 404.94824,38.241892 404.67594,38.649769 404.29541,39.07815 C 403.91487,39.506539 403.28255,40.094429 402.39844,40.841821 C 401.66015,41.461616 401.1862,41.882025 400.97656,42.103052 C 400.76692,42.324082 400.59375,42.54625 400.45703,42.769556 L 405.37207,42.769556 z"
           id="flowRoot2698" />
        <flowRoot
           xml:space="preserve"
           id="flowRoot2708"
           style="font-size:14px;font-style:normal;font-variant:normal;font-weight:normal;font-stretch:normal;text-align:start;line-height:100%;writing-mode:lr-tb;text-anchor:start;fill:#ffffff;fill-opacity:1;fill-rule:nonzero;stroke:none;stroke-width:1px;stroke-linecap:butt;stroke-linejoin:miter;marker:none;marker-start:none;marker-mid:none;marker-end:none;stroke-miterlimit:4;stroke-dasharray:none;stroke-dashoffset:0;stroke-opacity:1;visibility:visible;display:inline;overflow:visible;enable-background:accumulate;font-family:Arial;-inkscape-font-specification:Arial"
           transform="translate(6.23541,275.52166)"><flowRegion
             id="flowRegion2710"><rect
               id="rect2712"
               width="36.126305"
               height="24.291826"
               x="390.53781"
               y="34.596947"
               style="font-size:14px;font-style:normal;font-variant:normal;font-weight:normal;font-stretch:normal;text-align:start;line-height:100%;writing-mode:lr-tb;text-anchor:start;fill:#ffffff;fill-opacity:1;font-family:Arial;-inkscape-font-specification:Arial" /></flowRegion><flowPara
             id="flowPara2716">2</flowPara></flowRoot>        <path
           transform="translate(19.72494,266.71154)"
           style="font-size:14px;font-style:normal;font-variant:normal;font-weight:normal;font-stretch:normal;text-align:start;line-height:100%;writing-mode:lr-tb;text-anchor:start;fill:#ffffff;fill-opacity:1;fill-rule:nonzero;stroke:none;stroke-width:1px;stroke-linecap:butt;stroke-linejoin:miter;marker:none;marker-start:none;marker-mid:none;marker-end:none;stroke-miterlimit:4;stroke-dashoffset:0;stroke-opacity:1;visibility:visible;display:inline;overflow:visible;enable-background:accumulate;font-family:Arial;-inkscape-font-specification:Arial"
           d="M 395.05664,43.952173 L 395.05664,41.552759 L 390.70898,41.552759 L 390.70898,40.424829 L 395.28223,33.930689 L 396.28711,33.930689 L 396.28711,40.424829 L 397.64062,40.424829 L 397.64062,41.552759 L 396.28711,41.552759 L 396.28711,43.952173 L 395.05664,43.952173 z M 395.05664,40.424829 L 395.05664,35.906275 L 391.91895,40.424829 L 395.05664,40.424829 z"
           id="flowRoot2718" />
        <path
           transform="translate(63.355326,197.64419)"
           style="font-size:14px;font-style:normal;font-variant:normal;font-weight:normal;font-stretch:normal;text-align:start;line-height:100%;writing-mode:lr-tb;text-anchor:start;fill:#ffffff;fill-opacity:1;fill-rule:nonzero;stroke:none;stroke-width:1px;stroke-linecap:butt;stroke-linejoin:miter;marker:none;marker-start:none;marker-mid:none;marker-end:none;stroke-miterlimit:4;stroke-dashoffset:0;stroke-opacity:1;visibility:visible;display:inline;overflow:visible;enable-background:accumulate;font-family:Arial;-inkscape-font-specification:Arial"
           d="M 395.74707,43.952173 L 394.5166,43.952173 L 394.5166,36.111353 C 394.22037,36.393912 393.83187,36.676464 393.35107,36.959009 C 392.87028,37.241568 392.43847,37.453482 392.05566,37.594751 L 392.05566,36.405298 C 392.74381,36.081738 393.34537,35.689811 393.86035,35.229517 C 394.37532,34.769239 394.7399,34.322625 394.9541,33.889673 L 395.74707,33.889673 L 395.74707,43.952173 z M 398.90527,39.00979 C 398.90527,37.8249 399.02718,36.871288 399.271,36.14895 C 399.51481,35.426628 399.87711,34.8695 400.35791,34.477564 C 400.8387,34.085646 401.44368,33.889683 402.17285,33.889673 C 402.71061,33.889683 403.18229,33.997919 403.58789,34.21438 C 403.99348,34.430861 404.32844,34.743035 404.59277,35.150903 C 404.85709,35.558789 405.06445,36.055534 405.21484,36.641138 C 405.36523,37.226756 405.44042,38.016306 405.44043,39.00979 C 405.44042,40.185575 405.31965,41.13463 405.07812,41.856958 C 404.83658,42.57929 404.47542,43.137558 403.99463,43.531763 C 403.51383,43.925969 402.90657,44.123071 402.17285,44.123071 C 401.2067,44.123071 400.44791,43.776717 399.89648,43.084009 C 399.23568,42.250026 398.90527,40.891955 398.90527,39.00979 L 398.90527,39.00979 z M 400.16992,39.00979 C 400.16992,40.654976 400.36247,41.749864 400.74756,42.294458 C 401.13265,42.839056 401.60774,43.111353 402.17285,43.111353 C 402.73795,43.111353 403.21305,42.837916 403.59814,42.29104 C 403.98323,41.744167 404.17578,40.650418 404.17578,39.00979 C 404.17578,37.360057 403.98323,36.26403 403.59814,35.721704 C 403.21305,35.179395 402.73339,34.908237 402.15918,34.908228 C 401.59407,34.908237 401.1429,35.147494 400.80566,35.626001 C 400.38183,36.236686 400.16992,37.364614 400.16992,39.00979 L 400.16992,39.00979 z"
           id="flowRoot2728" />
        <path
           transform="translate(51.62549,232.97091)"
           style="font-size:14px;font-style:normal;font-variant:normal;font-weight:normal;font-stretch:normal;text-align:start;line-height:100%;writing-mode:lr-tb;text-anchor:start;fill:#ffffff;fill-opacity:1;fill-rule:nonzero;stroke:none;stroke-width:1px;stroke-linecap:butt;stroke-linejoin:miter;marker:none;marker-start:none;marker-mid:none;marker-end:none;stroke-miterlimit:4;stroke-dashoffset:0;stroke-opacity:1;visibility:visible;display:inline;overflow:visible;enable-background:accumulate;font-family:Arial;-inkscape-font-specification:Arial"
           d="M 393.00586,38.517603 C 392.49544,38.330759 392.11719,38.064158 391.87109,37.717798 C 391.625,37.37145 391.50195,36.956737 391.50195,36.473657 C 391.50195,35.744499 391.764,35.131544 392.28809,34.63479 C 392.81217,34.138055 393.50944,33.889683 394.37988,33.889673 C 395.25488,33.889683 395.95898,34.143752 396.49219,34.65188 C 397.02538,35.160027 397.29199,35.778679 397.29199,36.507837 C 397.29199,36.972688 397.17008,37.377147 396.92627,37.721216 C 396.68245,38.065297 396.31217,38.330759 395.81543,38.517603 C 396.43066,38.718129 396.89892,39.041696 397.22021,39.488306 C 397.5415,39.934924 397.70214,40.468127 397.70215,41.087915 C 397.70214,41.944688 397.39908,42.664739 396.79297,43.248071 C 396.18684,43.831405 395.38932,44.123071 394.40039,44.123071 C 393.41146,44.123071 392.61393,43.830266 392.00781,43.244653 C 391.40169,42.659043 391.09863,41.928737 391.09863,41.053735 C 391.09863,40.402046 391.26383,39.856311 391.59424,39.416528 C 391.92464,38.976755 392.39518,38.677113 393.00586,38.517603 L 393.00586,38.517603 z M 392.75977,36.432642 C 392.75976,36.906607 392.91243,37.293976 393.21777,37.594751 C 393.52311,37.895538 393.91959,38.045929 394.40723,38.045923 C 394.88118,38.045929 395.26969,37.896678 395.57275,37.598169 C 395.87581,37.299673 396.02734,36.933951 396.02734,36.501001 C 396.02734,36.049837 395.87125,35.670443 395.55908,35.362817 C 395.2469,35.055209 394.85839,34.901401 394.39355,34.901392 C 393.92415,34.901401 393.5345,35.051791 393.22461,35.352564 C 392.91471,35.653353 392.75976,36.013379 392.75977,36.432642 L 392.75977,36.432642 z M 392.36328,41.060571 C 392.36328,41.411485 392.44645,41.751003 392.61279,42.079126 C 392.77913,42.407253 393.02636,42.661321 393.35449,42.841333 C 393.68261,43.021347 394.0358,43.111353 394.41406,43.111353 C 395.00195,43.111353 395.4873,42.922226 395.87012,42.54397 C 396.25292,42.165716 396.44433,41.684923 396.44434,41.101587 C 396.44433,40.509143 396.24723,40.019234 395.85303,39.63186 C 395.45882,39.244495 394.96549,39.050811 394.37305,39.050806 C 393.79427,39.050811 393.31461,39.242217 392.93408,39.625025 C 392.55355,40.007841 392.36328,40.486356 392.36328,41.060571 L 392.36328,41.060571 z"
           id="flowRoot2738" />
        <path
           id="path2748"
           d="M 436.93398,221.94416 L 449.1431,221.81682"
           style="fill:#ffffff;fill-rule:evenodd;stroke:#ffffff;stroke-width:2.00277972;stroke-linecap:butt;stroke-linejoin:miter;stroke-miterlimit:4;stroke-dasharray:none;stroke-opacity:1"
           sodipodi:nodetypes="cc" />
        <path
           style="font-size:12px;font-style:normal;font-variant:normal;font-weight:normal;font-stretch:normal;text-align:start;line-height:100%;writing-mode:lr-tb;text-anchor:start;fill:#000000;fill-opacity:1;fill-rule:nonzero;stroke:none;stroke-width:1px;stroke-linecap:butt;stroke-linejoin:miter;marker:none;marker-start:none;marker-mid:none;marker-end:none;stroke-miterlimit:4;stroke-dashoffset:0;stroke-opacity:1;visibility:visible;display:inline;overflow:visible;enable-background:accumulate;font-family:Arial"
           d="M 347.789,269.46111 L 356.37884,269.46111 L 356.37884,275.25603 L 355.36517,275.25603 L 355.36517,270.59783 L 352.70501,270.59783 L 352.70501,274.62908 L 351.69134,274.62908 L 351.69134,270.59783 L 347.789,270.59783 L 347.789,269.46111 z"
           id="text2757" />
        <path
           style="fill:none;fill-rule:evenodd;stroke:#ffffff;stroke-width:3;stroke-linecap:butt;stroke-linejoin:miter;stroke-miterlimit:4;stroke-dasharray:none;stroke-opacity:1"
           d="M 424.46505,286.76712 L 409.87799,272.12205"
           id="path2558" />
        <path
           style="fill:none;fill-rule:evenodd;stroke:#ffffff;stroke-width:2;stroke-linecap:butt;stroke-linejoin:miter;stroke-miterlimit:4;stroke-dasharray:none;stroke-opacity:1"
           d="M 406.27668,279.64861 L 412.18202,286.77525"
           id="path2560" />
        <path
           transform="translate(35.84459,254.57514)"
           style="font-size:14px;font-style:normal;font-variant:normal;font-weight:normal;font-stretch:normal;text-align:start;line-height:100%;writing-mode:lr-tb;text-anchor:start;fill:#ffffff;fill-opacity:1;fill-rule:nonzero;stroke:none;stroke-width:1px;stroke-linecap:butt;stroke-linejoin:miter;marker:none;marker-start:none;marker-mid:none;marker-end:none;stroke-miterlimit:4;stroke-dashoffset:0;stroke-opacity:1;visibility:visible;display:inline;overflow:visible;enable-background:accumulate;font-family:Arial;-inkscape-font-specification:Arial"
           d="M 397.49707,36.38479 L 396.27344,36.480493 C 396.16406,35.997428 396.00911,35.646517 395.80859,35.427759 C 395.47591,35.076856 395.06575,34.901401 394.57812,34.901392 C 394.18619,34.901401 393.84212,35.010776 393.5459,35.229517 C 393.15853,35.512077 392.85319,35.924512 392.62988,36.466821 C 392.40657,37.009146 392.29036,37.781606 392.28125,38.784204 C 392.57747,38.333038 392.93978,37.998077 393.36816,37.779321 C 393.79655,37.560578 394.24544,37.451203 394.71484,37.451196 C 395.53515,37.451203 396.23356,37.753123 396.81006,38.356958 C 397.38655,38.960804 397.6748,39.74124 397.6748,40.698267 C 397.6748,41.327176 397.53922,41.911648 397.26807,42.451685 C 396.9969,42.991725 396.62434,43.405298 396.15039,43.692407 C 395.67643,43.979517 395.13867,44.123071 394.53711,44.123071 C 393.51172,44.123071 392.67545,43.745956 392.02832,42.991724 C 391.38118,42.237494 391.05762,40.994494 391.05762,39.26272 C 391.05762,37.325877 391.41536,35.917676 392.13086,35.03811 C 392.75521,34.272495 393.59603,33.889683 394.65332,33.889673 C 395.44173,33.889683 396.08772,34.110711 396.59131,34.552759 C 397.09488,34.994825 397.3968,35.605502 397.49707,36.38479 L 397.49707,36.38479 z M 392.47266,40.705103 C 392.47265,41.128934 392.56266,41.534532 392.74268,41.9219 C 392.92269,42.309271 393.17448,42.604355 393.49805,42.807153 C 393.82161,43.009954 394.16113,43.111353 394.5166,43.111353 C 395.03613,43.111353 395.48274,42.901718 395.85645,42.482446 C 396.23014,42.063177 396.41699,41.493517 396.41699,40.773462 C 396.41699,40.080758 396.23242,39.535022 395.86328,39.136255 C 395.49414,38.737497 395.02929,38.538116 394.46875,38.53811 C 393.91276,38.538116 393.44108,38.737497 393.05371,39.136255 C 392.66634,39.535022 392.47265,40.057971 392.47266,40.705103 L 392.47266,40.705103 z"
           id="flowRoot2562" />
        <path
           style="font-size:12px;font-style:normal;font-variant:normal;font-weight:normal;font-stretch:normal;text-align:center;line-height:120.00000477%;writing-mode:lr-tb;text-anchor:middle;fill:#ffffff;fill-opacity:1;fill-rule:nonzero;stroke:none;stroke-width:1px;stroke-linecap:butt;stroke-linejoin:miter;marker:none;marker-start:none;marker-mid:none;marker-end:none;stroke-miterlimit:4;stroke-dashoffset:0;stroke-opacity:1;visibility:visible;display:inline;overflow:visible;enable-background:accumulate;font-family:Arial;-inkscape-font-specification:Arial"
           d="M 315.73838,206.58855 L 315.73838,197.9987 L 317.44932,197.9987 L 319.48252,204.08073 C 319.67001,204.64714 319.80673,205.07097 319.89268,205.35222 C 319.99033,205.03972 320.14267,204.58074 320.34971,203.97527 L 322.40635,197.9987 L 323.93564,197.9987 L 323.93564,206.58855 L 322.83994,206.58855 L 322.83994,199.39909 L 320.34385,206.58855 L 319.31846,206.58855 L 316.83408,199.27605 L 316.83408,206.58855 L 315.73838,206.58855 z M 324.83799,206.58855 L 328.13682,197.9987 L 329.36143,197.9987 L 332.87705,206.58855 L 331.58213,206.58855 L 330.58018,203.98698 L 326.98838,203.98698 L 326.04502,206.58855 L 324.83799,206.58855 z M 327.3165,203.0612 L 330.22861,203.0612 L 329.33213,200.6823 C 329.05869,199.95965 328.85556,199.3659 328.72275,198.90105 C 328.61337,199.45184 328.45908,199.99871 328.25986,200.54167 L 327.3165,203.0612 z M 333.78525,206.58855 L 333.78525,197.9987 L 334.95127,197.9987 L 339.46299,204.74284 L 339.46299,197.9987 L 340.55283,197.9987 L 340.55283,206.58855 L 339.38682,206.58855 L 334.8751,199.83855 L 334.8751,206.58855 L 333.78525,206.58855 z M 308.754,220.98855 L 308.754,212.3987 L 311.99424,212.3987 C 312.56455,212.39871 313.00009,212.42606 313.30088,212.48074 C 313.72275,212.55106 314.07626,212.68485 314.36143,212.8821 C 314.64658,213.07938 314.87607,213.35574 315.0499,213.7112 C 315.22372,214.06668 315.31064,214.4573 315.31064,214.88308 C 315.31064,215.61355 315.07822,216.23172 314.61338,216.73757 C 314.14853,217.24343 313.30869,217.49636 312.09385,217.49636 L 309.89072,217.49636 L 309.89072,220.98855 L 308.754,220.98855 z M 309.89072,216.48269 L 312.11143,216.48269 C 312.8458,216.48269 313.36728,216.34597 313.67588,216.07253 C 313.98447,215.7991 314.13876,215.41433 314.13877,214.91824 C 314.13876,214.55887 314.04794,214.25125 313.86631,213.99538 C 313.68466,213.73953 313.4454,213.57059 313.14853,213.48855 C 312.95712,213.43777 312.60361,213.41238 312.08799,213.41238 L 309.89072,213.41238 L 309.89072,216.48269 z M 316.78721,220.98855 L 316.78721,212.3987 L 320.5958,212.3987 C 321.36142,212.39871 321.94345,212.47586 322.34189,212.63015 C 322.74032,212.78445 323.05868,213.05692 323.29697,213.44753 C 323.53525,213.83816 323.65439,214.2698 323.65439,214.74245 C 323.65439,215.35183 323.45712,215.86551 323.0626,216.28347 C 322.66806,216.70144 322.05869,216.96707 321.23447,217.08034 C 321.53525,217.22488 321.76376,217.36746 321.92002,217.50808 C 322.25204,217.81277 322.5665,218.19363 322.86338,218.65066 L 324.35752,220.98855 L 322.92783,220.98855 L 321.79111,219.20144 C 321.45908,218.68582 321.18564,218.29128 320.9708,218.01784 C 320.75595,217.74441 320.56357,217.553 320.39365,217.44363 C 320.22373,217.33425 320.05087,217.25808 319.8751,217.21511 C 319.74619,217.18777 319.53525,217.1741 319.24229,217.17409 L 317.92393,217.17409 L 317.92393,220.98855 L 316.78721,220.98855 z M 317.92393,216.18972 L 320.36729,216.18972 C 320.88681,216.18972 321.29306,216.13601 321.58603,216.02859 C 321.879,215.92117 322.10165,215.7493 322.254,215.51296 C 322.40634,215.27664 322.48251,215.0198 322.48252,214.74245 C 322.48251,214.33621 322.33505,214.00223 322.04014,213.7405 C 321.74521,213.47879 321.27939,213.34793 320.64268,213.34792 L 317.92393,213.34792 L 317.92393,216.18972 z M 325.46494,220.98855 L 325.46494,212.3987 L 331.67588,212.3987 L 331.67588,213.41238 L 326.60166,213.41238 L 326.60166,216.04324 L 331.35361,216.04324 L 331.35361,217.05105 L 326.60166,217.05105 L 326.60166,219.97488 L 331.8751,219.97488 L 331.8751,220.98855 L 325.46494,220.98855 z M 333.07041,218.22878 L 334.14268,218.13503 C 334.19346,218.56472 334.31162,218.91726 334.49717,219.19265 C 334.68271,219.46804 334.9708,219.6907 335.36143,219.86062 C 335.75205,220.03054 336.1915,220.1155 336.67979,220.1155 C 337.11337,220.1155 337.49619,220.05105 337.82822,219.92214 C 338.16025,219.79324 338.40732,219.61648 338.56943,219.39187 C 338.73154,219.16726 338.81259,218.92214 338.8126,218.65652 C 338.81259,218.38699 338.73447,218.15164 338.57822,217.95046 C 338.42197,217.74929 338.16415,217.58035 337.80479,217.44363 C 337.57431,217.35379 337.06455,217.21414 336.27549,217.02468 C 335.48642,216.83523 334.93369,216.65652 334.61729,216.48855 C 334.20713,216.27371 333.90146,216.00711 333.70029,215.68874 C 333.49912,215.37039 333.39853,215.01394 333.39853,214.61941 C 333.39853,214.18582 333.52158,213.78055 333.76768,213.40359 C 334.01377,213.02664 334.37314,212.74051 334.8458,212.54519 C 335.31845,212.34988 335.84384,212.25223 336.42197,212.25222 C 337.05869,212.25223 337.62021,212.35477 338.10654,212.55984 C 338.59286,212.76492 338.96689,213.06668 339.22861,213.46511 C 339.49032,213.86355 339.63095,214.31473 339.65049,214.81863 L 338.56064,214.90066 C 338.50204,214.3577 338.3038,213.94754 337.96592,213.67019 C 337.62802,213.39285 337.129,213.25418 336.46885,213.25417 C 335.78134,213.25418 335.28037,213.38016 334.96592,213.6321 C 334.65146,213.88406 334.49424,214.18777 334.49424,214.54324 C 334.49424,214.85184 334.60556,215.10574 334.82822,215.30495 C 335.04697,215.50418 335.61826,215.70828 336.54209,215.91726 C 337.46591,216.12625 338.0997,216.30887 338.44346,216.46511 C 338.94345,216.69558 339.31259,216.98758 339.55088,217.34109 C 339.78915,217.69461 339.90829,218.10183 339.9083,218.56277 C 339.90829,219.0198 339.77743,219.45046 339.51572,219.85476 C 339.254,220.25906 338.87802,220.57351 338.38779,220.79812 C 337.89755,221.02273 337.3458,221.13503 336.73252,221.13503 C 335.95517,221.13503 335.30381,221.02175 334.77842,220.79519 C 334.25303,220.56863 333.84092,220.22781 333.54209,219.77273 C 333.24326,219.31765 333.08603,218.803 333.07041,218.22878 L 333.07041,218.22878 z M 341.08603,218.22878 L 342.1583,218.13503 C 342.20908,218.56472 342.32724,218.91726 342.51279,219.19265 C 342.69834,219.46804 342.98642,219.6907 343.37705,219.86062 C 343.76767,220.03054 344.20713,220.1155 344.69541,220.1155 C 345.129,220.1155 345.51181,220.05105 345.84385,219.92214 C 346.17587,219.79324 346.42294,219.61648 346.58506,219.39187 C 346.74716,219.16726 346.82822,218.92214 346.82822,218.65652 C 346.82822,218.38699 346.75009,218.15164 346.59385,217.95046 C 346.43759,217.74929 346.17978,217.58035 345.82041,217.44363 C 345.58994,217.35379 345.08017,217.21414 344.29111,217.02468 C 343.50205,216.83523 342.94931,216.65652 342.63291,216.48855 C 342.22275,216.27371 341.91709,216.00711 341.71592,215.68874 C 341.51474,215.37039 341.41416,215.01394 341.41416,214.61941 C 341.41416,214.18582 341.53721,213.78055 341.7833,213.40359 C 342.02939,213.02664 342.38877,212.74051 342.86143,212.54519 C 343.33408,212.34988 343.85947,212.25223 344.4376,212.25222 C 345.07431,212.25223 345.63583,212.35477 346.12217,212.55984 C 346.60849,212.76492 346.98251,213.06668 347.24424,213.46511 C 347.50595,213.86355 347.64657,214.31473 347.66611,214.81863 L 346.57627,214.90066 C 346.51767,214.3577 346.31943,213.94754 345.98154,213.67019 C 345.64365,213.39285 345.14462,213.25418 344.48447,213.25417 C 343.79697,213.25418 343.29599,213.38016 342.98154,213.6321 C 342.66709,213.88406 342.50986,214.18777 342.50986,214.54324 C 342.50986,214.85184 342.62119,215.10574 342.84385,215.30495 C 343.06259,215.50418 343.63388,215.70828 344.55771,215.91726 C 345.48154,216.12625 346.11533,216.30887 346.45908,216.46511 C 346.95908,216.69558 347.32822,216.98758 347.5665,217.34109 C 347.80478,217.69461 347.92392,218.10183 347.92393,218.56277 C 347.92392,219.0198 347.79306,219.45046 347.53135,219.85476 C 347.26962,220.25906 346.89365,220.57351 346.40342,220.79812 C 345.91318,221.02273 345.36142,221.13503 344.74814,221.13503 C 343.9708,221.13503 343.31943,221.02175 342.79404,220.79519 C 342.26865,220.56863 341.85654,220.22781 341.55771,219.77273 C 341.25889,219.31765 341.10166,218.803 341.08603,218.22878 L 341.08603,218.22878 z"
           id="flowRoot2581" />
        <path
           style="font-size:10px;font-style:normal;font-variant:normal;font-weight:normal;font-stretch:normal;text-align:start;line-height:100%;writing-mode:lr-tb;text-anchor:start;fill:#ffffff;fill-opacity:1;fill-rule:nonzero;stroke:none;stroke-width:1px;stroke-linecap:butt;stroke-linejoin:miter;marker:none;marker-start:none;marker-mid:none;marker-end:none;stroke-miterlimit:4;stroke-dashoffset:0;stroke-opacity:1;visibility:visible;display:inline;overflow:visible;enable-background:accumulate;font-family:Arial;-inkscape-font-specification:Arial"
           d="M 315.228,232.48271 L 315.228,225.32451 L 316.17526,225.32451 L 316.17526,232.48271 L 315.228,232.48271 z M 317.83054,232.48271 L 317.83054,225.32451 L 318.80222,225.32451 L 322.56198,230.94462 L 322.56198,225.32451 L 323.47018,225.32451 L 323.47018,232.48271 L 322.4985,232.48271 L 318.73874,226.85771 L 318.73874,232.48271 L 317.83054,232.48271 z M 327.8696,232.48271 L 327.8696,225.32451 L 328.81686,225.32451 L 328.81686,228.26396 L 332.53757,228.26396 L 332.53757,225.32451 L 333.48483,225.32451 L 333.48483,232.48271 L 332.53757,232.48271 L 332.53757,229.10868 L 328.81686,229.10868 L 328.81686,232.48271 L 327.8696,232.48271 z M 338.41647,229.67509 L 338.41647,228.83525 L 341.4487,228.83036 L 341.4487,231.48661 C 340.9832,231.85771 340.50306,232.13684 340.00827,232.32402 C 339.51347,232.51119 339.00566,232.60478 338.48483,232.60478 C 337.7817,232.60478 337.14287,232.45423 336.56833,232.15312 C 335.99378,231.85201 335.56003,231.41663 335.26706,230.84697 C 334.97409,230.27731 334.82761,229.64091 334.82761,228.93779 C 334.82761,228.24118 334.97328,227.59095 335.26462,226.9871 C 335.55596,226.38327 335.97507,225.93486 336.52194,225.64189 C 337.06881,225.34893 337.6987,225.20244 338.41159,225.20243 C 338.92916,225.20244 339.3971,225.28626 339.8154,225.4539 C 340.23369,225.62155 340.56165,225.85511 340.79929,226.15458 C 341.03691,226.45407 341.21757,226.84469 341.34128,227.32646 L 340.48679,227.56083 C 340.37936,227.19626 340.24589,226.9098 340.0864,226.70146 C 339.92688,226.49313 339.69902,226.3263 339.4028,226.20097 C 339.10657,226.07565 338.7778,226.01299 338.41647,226.01298 C 337.98353,226.01299 337.60918,226.07891 337.29343,226.21074 C 336.97767,226.34258 336.72295,226.51592 336.52927,226.73076 C 336.33558,226.9456 336.18503,227.18161 336.07761,227.43876 C 335.89531,227.88148 335.80417,228.36162 335.80417,228.87919 C 335.80417,229.51722 335.91403,230.05107 336.13376,230.48076 C 336.35348,230.91044 336.67331,231.22945 337.09323,231.43779 C 337.51315,231.64612 337.95911,231.75029 338.43112,231.75029 C 338.84127,231.75029 339.24166,231.67135 339.63229,231.51347 C 340.02291,231.35559 340.31914,231.18714 340.52097,231.0081 L 340.52097,229.67509 L 338.41647,229.67509 z"
           id="flowRoot2623" />
        <path
           style="font-size:12px;font-style:normal;font-variant:normal;font-weight:normal;font-stretch:normal;text-align:center;line-height:120.00000477%;writing-mode:lr-tb;text-anchor:middle;fill:#ffffff;fill-opacity:1;fill-rule:nonzero;stroke:none;stroke-width:1px;stroke-linecap:butt;stroke-linejoin:miter;marker:none;marker-start:none;marker-mid:none;marker-end:none;stroke-miterlimit:4;stroke-dashoffset:0;stroke-opacity:1;visibility:visible;display:inline;overflow:visible;enable-background:accumulate;font-family:Arial;-inkscape-font-specification:Arial"
           d="M 361.42847,206.58855 L 361.42847,197.9987 L 367.22339,197.9987 L 367.22339,199.01237 L 362.56519,199.01237 L 362.56519,201.67253 L 366.59644,201.67253 L 366.59644,202.6862 L 362.56519,202.6862 L 362.56519,206.58855 L 361.42847,206.58855 z M 374.34254,197.9987 L 375.47925,197.9987 L 375.47925,202.96159 C 375.47925,203.82488 375.38159,204.51042 375.18628,205.01823 C 374.99097,205.52605 374.63843,205.93913 374.12867,206.25749 C 373.6189,206.57585 372.94995,206.73503 372.12183,206.73503 C 371.31714,206.73503 370.65894,206.59636 370.14722,206.31902 C 369.6355,206.04167 369.27027,205.64031 369.05152,205.11491 C 368.83277,204.58952 368.72339,203.87175 368.72339,202.96159 L 368.72339,197.9987 L 369.86011,197.9987 L 369.86011,202.95573 C 369.86011,203.70183 369.92945,204.25163 370.06812,204.60515 C 370.20679,204.95867 370.44507,205.23113 370.78296,205.42253 C 371.12085,205.61394 371.53394,205.70964 372.02222,205.70964 C 372.85815,205.70964 373.45386,205.52019 373.80933,205.14128 C 374.16479,204.76238 374.34253,204.03386 374.34254,202.95573 L 374.34254,197.9987 z M 377.40113,206.58855 L 377.40113,197.9987 L 383.61207,197.9987 L 383.61207,199.01237 L 378.53785,199.01237 L 378.53785,201.64323 L 383.2898,201.64323 L 383.2898,202.65105 L 378.53785,202.65105 L 378.53785,205.57487 L 383.81128,205.57487 L 383.81128,206.58855 L 377.40113,206.58855 z M 385.34644,206.58855 L 385.34644,197.9987 L 386.48316,197.9987 L 386.48316,205.57487 L 390.71363,205.57487 L 390.71363,206.58855 L 385.34644,206.58855 z M 359.448,220.98855 L 359.448,212.3987 L 365.24293,212.3987 L 365.24293,213.41238 L 360.58472,213.41238 L 360.58472,216.07253 L 364.61597,216.07253 L 364.61597,217.0862 L 360.58472,217.0862 L 360.58472,220.98855 L 359.448,220.98855 z M 366.67847,220.98855 L 366.67847,212.3987 L 367.81519,212.3987 L 367.81519,219.97488 L 372.04566,219.97488 L 372.04566,220.98855 L 366.67847,220.98855 z M 373.05933,216.80495 C 373.05933,215.37918 373.44214,214.26297 374.20777,213.45632 C 374.97339,212.64969 375.96167,212.24637 377.17261,212.24636 C 377.96558,212.24637 378.68042,212.43582 379.31714,212.81472 C 379.95386,213.19363 380.43921,213.72195 380.7732,214.39968 C 381.10717,215.07742 381.27417,215.84597 381.27418,216.70534 C 381.27417,217.57644 381.09839,218.35574 380.74683,219.04324 C 380.39526,219.73074 379.89722,220.25124 379.25269,220.60476 C 378.60815,220.95827 377.91284,221.13503 377.16675,221.13503 C 376.35816,221.13503 375.6355,220.93972 374.99878,220.54909 C 374.36206,220.15847 373.87964,219.62527 373.55152,218.94949 C 373.22339,218.27371 373.05933,217.55886 373.05933,216.80495 L 373.05933,216.80495 z M 374.23121,216.82253 C 374.23121,217.85769 374.50953,218.67312 375.06617,219.26882 C 375.62281,219.86453 376.32105,220.16238 377.16089,220.16238 C 378.01636,220.16238 378.72046,219.8616 379.2732,219.26003 C 379.82593,218.65847 380.10229,217.80496 380.1023,216.69949 C 380.10229,216.00027 379.98413,215.38992 379.74781,214.86843 C 379.51147,214.34695 379.16577,213.94266 378.7107,213.65554 C 378.25562,213.36844 377.74487,213.22488 377.17847,213.22488 C 376.37378,213.22488 375.6814,213.50125 375.10132,214.05398 C 374.52124,214.60672 374.23121,215.52957 374.23121,216.82253 L 374.23121,216.82253 z M 384.23316,220.98855 L 381.95386,212.3987 L 383.11988,212.3987 L 384.42652,218.02956 C 384.56714,218.61941 384.68824,219.20535 384.7898,219.78738 C 385.00855,218.86941 385.13745,218.34011 385.17652,218.19949 L 386.81128,212.3987 L 388.18238,212.3987 L 389.41285,216.74636 C 389.72143,217.82449 389.94409,218.83816 390.08082,219.78738 C 390.19018,219.24441 390.33276,218.62136 390.50855,217.91824 L 391.85621,212.3987 L 392.99878,212.3987 L 390.64332,220.98855 L 389.54761,220.98855 L 387.73707,214.44363 C 387.58472,213.89676 387.49487,213.56082 387.46754,213.43581 C 387.37769,213.83035 387.2937,214.16629 387.21558,214.44363 L 385.39332,220.98855 L 384.23316,220.98855 z"
           id="flowRoot2597" />
        <path
           style="font-size:10px;font-style:normal;font-variant:normal;font-weight:normal;font-stretch:normal;text-align:start;line-height:100%;writing-mode:lr-tb;text-anchor:start;fill:#ffffff;fill-opacity:1;fill-rule:nonzero;stroke:none;stroke-width:1px;stroke-linecap:butt;stroke-linejoin:miter;marker:none;marker-start:none;marker-mid:none;marker-end:none;stroke-miterlimit:4;stroke-dashoffset:0;stroke-opacity:1;visibility:visible;display:inline;overflow:visible;enable-background:accumulate;font-family:Arial;-inkscape-font-specification:Arial"
           d="M 361.33257,229.67509 L 361.33257,228.83525 L 364.29019,228.83036 L 364.29019,231.48661 C 363.83612,231.85771 363.36785,232.13684 362.88521,232.32402 C 362.40257,232.51119 361.90727,232.60478 361.39922,232.60478 C 360.71337,232.60478 360.09029,232.45423 359.52988,232.15312 C 358.96946,231.85201 358.54642,231.41663 358.26065,230.84697 C 357.97488,230.27731 357.832,229.64091 357.832,228.93779 C 357.832,228.24118 357.97407,227.59095 358.2583,226.9871 C 358.54244,226.38327 358.9512,225.93486 359.48466,225.64189 C 360.01803,225.34893 360.63244,225.20244 361.32778,225.20243 C 361.83265,225.20244 362.28908,225.28626 362.69711,225.4539 C 363.10506,225.62155 363.425,225.85511 363.65679,226.15458 C 363.88856,226.45407 364.06473,226.84469 364.18538,227.32646 L 363.35195,227.56083 C 363.24713,227.19626 363.11698,226.9098 362.96137,226.70146 C 362.80581,226.49313 362.58353,226.3263 362.2946,226.20097 C 362.00566,226.07565 361.68499,226.01299 361.33257,226.01298 C 360.91025,226.01299 360.54516,226.07891 360.23716,226.21074 C 359.92914,226.34258 359.68072,226.51592 359.49181,226.73076 C 359.30289,226.9456 359.15603,227.18161 359.05122,227.43876 C 358.87342,227.88148 358.78453,228.36162 358.78453,228.87919 C 358.78453,229.51722 358.89169,230.05107 359.10602,230.48076 C 359.32034,230.91044 359.63225,231.22945 360.0419,231.43779 C 360.45148,231.64612 360.88646,231.75029 361.34686,231.75029 C 361.74693,231.75029 362.13742,231.67135 362.5185,231.51347 C 362.89949,231.35559 363.18843,231.18714 363.38531,231.0081 L 363.38531,229.67509 L 361.33257,229.67509 z M 364.8808,232.48271 L 367.56214,225.32451 L 368.55754,225.32451 L 371.41514,232.48271 L 370.36259,232.48271 L 369.54818,230.31474 L 366.62869,230.31474 L 365.86191,232.48271 L 364.8808,232.48271 z M 366.89538,229.54326 L 369.26247,229.54326 L 368.53376,227.56083 C 368.31147,226.95863 368.14634,226.46383 368.03845,226.07646 C 367.94955,226.53545 367.82412,226.99118 367.66216,227.44365 L 366.89538,229.54326 z M 372.12477,232.48271 L 372.12477,225.32451 L 373.04872,225.32451 L 373.04872,231.63798 L 376.48743,231.63798 L 376.48743,232.48271 L 372.12477,232.48271 z M 376.83985,232.60478 L 378.86402,225.20243 L 379.54985,225.20243 L 377.53041,232.60478 L 376.83985,232.60478 z M 380.32614,232.48271 L 380.32614,225.32451 L 381.2501,225.32451 L 381.2501,228.26396 L 384.87927,228.26396 L 384.87927,225.32451 L 385.80322,225.32451 L 385.80322,232.48271 L 384.87927,232.48271 L 384.87927,229.10868 L 381.2501,229.10868 L 381.2501,232.48271 L 380.32614,232.48271 z M 387.36064,232.48271 L 387.36064,225.32451 L 390.45636,225.32451 C 391.0787,225.32451 391.55177,225.3888 391.87562,225.51738 C 392.19947,225.64596 392.45828,225.87301 392.65199,226.19853 C 392.8456,226.52406 392.94245,226.88376 392.94246,227.27763 C 392.94245,227.78545 392.78212,228.21351 392.46145,228.56181 C 392.14076,228.91012 391.64546,229.13147 390.97546,229.22587 C 391.21998,229.34632 391.40572,229.46513 391.5327,229.58232 C 391.80264,229.83623 392.0582,230.15361 392.29948,230.53447 L 393.514,232.48271 L 392.35193,232.48271 L 391.42798,230.99345 C 391.15803,230.56376 390.93583,230.23499 390.76113,230.00712 C 390.5865,229.77926 390.43014,229.61976 390.29205,229.52861 C 390.15395,229.43746 390.01342,229.37399 389.87054,229.33818 C 389.76573,229.31539 389.59433,229.304 389.35616,229.304 L 388.28461,229.304 L 388.28461,232.48271 L 387.36064,232.48271 z M 388.28461,228.48368 L 390.27061,228.48368 C 390.69293,228.48369 391.0231,228.43893 391.26123,228.34941 C 391.49941,228.25989 391.68037,228.11666 391.80418,227.91972 C 391.92799,227.72278 391.98992,227.50875 391.98993,227.27763 C 391.98992,226.93909 391.8701,226.66077 391.63037,226.44267 C 391.39062,226.22458 391.01198,226.11553 390.49443,226.11552 L 388.28461,226.11552 L 388.28461,228.48368 z"
           id="flowRoot2631" />
      </g>
    </g>
  </g>
</svg>
