<?xml version="1.0" encoding="utf-8"?>
<!-- Generator: Adobe Illustrator 15.0.0, SVG Export Plug-In . SVG Version: 6.00 Build 0)  -->
<!DOCTYPE svg PUBLIC "-//W3C//DTD SVG 1.1//EN" "http://www.w3.org/Graphics/SVG/1.1/DTD/svg11.dtd">
<svg version="1.1" id="Layer_1" xmlns="http://www.w3.org/2000/svg" xmlns:xlink="http://www.w3.org/1999/xlink" x="0px" y="0px"
	 width="360px" height="360px" viewBox="0 0 360 360" enable-background="new 0 0 360 360" xml:space="preserve">
<polygon fill="#010101" points="104.282,183.805 119.447,198.971 116.457,201.962 128.885,201.962 128.882,189.532 125.89,192.524 
	110.727,177.363 "/>
<polygon fill="#010101" points="214.816,196.781 229.982,181.615 226.99,178.624 239.419,178.624 239.415,191.054 236.423,188.061 
	221.26,203.224 "/>
<g>
	<title>Layer 1</title>
	<g id="g8171_9_">
		<path id="rect8129_13_" fill="#010101" d="M172.736,201.111l25.388,7.271c2.056,0.642,1.301,2.782-1.713,4.788l-41.614,27.754
			c-3.015,2.004-7.126,3.11-9.212,2.478l-25.359-7.272c-2.071-0.64-1.311-2.78,1.695-4.789l41.613-27.745
			C166.551,201.579,170.675,200.471,172.736,201.111z"/>
		<path id="rect8129_12_" fill="#010101" d="M173.771,205.273l23.98,6.867l0.529-3.602c2.055,0.644,2.181,6.789-0.834,8.792
			l-41.614,27.754c-3.011,2.005-7.129,3.115-9.213,2.481l-25.36-7.274c-2.07-0.641-3.559-5.825-0.55-7.833l43.859-24.702
			C167.588,205.742,171.708,204.632,173.771,205.273z"/>
		<radialGradient id="rect8131_1_" cx="171.606" cy="203.1279" r="22.8011" gradientUnits="userSpaceOnUse">
			<stop  offset="0" style="stop-color:#D1D3D4"/>
			<stop  offset="1" style="stop-color:#939598"/>
		</radialGradient>
		<path id="rect8131_9_" fill="url(#rect8131_1_)" d="M168.167,204.199l24.153,6.792c0.725,0.224,0.459,0.974-0.592,1.679
			l-16.906,11.267c-1.055,0.705-2.511,1.096-3.232,0.87l-24.145-6.789c-0.729-0.223-0.452-0.981,0.605-1.687l16.882-11.262
			C165.992,204.359,167.443,203.975,168.167,204.199z"/>
		<g id="g8133_9_">
			<path id="rect8135_9_" fill="#FFFFFF" d="M143.634,220.435l1.515,0.46c0.67,0.207,0.484,0.864-0.412,1.462l0,0
				c-0.893,0.596-2.16,0.914-2.836,0.713l-1.51-0.47c-0.67-0.21-0.496-0.856,0.404-1.459l0,0
				C141.692,220.543,142.962,220.227,143.634,220.435z"/>
			<path id="rect8137_9_" fill="#FFFFFF" d="M138.082,224.135l1.518,0.466c0.676,0.206,0.491,0.868-0.4,1.459l0,0
				c-0.908,0.599-2.177,0.914-2.858,0.71l-1.505-0.468c-0.672-0.211-0.493-0.863,0.408-1.457l0,0
				C136.148,224.243,137.417,223.925,138.082,224.135z"/>
			<path id="rect8139_9_" fill="#FFFFFF" d="M132.526,227.842l1.514,0.461c0.669,0.207,0.502,0.86-0.4,1.458l0,0
				c-0.897,0.598-2.177,0.92-2.851,0.712l-1.508-0.465c-0.66-0.215-0.498-0.86,0.407-1.464l0,0
				C130.593,227.947,131.858,227.624,132.526,227.842z"/>
			<path id="rect8141_9_" fill="#FFFFFF" d="M126.975,231.541l1.52,0.462c0.663,0.211,0.491,0.86-0.4,1.457l0,0
				c-0.9,0.596-2.181,0.916-2.85,0.712l-1.508-0.464c-0.677-0.209-0.493-0.861,0.402-1.461l0,0
				C125.034,231.649,126.304,231.327,126.975,231.541z"/>
		</g>
		<g id="g8143_15_">
			<path id="rect8145_15_" fill="#FFFFFF" d="M149.041,222.097l1.51,0.461c0.669,0.207,0.491,0.858-0.388,1.464l0,0
				c-0.915,0.594-2.194,0.914-2.871,0.706l-1.5-0.471c-0.678-0.204-0.512-0.854,0.399-1.45l0,0
				C147.093,222.205,148.364,221.887,149.041,222.097z"/>
			<path id="rect8147_15_" fill="#FFFFFF" d="M143.489,225.796l1.512,0.463c0.675,0.21,0.491,0.86-0.41,1.466l0,0
				c-0.898,0.597-2.167,0.91-2.848,0.7l-1.505-0.466c-0.669-0.2-0.499-0.857,0.403-1.455l0,0
				C141.53,225.906,142.819,225.586,143.489,225.796z"/>
			<path id="rect8149_15_" fill="#FFFFFF" d="M137.932,229.503l1.501,0.458c0.682,0.206,0.505,0.862-0.396,1.461l0,0
				c-0.891,0.602-2.167,0.914-2.838,0.707l-1.511-0.465c-0.681-0.206-0.495-0.861,0.405-1.46l0,0
				C135.988,229.603,137.265,229.29,137.932,229.503z"/>
			<path id="rect8151_15_" fill="#FFFFFF" d="M132.387,233.201l1.51,0.464c0.67,0.209,0.486,0.858-0.419,1.463l0,0
				c-0.893,0.598-2.158,0.914-2.836,0.701l-1.513-0.459c-0.672-0.205-0.488-0.865,0.403-1.457l0,0
				C130.434,233.309,131.708,232.994,132.387,233.201z"/>
		</g>
		<g id="g8153_15_">
			<path id="rect8155_15_" fill="#FFFFFF" d="M154.433,223.752l1.51,0.468c0.676,0.207,0.496,0.861-0.398,1.463l0,0
				c-0.893,0.596-2.17,0.91-2.844,0.707l-1.513-0.465c-0.676-0.206-0.497-0.867,0.412-1.463l0,0
				C152.492,223.864,153.774,223.548,154.433,223.752z"/>
			<path id="rect8157_15_" fill="#FFFFFF" d="M148.889,227.454l1.505,0.464c0.671,0.211,0.5,0.867-0.4,1.465l0,0
				c-0.9,0.596-2.174,0.915-2.839,0.701l-1.527-0.456c-0.664-0.21-0.483-0.858,0.413-1.461l0,0
				C146.935,227.569,148.212,227.249,148.889,227.454z"/>
			<path id="rect8159_15_" fill="#FFFFFF" d="M143.327,231.165l1.518,0.461c0.671,0.21,0.495,0.859-0.405,1.457l0,0
				c-0.9,0.598-2.175,0.918-2.847,0.708l-1.513-0.463c-0.676-0.206-0.492-0.862,0.4-1.458l0,0
				C141.391,231.266,142.67,230.951,143.327,231.165z"/>
			<path id="rect8161_15_" fill="#FFFFFF" d="M137.772,234.867l1.524,0.459c0.669,0.208,0.488,0.864-0.408,1.46l0,0
				c-0.89,0.6-2.169,0.912-2.853,0.71l-1.509-0.461c-0.668-0.214-0.482-0.87,0.403-1.46l0,0
				C135.833,234.976,137.104,234.65,137.772,234.867z"/>
		</g>
		<g id="g8143_14_">
			<path id="rect8145_14_" fill="#FFFFFF" d="M160.388,225.396l1.505,0.461c0.684,0.206,0.505,0.862-0.4,1.464l0,0
				c-0.893,0.596-2.172,0.914-2.854,0.706l-1.498-0.468c-0.684-0.206-0.502-0.857,0.398-1.458l0,0
				C158.444,225.501,159.709,225.194,160.388,225.396z"/>
			<path id="rect8147_14_" fill="#FFFFFF" d="M154.841,229.097l1.497,0.463c0.682,0.215,0.498,0.865-0.395,1.46l0,0
				c-0.905,0.606-2.183,0.916-2.852,0.711l-1.514-0.465c-0.665-0.208-0.484-0.86,0.412-1.459l0,0
				C152.895,229.212,154.169,228.891,154.841,229.097z"/>
			<path id="rect8149_14_" fill="#FFFFFF" d="M149.293,232.8l1.506,0.465c0.671,0.207,0.483,0.865-0.406,1.46l0,0
				c-0.907,0.6-2.17,0.914-2.855,0.708l-1.503-0.465c-0.676-0.208-0.504-0.858,0.396-1.458l0,0
				C147.335,232.908,148.605,232.595,149.293,232.8z"/>
			<path id="rect8151_14_" fill="#FFFFFF" d="M143.734,236.501l1.513,0.464c0.668,0.207,0.49,0.858-0.411,1.465l0,0
				c-0.897,0.596-2.181,0.915-2.85,0.705l-1.506-0.461c-0.677-0.21-0.496-0.865,0.4-1.458l0,0
				C141.783,236.611,143.051,236.302,143.734,236.501z"/>
		</g>
		<g id="g8153_14_">
			<path id="rect8155_14_" fill="#FFFFFF" d="M165.79,227.057l1.508,0.463c0.672,0.211,0.486,0.867-0.393,1.459l0,0
				c-0.903,0.598-2.179,0.917-2.863,0.711l-1.508-0.459c-0.669-0.212-0.491-0.87,0.413-1.464l0,0
				C163.842,227.167,165.113,226.849,165.79,227.057z"/>
			<path id="rect8157_14_" fill="#FFFFFF" d="M160.236,230.761l1.507,0.466c0.674,0.205,0.493,0.862-0.41,1.458l0,0
				c-0.894,0.598-2.17,0.916-2.839,0.705l-1.503-0.464c-0.674-0.205-0.498-0.859,0.391-1.453l0,0
				C158.285,230.87,159.556,230.552,160.236,230.761z"/>
			<path id="rect8159_14_" fill="#FFFFFF" d="M154.677,234.462l1.507,0.467c0.679,0.209,0.501,0.857-0.399,1.46l0,0
				c-0.894,0.595-2.172,0.912-2.837,0.702l-1.519-0.464c-0.682-0.205-0.491-0.859,0.412-1.455l0,0
				C152.742,234.566,154.014,234.252,154.677,234.462z"/>
			<path id="rect8161_14_" fill="#FFFFFF" d="M149.126,238.17l1.506,0.466c0.681,0.199,0.498,0.858-0.398,1.453l0,0
				c-0.893,0.6-2.165,0.915-2.84,0.705l-1.506-0.459c-0.684-0.207-0.505-0.864,0.391-1.462l0,0
				C147.181,238.276,148.464,237.955,149.126,238.17z"/>
		</g>
	</g>
</g>
<g>
	<path fill="#010101" d="M73.779,136.922c-0.657,0.239-1.734,0.345-2.407,0.237L4.811,126.23c-0.671-0.111-0.683-0.393-0.026-0.633
		l39.219-14.334c0.658-0.24,1.735-0.348,2.406-0.237l66.562,10.929c0.673,0.108,0.684,0.393,0.026,0.632L73.779,136.922z"/>
	<path fill="#010101" d="M112.971,137.836l-22.775-3.738l-16.417,6c-0.657,0.238-1.734,0.347-2.407,0.237l-43.787-7.188
		l-22.801,8.332c-0.657,0.243-0.646,0.526,0.026,0.633l66.562,10.929c0.673,0.11,1.75,0.004,2.407-0.236l39.218-14.334
		C113.655,138.231,113.644,137.945,112.971,137.836z"/>
	<path fill="#010101" d="M112.971,153.72l-22.775-3.74l-16.417,6.002c-0.657,0.238-1.734,0.344-2.407,0.236l-43.787-7.19
		l-22.801,8.334c-0.657,0.241-0.646,0.523,0.026,0.633l66.562,10.929c0.673,0.11,1.75,0.002,2.407-0.237l39.218-14.335
		C113.655,154.112,113.644,153.829,112.971,153.72z"/>
</g>
<g>
	<path fill="#FFFFFF" d="M340.656,122.821c-0.164-0.262-0.438-0.512-0.795-0.738c-0.354-0.223-0.789-0.423-1.274-0.59
		c-0.485-0.166-1.021-0.301-1.58-0.392c-0.56-0.092-1.144-0.143-1.727-0.143h-89.655c-0.582,0-1.167,0.051-1.725,0.143
		c-0.56,0.091-1.097,0.226-1.58,0.392c-0.486,0.167-0.921,0.367-1.275,0.59c-0.357,0.227-0.632,0.477-0.797,0.738l-14.116,22.76
		c-0.298,0.485-0.422,0.95-0.385,1.378c0.006,0.065,0.015,0.13,0.028,0.193c-0.003-0.008-0.009-0.018-0.01-0.026
		c0.13,0.528,0.068,0.946,0.181,1.402c-0.002-0.006-0.004-0.012-0.008-0.018c0.165,0.664,0.492,4.199,0.657,4.863
		c0.017,0.065,0.038,0.128,0.062,0.192c0,0,0,0,0,0.001c0.068,0.279,0.139,0.557,0.208,0.837c0.016,0.063,0.036,0.126,0.061,0.19
		c0.008,0.02,0.017,0.038,0.023,0.055c0.013,0.026,0.021,0.053,0.033,0.081c0.01,0.018,0.021,0.033,0.029,0.051
		c0.011,0.02,0.022,0.041,0.035,0.061c0.024,0.044,0.052,0.085,0.081,0.127c0.012,0.015,0.021,0.033,0.033,0.048
		c0.005,0.006,0.009,0.013,0.013,0.018c0.04,0.052,0.081,0.102,0.126,0.151c0,0,0.001,0,0.003,0.002
		c0.006,0.005,0.012,0.01,0.016,0.017c0.038,0.037,0.075,0.076,0.115,0.113c0.009,0.008,0.02,0.014,0.028,0.023
		c0.019,0.017,0.038,0.033,0.059,0.05c0.042,0.034,0.085,0.069,0.129,0.102c0.023,0.016,0.043,0.033,0.067,0.048
		c0.015,0.01,0.025,0.02,0.042,0.03c0.034,0.024,0.07,0.047,0.109,0.071c0.011,0.007,0.022,0.013,0.034,0.02
		c0.011,0.006,0.021,0.012,0.03,0.018c0.018,0.008,0.034,0.018,0.049,0.028c0.038,0.021,0.08,0.042,0.122,0.064
		c0.018,0.008,0.035,0.018,0.054,0.026c0.004,0.001,0.009,0.006,0.015,0.009c0.005,0.002,0.011,0.002,0.014,0.006
		c0.016,0.007,0.028,0.014,0.041,0.02c0.035,0.017,0.069,0.031,0.104,0.045c0.034,0.017,0.068,0.029,0.104,0.046
		c0.005,0,0.009,0.001,0.013,0.003c0.005,0.002,0.008,0.004,0.014,0.005c0.028,0.012,0.054,0.022,0.083,0.032
		c0.037,0.016,0.073,0.028,0.111,0.042l-0.001-0.002l0,0l0.001,0.002c0.033,0.012,0.063,0.022,0.099,0.032
		c0,0.002,0.002,0.002,0.004,0.002c0.034,0.011,0.068,0.021,0.102,0.032c0.036,0.009,0.072,0.021,0.107,0.031
		c0.036,0.012,0.073,0.02,0.108,0.029c0.034,0.008,0.067,0.017,0.103,0.026c0.034,0.008,0.068,0.016,0.104,0.024
		s0.071,0.015,0.107,0.022c0.014,0.003,0.026,0.006,0.039,0.008c0,0.001,0,0.001,0.001,0.001c0.003,0,0.003,0,0.004,0
		c0.021,0.002,0.043,0.008,0.062,0.013c0.036,0.007,0.072,0.013,0.106,0.019c0.036,0.006,0.071,0.012,0.108,0.018
		c0.036,0.006,0.073,0.011,0.109,0.017c0.037,0.003,0.074,0.008,0.111,0.013c0.036,0.006,0.075,0.009,0.111,0.014
		c0.039,0.003,0.075,0.007,0.115,0.012c0.008,0,0.019,0.001,0.029,0.002c0.002,0,0.006,0,0.008,0
		c0.025,0.003,0.051,0.006,0.078,0.008c0.038,0.001,0.075,0.007,0.115,0.008c0.039,0.004,0.08,0.005,0.121,0.007
		c0.026,0.002,0.054,0.003,0.082,0.003c0.006,0.001,0.012,0.001,0.017,0.002c0.008,0,0.016,0,0.022,0
		c0.041,0.001,0.081,0.003,0.124,0.003c0.041,0.002,0.083,0.002,0.126,0.004c0.012,0,0.023,0,0.036,0c0.012,0,0.025,0,0.037,0
		c0.013,0,0.024,0.002,0.037,0.002h118.885c0.033,0,0.065,0,0.099-0.002c0.031,0,0.063-0.001,0.095-0.001
		c0.033,0,0.064-0.001,0.096-0.002c0.032,0,0.063-0.002,0.095-0.003c0.013,0,0.024,0,0.039-0.001c0.004,0,0.009,0,0.014,0
		c0.029-0.001,0.062-0.002,0.089-0.005c0.048-0.002,0.097-0.007,0.144-0.008c0.045-0.003,0.092-0.009,0.138-0.012
		c0.009,0,0.017-0.001,0.022-0.003c0.008,0,0.012,0,0.02-0.001c0.031-0.002,0.062-0.006,0.096-0.008
		c0.055-0.006,0.111-0.013,0.167-0.021c0.035-0.002,0.068-0.007,0.104-0.013c0.008-0.001,0.016-0.002,0.023-0.002
		c0.013-0.001,0.025-0.003,0.038-0.006c0.052-0.009,0.106-0.018,0.159-0.026c0.055-0.009,0.105-0.018,0.157-0.029
		c0.084-0.016,0.167-0.034,0.249-0.053c0.022-0.006,0.045-0.012,0.068-0.018c0.025-0.007,0.054-0.014,0.083-0.021
		c0.026-0.007,0.056-0.015,0.085-0.022c0.051-0.014,0.1-0.031,0.149-0.046c0.021-0.006,0.042-0.012,0.061-0.018
		c0.005-0.003,0.01-0.003,0.015-0.006c0.073-0.023,0.145-0.049,0.215-0.077c0.011-0.002,0.021-0.008,0.03-0.011
		c0.032-0.014,0.062-0.027,0.094-0.04c0.036-0.015,0.077-0.031,0.114-0.045c0.019-0.012,0.037-0.021,0.057-0.03
		c0.017-0.007,0.03-0.013,0.046-0.019c0.015-0.009,0.031-0.018,0.046-0.027c0.023-0.012,0.048-0.021,0.071-0.033
		c0.027-0.017,0.055-0.034,0.084-0.05c0.028-0.015,0.054-0.029,0.08-0.046c0.012-0.008,0.026-0.014,0.039-0.021
		c0.043-0.028,0.082-0.056,0.123-0.084c0.017-0.012,0.035-0.021,0.05-0.033c0.006-0.003,0.01-0.006,0.015-0.009
		c0.051-0.039,0.102-0.077,0.151-0.118c0.005-0.006,0.011-0.012,0.017-0.018c0.014-0.012,0.029-0.026,0.043-0.038
		c0.026-0.023,0.054-0.047,0.076-0.068c0.017-0.017,0.03-0.034,0.047-0.048c0.007-0.008,0.019-0.019,0.028-0.027
		c0.007-0.008,0.01-0.015,0.019-0.022c0.009-0.012,0.02-0.022,0.028-0.032c0.033-0.038,0.061-0.074,0.09-0.113
		c0.005-0.007,0.011-0.013,0.017-0.019c0.001-0.002,0.001-0.002,0.002-0.004c0.021-0.029,0.039-0.058,0.061-0.088
		c0.018-0.027,0.037-0.057,0.052-0.086c0.003-0.002,0.004-0.006,0.005-0.007c0.001-0.004,0.001-0.007,0.005-0.01
		c0.012-0.022,0.025-0.05,0.039-0.073c0.015-0.031,0.028-0.062,0.041-0.09c0.002-0.01,0.006-0.018,0.011-0.028
		c0.001-0.001,0.002-0.004,0.004-0.007c0.003-0.008,0.006-0.018,0.01-0.025c0.006-0.019,0.014-0.039,0.02-0.06
		c0.007-0.02,0.013-0.039,0.019-0.062c0.006-0.019,0.012-0.038,0.017-0.058c0.068-0.278,0.137-0.556,0.204-0.832
		c0.003-0.006,0.006-0.012,0.01-0.019c0.008-0.019,0.014-0.039,0.02-0.058c0.009-0.021,0.015-0.041,0.019-0.062
		c0.008-0.021,0.012-0.041,0.017-0.061c0.164-0.664,0.432-4.121,0.597-4.786c-0.003,0.008-0.007,0.013-0.009,0.019
		c0.115-0.467,0.127-1.013,0.244-1.481c-0.003,0.01-0.007,0.018-0.01,0.027c-0.002,0-0.002,0.002-0.002,0.003
		c0.013-0.065,0.024-0.13,0.03-0.197c0.037-0.428-0.087-0.893-0.387-1.378L340.656,122.821z"/>
	<path d="M349.876,157.211H230.991c-0.004,0-0.122-0.001-0.128-0.001l-0.268-0.007c-0.027-0.001-0.079-0.005-0.107-0.01
		l-0.031,0.002l-0.122-0.008c0,0-0.117-0.008-0.119-0.008c-0.007,0-0.063-0.006-0.092-0.008c-0.011,0-0.021-0.002-0.032-0.003
		c-0.027-0.002-0.055-0.006-0.075-0.008l-0.201-0.022c-0.006-0.001-0.125-0.016-0.131-0.016l-0.09-0.014
		c-0.007,0-0.123-0.019-0.129-0.02l-0.125-0.022l0.001-0.005c-0.017,0-0.031-0.002-0.046-0.005c-0.039-0.006-0.08-0.015-0.119-0.023
		l-0.655-0.172c-0.008-0.002-0.019-0.006-0.026-0.008l-0.099-0.033c-0.003,0-0.006,0-0.007-0.001l-0.02-0.007
		c-0.005-0.002-0.011-0.003-0.016-0.006l-0.077-0.027c-0.004-0.002-0.094-0.037-0.1-0.038c-0.015-0.006-0.033-0.014-0.055-0.023
		l-0.249-0.105c-0.009-0.006-0.026-0.013-0.045-0.024c-0.014-0.006-0.028-0.012-0.038-0.018c-0.009-0.003-0.019-0.008-0.026-0.013
		c-0.023-0.013-0.074-0.037-0.079-0.039l-0.115-0.062c-0.008-0.005-0.066-0.04-0.076-0.044l0,0c0,0-0.032-0.02-0.063-0.04
		l-0.139-0.087c-0.015-0.007-0.058-0.041-0.071-0.05l-0.057-0.041c-0.074-0.055-0.133-0.101-0.189-0.149
		c-0.011-0.007-0.078-0.065-0.086-0.073c-0.086-0.079-0.135-0.126-0.18-0.172l0,0c-0.012-0.013-0.023-0.025-0.035-0.038l0,0
		c-0.065-0.07-0.124-0.14-0.18-0.213l0,0c-0.012-0.018-0.023-0.032-0.034-0.047c-0.013-0.019-0.023-0.034-0.031-0.046
		c-0.04-0.055-0.079-0.119-0.116-0.182c-0.012-0.019-0.055-0.103-0.065-0.123l-0.118-0.259c-0.033-0.086-0.063-0.182-0.089-0.281
		l-0.195-0.792c-0.028-0.078-0.054-0.154-0.072-0.237c-0.091-0.362-0.192-1.202-0.351-2.543c-0.107-0.912-0.239-2.043-0.308-2.322
		c-0.008-0.03-0.014-0.061-0.017-0.089c-0.054-0.25-0.068-0.482-0.081-0.691c-0.016-0.216-0.028-0.403-0.078-0.605
		c-0.013-0.056-0.02-0.111-0.023-0.166c-0.007-0.043-0.012-0.088-0.016-0.132c-0.054-0.629,0.118-1.264,0.511-1.899l14.116-22.759
		c0.227-0.368,0.586-0.709,1.064-1.011c0.405-0.257,0.895-0.485,1.452-0.675c0.536-0.185,1.113-0.328,1.719-0.428
		c0.625-0.104,1.253-0.153,1.863-0.153h89.655c0.612,0,1.238,0.05,1.864,0.152c0.605,0.102,1.184,0.245,1.718,0.428
		c0.558,0.191,1.048,0.418,1.453,0.677c0.478,0.301,0.836,0.642,1.065,1.011l14.114,22.758c0.394,0.635,0.566,1.27,0.512,1.898
		c-0.003,0.044-0.009,0.088-0.017,0.135c-0.002,0.052-0.01,0.107-0.023,0.162c-0.05,0.203-0.076,0.425-0.104,0.646
		c-0.031,0.248-0.064,0.493-0.114,0.723c-0.004,0.032-0.01,0.065-0.018,0.096c-0.068,0.276-0.186,1.392-0.278,2.285
		c-0.14,1.315-0.228,2.138-0.317,2.5c-0.004,0.013-0.023,0.087-0.027,0.1c-0.007,0.027-0.022,0.072-0.036,0.116
		c-0.004,0.006-0.007,0.017-0.013,0.029l-0.194,0.786c-0.003,0.017-0.024,0.092-0.029,0.108c-0.001,0.012-0.017,0.058-0.034,0.106
		c-0.004,0.01-0.062,0.161-0.068,0.171c-0.004,0.014-0.022,0.058-0.045,0.105c-0.007,0.014-0.034,0.066-0.044,0.081
		c-0.001,0.004-0.002,0.008-0.006,0.013c-0.014,0.026-0.027,0.052-0.042,0.076c-0.027,0.047-0.05,0.083-0.072,0.119l-0.052,0.073
		c-0.008,0.013-0.018,0.026-0.024,0.038c-0.008,0.009-0.049,0.061-0.056,0.071l-0.092,0.114c-0.009,0.009-0.026,0.028-0.043,0.046
		c-0.013,0.014-0.025,0.031-0.036,0.042c-0.018,0.021-0.04,0.04-0.062,0.059c-0.075,0.078-0.113,0.112-0.153,0.145
		c-0.01,0.008-0.063,0.057-0.074,0.066c-0.056,0.05-0.122,0.101-0.19,0.15c-0.009,0.007-0.061,0.042-0.07,0.048l-0.157,0.108
		c-0.017,0.008-0.037,0.02-0.058,0.032c-0.006,0.005-0.012,0.008-0.02,0.012l-0.104,0.058c-0.015,0.008-0.094,0.054-0.106,0.062
		c-0.002,0-0.119,0.06-0.122,0.06c-0.014,0.007-0.062,0.029-0.078,0.037l-0.296,0.126c-0.113,0.045-0.196,0.076-0.281,0.102
		c-0.021,0.007-0.042,0.015-0.062,0.019l-0.196,0.062c-0.003,0.002-0.094,0.025-0.1,0.027c-0.008,0.002-0.09,0.022-0.099,0.024
		c-0.001,0-0.08,0.02-0.081,0.021c-0.095,0.022-0.19,0.042-0.287,0.06l-0.262,0.048c-0.007,0.001-0.087,0.013-0.094,0.014
		c-0.093,0.013-0.146,0.021-0.199,0.025l-0.162,0.021c-0.008,0.001-0.123,0.012-0.133,0.012l-0.093,0.008
		c-0.008,0-0.086,0.006-0.093,0.007c0,0-0.143,0.011-0.144,0.011l-0.102-0.847l0.015,0.849c-0.015,0.002-0.083,0.004-0.1,0.004
		l-0.095-0.847l0.015-0.85c0.011-0.001,0.108-0.005,0.119-0.005l0.103,0.846l0.017-0.853l0.127,0.844v-0.663l-0.038-0.18
		c0.01-0.003,0.022-0.004,0.038-0.008v-0.002l0.046-0.005c0.01-0.001,0.016-0.001,0.022-0.001c0.001,0,0.118-0.012,0.119-0.012
		l0.143-0.018c0.006,0,0.117-0.014,0.123-0.015l0.297-0.052c0.088-0.018,0.158-0.032,0.228-0.049l0.347,0.789l-0.222-0.821
		l0.168-0.048c0.002-0.001,0.067-0.02,0.091-0.029c0.006,0,0.012-0.002,0.018-0.005c0.058-0.018,0.112-0.039,0.168-0.059
		c0.007-0.002,0.169-0.069,0.177-0.073c0.015-0.008,0.059-0.03,0.075-0.038l0.477,0.716l-0.366-0.769
		c0.004-0.002,0.079-0.046,0.084-0.05c0.003,0,0.111-0.061,0.113-0.062c0.003-0.002,0.078-0.059,0.08-0.06
		c0.046-0.032,0.079-0.06,0.114-0.088l0.094-0.084c0.011-0.012,0.024-0.029,0.041-0.045c0.006-0.004,0.009-0.01,0.013-0.013
		c0.017-0.018,0.032-0.036,0.044-0.047c0.001-0.002,0.007-0.012,0.016-0.02c0.006-0.008,0.009-0.015,0.016-0.023
		c0.006-0.012,0.047-0.074,0.071-0.112c0.007-0.012,0.013-0.026,0.019-0.034c0.007-0.01,0.036-0.081,0.039-0.093l0.224-0.893
		c0.011-0.045,0.025-0.09,0.043-0.132c0.089-0.343,0.204-1.449,0.296-2.339c0.127-1.188,0.21-1.978,0.294-2.392
		c0.003-0.034,0.011-0.071,0.02-0.105c0.049-0.203,0.074-0.423,0.104-0.644c0.029-0.236,0.06-0.473,0.108-0.697
		c0.001-0.024,0.007-0.052,0.011-0.078c0.008-0.031,0.014-0.062,0.017-0.096c0.022-0.256-0.066-0.543-0.262-0.858l-14.116-22.759
		c-0.053-0.085-0.188-0.256-0.527-0.47c-0.292-0.185-0.672-0.358-1.097-0.504c-0.444-0.154-0.931-0.274-1.442-0.357
		c-0.533-0.089-1.067-0.132-1.588-0.132h-89.655c-0.52,0-1.055,0.043-1.587,0.132c-0.511,0.083-0.996,0.204-1.441,0.357
		c-0.428,0.146-0.807,0.319-1.098,0.503c-0.339,0.216-0.476,0.386-0.526,0.467l-14.118,22.763c-0.193,0.315-0.282,0.603-0.26,0.856
		c0.001,0.032,0.008,0.067,0.014,0.103c0.005,0.021,0.009,0.043,0.011,0.064c0.062,0.291,0.078,0.543,0.092,0.771
		c0.014,0.19,0.025,0.353,0.061,0.5c0.009,0.031,0.015,0.063,0.019,0.092c0.083,0.407,0.18,1.208,0.321,2.421
		c0.107,0.914,0.239,2.051,0.311,2.331c0.006,0.028,0.015,0.059,0.026,0.088c0.017,0.039,0.03,0.081,0.038,0.124l0.204,0.819
		c0.007,0.029,0.019,0.06,0.03,0.092l-0.759,0.385l0.793-0.302l-0.062,0.059c0.02,0.009,0.037,0.018,0.055,0.029l0.029-0.029
		c0.016,0.018,0.03,0.034,0.045,0.051l0.002-0.003c0.004,0.006,0.019,0.026,0.031,0.044c0.018,0.025,0.039,0.048,0.059,0.072
		c0.013,0.012,0.025,0.025,0.037,0.038l0.196,0.17c0.005,0.002,0.1,0.072,0.104,0.075l0.069,0.042l-0.197,0.42
		c0.034-0.027,0.072-0.053,0.111-0.077l0.184-0.287l0.065,0.033l0,0c0.001,0,0.03,0.014,0.068,0.034
		c0.017,0.008,0.029,0.015,0.042,0.021l0.074,0.034l-0.014,0.053c0.02-0.02,0.049,0.001,0.074,0.004l0.009-0.027l-0.007,0.027
		c0.005,0.001,0.007,0.001,0.012,0.001l0.01-0.023c0.024,0.01,0.053,0.022,0.081,0.037l0.001-0.004l-0.001,0.004
		c0.001,0.001,0.003,0.002,0.005,0.002c0.032,0.006,0.062,0.016,0.09,0.025c-0.001,0.002,0,0,0.004,0.002
		c0.016,0.006,0.031,0.012,0.048,0.018c0.002,0.001,0.004,0.002,0.007,0.002c0.017,0.005,0.031,0.008,0.048,0.014
		c0.01,0.003,0.166,0.049,0.179,0.054l0.165,0.042c0.006,0,0.094,0.02,0.102,0.023c0.015,0.002,0.067,0.013,0.098,0.02
		c0.009,0,0.015,0.004,0.02,0.004l0.018,0.003c0.03,0.005,0.06,0.011,0.086,0.018l0.041,0.006v0.007
		c0.029,0.009,0.056,0.021,0.082,0.035l0.004-0.026l0.128,0.018c0.001,0,0.092,0.01,0.093,0.012c0.005,0,0.082,0.008,0.086,0.008
		l0.097,0.012l0.043,0.857l0.055-0.85l0.061,0.857l0.054-0.848l0.102,0.006c0.018,0,0.058,0.002,0.098,0.006l0.255,0.006
		c0.004,0,0.102,0.001,0.105,0.001l118.95-0.001c0.007,0,0.11,0,0.117,0l0.096,0.847l-0.001,0.853L349.876,157.211L349.876,157.211z
		 M227.662,154.462l-0.534,0.507l0.454-0.349L227.662,154.462L227.662,154.462z"/>
</g>
<g>
	<path fill="#58595B" d="M330.579,121.385h-84.632c-0.528,0-1.057,0.043-1.561,0.126c-0.506,0.078-0.987,0.197-1.421,0.343
		c-0.437,0.144-0.822,0.32-1.136,0.516c-0.316,0.196-0.556,0.413-0.695,0.642l-13.484,22.292c-0.251,0.414-0.345,0.813-0.296,1.18
		c0.049,0.369,0.241,0.704,0.562,0.986c0.321,0.286,0.77,0.519,1.326,0.678c0.56,0.163,1.224,0.254,1.975,0.254h112.249
		L330.579,121.385z"/>
	<path d="M339.078,146.782l-10.7-24.468c-0.036-0.085-0.113-0.167-0.217-0.242c-0.104-0.071-0.237-0.138-0.391-0.193
		c-0.151-0.056-0.324-0.1-0.508-0.132c-0.183-0.029-0.378-0.046-0.573-0.046h-78.884c-0.195,0-0.39,0.017-0.577,0.046
		c-0.186,0.032-0.362,0.077-0.521,0.132c-0.157,0.056-0.297,0.123-0.408,0.193c-0.113,0.074-0.195,0.157-0.242,0.242l-13.134,24.468
		c-0.088,0.164-0.116,0.319-0.091,0.459c0.023,0.143,0.102,0.271,0.224,0.378c0.123,0.109,0.292,0.196,0.498,0.256
		c0.207,0.061,0.453,0.095,0.729,0.095h103.313c0.276,0,0.524-0.034,0.738-0.095c0.214-0.061,0.391-0.147,0.525-0.256
		c0.134-0.107,0.223-0.236,0.261-0.378C339.161,147.101,339.149,146.946,339.078,146.782z"/>
	<radialGradient id="SVGID_1_" cx="267.7783" cy="124.2373" r="48.112" gradientUnits="userSpaceOnUse">
		<stop  offset="0" style="stop-color:#D1D3D4"/>
		<stop  offset="1" style="stop-color:#939598"/>
	</radialGradient>
	<path fill="url(#SVGID_1_)" d="M234.283,147.564c-0.236,0-0.45-0.026-0.631-0.08c-0.155-0.045-0.281-0.109-0.366-0.186
		c-0.065-0.055-0.103-0.113-0.112-0.177c-0.012-0.067,0.006-0.147,0.053-0.236l13.136-24.47c0.006-0.008,0.03-0.051,0.128-0.113
		c0.086-0.058,0.2-0.111,0.332-0.158c0.142-0.049,0.297-0.087,0.463-0.117c0.172-0.026,0.348-0.041,0.521-0.041h78.884
		c0.173,0,0.347,0.015,0.517,0.041c0.161,0.03,0.312,0.067,0.448,0.117c0.124,0.044,0.229,0.097,0.308,0.152
		c0.083,0.058,0.099,0.094,0.099,0.094l10.702,24.47c0.036,0.085,0.044,0.161,0.026,0.228c-0.02,0.069-0.068,0.138-0.147,0.202
		c-0.098,0.079-0.238,0.146-0.4,0.193c-0.189,0.053-0.406,0.08-0.645,0.08H234.283z"/>
	<g>
		<path fill="#6D6F71" d="M245.947,121.385c-0.528,0-1.057,0.043-1.561,0.126c-0.506,0.078-0.987,0.197-1.421,0.343
			c-0.437,0.144-0.822,0.32-1.136,0.516c-0.316,0.196-0.556,0.413-0.695,0.642c0.14-0.229,0.377-0.446,0.686-0.642
			s0.688-0.372,1.114-0.516c0.424-0.146,0.895-0.265,1.388-0.343c0.492-0.083,1.006-0.126,1.52-0.126H245.947z"/>
	</g>
	<g>
		<path fill="#6D6F71" d="M241.135,123.011c0.14-0.229,0.377-0.446,0.686-0.642s0.688-0.372,1.114-0.516
			c0.424-0.146,0.895-0.265,1.388-0.343c0.492-0.083,1.006-0.126,1.52-0.126c-0.514,0-1.027,0.043-1.52,0.126
			c-0.493,0.078-0.964,0.197-1.388,0.343c-0.426,0.144-0.806,0.32-1.114,0.516S241.274,122.782,241.135,123.011z"/>
	</g>
	<g>
		<path fill="#E7E8E9" d="M343.89,134.478c0.069,0.125,0.092,0.244,0.067,0.353s-0.093,0.208-0.201,0.29
			c-0.108,0.084-0.255,0.151-0.433,0.198c-0.178,0.045-0.39,0.072-0.624,0.072c0.027,0,0.056-0.002,0.083-0.002
			c0.028,0,0.054-0.001,0.08-0.002c0.028-0.004,0.054-0.004,0.079-0.006c0.025-0.001,0.051-0.005,0.075-0.007
			c0.187-0.022,0.349-0.06,0.484-0.113c0.137-0.053,0.246-0.123,0.324-0.2c0.078-0.079,0.126-0.17,0.139-0.269
			C343.976,134.694,343.951,134.589,343.89,134.478z"/>
	</g>
	<g>
		<path fill="#252424" d="M339.078,146.661c0.071,0.163,0.083,0.317,0.043,0.458c-0.038,0.143-0.127,0.27-0.261,0.38
			c-0.135,0.107-0.312,0.196-0.525,0.255c-0.214,0.061-0.462,0.097-0.738,0.097c0.276,0,0.524-0.036,0.738-0.097
			c0.214-0.059,0.391-0.147,0.525-0.255c0.134-0.11,0.223-0.237,0.261-0.38C339.161,146.978,339.149,146.823,339.078,146.661z"/>
	</g>
	<g>
		<linearGradient id="SVGID_2_" gradientUnits="userSpaceOnUse" x1="225.7402" y1="135.082" x2="355.167" y2="135.082">
			<stop  offset="0" style="stop-color:#939598"/>
			<stop  offset="1" style="stop-color:#000000"/>
		</linearGradient>
		<path fill="url(#SVGID_2_)" d="M335.28,120.959c0.583,0,1.167,0.051,1.727,0.143c0.56,0.091,1.095,0.226,1.58,0.392
			c0.485,0.167,0.921,0.367,1.274,0.59c0.356,0.227,0.631,0.477,0.795,0.738l14.117,22.76c0.3,0.485,0.424,0.95,0.387,1.378
			c-0.036,0.43-0.235,0.823-0.579,1.155c-0.347,0.333-0.835,0.607-1.452,0.796c-0.618,0.191-1.356,0.296-2.197,0.296H229.975
			c-0.84,0-1.581-0.105-2.198-0.296c-0.615-0.188-1.106-0.462-1.452-0.796c-0.343-0.332-0.54-0.725-0.577-1.155
			c-0.037-0.428,0.087-0.893,0.385-1.378l14.116-22.76c0.165-0.262,0.439-0.512,0.797-0.738c0.354-0.223,0.789-0.423,1.275-0.59
			c0.483-0.166,1.021-0.301,1.58-0.392c0.558-0.092,1.143-0.143,1.725-0.143H335.28z M353.268,145.303l-13.49-22.292
			c-0.138-0.229-0.376-0.446-0.684-0.642c-0.311-0.196-0.69-0.372-1.114-0.516c-0.424-0.146-0.896-0.265-1.389-0.343
			c-0.49-0.083-1.005-0.126-1.521-0.126h-4.491h-84.632c-0.54,0-1.074,0.043-1.582,0.126c-0.506,0.078-0.985,0.197-1.417,0.343
			c-0.434,0.144-0.816,0.32-1.126,0.516c-0.311,0.196-0.548,0.413-0.688,0.642l-13.484,22.292c-0.251,0.414-0.348,0.813-0.308,1.18
			c0.042,0.369,0.225,0.703,0.529,0.986c0.309,0.286,0.74,0.518,1.278,0.678c0.54,0.163,1.187,0.251,1.917,0.251H349.85
			c0.729,0,1.376-0.088,1.916-0.251c0.539-0.16,0.971-0.393,1.277-0.678c0.306-0.283,0.489-0.617,0.531-0.986
			C353.614,146.116,353.516,145.717,353.268,145.303"/>
	</g>
	<path fill="#010101" d="M354.581,148.114c-0.347,0.333-0.835,0.607-1.452,0.796c-0.618,0.191-1.356,0.296-2.197,0.296H229.975
		c-0.84,0-1.581-0.105-2.198-0.296c-0.615-0.188-1.106-0.462-1.452-0.796c-0.29-0.281-0.477-0.606-0.549-0.961
		c-0.003-0.008-0.009-0.018-0.01-0.026c0.13,0.528,0.068,0.946,0.181,1.402c-0.002-0.006-0.004-0.012-0.008-0.018
		c0.165,0.664,0.492,4.199,0.657,4.863c0.017,0.065,0.038,0.128,0.062,0.192c0,0,0,0,0,0.001c0.068,0.279,0.139,0.557,0.208,0.837
		c0.016,0.063,0.036,0.126,0.061,0.19c0.008,0.02,0.017,0.038,0.023,0.055c0.013,0.026,0.021,0.053,0.033,0.081
		c0.01,0.018,0.021,0.033,0.029,0.051c0.011,0.02,0.022,0.041,0.035,0.061c0.024,0.044,0.052,0.085,0.081,0.127
		c0.012,0.015,0.021,0.033,0.033,0.048c0.005,0.006,0.009,0.013,0.013,0.018c0.04,0.052,0.081,0.102,0.126,0.151
		c0,0,0.001,0,0.003,0.002c0.006,0.005,0.012,0.01,0.016,0.017c0.038,0.037,0.075,0.076,0.115,0.113
		c0.009,0.008,0.02,0.014,0.028,0.023c0.019,0.017,0.038,0.033,0.059,0.05c0.042,0.034,0.085,0.069,0.129,0.102
		c0.023,0.016,0.043,0.033,0.067,0.048c0.015,0.01,0.025,0.02,0.042,0.03c0.034,0.024,0.07,0.047,0.109,0.071
		c0.011,0.007,0.022,0.013,0.034,0.02c0.011,0.006,0.021,0.012,0.03,0.018c0.018,0.008,0.034,0.018,0.049,0.028
		c0.038,0.021,0.08,0.042,0.122,0.064c0.018,0.008,0.035,0.018,0.054,0.026c0.004,0.001,0.009,0.006,0.015,0.009
		c0.005,0.002,0.011,0.002,0.014,0.006c0.016,0.007,0.028,0.014,0.041,0.02c0.035,0.017,0.069,0.031,0.104,0.045
		c0.034,0.017,0.068,0.029,0.104,0.046c0.005,0,0.009,0.001,0.013,0.003c0.005,0.002,0.008,0.004,0.014,0.005
		c0.028,0.012,0.054,0.022,0.083,0.032c0.037,0.016,0.073,0.028,0.111,0.042l-0.001-0.002l0,0l0.001,0.002
		c0.033,0.012,0.063,0.022,0.099,0.032c0,0.002,0.002,0.002,0.004,0.002c0.034,0.011,0.068,0.021,0.102,0.032
		c0.036,0.009,0.072,0.021,0.107,0.031c0.036,0.012,0.073,0.02,0.108,0.029c0.034,0.008,0.067,0.017,0.103,0.026
		c0.034,0.008,0.068,0.016,0.104,0.024s0.071,0.015,0.107,0.022c0.014,0.003,0.026,0.006,0.039,0.008c0,0.001,0,0.001,0.001,0.001
		c0.003,0,0.003,0,0.004,0c0.021,0.002,0.043,0.008,0.062,0.013c0.036,0.007,0.072,0.013,0.106,0.019
		c0.036,0.006,0.071,0.012,0.108,0.018c0.036,0.006,0.073,0.011,0.109,0.017c0.037,0.003,0.074,0.008,0.111,0.013
		c0.036,0.006,0.075,0.009,0.111,0.014c0.039,0.003,0.075,0.007,0.115,0.012c0.008,0,0.019,0.001,0.029,0.002
		c0.002,0,0.006,0,0.008,0c0.025,0.003,0.051,0.006,0.078,0.008c0.038,0.001,0.075,0.007,0.115,0.008
		c0.039,0.004,0.08,0.005,0.121,0.007c0.026,0.002,0.054,0.003,0.082,0.003c0.006,0.001,0.012,0.001,0.017,0.002
		c0.008,0,0.016,0,0.022,0c0.041,0.001,0.081,0.003,0.124,0.003c0.041,0.002,0.083,0.002,0.126,0.004c0.012,0,0.023,0,0.036,0
		c0.012,0,0.025,0,0.037,0c0.013,0,0.024,0.002,0.037,0.002h118.885c0.033,0,0.065,0,0.099-0.002c0.031,0,0.063-0.001,0.095-0.001
		c0.033,0,0.064-0.001,0.096-0.002c0.032,0,0.063-0.002,0.095-0.003c0.013,0,0.024,0,0.039-0.001c0.004,0,0.009,0,0.014,0
		c0.029-0.001,0.062-0.002,0.089-0.005c0.048-0.002,0.097-0.007,0.144-0.008c0.045-0.003,0.092-0.009,0.138-0.012
		c0.009,0,0.017-0.001,0.022-0.003c0.008,0,0.012,0,0.02-0.001c0.031-0.002,0.062-0.006,0.096-0.008
		c0.055-0.006,0.111-0.013,0.167-0.021c0.035-0.002,0.068-0.007,0.104-0.013c0.008-0.001,0.016-0.002,0.023-0.002
		c0.013-0.001,0.025-0.003,0.038-0.006c0.052-0.009,0.106-0.018,0.159-0.026c0.055-0.009,0.105-0.018,0.157-0.029
		c0.084-0.016,0.167-0.034,0.249-0.053c0.022-0.006,0.045-0.012,0.068-0.018c0.025-0.007,0.054-0.014,0.083-0.021
		c0.026-0.007,0.056-0.015,0.085-0.022c0.051-0.014,0.1-0.031,0.149-0.046c0.021-0.006,0.042-0.012,0.061-0.018
		c0.005-0.003,0.01-0.003,0.015-0.006c0.073-0.023,0.145-0.049,0.215-0.077c0.011-0.002,0.021-0.008,0.03-0.011
		c0.032-0.014,0.062-0.027,0.094-0.04c0.036-0.015,0.077-0.031,0.114-0.045c0.019-0.012,0.037-0.021,0.057-0.03
		c0.017-0.007,0.03-0.013,0.046-0.019c0.015-0.009,0.031-0.018,0.046-0.027c0.023-0.012,0.048-0.021,0.071-0.033
		c0.027-0.017,0.055-0.034,0.084-0.05c0.028-0.015,0.054-0.029,0.08-0.046c0.012-0.008,0.026-0.014,0.039-0.021
		c0.043-0.028,0.082-0.056,0.123-0.084c0.017-0.012,0.035-0.021,0.05-0.033c0.006-0.003,0.01-0.006,0.015-0.009
		c0.051-0.039,0.102-0.077,0.151-0.118c0.005-0.006,0.011-0.012,0.017-0.018c0.014-0.012,0.029-0.026,0.043-0.038
		c0.026-0.023,0.054-0.047,0.076-0.068c0.017-0.017,0.03-0.034,0.047-0.048c0.007-0.008,0.019-0.019,0.028-0.027
		c0.007-0.008,0.01-0.015,0.019-0.022c0.009-0.012,0.02-0.022,0.028-0.032c0.033-0.038,0.061-0.074,0.09-0.113
		c0.005-0.007,0.011-0.013,0.017-0.019c0.001-0.002,0.001-0.002,0.002-0.004c0.021-0.029,0.039-0.058,0.061-0.088
		c0.018-0.027,0.037-0.057,0.052-0.086c0.003-0.002,0.004-0.006,0.005-0.007c0.001-0.004,0.001-0.007,0.005-0.01
		c0.012-0.022,0.025-0.05,0.039-0.073c0.015-0.031,0.028-0.062,0.041-0.09c0.002-0.01,0.006-0.018,0.011-0.028
		c0.001-0.001,0.002-0.004,0.004-0.007c0.003-0.008,0.006-0.018,0.01-0.025c0.006-0.019,0.014-0.039,0.02-0.06
		c0.007-0.02,0.013-0.039,0.019-0.062c0.006-0.019,0.012-0.038,0.017-0.058c0.068-0.278,0.137-0.556,0.204-0.832
		c0.003-0.006,0.006-0.012,0.01-0.019c0.008-0.019,0.014-0.039,0.02-0.058c0.009-0.021,0.015-0.041,0.019-0.062
		c0.008-0.021,0.012-0.041,0.017-0.061c0.164-0.664,0.432-4.121,0.597-4.786c-0.003,0.008-0.007,0.013-0.009,0.019
		c0.115-0.467,0.127-1.013,0.244-1.481c-0.003,0.01-0.007,0.018-0.01,0.027C355.059,147.506,354.871,147.832,354.581,148.114z"/>
	<g>
		<path fill="#6D6F71" d="M227.65,145.303c-0.251,0.414-0.345,0.813-0.296,1.18c0.049,0.369,0.241,0.703,0.562,0.986
			c0.321,0.286,0.77,0.518,1.326,0.678c0.56,0.163,1.224,0.251,1.975,0.251c-0.751,0-1.415-0.088-1.975-0.251
			c-0.557-0.16-1.005-0.393-1.326-0.678c-0.32-0.283-0.513-0.617-0.562-0.986C227.306,146.116,227.399,145.717,227.65,145.303z"/>
	</g>
	<g>
		<path fill="#414142" d="M227.65,145.303c-0.251,0.414-0.348,0.813-0.308,1.18c0.042,0.369,0.225,0.703,0.529,0.986
			c0.309,0.286,0.74,0.518,1.278,0.678c0.54,0.163,1.187,0.251,1.917,0.251c-0.73,0-1.377-0.088-1.917-0.251
			c-0.538-0.16-0.97-0.393-1.278-0.678c-0.305-0.283-0.487-0.617-0.529-0.986C227.303,146.116,227.399,145.717,227.65,145.303z"/>
	</g>
	<g>
		<path fill="#6D6F71" d="M227.65,145.303c-0.251,0.414-0.345,0.813-0.296,1.18c0.049,0.369,0.241,0.703,0.562,0.986
			c0.321,0.286,0.77,0.518,1.326,0.678c0.56,0.163,1.224,0.251,1.975,0.251h-0.149c-0.73,0-1.377-0.088-1.917-0.251
			c-0.538-0.16-0.97-0.393-1.278-0.678c-0.305-0.283-0.487-0.617-0.529-0.986C227.303,146.116,227.399,145.717,227.65,145.303z"/>
	</g>
	<g>
		<path fill="#6D6F71" d="M342.699,135.391c0.234,0,0.446-0.027,0.624-0.072c0.178-0.047,0.324-0.114,0.433-0.198
			c0.108-0.083,0.177-0.182,0.201-0.29s0.002-0.228-0.067-0.353c0.062,0.111,0.086,0.216,0.074,0.312
			c-0.013,0.099-0.061,0.19-0.139,0.269c-0.078,0.078-0.188,0.147-0.324,0.2c-0.136,0.053-0.298,0.091-0.484,0.113
			c-0.024,0.002-0.05,0.006-0.075,0.007c-0.025,0.002-0.051,0.002-0.079,0.006c-0.026,0.001-0.052,0.002-0.08,0.002
			C342.755,135.388,342.727,135.391,342.699,135.391z"/>
	</g>
	<g>
		<path fill="#6D6F71" d="M335.07,121.385c0.516,0,1.03,0.043,1.521,0.126c0.493,0.078,0.965,0.197,1.389,0.343
			c0.424,0.144,0.804,0.32,1.114,0.516c0.308,0.196,0.546,0.413,0.684,0.642l13.49,22.292c0.248,0.414,0.347,0.813,0.307,1.18
			c-0.042,0.369-0.226,0.703-0.531,0.986c-0.307,0.286-0.738,0.518-1.277,0.678c-0.54,0.163-1.187,0.251-1.916,0.251h-6.384
			l-12.887-27.013H335.07z M338.272,130.173l2.241,4.305c0.066,0.125,0.176,0.244,0.317,0.353c0.143,0.108,0.319,0.208,0.517,0.29
			c0.198,0.084,0.418,0.151,0.646,0.198c0.229,0.045,0.468,0.072,0.705,0.072c0.234,0,0.446-0.027,0.624-0.072
			c0.178-0.047,0.324-0.114,0.433-0.198c0.108-0.083,0.177-0.182,0.201-0.29s0.002-0.228-0.067-0.353l-2.45-4.305
			c-0.062-0.11-0.165-0.213-0.297-0.308c-0.134-0.092-0.295-0.177-0.478-0.25c-0.182-0.068-0.383-0.126-0.591-0.165
			c-0.212-0.039-0.429-0.06-0.644-0.06c-0.216,0-0.411,0.021-0.576,0.06c-0.169,0.039-0.306,0.097-0.412,0.165
			c-0.104,0.073-0.175,0.158-0.205,0.25C338.205,129.959,338.216,130.063,338.272,130.173"/>
	</g>
</g>
</svg>
